<?xml version="1.0" encoding="UTF-8" standalone="no"?>
<svg
   xmlns:dc="http://purl.org/dc/elements/1.1/"
   xmlns:cc="http://creativecommons.org/ns#"
   xmlns:rdf="http://www.w3.org/1999/02/22-rdf-syntax-ns#"
   xmlns:svg="http://www.w3.org/2000/svg"
   xmlns="http://www.w3.org/2000/svg"
   xmlns:sodipodi="http://sodipodi.sourceforge.net/DTD/sodipodi-0.dtd"
   xmlns:inkscape="http://www.inkscape.org/namespaces/inkscape"
   width="500.11099"
   height="72.468353"
   viewBox="0 0 500.11099 72.468353"
   preserveAspectRatio="xMidYMidmeet"
   version="1.1"
   style="display:block"
   id="svg2"
   inkscape:version="0.91 r13725"
   sodipodi:docname="horizon.svg">
  <metadata
     id="metadata131">
    <rdf:RDF>
      <cc:Work
         rdf:about="">
        <dc:format>image/svg+xml</dc:format>
        <dc:type
           rdf:resource="http://purl.org/dc/dcmitype/StillImage" />
        <dc:title></dc:title>
      </cc:Work>
    </rdf:RDF>
  </metadata>
  <defs
     id="defs129" />
  <sodipodi:namedview
     pagecolor="#ffffff"
     bordercolor="#666666"
     borderopacity="1"
     objecttolerance="10"
     gridtolerance="10"
     guidetolerance="10"
     inkscape:pageopacity="0"
     inkscape:pageshadow="2"
     inkscape:window-width="1920"
     inkscape:window-height="1058"
     id="namedview127"
     showgrid="false"
     fit-margin-top="0"
     fit-margin-left="0"
     fit-margin-right="0"
     fit-margin-bottom="0"
     inkscape:zoom="1.7555556"
     inkscape:cx="196.36228"
     inkscape:cy="-64.751997"
     inkscape:window-x="0"
     inkscape:window-y="0"
     inkscape:window-maximized="1"
     inkscape:current-layer="svg2" />
  <g
     id="g6"
     transform="matrix(1,0,0,1.8117088,-399.692,0)">
    <defs
       id="defs8">
      <clipPath
         id="d3_horizon_clip1">
        <rect
           y="0"
           x="0"
           id="rect11"
           height="40"
           width="900" />
      </clipPath>
    </defs>
    <g
       id="g13"
       clip-path="url(#d3_horizon_clip1)">
      <path
         inkscape:connector-curvature="0"
         id="path15"
         style="fill:#cad2b9"
         d="m 399.692,79.92 1.66733,-2.866667 c 1.66734,-2.866666 5.002,-8.6 8.3365,-21.92 3.3345,-13.32 6.66884,-34.226666 10.00317,-38.173333 3.33433,-3.946667 6.66867,9.066667 10.00283,21.546667 3.33417,12.48 6.66817,24.426666 10.00217,31.146666 3.334,6.72 6.668,8.213334 10.00217,4.493334 3.33416,-3.72 6.6685,-12.653334 10.00283,-12.56 3.33433,0.09333 6.66867,9.213333 10.003,10.906666 3.33433,1.693334 6.66867,-4.04 10.00283,-4.386666 C 483.049,67.76 486.383,72.8 489.71717,65.96 c 3.33416,-6.84 6.6685,-25.56 10.00266,-34.92 3.33417,-9.36 6.66817,-9.36 10.00217,-9.36 3.334,0 6.668,0 10.00183,0 3.33384,0 6.6675,0 10.0015,5.146667 3.334,5.146666 6.66834,15.44 10.00217,24.8 3.33383,9.36 6.66717,17.786666 10.00083,21.506666 3.33367,3.72 6.66767,2.733334 10.002,-10.24 3.33434,-12.973333 6.669,-37.933333 10.00334,-37.44 3.33433,0.493334 6.66833,26.44 10.0025,39.666667 3.33416,13.226667 6.6685,13.733333 10.0025,13.986667 C 593.07267,79.36 596.40633,79.36 599.74017,77.8 603.074,76.24 606.408,73.12 609.742,66.4 c 3.334,-6.72 6.668,-17.04 10.002,-18.253333 3.334,-1.213334 6.668,6.68 10.002,3.786666 C 633.08,49.04 636.414,35.36 639.74833,28.52 c 3.33434,-6.84 6.669,-6.84 10.00334,2.026667 3.33433,8.866666 6.66833,26.6 10.00233,33.44 3.334,6.84 6.668,2.786666 10.00183,3.28 3.33384,0.493333 6.6675,5.533333 10.0015,7.56 3.334,2.026666 6.66834,1.04 10.0025,-5.426667 3.33417,-6.466667 6.66817,-18.413333 10.00217,-22.133333 3.334,-3.72 6.668,0.786666 10.002,4.733333 3.334,3.946667 6.668,7.333333 10.002,11.053333 3.334,3.72 6.668,7.773334 10.00217,9.8 C 733.10233,74.88 736.43667,74.88 739.771,75.72 c 3.33433,0.84 6.66867,2.52 10.00283,3.013333 3.33417,0.493334 6.66817,-0.2 10.00217,-13.52 3.334,-13.32 6.668,-39.266666 10.00183,-52.24 C 773.11167,0 776.44533,0 779.77917,3.6133333 c 3.33383,3.6133334 6.66783,10.8399997 10.002,14.4533337 3.33416,3.613333 6.6685,3.613333 10.00266,11.666666 3.33417,8.053334 6.66817,24.16 10.002,33.52 3.33384,9.36 6.6675,11.973334 10.0015,6.813334 3.334,-5.16 6.66834,-18.093334 10.00267,-27.453334 3.33433,-9.36 6.66867,-15.146666 10.00267,-15.146666 3.334,0 6.66766,5.786666 10.0015,15.4 C 853.128,52.48 856.462,65.92 859.79567,65.92 c 3.33366,0 6.667,-13.44 10.0005,-26.666667 3.3335,-13.226666 6.66716,-26.24 10.001,-32.7466663 C 883.131,0 886.465,0 889.79933,12.48 c 3.33434,12.48 6.669,37.44 8.33634,49.92 l 1.66733,12.48 0,5.12 -1.66733,0 c -1.66734,0 -5.002,0 -8.33634,0 -3.33433,0 -6.66833,0 -10.00216,0 -3.33384,0 -6.6675,0 -10.001,0 -3.3335,0 -6.66684,0 -10.0005,0 -3.33367,0 -6.66767,0 -10.0015,0 -3.33384,0 -6.6675,0 -10.0015,0 -3.334,0 -6.66834,0 -10.00267,0 -3.33433,0 -6.66867,0 -10.00267,0 -3.334,0 -6.66766,0 -10.0015,0 -3.33383,0 -6.66783,0 -10.002,0 -3.33416,0 -6.6685,0 -10.00266,0 -3.33417,0 -6.66817,0 -10.002,0 -3.33384,0 -6.6675,0 -10.00134,0 -3.33383,0 -6.66783,0 -10.00183,0 -3.334,0 -6.668,0 -10.00217,0 -3.33416,0 -6.6685,0 -10.00283,0 -3.33433,0 -6.66867,0 -10.00283,0 -3.33417,0 -6.66817,0 -10.00217,0 -3.334,0 -6.668,0 -10.002,0 -3.334,0 -6.668,0 -10.002,0 -3.334,0 -6.668,0 -10.00217,0 -3.33416,0 -6.6685,0 -10.0025,0 -3.334,0 -6.66766,0 -10.0015,0 -3.33383,0 -6.66783,0 -10.00183,0 -3.334,0 -6.668,0 -10.00233,0 -3.33434,0 -6.669,0 -10.00334,0 -3.33433,0 -6.66833,0 -10.00233,0 -3.334,0 -6.668,0 -10.002,0 -3.334,0 -6.668,0 -10.002,0 -3.334,0 -6.668,0 -10.00183,0 -3.33384,0 -6.6675,0 -10.0015,0 -3.334,0 -6.66834,0 -10.0025,0 -3.33417,0 -6.66817,0 -10.0025,0 -3.33434,0 -6.669,0 -10.00334,0 -3.33433,0 -6.66833,0 -10.002,0 -3.33366,0 -6.667,0 -10.00083,0 -3.33383,0 -6.66817,0 -10.00217,0 -3.334,0 -6.66766,0 -10.0015,0 -3.33383,0 -6.66783,0 -10.00183,0 -3.334,0 -6.668,0 -10.00217,0 -3.33416,0 -6.6685,0 -10.00266,0 -3.33417,0 -6.66817,0 -10.00234,0 -3.33416,0 -6.6685,0 -10.00283,0 -3.33433,0 -6.66867,0 -10.003,0 -3.33433,0 -6.66867,0 -10.00283,0 -3.33417,0 -6.66817,0 -10.00217,0 -3.334,0 -6.668,0 -10.00217,0 -3.33416,0 -6.6685,0 -10.00283,0 -3.33433,0 -6.66867,0 -10.00317,0 -3.3345,0 -6.66916,0 -8.3365,0 l -1.66733,0 z"
         transform="translate(0,-80)" />
      <path
         inkscape:connector-curvature="0"
         id="path17"
         style="fill:#95a472"
         d="m 399.692,79.92 1.66733,-2.866667 c 1.66734,-2.866666 5.002,-8.6 8.3365,-21.92 3.3345,-13.32 6.66884,-34.226666 10.00317,-38.173333 3.33433,-3.946667 6.66867,9.066667 10.00283,21.546667 3.33417,12.48 6.66817,24.426666 10.00217,31.146666 3.334,6.72 6.668,8.213334 10.00217,4.493334 3.33416,-3.72 6.6685,-12.653334 10.00283,-12.56 3.33433,0.09333 6.66867,9.213333 10.003,10.906666 3.33433,1.693334 6.66867,-4.04 10.00283,-4.386666 C 483.049,67.76 486.383,72.8 489.71717,65.96 c 3.33416,-6.84 6.6685,-25.56 10.00266,-34.92 3.33417,-9.36 6.66817,-9.36 10.00217,-9.36 3.334,0 6.668,0 10.00183,0 3.33384,0 6.6675,0 10.0015,5.146667 3.334,5.146666 6.66834,15.44 10.00217,24.8 3.33383,9.36 6.66717,17.786666 10.00083,21.506666 3.33367,3.72 6.66767,2.733334 10.002,-10.24 3.33434,-12.973333 6.669,-37.933333 10.00334,-37.44 3.33433,0.493334 6.66833,26.44 10.0025,39.666667 3.33416,13.226667 6.6685,13.733333 10.0025,13.986667 C 593.07267,79.36 596.40633,79.36 599.74017,77.8 603.074,76.24 606.408,73.12 609.742,66.4 c 3.334,-6.72 6.668,-17.04 10.002,-18.253333 3.334,-1.213334 6.668,6.68 10.002,3.786666 C 633.08,49.04 636.414,35.36 639.74833,28.52 c 3.33434,-6.84 6.669,-6.84 10.00334,2.026667 3.33433,8.866666 6.66833,26.6 10.00233,33.44 3.334,6.84 6.668,2.786666 10.00183,3.28 3.33384,0.493333 6.6675,5.533333 10.0015,7.56 3.334,2.026666 6.66834,1.04 10.0025,-5.426667 3.33417,-6.466667 6.66817,-18.413333 10.00217,-22.133333 3.334,-3.72 6.668,0.786666 10.002,4.733333 3.334,3.946667 6.668,7.333333 10.002,11.053333 3.334,3.72 6.668,7.773334 10.00217,9.8 C 733.10233,74.88 736.43667,74.88 739.771,75.72 c 3.33433,0.84 6.66867,2.52 10.00283,3.013333 3.33417,0.493334 6.66817,-0.2 10.00217,-13.52 3.334,-13.32 6.668,-39.266666 10.00183,-52.24 C 773.11167,0 776.44533,0 779.77917,3.6133333 c 3.33383,3.6133334 6.66783,10.8399997 10.002,14.4533337 3.33416,3.613333 6.6685,3.613333 10.00266,11.666666 3.33417,8.053334 6.66817,24.16 10.002,33.52 3.33384,9.36 6.6675,11.973334 10.0015,6.813334 3.334,-5.16 6.66834,-18.093334 10.00267,-27.453334 3.33433,-9.36 6.66867,-15.146666 10.00267,-15.146666 3.334,0 6.66766,5.786666 10.0015,15.4 C 853.128,52.48 856.462,65.92 859.79567,65.92 c 3.33366,0 6.667,-13.44 10.0005,-26.666667 3.3335,-13.226666 6.66716,-26.24 10.001,-32.7466663 C 883.131,0 886.465,0 889.79933,12.48 c 3.33434,12.48 6.669,37.44 8.33634,49.92 l 1.66733,12.48 0,5.12 -1.66733,0 c -1.66734,0 -5.002,0 -8.33634,0 -3.33433,0 -6.66833,0 -10.00216,0 -3.33384,0 -6.6675,0 -10.001,0 -3.3335,0 -6.66684,0 -10.0005,0 -3.33367,0 -6.66767,0 -10.0015,0 -3.33384,0 -6.6675,0 -10.0015,0 -3.334,0 -6.66834,0 -10.00267,0 -3.33433,0 -6.66867,0 -10.00267,0 -3.334,0 -6.66766,0 -10.0015,0 -3.33383,0 -6.66783,0 -10.002,0 -3.33416,0 -6.6685,0 -10.00266,0 -3.33417,0 -6.66817,0 -10.002,0 -3.33384,0 -6.6675,0 -10.00134,0 -3.33383,0 -6.66783,0 -10.00183,0 -3.334,0 -6.668,0 -10.00217,0 -3.33416,0 -6.6685,0 -10.00283,0 -3.33433,0 -6.66867,0 -10.00283,0 -3.33417,0 -6.66817,0 -10.00217,0 -3.334,0 -6.668,0 -10.002,0 -3.334,0 -6.668,0 -10.002,0 -3.334,0 -6.668,0 -10.00217,0 -3.33416,0 -6.6685,0 -10.0025,0 -3.334,0 -6.66766,0 -10.0015,0 -3.33383,0 -6.66783,0 -10.00183,0 -3.334,0 -6.668,0 -10.00233,0 -3.33434,0 -6.669,0 -10.00334,0 -3.33433,0 -6.66833,0 -10.00233,0 -3.334,0 -6.668,0 -10.002,0 -3.334,0 -6.668,0 -10.002,0 -3.334,0 -6.668,0 -10.00183,0 -3.33384,0 -6.6675,0 -10.0015,0 -3.334,0 -6.66834,0 -10.0025,0 -3.33417,0 -6.66817,0 -10.0025,0 -3.33434,0 -6.669,0 -10.00334,0 -3.33433,0 -6.66833,0 -10.002,0 -3.33366,0 -6.667,0 -10.00083,0 -3.33383,0 -6.66817,0 -10.00217,0 -3.334,0 -6.66766,0 -10.0015,0 -3.33383,0 -6.66783,0 -10.00183,0 -3.334,0 -6.668,0 -10.00217,0 -3.33416,0 -6.6685,0 -10.00266,0 -3.33417,0 -6.66817,0 -10.00234,0 -3.33416,0 -6.6685,0 -10.00283,0 -3.33433,0 -6.66867,0 -10.003,0 -3.33433,0 -6.66867,0 -10.00283,0 -3.33417,0 -6.66817,0 -10.00217,0 -3.334,0 -6.668,0 -10.00217,0 -3.33416,0 -6.6685,0 -10.00283,0 -3.33433,0 -6.66867,0 -10.00317,0 -3.3345,0 -6.66916,0 -8.3365,0 l -1.66733,0 z"
         transform="translate(0,-120)" />
      <path
         inkscape:connector-curvature="0"
         id="path19"
         style="fill:#ded380"
         d="m 399.692,79.92 1.66733,-2.866667 c 1.66734,-2.866666 5.002,-8.6 8.3365,-21.92 3.3345,-13.32 6.66884,-34.226666 10.00317,-38.173333 3.33433,-3.946667 6.66867,9.066667 10.00283,21.546667 3.33417,12.48 6.66817,24.426666 10.00217,31.146666 3.334,6.72 6.668,8.213334 10.00217,4.493334 3.33416,-3.72 6.6685,-12.653334 10.00283,-12.56 3.33433,0.09333 6.66867,9.213333 10.003,10.906666 3.33433,1.693334 6.66867,-4.04 10.00283,-4.386666 C 483.049,67.76 486.383,72.8 489.71717,65.96 c 3.33416,-6.84 6.6685,-25.56 10.00266,-34.92 3.33417,-9.36 6.66817,-9.36 10.00217,-9.36 3.334,0 6.668,0 10.00183,0 3.33384,0 6.6675,0 10.0015,5.146667 3.334,5.146666 6.66834,15.44 10.00217,24.8 3.33383,9.36 6.66717,17.786666 10.00083,21.506666 3.33367,3.72 6.66767,2.733334 10.002,-10.24 3.33434,-12.973333 6.669,-37.933333 10.00334,-37.44 3.33433,0.493334 6.66833,26.44 10.0025,39.666667 3.33416,13.226667 6.6685,13.733333 10.0025,13.986667 C 593.07267,79.36 596.40633,79.36 599.74017,77.8 603.074,76.24 606.408,73.12 609.742,66.4 c 3.334,-6.72 6.668,-17.04 10.002,-18.253333 3.334,-1.213334 6.668,6.68 10.002,3.786666 C 633.08,49.04 636.414,35.36 639.74833,28.52 c 3.33434,-6.84 6.669,-6.84 10.00334,2.026667 3.33433,8.866666 6.66833,26.6 10.00233,33.44 3.334,6.84 6.668,2.786666 10.00183,3.28 3.33384,0.493333 6.6675,5.533333 10.0015,7.56 3.334,2.026666 6.66834,1.04 10.0025,-5.426667 3.33417,-6.466667 6.66817,-18.413333 10.00217,-22.133333 3.334,-3.72 6.668,0.786666 10.002,4.733333 3.334,3.946667 6.668,7.333333 10.002,11.053333 3.334,3.72 6.668,7.773334 10.00217,9.8 C 733.10233,74.88 736.43667,74.88 739.771,75.72 c 3.33433,0.84 6.66867,2.52 10.00283,3.013333 3.33417,0.493334 6.66817,-0.2 10.00217,-13.52 3.334,-13.32 6.668,-39.266666 10.00183,-52.24 C 773.11167,0 776.44533,0 779.77917,3.6133333 c 3.33383,3.6133334 6.66783,10.8399997 10.002,14.4533337 3.33416,3.613333 6.6685,3.613333 10.00266,11.666666 3.33417,8.053334 6.66817,24.16 10.002,33.52 3.33384,9.36 6.6675,11.973334 10.0015,6.813334 3.334,-5.16 6.66834,-18.093334 10.00267,-27.453334 3.33433,-9.36 6.66867,-15.146666 10.00267,-15.146666 3.334,0 6.66766,5.786666 10.0015,15.4 C 853.128,52.48 856.462,65.92 859.79567,65.92 c 3.33366,0 6.667,-13.44 10.0005,-26.666667 3.3335,-13.226666 6.66716,-26.24 10.001,-32.7466663 C 883.131,0 886.465,0 889.79933,12.48 c 3.33434,12.48 6.669,37.44 8.33634,49.92 l 1.66733,12.48 0,5.12 -1.66733,0 c -1.66734,0 -5.002,0 -8.33634,0 -3.33433,0 -6.66833,0 -10.00216,0 -3.33384,0 -6.6675,0 -10.001,0 -3.3335,0 -6.66684,0 -10.0005,0 -3.33367,0 -6.66767,0 -10.0015,0 -3.33384,0 -6.6675,0 -10.0015,0 -3.334,0 -6.66834,0 -10.00267,0 -3.33433,0 -6.66867,0 -10.00267,0 -3.334,0 -6.66766,0 -10.0015,0 -3.33383,0 -6.66783,0 -10.002,0 -3.33416,0 -6.6685,0 -10.00266,0 -3.33417,0 -6.66817,0 -10.002,0 -3.33384,0 -6.6675,0 -10.00134,0 -3.33383,0 -6.66783,0 -10.00183,0 -3.334,0 -6.668,0 -10.00217,0 -3.33416,0 -6.6685,0 -10.00283,0 -3.33433,0 -6.66867,0 -10.00283,0 -3.33417,0 -6.66817,0 -10.00217,0 -3.334,0 -6.668,0 -10.002,0 -3.334,0 -6.668,0 -10.002,0 -3.334,0 -6.668,0 -10.00217,0 -3.33416,0 -6.6685,0 -10.0025,0 -3.334,0 -6.66766,0 -10.0015,0 -3.33383,0 -6.66783,0 -10.00183,0 -3.334,0 -6.668,0 -10.00233,0 -3.33434,0 -6.669,0 -10.00334,0 -3.33433,0 -6.66833,0 -10.00233,0 -3.334,0 -6.668,0 -10.002,0 -3.334,0 -6.668,0 -10.002,0 -3.334,0 -6.668,0 -10.00183,0 -3.33384,0 -6.6675,0 -10.0015,0 -3.334,0 -6.66834,0 -10.0025,0 -3.33417,0 -6.66817,0 -10.0025,0 -3.33434,0 -6.669,0 -10.00334,0 -3.33433,0 -6.66833,0 -10.002,0 -3.33366,0 -6.667,0 -10.00083,0 -3.33383,0 -6.66817,0 -10.00217,0 -3.334,0 -6.66766,0 -10.0015,0 -3.33383,0 -6.66783,0 -10.00183,0 -3.334,0 -6.668,0 -10.00217,0 -3.33416,0 -6.6685,0 -10.00266,0 -3.33417,0 -6.66817,0 -10.00234,0 -3.33416,0 -6.6685,0 -10.00283,0 -3.33433,0 -6.66867,0 -10.003,0 -3.33433,0 -6.66867,0 -10.00283,0 -3.33417,0 -6.66817,0 -10.00217,0 -3.334,0 -6.668,0 -10.00217,0 -3.33416,0 -6.6685,0 -10.00283,0 -3.33433,0 -6.66867,0 -10.00317,0 -3.3345,0 -6.66916,0 -8.3365,0 l -1.66733,0 z"
         transform="translate(0,-40)" />
      <path
         inkscape:connector-curvature="0"
         id="path21"
         style="fill:#bca600"
         d="m 399.692,79.92 1.66733,-2.866667 c 1.66734,-2.866666 5.002,-8.6 8.3365,-21.92 3.3345,-13.32 6.66884,-34.226666 10.00317,-38.173333 3.33433,-3.946667 6.66867,9.066667 10.00283,21.546667 3.33417,12.48 6.66817,24.426666 10.00217,31.146666 3.334,6.72 6.668,8.213334 10.00217,4.493334 3.33416,-3.72 6.6685,-12.653334 10.00283,-12.56 3.33433,0.09333 6.66867,9.213333 10.003,10.906666 3.33433,1.693334 6.66867,-4.04 10.00283,-4.386666 C 483.049,67.76 486.383,72.8 489.71717,65.96 c 3.33416,-6.84 6.6685,-25.56 10.00266,-34.92 3.33417,-9.36 6.66817,-9.36 10.00217,-9.36 3.334,0 6.668,0 10.00183,0 3.33384,0 6.6675,0 10.0015,5.146667 3.334,5.146666 6.66834,15.44 10.00217,24.8 3.33383,9.36 6.66717,17.786666 10.00083,21.506666 3.33367,3.72 6.66767,2.733334 10.002,-10.24 3.33434,-12.973333 6.669,-37.933333 10.00334,-37.44 3.33433,0.493334 6.66833,26.44 10.0025,39.666667 3.33416,13.226667 6.6685,13.733333 10.0025,13.986667 C 593.07267,79.36 596.40633,79.36 599.74017,77.8 603.074,76.24 606.408,73.12 609.742,66.4 c 3.334,-6.72 6.668,-17.04 10.002,-18.253333 3.334,-1.213334 6.668,6.68 10.002,3.786666 C 633.08,49.04 636.414,35.36 639.74833,28.52 c 3.33434,-6.84 6.669,-6.84 10.00334,2.026667 3.33433,8.866666 6.66833,26.6 10.00233,33.44 3.334,6.84 6.668,2.786666 10.00183,3.28 3.33384,0.493333 6.6675,5.533333 10.0015,7.56 3.334,2.026666 6.66834,1.04 10.0025,-5.426667 3.33417,-6.466667 6.66817,-18.413333 10.00217,-22.133333 3.334,-3.72 6.668,0.786666 10.002,4.733333 3.334,3.946667 6.668,7.333333 10.002,11.053333 3.334,3.72 6.668,7.773334 10.00217,9.8 C 733.10233,74.88 736.43667,74.88 739.771,75.72 c 3.33433,0.84 6.66867,2.52 10.00283,3.013333 3.33417,0.493334 6.66817,-0.2 10.00217,-13.52 3.334,-13.32 6.668,-39.266666 10.00183,-52.24 C 773.11167,0 776.44533,0 779.77917,3.6133333 c 3.33383,3.6133334 6.66783,10.8399997 10.002,14.4533337 3.33416,3.613333 6.6685,3.613333 10.00266,11.666666 3.33417,8.053334 6.66817,24.16 10.002,33.52 3.33384,9.36 6.6675,11.973334 10.0015,6.813334 3.334,-5.16 6.66834,-18.093334 10.00267,-27.453334 3.33433,-9.36 6.66867,-15.146666 10.00267,-15.146666 3.334,0 6.66766,5.786666 10.0015,15.4 C 853.128,52.48 856.462,65.92 859.79567,65.92 c 3.33366,0 6.667,-13.44 10.0005,-26.666667 3.3335,-13.226666 6.66716,-26.24 10.001,-32.7466663 C 883.131,0 886.465,0 889.79933,12.48 c 3.33434,12.48 6.669,37.44 8.33634,49.92 l 1.66733,12.48 0,5.12 -1.66733,0 c -1.66734,0 -5.002,0 -8.33634,0 -3.33433,0 -6.66833,0 -10.00216,0 -3.33384,0 -6.6675,0 -10.001,0 -3.3335,0 -6.66684,0 -10.0005,0 -3.33367,0 -6.66767,0 -10.0015,0 -3.33384,0 -6.6675,0 -10.0015,0 -3.334,0 -6.66834,0 -10.00267,0 -3.33433,0 -6.66867,0 -10.00267,0 -3.334,0 -6.66766,0 -10.0015,0 -3.33383,0 -6.66783,0 -10.002,0 -3.33416,0 -6.6685,0 -10.00266,0 -3.33417,0 -6.66817,0 -10.002,0 -3.33384,0 -6.6675,0 -10.00134,0 -3.33383,0 -6.66783,0 -10.00183,0 -3.334,0 -6.668,0 -10.00217,0 -3.33416,0 -6.6685,0 -10.00283,0 -3.33433,0 -6.66867,0 -10.00283,0 -3.33417,0 -6.66817,0 -10.00217,0 -3.334,0 -6.668,0 -10.002,0 -3.334,0 -6.668,0 -10.002,0 -3.334,0 -6.668,0 -10.00217,0 -3.33416,0 -6.6685,0 -10.0025,0 -3.334,0 -6.66766,0 -10.0015,0 -3.33383,0 -6.66783,0 -10.00183,0 -3.334,0 -6.668,0 -10.00233,0 -3.33434,0 -6.669,0 -10.00334,0 -3.33433,0 -6.66833,0 -10.00233,0 -3.334,0 -6.668,0 -10.002,0 -3.334,0 -6.668,0 -10.002,0 -3.334,0 -6.668,0 -10.00183,0 -3.33384,0 -6.6675,0 -10.0015,0 -3.334,0 -6.66834,0 -10.0025,0 -3.33417,0 -6.66817,0 -10.0025,0 -3.33434,0 -6.669,0 -10.00334,0 -3.33433,0 -6.66833,0 -10.002,0 -3.33366,0 -6.667,0 -10.00083,0 -3.33383,0 -6.66817,0 -10.00217,0 -3.334,0 -6.66766,0 -10.0015,0 -3.33383,0 -6.66783,0 -10.00183,0 -3.334,0 -6.668,0 -10.00217,0 -3.33416,0 -6.6685,0 -10.00266,0 -3.33417,0 -6.66817,0 -10.00234,0 -3.33416,0 -6.6685,0 -10.00283,0 -3.33433,0 -6.66867,0 -10.003,0 -3.33433,0 -6.66867,0 -10.00283,0 -3.33417,0 -6.66817,0 -10.00217,0 -3.334,0 -6.668,0 -10.00217,0 -3.33416,0 -6.6685,0 -10.00283,0 -3.33433,0 -6.66867,0 -10.00317,0 -3.3345,0 -6.66916,0 -8.3365,0 l -1.66733,0 z" />
    </g>
  </g>
  <g
     id="g23"
     class="notes"
     transform="translate(-288.04643,29.556961)" />
  <g
     id="g119"
     style="display:none"
     transform="translate(611.75757,29.556961)"
     class="focus">
    <line
       x2="0"
       y1="0"
       x1="0"
       id="line121"
       style="fill:none;stroke:#666666;stroke-width:1px;stroke-dasharray:2"
       y2="60" />
    <text
       id="text123"
       style="font-size:10px;text-anchor:end;white-space:nowrap;display:block;fill:#666666"
       dy="1.4012985e-45"
       x="-9">64</text>
  </g>
  <rect
     clip-path="url(#clip-line)"
     class="overlay"
     width="900"
     height="60"
     style="fill:none"
     id="rect125"
     x="-288.04642"
     y="29.556961" />
</svg>
