<svg xmlns="http://www.w3.org/2000/svg" width="2048" height="2048" viewBox="0 0 2048 2048"><rect width="2048" height="2048" x="0" y="0" fill="#f5f5fa"/><g class="main-g" transform="scale(2) translate(-512, -537)"><rect width="100" height="100" x="1174" y="1174" style="fill:transparent;stroke:#1d2b47;stroke-width:4px"/><circle cx="1174" cy="1224" r="50" style="fill:transparent;stroke:#1d2b47;stroke-width:4px"/><rect width="100" height="100" x="1074" y="1024" style="fill:transparent;stroke:#1d2b47;stroke-width:4px"/><rect width="100" height="100" x="1024" y="924" style="fill:transparent;stroke:#1d2b47;stroke-width:4px"/><rect width="50" height="50" x="1099" y="999" style="fill:transparent;stroke:#1d2b47;stroke-width:4px"/><rect width="50" height="50" x="1049" y="999" style="fill:transparent;stroke:#1d2b47;stroke-width:4px"/><circle cx="1099" cy="999" r="6" style="fill:#1d2b47"/><circle cx="1099" cy="999" r="6" style="fill:#1d2b47"/><circle cx="1099" cy="1049" r="6" style="fill:#1d2b47"/><circle cx="1099" cy="1049" r="6" style="fill:#1d2b47"/><circle cx="1149" cy="1024" r="6" style="fill:#1d2b47"/><rect width="25" height="25" x="1086.5" y="1011.5" style="fill:transparent;stroke:#1d2b47;stroke-width:4px"/><circle cx="1124" cy="999" r="6" style="fill:#1d2b47"/><circle cx="1099" cy="1024" r="6" style="fill:#1d2b47"/><circle cx="1099" cy="1024" r="6" style="fill:#1d2b47"/><circle cx="1099" cy="1024" r="6" style="fill:#1d2b47"/><circle cx="1049" cy="1024" r="6" style="fill:#1d2b47"/><rect width="100" height="100" x="974" y="824" style="fill:transparent;stroke:#1d2b47;stroke-width:4px"/><rect width="100" height="100" x="1074" y="824" style="fill:transparent;stroke:#1d2b47;stroke-width:4px"/><rect width="50" height="50" x="1049" y="799" style="fill:transparent;stroke:#1d2b47;stroke-width:4px"/><rect width="50" height="50" x="1049" y="899" style="fill:transparent;stroke:#1d2b47;stroke-width:4px"/><circle cx="1049" cy="824" r="6" style="fill:#1d2b47"/><rect width="25" height="25" x="1061.5" y="836.5" style="fill:transparent;stroke:#1d2b47;stroke-width:4px"/><circle cx="1099" cy="824" r="6" style="fill:#1d2b47"/><circle cx="1074" cy="899" r="6" style="fill:#1d2b47"/><circle cx="1049" cy="924" r="6" style="fill:#1d2b47"/><circle cx="1099" cy="924" r="6" style="fill:#1d2b47"/><rect width="100" height="100" x="924" y="1024" style="fill:transparent;stroke:#1d2b47;stroke-width:4px"/><rect width="100" height="100" x="1074" y="1024" style="fill:transparent;stroke:#1d2b47;stroke-width:4px"/><rect width="100" height="100" x="924" y="1224" style="fill:transparent;stroke:#1d2b47;stroke-width:4px"/><rect width="100" height="100" x="1074" y="1224" style="fill:transparent;stroke:#1d2b47;stroke-width:4px"/><rect width="100" height="100" x="974" y="974" style="fill:transparent;stroke:#1d2b47;stroke-width:4px"/><circle cx="974" cy="1024" r="50" style="fill:transparent;stroke:#1d2b47;stroke-width:4px"/><rect width="100" height="100" x="1074" y="874" style="fill:transparent;stroke:#1d2b47;stroke-width:4px"/><rect width="100" height="100" x="1074" y="874" style="fill:transparent;stroke:#1d2b47;stroke-width:4px"/><rect width="50" height="50" x="1149" y="849" style="fill:transparent;stroke:#1d2b47;stroke-width:4px"/><rect width="50" height="50" x="1049" y="849" style="fill:transparent;stroke:#1d2b47;stroke-width:4px"/><rect width="50" height="50" x="1149" y="849" style="fill:transparent;stroke:#1d2b47;stroke-width:4px"/><rect width="50" height="50" x="1149" y="949" style="fill:transparent;stroke:#1d2b47;stroke-width:4px"/><rect width="50" height="50" x="1149" y="949" style="fill:transparent;stroke:#1d2b47;stroke-width:4px"/><rect width="50" height="50" x="1049" y="949" style="fill:transparent;stroke:#1d2b47;stroke-width:4px"/><circle cx="1199" cy="849" r="6" style="fill:#1d2b47"/><circle cx="1149" cy="849" r="6" style="fill:#1d2b47"/><circle cx="1199" cy="849" r="6" style="fill:#1d2b47"/><circle cx="1199" cy="899" r="6" style="fill:#1d2b47"/><circle cx="1199" cy="899" r="6" style="fill:#1d2b47"/><circle cx="1149" cy="899" r="6" style="fill:#1d2b47"/><circle cx="1199" cy="949" r="6" style="fill:#1d2b47"/><circle cx="1149" cy="949" r="6" style="fill:#1d2b47"/><rect width="25" height="25" x="1186.5" y="936.5" style="fill:transparent;stroke:#1d2b47;stroke-width:4px"/><rect width="25" height="25" x="1186.5" y="986.5" style="fill:transparent;stroke:#1d2b47;stroke-width:4px"/><rect width="25" height="25" x="1186.5" y="986.5" style="fill:transparent;stroke:#1d2b47;stroke-width:4px"/><circle cx="1149" cy="999" r="6" style="fill:#1d2b47"/><circle cx="1149" cy="874" r="6" style="fill:#1d2b47"/><circle cx="1174" cy="899" r="6" style="fill:#1d2b47"/><circle cx="1149" cy="874" r="6" style="fill:#1d2b47"/><rect width="25" height="25" x="1161.5" y="886.5" style="fill:transparent;stroke:#1d2b47;stroke-width:4px"/><circle cx="1099" cy="874" r="6" style="fill:#1d2b47"/><circle cx="1099" cy="874" r="6" style="fill:#1d2b47"/><circle cx="1149" cy="874" r="6" style="fill:#1d2b47"/><circle cx="1174" cy="899" r="6" style="fill:#1d2b47"/><circle cx="1149" cy="874" r="6" style="fill:#1d2b47"/><circle cx="1174" cy="899" r="6" style="fill:#1d2b47"/><rect width="25" height="25" x="1161.5" y="936.5" style="fill:transparent;stroke:#1d2b47;stroke-width:4px"/><circle cx="1149" cy="974" r="6" style="fill:#1d2b47"/><circle cx="1174" cy="949" r="6" style="fill:#1d2b47"/><circle cx="1149" cy="974" r="6" style="fill:#1d2b47"/><circle cx="1174" cy="949" r="6" style="fill:#1d2b47"/><circle cx="1149" cy="974" r="6" style="fill:#1d2b47"/><circle cx="1174" cy="949" r="6" style="fill:#1d2b47"/><circle cx="1149" cy="974" r="6" style="fill:#1d2b47"/><circle cx="1099" cy="974" r="6" style="fill:#1d2b47"/><circle cx="1099" cy="974" r="6" style="fill:#1d2b47"/><rect width="100" height="100" x="874" y="774" style="fill:transparent;stroke:#1d2b47;stroke-width:4px"/><rect width="100" height="100" x="774" y="924" style="fill:transparent;stroke:#1d2b47;stroke-width:4px"/><rect width="100" height="100" x="774" y="874" style="fill:transparent;stroke:#1d2b47;stroke-width:4px"/><rect width="100" height="100" x="874" y="874" style="fill:transparent;stroke:#1d2b47;stroke-width:4px"/><rect width="50" height="50" x="849" y="849" style="fill:transparent;stroke:#1d2b47;stroke-width:4px"/><rect width="50" height="50" x="849" y="949" style="fill:transparent;stroke:#1d2b47;stroke-width:4px"/><circle cx="849" cy="874" r="6" style="fill:#1d2b47"/><circle cx="874" cy="899" r="6" style="fill:#1d2b47"/><circle cx="899" cy="874" r="6" style="fill:#1d2b47"/><circle cx="874" cy="949" r="6" style="fill:#1d2b47"/><circle cx="849" cy="974" r="6" style="fill:#1d2b47"/><circle cx="899" cy="974" r="6" style="fill:#1d2b47"/><rect width="100" height="100" x="974" y="1074" style="fill:transparent;stroke:#1d2b47;stroke-width:4px"/><rect width="100" height="100" x="1024" y="1124" style="fill:transparent;stroke:#1d2b47;stroke-width:4px"/><rect width="50" height="50" x="1049" y="1099" style="fill:transparent;stroke:#1d2b47;stroke-width:4px"/><circle cx="1074" cy="1099" r="6" style="fill:#1d2b47"/><rect width="25" height="25" x="1061.5" y="1136.5" style="fill:transparent;stroke:#1d2b47;stroke-width:4px"/><rect width="25" height="25" x="1086.5" y="1111.5" style="fill:transparent;stroke:#1d2b47;stroke-width:4px"/><circle cx="1049" cy="1124" r="6" style="fill:#1d2b47"/></g></svg>