<svg xmlns="http://www.w3.org/2000/svg" width="2048" height="2048" viewBox="0 0 2048 2048"><rect width="2048" height="2048" x="0" y="0" fill="#f5f5fa"/><g class="main-g" transform="scale(2) translate(-387, -462)"><rect width="100" height="100" x="824" y="824" style="fill:transparent;stroke:#1d2b47;stroke-width:4px"/><rect width="100" height="100" x="724" y="824" style="fill:transparent;stroke:#1d2b47;stroke-width:4px"/><rect width="50" height="50" x="799" y="799" style="fill:transparent;stroke:#1d2b47;stroke-width:4px"/><rect width="50" height="50" x="799" y="799" style="fill:transparent;stroke:#1d2b47;stroke-width:4px"/><rect width="50" height="50" x="799" y="899" style="fill:transparent;stroke:#1d2b47;stroke-width:4px"/><rect width="50" height="50" x="799" y="899" style="fill:transparent;stroke:#1d2b47;stroke-width:4px"/><rect width="25" height="25" x="836.5" y="786.5" style="fill:transparent;stroke:#1d2b47;stroke-width:4px"/><rect width="25" height="25" x="786.5" y="786.5" style="fill:transparent;stroke:#1d2b47;stroke-width:4px"/><rect width="25" height="25" x="836.5" y="786.5" style="fill:transparent;stroke:#1d2b47;stroke-width:4px"/><rect width="25" height="25" x="836.5" y="836.5" style="fill:transparent;stroke:#1d2b47;stroke-width:4px"/><rect width="25" height="25" x="836.5" y="836.5" style="fill:transparent;stroke:#1d2b47;stroke-width:4px"/><rect width="25" height="25" x="786.5" y="836.5" style="fill:transparent;stroke:#1d2b47;stroke-width:4px"/><rect width="25" height="25" x="836.5" y="886.5" style="fill:transparent;stroke:#1d2b47;stroke-width:4px"/><rect width="25" height="25" x="786.5" y="886.5" style="fill:transparent;stroke:#1d2b47;stroke-width:4px"/><rect width="25" height="25" x="836.5" y="886.5" style="fill:transparent;stroke:#1d2b47;stroke-width:4px"/><rect width="25" height="25" x="836.5" y="936.5" style="fill:transparent;stroke:#1d2b47;stroke-width:4px"/><rect width="25" height="25" x="836.5" y="936.5" style="fill:transparent;stroke:#1d2b47;stroke-width:4px"/><circle cx="799" cy="949" r="12.5" style="fill:transparent;stroke:#1d2b47;stroke-width:4px"/><circle cx="849" cy="824" r="6" style="fill:#1d2b47"/><rect width="25" height="25" x="786.5" y="811.5" style="fill:transparent;stroke:#1d2b47;stroke-width:4px"/><circle cx="824" cy="849" r="6" style="fill:#1d2b47"/><rect width="25" height="25" x="836.5" y="811.5" style="fill:transparent;stroke:#1d2b47;stroke-width:4px"/><rect width="25" height="25" x="786.5" y="811.5" style="fill:transparent;stroke:#1d2b47;stroke-width:4px"/><rect width="25" height="25" x="811.5" y="836.5" style="fill:transparent;stroke:#1d2b47;stroke-width:4px"/><circle cx="849" cy="924" r="6" style="fill:#1d2b47"/><rect width="25" height="25" x="811.5" y="886.5" style="fill:transparent;stroke:#1d2b47;stroke-width:4px"/><circle cx="799" cy="924" r="6" style="fill:#1d2b47"/><rect width="25" height="25" x="836.5" y="911.5" style="fill:transparent;stroke:#1d2b47;stroke-width:4px"/><rect width="25" height="25" x="811.5" y="886.5" style="fill:transparent;stroke:#1d2b47;stroke-width:4px"/><rect width="25" height="25" x="786.5" y="911.5" style="fill:transparent;stroke:#1d2b47;stroke-width:4px"/><rect width="100" height="100" x="774" y="974" style="fill:transparent;stroke:#1d2b47;stroke-width:4px"/><rect width="100" height="100" x="774" y="1074" style="fill:transparent;stroke:#1d2b47;stroke-width:4px"/><rect width="50" height="50" x="849" y="1049" style="fill:transparent;stroke:#1d2b47;stroke-width:4px"/><rect width="50" height="50" x="749" y="1049" style="fill:transparent;stroke:#1d2b47;stroke-width:4px"/><rect width="50" height="50" x="849" y="1049" style="fill:transparent;stroke:#1d2b47;stroke-width:4px"/><rect width="25" height="25" x="886.5" y="1036.5" style="fill:transparent;stroke:#1d2b47;stroke-width:4px"/><rect width="25" height="25" x="836.5" y="1036.5" style="fill:transparent;stroke:#1d2b47;stroke-width:4px"/><rect width="25" height="25" x="886.5" y="1036.5" style="fill:transparent;stroke:#1d2b47;stroke-width:4px"/><rect width="25" height="25" x="886.5" y="1086.5" style="fill:transparent;stroke:#1d2b47;stroke-width:4px"/><rect width="25" height="25" x="886.5" y="1086.5" style="fill:transparent;stroke:#1d2b47;stroke-width:4px"/><rect width="25" height="25" x="836.5" y="1086.5" style="fill:transparent;stroke:#1d2b47;stroke-width:4px"/><rect width="25" height="25" x="861.5" y="1036.5" style="fill:transparent;stroke:#1d2b47;stroke-width:4px"/><rect width="25" height="25" x="836.5" y="1061.5" style="fill:transparent;stroke:#1d2b47;stroke-width:4px"/><rect width="25" height="25" x="836.5" y="1061.5" style="fill:transparent;stroke:#1d2b47;stroke-width:4px"/><rect width="25" height="25" x="861.5" y="1086.5" style="fill:transparent;stroke:#1d2b47;stroke-width:4px"/><rect width="25" height="25" x="786.5" y="1061.5" style="fill:transparent;stroke:#1d2b47;stroke-width:4px"/><rect width="25" height="25" x="786.5" y="1061.5" style="fill:transparent;stroke:#1d2b47;stroke-width:4px"/><circle cx="874" cy="1049" r="6" style="fill:#1d2b47"/><rect width="25" height="25" x="836.5" y="1061.5" style="fill:transparent;stroke:#1d2b47;stroke-width:4px"/><rect width="25" height="25" x="836.5" y="1061.5" style="fill:transparent;stroke:#1d2b47;stroke-width:4px"/><rect width="25" height="25" x="861.5" y="1086.5" style="fill:transparent;stroke:#1d2b47;stroke-width:4px"/><rect width="100" height="100" x="974" y="774" style="fill:transparent;stroke:#1d2b47;stroke-width:4px"/><rect width="100" height="100" x="874" y="774" style="fill:transparent;stroke:#1d2b47;stroke-width:4px"/><rect width="50" height="50" x="949" y="749" style="fill:transparent;stroke:#1d2b47;stroke-width:4px"/><rect width="50" height="50" x="949" y="749" style="fill:transparent;stroke:#1d2b47;stroke-width:4px"/><rect width="50" height="50" x="949" y="849" style="fill:transparent;stroke:#1d2b47;stroke-width:4px"/><rect width="50" height="50" x="949" y="849" style="fill:transparent;stroke:#1d2b47;stroke-width:4px"/><rect width="25" height="25" x="986.5" y="736.5" style="fill:transparent;stroke:#1d2b47;stroke-width:4px"/><rect width="25" height="25" x="936.5" y="736.5" style="fill:transparent;stroke:#1d2b47;stroke-width:4px"/><circle cx="999" cy="749" r="6" style="fill:#1d2b47"/><rect width="25" height="25" x="986.5" y="786.5" style="fill:transparent;stroke:#1d2b47;stroke-width:4px"/><rect width="25" height="25" x="986.5" y="786.5" style="fill:transparent;stroke:#1d2b47;stroke-width:4px"/><rect width="25" height="25" x="936.5" y="786.5" style="fill:transparent;stroke:#1d2b47;stroke-width:4px"/><rect width="25" height="25" x="986.5" y="836.5" style="fill:transparent;stroke:#1d2b47;stroke-width:4px"/><circle cx="949" cy="849" r="6" style="fill:#1d2b47"/><rect width="25" height="25" x="986.5" y="836.5" style="fill:transparent;stroke:#1d2b47;stroke-width:4px"/><rect width="25" height="25" x="986.5" y="886.5" style="fill:transparent;stroke:#1d2b47;stroke-width:4px"/><rect width="25" height="25" x="986.5" y="886.5" style="fill:transparent;stroke:#1d2b47;stroke-width:4px"/><circle cx="949" cy="899" r="6" style="fill:#1d2b47"/><rect width="25" height="25" x="986.5" y="761.5" style="fill:transparent;stroke:#1d2b47;stroke-width:4px"/><rect width="25" height="25" x="936.5" y="761.5" style="fill:transparent;stroke:#1d2b47;stroke-width:4px"/><rect width="25" height="25" x="961.5" y="786.5" style="fill:transparent;stroke:#1d2b47;stroke-width:4px"/><rect width="25" height="25" x="986.5" y="761.5" style="fill:transparent;stroke:#1d2b47;stroke-width:4px"/><rect width="25" height="25" x="936.5" y="761.5" style="fill:transparent;stroke:#1d2b47;stroke-width:4px"/><rect width="25" height="25" x="961.5" y="786.5" style="fill:transparent;stroke:#1d2b47;stroke-width:4px"/><rect width="25" height="25" x="986.5" y="861.5" style="fill:transparent;stroke:#1d2b47;stroke-width:4px"/><rect width="25" height="25" x="961.5" y="836.5" style="fill:transparent;stroke:#1d2b47;stroke-width:4px"/><rect width="25" height="25" x="936.5" y="861.5" style="fill:transparent;stroke:#1d2b47;stroke-width:4px"/><rect width="25" height="25" x="986.5" y="861.5" style="fill:transparent;stroke:#1d2b47;stroke-width:4px"/><rect width="25" height="25" x="961.5" y="836.5" style="fill:transparent;stroke:#1d2b47;stroke-width:4px"/><circle cx="949" cy="874" r="6" style="fill:#1d2b47"/><rect width="100" height="100" x="974" y="1074" style="fill:transparent;stroke:#1d2b47;stroke-width:4px"/><rect width="100" height="100" x="874" y="1074" style="fill:transparent;stroke:#1d2b47;stroke-width:4px"/><rect width="50" height="50" x="949" y="1049" style="fill:transparent;stroke:#1d2b47;stroke-width:4px"/><rect width="50" height="50" x="949" y="1049" style="fill:transparent;stroke:#1d2b47;stroke-width:4px"/><rect width="50" height="50" x="949" y="1149" style="fill:transparent;stroke:#1d2b47;stroke-width:4px"/><rect width="50" height="50" x="949" y="1149" style="fill:transparent;stroke:#1d2b47;stroke-width:4px"/><rect width="25" height="25" x="986.5" y="1036.5" style="fill:transparent;stroke:#1d2b47;stroke-width:4px"/><rect width="25" height="25" x="936.5" y="1036.5" style="fill:transparent;stroke:#1d2b47;stroke-width:4px"/><rect width="25" height="25" x="986.5" y="1036.5" style="fill:transparent;stroke:#1d2b47;stroke-width:4px"/><rect width="25" height="25" x="986.5" y="1086.5" style="fill:transparent;stroke:#1d2b47;stroke-width:4px"/><rect width="25" height="25" x="986.5" y="1086.5" style="fill:transparent;stroke:#1d2b47;stroke-width:4px"/><circle cx="949" cy="1099" r="6" style="fill:#1d2b47"/><rect width="25" height="25" x="986.5" y="1136.5" style="fill:transparent;stroke:#1d2b47;stroke-width:4px"/><rect width="25" height="25" x="936.5" y="1136.5" style="fill:transparent;stroke:#1d2b47;stroke-width:4px"/><rect width="25" height="25" x="986.5" y="1136.5" style="fill:transparent;stroke:#1d2b47;stroke-width:4px"/><rect width="25" height="25" x="986.5" y="1186.5" style="fill:transparent;stroke:#1d2b47;stroke-width:4px"/><rect width="25" height="25" x="986.5" y="1186.5" style="fill:transparent;stroke:#1d2b47;stroke-width:4px"/><rect width="25" height="25" x="936.5" y="1186.5" style="fill:transparent;stroke:#1d2b47;stroke-width:4px"/><rect width="25" height="25" x="986.5" y="1061.5" style="fill:transparent;stroke:#1d2b47;stroke-width:4px"/><rect width="25" height="25" x="936.5" y="1061.5" style="fill:transparent;stroke:#1d2b47;stroke-width:4px"/><rect width="25" height="25" x="961.5" y="1086.5" style="fill:transparent;stroke:#1d2b47;stroke-width:4px"/><rect width="25" height="25" x="986.5" y="1061.5" style="fill:transparent;stroke:#1d2b47;stroke-width:4px"/><rect width="25" height="25" x="936.5" y="1061.5" style="fill:transparent;stroke:#1d2b47;stroke-width:4px"/><rect width="25" height="25" x="961.5" y="1086.5" style="fill:transparent;stroke:#1d2b47;stroke-width:4px"/><rect width="25" height="25" x="986.5" y="1161.5" style="fill:transparent;stroke:#1d2b47;stroke-width:4px"/><rect width="25" height="25" x="961.5" y="1136.5" style="fill:transparent;stroke:#1d2b47;stroke-width:4px"/><rect width="25" height="25" x="936.5" y="1161.5" style="fill:transparent;stroke:#1d2b47;stroke-width:4px"/><rect width="25" height="25" x="986.5" y="1161.5" style="fill:transparent;stroke:#1d2b47;stroke-width:4px"/><rect width="25" height="25" x="961.5" y="1136.5" style="fill:transparent;stroke:#1d2b47;stroke-width:4px"/><rect width="25" height="25" x="936.5" y="1161.5" style="fill:transparent;stroke:#1d2b47;stroke-width:4px"/><rect width="100" height="100" x="974" y="924" style="fill:transparent;stroke:#1d2b47;stroke-width:4px"/><rect width="100" height="100" x="924" y="924" style="fill:transparent;stroke:#1d2b47;stroke-width:4px"/><rect width="50" height="50" x="949" y="899" style="fill:transparent;stroke:#1d2b47;stroke-width:4px"/><rect width="50" height="50" x="999" y="899" style="fill:transparent;stroke:#1d2b47;stroke-width:4px"/><rect width="50" height="50" x="999" y="999" style="fill:transparent;stroke:#1d2b47;stroke-width:4px"/><rect width="50" height="50" x="949" y="999" style="fill:transparent;stroke:#1d2b47;stroke-width:4px"/><rect width="25" height="25" x="986.5" y="886.5" style="fill:transparent;stroke:#1d2b47;stroke-width:4px"/><rect width="25" height="25" x="986.5" y="936.5" style="fill:transparent;stroke:#1d2b47;stroke-width:4px"/><rect width="25" height="25" x="986.5" y="986.5" style="fill:transparent;stroke:#1d2b47;stroke-width:4px"/><rect width="25" height="25" x="986.5" y="986.5" style="fill:transparent;stroke:#1d2b47;stroke-width:4px"/><rect width="25" height="25" x="986.5" y="1036.5" style="fill:transparent;stroke:#1d2b47;stroke-width:4px"/><rect width="25" height="25" x="986.5" y="1036.5" style="fill:transparent;stroke:#1d2b47;stroke-width:4px"/><rect width="25" height="25" x="986.5" y="911.5" style="fill:transparent;stroke:#1d2b47;stroke-width:4px"/><rect width="25" height="25" x="986.5" y="911.5" style="fill:transparent;stroke:#1d2b47;stroke-width:4px"/><rect width="25" height="25" x="936.5" y="911.5" style="fill:transparent;stroke:#1d2b47;stroke-width:4px"/><rect width="25" height="25" x="1036.5" y="911.5" style="fill:transparent;stroke:#1d2b47;stroke-width:4px"/><rect width="25" height="25" x="986.5" y="911.5" style="fill:transparent;stroke:#1d2b47;stroke-width:4px"/><rect width="25" height="25" x="986.5" y="911.5" style="fill:transparent;stroke:#1d2b47;stroke-width:4px"/><rect width="25" height="25" x="1011.5" y="936.5" style="fill:transparent;stroke:#1d2b47;stroke-width:4px"/><rect width="25" height="25" x="1036.5" y="1011.5" style="fill:transparent;stroke:#1d2b47;stroke-width:4px"/><rect width="25" height="25" x="986.5" y="1011.5" style="fill:transparent;stroke:#1d2b47;stroke-width:4px"/><rect width="25" height="25" x="1011.5" y="986.5" style="fill:transparent;stroke:#1d2b47;stroke-width:4px"/><rect width="25" height="25" x="986.5" y="1011.5" style="fill:transparent;stroke:#1d2b47;stroke-width:4px"/><rect width="25" height="25" x="986.5" y="1011.5" style="fill:transparent;stroke:#1d2b47;stroke-width:4px"/><rect width="25" height="25" x="986.5" y="1011.5" style="fill:transparent;stroke:#1d2b47;stroke-width:4px"/><rect width="25" height="25" x="936.5" y="1011.5" style="fill:transparent;stroke:#1d2b47;stroke-width:4px"/></g></svg>