<svg xmlns="http://www.w3.org/2000/svg" width="2048" height="2048" viewBox="0 0 2048 2048"><rect x="0" y="0" width="2048" height="2048" fill="#f5f5fa"/><g class="main-g" transform="scale(2) translate(-637, -469.5)"><rect x="974" y="674" width="200" height="200" style="fill: transparent; stroke: rgb(29, 43, 71); stroke-width: 5px;"/><rect x="974" y="724" width="200" height="200" style="fill: transparent; stroke: rgb(29, 43, 71); stroke-width: 5px;"/><circle cx="1174" cy="724" r="50" style="fill: transparent; stroke: rgb(29, 43, 71); stroke-width: 5px;"/><rect x="924" y="674" width="100" height="100" style="fill: transparent; stroke: rgb(29, 43, 71); stroke-width: 5px;"/><rect x="1124" y="824" width="100" height="100" style="fill: transparent; stroke: rgb(29, 43, 71); stroke-width: 5px;"/><circle cx="1024" cy="674" r="10" style="fill: rgb(29, 43, 71);"/><circle cx="1024" cy="724" r="10" style="fill: rgb(29, 43, 71);"/><rect x="1149" y="799" width="50" height="50" style="fill: transparent; stroke: rgb(29, 43, 71); stroke-width: 5px;"/><circle cx="1124" cy="874" r="10" style="fill: rgb(29, 43, 71);"/><circle cx="1174" cy="824" r="10" style="fill: rgb(29, 43, 71);"/><rect x="1149" y="899" width="50" height="50" style="fill: transparent; stroke: rgb(29, 43, 71); stroke-width: 5px;"/><circle cx="1124" cy="924" r="10" style="fill: rgb(29, 43, 71);"/><rect x="974" y="924" width="200" height="200" style="fill: transparent; stroke: rgb(29, 43, 71); stroke-width: 5px;"/><rect x="1024" y="874" width="200" height="200" style="fill: transparent; stroke: rgb(29, 43, 71); stroke-width: 5px;"/><rect x="1124" y="1024" width="100" height="100" style="fill: transparent; stroke: rgb(29, 43, 71); stroke-width: 5px;"/><circle cx="1174" cy="1024" r="10" style="fill: rgb(29, 43, 71);"/><circle cx="1174" cy="1124" r="10" style="fill: rgb(29, 43, 71);"/><rect x="1099" y="1099" width="50" height="50" style="fill: transparent; stroke: rgb(29, 43, 71); stroke-width: 5px;"/><rect x="1199" y="999" width="50" height="50" style="fill: transparent; stroke: rgb(29, 43, 71); stroke-width: 5px;"/><circle cx="1224" cy="1074" r="10" style="fill: rgb(29, 43, 71);"/><rect x="1099" y="1049" width="50" height="50" style="fill: transparent; stroke: rgb(29, 43, 71); stroke-width: 5px;"/><rect x="1174" y="1024" width="200" height="200" style="fill: transparent; stroke: rgb(29, 43, 71); stroke-width: 5px;"/><rect x="1074" y="1024" width="200" height="200" style="fill: transparent; stroke: rgb(29, 43, 71); stroke-width: 5px;"/><rect x="1124" y="974" width="100" height="100" style="fill: transparent; stroke: rgb(29, 43, 71); stroke-width: 5px;"/><rect x="1224" y="974" width="100" height="100" style="fill: transparent; stroke: rgb(29, 43, 71); stroke-width: 5px;"/><rect x="1224" y="1174" width="100" height="100" style="fill: transparent; stroke: rgb(29, 43, 71); stroke-width: 5px;"/><rect x="1124" y="1174" width="100" height="100" style="fill: transparent; stroke: rgb(29, 43, 71); stroke-width: 5px;"/><rect x="1199" y="949" width="50" height="50" style="fill: transparent; stroke: rgb(29, 43, 71); stroke-width: 5px;"/><circle cx="1224" cy="1074" r="10" style="fill: rgb(29, 43, 71);"/><circle cx="1224" cy="1174" r="10" style="fill: rgb(29, 43, 71);"/><circle cx="1224" cy="1174" r="10" style="fill: rgb(29, 43, 71);"/><rect x="1199" y="1249" width="50" height="50" style="fill: transparent; stroke: rgb(29, 43, 71); stroke-width: 5px;"/><rect x="1199" y="1249" width="50" height="50" style="fill: transparent; stroke: rgb(29, 43, 71); stroke-width: 5px;"/><rect x="1199" y="999" width="50" height="50" style="fill: transparent; stroke: rgb(29, 43, 71); stroke-width: 5px;"/><rect x="1199" y="999" width="50" height="50" style="fill: transparent; stroke: rgb(29, 43, 71); stroke-width: 5px;"/><circle cx="1124" cy="1024" r="10" style="fill: rgb(29, 43, 71);"/><circle cx="1324" cy="1024" r="25" style="fill: transparent; stroke: rgb(29, 43, 71); stroke-width: 5px;"/><rect x="1199" y="999" width="50" height="50" style="fill: transparent; stroke: rgb(29, 43, 71); stroke-width: 5px;"/><circle cx="1224" cy="1024" r="10" style="fill: rgb(29, 43, 71);"/><circle cx="1274" cy="1074" r="10" style="fill: rgb(29, 43, 71);"/><circle cx="1324" cy="1224" r="25" style="fill: transparent; stroke: rgb(29, 43, 71); stroke-width: 5px;"/><rect x="1199" y="1199" width="50" height="50" style="fill: transparent; stroke: rgb(29, 43, 71); stroke-width: 5px;"/><circle cx="1274" cy="1174" r="10" style="fill: rgb(29, 43, 71);"/><rect x="1199" y="1199" width="50" height="50" style="fill: transparent; stroke: rgb(29, 43, 71); stroke-width: 5px;"/><circle cx="1224" cy="1224" r="10" style="fill: rgb(29, 43, 71);"/><rect x="1199" y="1199" width="50" height="50" style="fill: transparent; stroke: rgb(29, 43, 71); stroke-width: 5px;"/><circle cx="1124" cy="1224" r="10" style="fill: rgb(29, 43, 71);"/></g></svg>