<svg xmlns="http://www.w3.org/2000/svg" width="2048" height="2048" viewBox="0 0 2048 2048"><rect x="0" y="0" width="2048" height="2048" fill="#f5f5fa"/><g class="main-g" transform="scale(2) translate(-369.5, -354.5)"><rect x="724" y="874" width="200" height="200" style="fill: transparent; stroke: rgb(29, 43, 71); stroke-width: 5px;"/><rect x="674" y="824" width="200" height="200" style="fill: transparent; stroke: rgb(29, 43, 71); stroke-width: 5px;"/><rect x="824" y="824" width="100" height="100" style="fill: transparent; stroke: rgb(29, 43, 71); stroke-width: 5px;"/><rect x="674" y="974" width="100" height="100" style="fill: transparent; stroke: rgb(29, 43, 71); stroke-width: 5px;"/><rect x="899" y="849" width="50" height="50" style="fill: transparent; stroke: rgb(29, 43, 71); stroke-width: 5px;"/><rect x="799" y="849" width="50" height="50" style="fill: transparent; stroke: rgb(29, 43, 71); stroke-width: 5px;"/><circle cx="924" cy="924" r="10" style="fill: rgb(29, 43, 71);"/><rect x="799" y="799" width="50" height="50" style="fill: transparent; stroke: rgb(29, 43, 71); stroke-width: 5px;"/><circle cx="874" cy="824" r="10" style="fill: rgb(29, 43, 71);"/><rect x="849" y="899" width="50" height="50" style="fill: transparent; stroke: rgb(29, 43, 71); stroke-width: 5px;"/><circle cx="774" cy="1074" r="10" style="fill: rgb(29, 43, 71);"/><circle cx="774" cy="1024" r="10" style="fill: rgb(29, 43, 71);"/><circle cx="674" cy="1024" r="10" style="fill: rgb(29, 43, 71);"/><rect x="874" y="724" width="200" height="200" style="fill: transparent; stroke: rgb(29, 43, 71); stroke-width: 5px;"/><rect x="824" y="674" width="200" height="200" style="fill: transparent; stroke: rgb(29, 43, 71); stroke-width: 5px;"/><rect x="974" y="674" width="100" height="100" style="fill: transparent; stroke: rgb(29, 43, 71); stroke-width: 5px;"/><rect x="824" y="824" width="100" height="100" style="fill: transparent; stroke: rgb(29, 43, 71); stroke-width: 5px;"/><circle cx="1074" cy="724" r="10" style="fill: rgb(29, 43, 71);"/><rect x="949" y="699" width="50" height="50" style="fill: transparent; stroke: rgb(29, 43, 71); stroke-width: 5px;"/><circle cx="1074" cy="774" r="25" style="fill: transparent; stroke: rgb(29, 43, 71); stroke-width: 5px;"/><circle cx="974" cy="674" r="10" style="fill: rgb(29, 43, 71);"/><rect x="999" y="649" width="50" height="50" style="fill: transparent; stroke: rgb(29, 43, 71); stroke-width: 5px;"/><circle cx="1024" cy="774" r="10" style="fill: rgb(29, 43, 71);"/><circle cx="924" cy="924" r="10" style="fill: rgb(29, 43, 71);"/><rect x="899" y="849" width="50" height="50" style="fill: transparent; stroke: rgb(29, 43, 71); stroke-width: 5px;"/><circle cx="824" cy="874" r="10" style="fill: rgb(29, 43, 71);"/></g></svg>