<svg xmlns="http://www.w3.org/2000/svg" width="2048" height="2048" viewBox="0 0 2048 2048"><rect width="2048" height="2048" x="0" y="0" fill="#f5f5fa"/><g class="main-g" transform="scale(2) translate(-493.25, -512)"><rect width="100" height="100" x="1124" y="1074" style="fill:transparent;stroke:#1d2b47;stroke-width:4px"/><rect width="100" height="100" x="1174" y="974" style="fill:transparent;stroke:#1d2b47;stroke-width:4px"/><rect width="50" height="50" x="1199" y="1049" style="fill:transparent;stroke:#1d2b47;stroke-width:4px"/><rect width="25" height="25" x="1186.5" y="1061.5" style="fill:transparent;stroke:#1d2b47;stroke-width:4px"/><circle cx="1224" cy="1099" r="6" style="fill:#1d2b47"/><rect width="25" height="25" x="1236.5" y="1061.5" style="fill:transparent;stroke:#1d2b47;stroke-width:4px"/><circle cx="1199" cy="1074" r="6" style="fill:#1d2b47"/><rect width="100" height="100" x="1024" y="1074" style="fill:transparent;stroke:#1d2b47;stroke-width:4px"/><rect width="100" height="100" x="1024" y="1024" style="fill:transparent;stroke:#1d2b47;stroke-width:4px"/><rect width="50" height="50" x="1099" y="1049" style="fill:transparent;stroke:#1d2b47;stroke-width:4px"/><rect width="50" height="50" x="1099" y="1099" style="fill:transparent;stroke:#1d2b47;stroke-width:4px"/><rect width="50" height="50" x="999" y="1099" style="fill:transparent;stroke:#1d2b47;stroke-width:4px"/><circle cx="1149" cy="1099" r="6" style="fill:#1d2b47"/><circle cx="1099" cy="1099" r="6" style="fill:#1d2b47"/><circle cx="1149" cy="1099" r="6" style="fill:#1d2b47"/><circle cx="1099" cy="1074" r="6" style="fill:#1d2b47"/><circle cx="1124" cy="1099" r="6" style="fill:#1d2b47"/><circle cx="1124" cy="1049" r="6" style="fill:#1d2b47"/><circle cx="1124" cy="1099" r="6" style="fill:#1d2b47"/><circle cx="1124" cy="1099" r="6" style="fill:#1d2b47"/><rect width="25" height="25" x="1111.5" y="1136.5" style="fill:transparent;stroke:#1d2b47;stroke-width:4px"/><rect width="25" height="25" x="1111.5" y="1086.5" style="fill:transparent;stroke:#1d2b47;stroke-width:4px"/><circle cx="1099" cy="1124" r="6" style="fill:#1d2b47"/><rect width="25" height="25" x="1036.5" y="1111.5" style="fill:transparent;stroke:#1d2b47;stroke-width:4px"/><rect width="100" height="100" x="1024" y="1174" style="fill:transparent;stroke:#1d2b47;stroke-width:4px"/><rect width="100" height="100" x="974" y="1124" style="fill:transparent;stroke:#1d2b47;stroke-width:4px"/><rect width="50" height="50" x="1049" y="1149" style="fill:transparent;stroke:#1d2b47;stroke-width:4px"/><rect width="50" height="50" x="999" y="1199" style="fill:transparent;stroke:#1d2b47;stroke-width:4px"/><rect width="25" height="25" x="1036.5" y="1186.5" style="fill:transparent;stroke:#1d2b47;stroke-width:4px"/><circle cx="1049" cy="1199" r="6" style="fill:#1d2b47"/><circle cx="1099" cy="1174" r="6" style="fill:#1d2b47"/><rect width="25" height="25" x="1036.5" y="1161.5" style="fill:transparent;stroke:#1d2b47;stroke-width:4px"/><rect width="25" height="25" x="1061.5" y="1136.5" style="fill:transparent;stroke:#1d2b47;stroke-width:4px"/><circle cx="1074" cy="1199" r="6" style="fill:#1d2b47"/><circle cx="1049" cy="1224" r="6" style="fill:#1d2b47"/><circle cx="999" cy="1224" r="6" style="fill:#1d2b47"/><rect width="100" height="100" x="824" y="1024" style="fill:transparent;stroke:#1d2b47;stroke-width:4px"/><rect width="100" height="100" x="824" y="1024" style="fill:transparent;stroke:#1d2b47;stroke-width:4px"/><rect width="50" height="50" x="899" y="999" style="fill:transparent;stroke:#1d2b47;stroke-width:4px"/><rect width="50" height="50" x="799" y="999" style="fill:transparent;stroke:#1d2b47;stroke-width:4px"/><rect width="50" height="50" x="899" y="999" style="fill:transparent;stroke:#1d2b47;stroke-width:4px"/><rect width="50" height="50" x="899" y="1099" style="fill:transparent;stroke:#1d2b47;stroke-width:4px"/><rect width="50" height="50" x="899" y="1099" style="fill:transparent;stroke:#1d2b47;stroke-width:4px"/><rect width="50" height="50" x="799" y="1099" style="fill:transparent;stroke:#1d2b47;stroke-width:4px"/><circle cx="949" cy="999" r="6" style="fill:#1d2b47"/><rect width="25" height="25" x="886.5" y="986.5" style="fill:transparent;stroke:#1d2b47;stroke-width:4px"/><circle cx="949" cy="999" r="6" style="fill:#1d2b47"/><circle cx="949" cy="1049" r="6" style="fill:#1d2b47"/><circle cx="949" cy="1049" r="6" style="fill:#1d2b47"/><circle cx="899" cy="1049" r="6" style="fill:#1d2b47"/><circle cx="949" cy="1099" r="6" style="fill:#1d2b47"/><circle cx="899" cy="1099" r="6" style="fill:#1d2b47"/><rect width="25" height="25" x="936.5" y="1086.5" style="fill:transparent;stroke:#1d2b47;stroke-width:4px"/><circle cx="949" cy="1149" r="6" style="fill:#1d2b47"/><circle cx="949" cy="1149" r="6" style="fill:#1d2b47"/><circle cx="899" cy="1149" r="6" style="fill:#1d2b47"/><circle cx="899" cy="1024" r="6" style="fill:#1d2b47"/><circle cx="924" cy="1049" r="6" style="fill:#1d2b47"/><rect width="25" height="25" x="886.5" y="1011.5" style="fill:transparent;stroke:#1d2b47;stroke-width:4px"/><rect width="25" height="25" x="911.5" y="1036.5" style="fill:transparent;stroke:#1d2b47;stroke-width:4px"/><circle cx="849" cy="1024" r="6" style="fill:#1d2b47"/><circle cx="849" cy="1024" r="6" style="fill:#1d2b47"/><circle cx="899" cy="1024" r="6" style="fill:#1d2b47"/><circle cx="924" cy="1049" r="6" style="fill:#1d2b47"/><circle cx="899" cy="1024" r="6" style="fill:#1d2b47"/><rect width="25" height="25" x="911.5" y="1036.5" style="fill:transparent;stroke:#1d2b47;stroke-width:4px"/><circle cx="924" cy="1099" r="6" style="fill:#1d2b47"/><circle cx="899" cy="1124" r="12.5" style="fill:transparent;stroke:#1d2b47;stroke-width:4px"/><circle cx="924" cy="1099" r="6" style="fill:#1d2b47"/><circle cx="899" cy="1124" r="6" style="fill:#1d2b47"/><circle cx="924" cy="1099" r="6" style="fill:#1d2b47"/><circle cx="899" cy="1124" r="6" style="fill:#1d2b47"/><circle cx="924" cy="1099" r="6" style="fill:#1d2b47"/><circle cx="899" cy="1124" r="6" style="fill:#1d2b47"/><circle cx="849" cy="1124" r="6" style="fill:#1d2b47"/><circle cx="849" cy="1124" r="6" style="fill:#1d2b47"/><rect width="100" height="100" x="1124" y="774" style="fill:transparent;stroke:#1d2b47;stroke-width:4px"/><rect width="100" height="100" x="1074" y="874" style="fill:transparent;stroke:#1d2b47;stroke-width:4px"/><rect width="50" height="50" x="1099" y="849" style="fill:transparent;stroke:#1d2b47;stroke-width:4px"/><rect width="50" height="50" x="1149" y="849" style="fill:transparent;stroke:#1d2b47;stroke-width:4px"/><circle cx="1149" cy="849" r="6" style="fill:#1d2b47"/><circle cx="1149" cy="899" r="6" style="fill:#1d2b47"/><circle cx="1149" cy="874" r="6" style="fill:#1d2b47"/><circle cx="1149" cy="874" r="6" style="fill:#1d2b47"/><circle cx="1099" cy="874" r="6" style="fill:#1d2b47"/><circle cx="1199" cy="874" r="6" style="fill:#1d2b47"/><circle cx="1149" cy="874" r="6" style="fill:#1d2b47"/><circle cx="1149" cy="874" r="6" style="fill:#1d2b47"/><circle cx="1174" cy="899" r="6" style="fill:#1d2b47"/><rect width="100" height="100" x="824" y="1024" style="fill:transparent;stroke:#1d2b47;stroke-width:4px"/><rect width="100" height="100" x="874" y="1024" style="fill:transparent;stroke:#1d2b47;stroke-width:4px"/><rect width="50" height="50" x="899" y="999" style="fill:transparent;stroke:#1d2b47;stroke-width:4px"/><rect width="50" height="50" x="899" y="1099" style="fill:transparent;stroke:#1d2b47;stroke-width:4px"/><circle cx="899" cy="1024" r="6" style="fill:#1d2b47"/><circle cx="924" cy="1049" r="6" style="fill:#1d2b47"/><rect width="25" height="25" x="936.5" y="1011.5" style="fill:transparent;stroke:#1d2b47;stroke-width:4px"/><circle cx="899" cy="1024" r="6" style="fill:#1d2b47"/><circle cx="924" cy="1099" r="6" style="fill:#1d2b47"/><rect width="25" height="25" x="886.5" y="1111.5" style="fill:transparent;stroke:#1d2b47;stroke-width:4px"/><circle cx="949" cy="1124" r="6" style="fill:#1d2b47"/><circle cx="899" cy="1124" r="6" style="fill:#1d2b47"/><rect width="100" height="100" x="1124" y="974" style="fill:transparent;stroke:#1d2b47;stroke-width:4px"/><rect width="100" height="100" x="1024" y="1074" style="fill:transparent;stroke:#1d2b47;stroke-width:4px"/><rect width="50" height="50" x="1099" y="1049" style="fill:transparent;stroke:#1d2b47;stroke-width:4px"/><rect width="50" height="50" x="1099" y="1049" style="fill:transparent;stroke:#1d2b47;stroke-width:4px"/><circle cx="1149" cy="1049" r="6" style="fill:#1d2b47"/><circle cx="1099" cy="1049" r="6" style="fill:#1d2b47"/><circle cx="1149" cy="1049" r="6" style="fill:#1d2b47"/><circle cx="1149" cy="1099" r="6" style="fill:#1d2b47"/><rect width="25" height="25" x="1136.5" y="1086.5" style="fill:transparent;stroke:#1d2b47;stroke-width:4px"/><rect width="25" height="25" x="1086.5" y="1086.5" style="fill:transparent;stroke:#1d2b47;stroke-width:4px"/><circle cx="1149" cy="1074" r="6" style="fill:#1d2b47"/><circle cx="1099" cy="1074" r="6" style="fill:#1d2b47"/><circle cx="1124" cy="1099" r="6" style="fill:#1d2b47"/><circle cx="1149" cy="1074" r="6" style="fill:#1d2b47"/><circle cx="1099" cy="1074" r="6" style="fill:#1d2b47"/><rect width="25" height="25" x="1111.5" y="1086.5" style="fill:transparent;stroke:#1d2b47;stroke-width:4px"/><rect width="100" height="100" x="1174" y="924" style="fill:transparent;stroke:#1d2b47;stroke-width:4px"/><rect width="100" height="100" x="1174" y="924" style="fill:transparent;stroke:#1d2b47;stroke-width:4px"/><rect width="50" height="50" x="1249" y="899" style="fill:transparent;stroke:#1d2b47;stroke-width:4px"/><rect width="50" height="50" x="1149" y="899" style="fill:transparent;stroke:#1d2b47;stroke-width:4px"/><rect width="50" height="50" x="1249" y="899" style="fill:transparent;stroke:#1d2b47;stroke-width:4px"/><rect width="50" height="50" x="1249" y="999" style="fill:transparent;stroke:#1d2b47;stroke-width:4px"/><rect width="50" height="50" x="1249" y="999" style="fill:transparent;stroke:#1d2b47;stroke-width:4px"/><rect width="50" height="50" x="1149" y="999" style="fill:transparent;stroke:#1d2b47;stroke-width:4px"/><circle cx="1299" cy="899" r="6" style="fill:#1d2b47"/><circle cx="1249" cy="899" r="6" style="fill:#1d2b47"/><circle cx="1299" cy="899" r="6" style="fill:#1d2b47"/><circle cx="1299" cy="949" r="6" style="fill:#1d2b47"/><circle cx="1299" cy="949" r="6" style="fill:#1d2b47"/><circle cx="1249" cy="949" r="6" style="fill:#1d2b47"/><rect width="25" height="25" x="1286.5" y="986.5" style="fill:transparent;stroke:#1d2b47;stroke-width:4px"/><circle cx="1249" cy="999" r="6" style="fill:#1d2b47"/><circle cx="1299" cy="999" r="6" style="fill:#1d2b47"/><circle cx="1299" cy="1049" r="6" style="fill:#1d2b47"/><circle cx="1299" cy="1049" r="6" style="fill:#1d2b47"/><circle cx="1249" cy="1049" r="6" style="fill:#1d2b47"/><rect width="25" height="25" x="1236.5" y="911.5" style="fill:transparent;stroke:#1d2b47;stroke-width:4px"/><circle cx="1274" cy="949" r="6" style="fill:#1d2b47"/><circle cx="1249" cy="924" r="6" style="fill:#1d2b47"/><circle cx="1274" cy="949" r="6" style="fill:#1d2b47"/><circle cx="1199" cy="924" r="6" style="fill:#1d2b47"/><circle cx="1199" cy="924" r="6" style="fill:#1d2b47"/><circle cx="1249" cy="924" r="6" style="fill:#1d2b47"/><rect width="25" height="25" x="1261.5" y="936.5" style="fill:transparent;stroke:#1d2b47;stroke-width:4px"/><circle cx="1249" cy="924" r="6" style="fill:#1d2b47"/><rect width="25" height="25" x="1261.5" y="936.5" style="fill:transparent;stroke:#1d2b47;stroke-width:4px"/><circle cx="1274" cy="999" r="6" style="fill:#1d2b47"/><rect width="25" height="25" x="1236.5" y="1011.5" style="fill:transparent;stroke:#1d2b47;stroke-width:4px"/><circle cx="1274" cy="999" r="6" style="fill:#1d2b47"/><circle cx="1249" cy="1024" r="6" style="fill:#1d2b47"/><circle cx="1274" cy="999" r="6" style="fill:#1d2b47"/><circle cx="1249" cy="1024" r="6" style="fill:#1d2b47"/><circle cx="1274" cy="999" r="6" style="fill:#1d2b47"/><circle cx="1249" cy="1024" r="6" style="fill:#1d2b47"/><circle cx="1199" cy="1024" r="6" style="fill:#1d2b47"/><circle cx="1199" cy="1024" r="6" style="fill:#1d2b47"/><rect width="100" height="100" x="724" y="974" style="fill:transparent;stroke:#1d2b47;stroke-width:4px"/><rect width="100" height="100" x="724" y="974" style="fill:transparent;stroke:#1d2b47;stroke-width:4px"/><rect width="50" height="50" x="799" y="949" style="fill:transparent;stroke:#1d2b47;stroke-width:4px"/><rect width="50" height="50" x="699" y="949" style="fill:transparent;stroke:#1d2b47;stroke-width:4px"/><rect width="50" height="50" x="799" y="949" style="fill:transparent;stroke:#1d2b47;stroke-width:4px"/><rect width="50" height="50" x="799" y="1049" style="fill:transparent;stroke:#1d2b47;stroke-width:4px"/><rect width="50" height="50" x="799" y="1049" style="fill:transparent;stroke:#1d2b47;stroke-width:4px"/><rect width="50" height="50" x="699" y="1049" style="fill:transparent;stroke:#1d2b47;stroke-width:4px"/><circle cx="849" cy="949" r="6" style="fill:#1d2b47"/><rect width="25" height="25" x="786.5" y="936.5" style="fill:transparent;stroke:#1d2b47;stroke-width:4px"/><circle cx="849" cy="949" r="6" style="fill:#1d2b47"/><circle cx="849" cy="999" r="6" style="fill:#1d2b47"/><circle cx="849" cy="999" r="6" style="fill:#1d2b47"/><circle cx="799" cy="999" r="6" style="fill:#1d2b47"/><rect width="25" height="25" x="836.5" y="1036.5" style="fill:transparent;stroke:#1d2b47;stroke-width:4px"/><rect width="25" height="25" x="786.5" y="1036.5" style="fill:transparent;stroke:#1d2b47;stroke-width:4px"/><rect width="25" height="25" x="836.5" y="1036.5" style="fill:transparent;stroke:#1d2b47;stroke-width:4px"/><circle cx="849" cy="1099" r="6" style="fill:#1d2b47"/><rect width="25" height="25" x="836.5" y="1086.5" style="fill:transparent;stroke:#1d2b47;stroke-width:4px"/><circle cx="799" cy="1099" r="6" style="fill:#1d2b47"/><circle cx="799" cy="974" r="6" style="fill:#1d2b47"/><circle cx="824" cy="999" r="6" style="fill:#1d2b47"/><circle cx="799" cy="974" r="6" style="fill:#1d2b47"/><circle cx="824" cy="999" r="6" style="fill:#1d2b47"/><circle cx="749" cy="974" r="6" style="fill:#1d2b47"/><circle cx="749" cy="974" r="6" style="fill:#1d2b47"/><rect width="25" height="25" x="786.5" y="961.5" style="fill:transparent;stroke:#1d2b47;stroke-width:4px"/><circle cx="824" cy="999" r="6" style="fill:#1d2b47"/><circle cx="799" cy="974" r="6" style="fill:#1d2b47"/><circle cx="824" cy="999" r="6" style="fill:#1d2b47"/><circle cx="824" cy="1049" r="6" style="fill:#1d2b47"/><circle cx="799" cy="1074" r="6" style="fill:#1d2b47"/><circle cx="824" cy="1049" r="6" style="fill:#1d2b47"/><circle cx="799" cy="1074" r="6" style="fill:#1d2b47"/><circle cx="824" cy="1049" r="6" style="fill:#1d2b47"/><rect width="25" height="25" x="786.5" y="1061.5" style="fill:transparent;stroke:#1d2b47;stroke-width:4px"/><rect width="25" height="25" x="811.5" y="1036.5" style="fill:transparent;stroke:#1d2b47;stroke-width:4px"/><circle cx="799" cy="1074" r="6" style="fill:#1d2b47"/><circle cx="749" cy="1074" r="6" style="fill:#1d2b47"/><circle cx="749" cy="1074" r="6" style="fill:#1d2b47"/><rect width="100" height="100" x="1124" y="874" style="fill:transparent;stroke:#1d2b47;stroke-width:4px"/><rect width="100" height="100" x="1124" y="874" style="fill:transparent;stroke:#1d2b47;stroke-width:4px"/><rect width="50" height="50" x="1199" y="849" style="fill:transparent;stroke:#1d2b47;stroke-width:4px"/><rect width="50" height="50" x="1099" y="849" style="fill:transparent;stroke:#1d2b47;stroke-width:4px"/><rect width="50" height="50" x="1199" y="849" style="fill:transparent;stroke:#1d2b47;stroke-width:4px"/><rect width="50" height="50" x="1199" y="949" style="fill:transparent;stroke:#1d2b47;stroke-width:4px"/><rect width="50" height="50" x="1199" y="949" style="fill:transparent;stroke:#1d2b47;stroke-width:4px"/><rect width="50" height="50" x="1099" y="949" style="fill:transparent;stroke:#1d2b47;stroke-width:4px"/><circle cx="1249" cy="849" r="6" style="fill:#1d2b47"/><circle cx="1199" cy="849" r="6" style="fill:#1d2b47"/><rect width="25" height="25" x="1236.5" y="836.5" style="fill:transparent;stroke:#1d2b47;stroke-width:4px"/><rect width="25" height="25" x="1236.5" y="886.5" style="fill:transparent;stroke:#1d2b47;stroke-width:4px"/><circle cx="1249" cy="899" r="6" style="fill:#1d2b47"/><circle cx="1199" cy="899" r="6" style="fill:#1d2b47"/><circle cx="1249" cy="949" r="6" style="fill:#1d2b47"/><circle cx="1199" cy="949" r="6" style="fill:#1d2b47"/><circle cx="1249" cy="949" r="6" style="fill:#1d2b47"/><rect width="25" height="25" x="1236.5" y="986.5" style="fill:transparent;stroke:#1d2b47;stroke-width:4px"/><rect width="25" height="25" x="1236.5" y="986.5" style="fill:transparent;stroke:#1d2b47;stroke-width:4px"/><circle cx="1199" cy="999" r="6" style="fill:#1d2b47"/><circle cx="1199" cy="874" r="6" style="fill:#1d2b47"/><circle cx="1224" cy="899" r="6" style="fill:#1d2b47"/><circle cx="1199" cy="874" r="6" style="fill:#1d2b47"/><rect width="25" height="25" x="1211.5" y="886.5" style="fill:transparent;stroke:#1d2b47;stroke-width:4px"/><circle cx="1149" cy="874" r="6" style="fill:#1d2b47"/><rect width="25" height="25" x="1136.5" y="861.5" style="fill:transparent;stroke:#1d2b47;stroke-width:4px"/><rect width="25" height="25" x="1186.5" y="861.5" style="fill:transparent;stroke:#1d2b47;stroke-width:4px"/><circle cx="1224" cy="899" r="6" style="fill:#1d2b47"/><circle cx="1199" cy="874" r="6" style="fill:#1d2b47"/><circle cx="1224" cy="899" r="6" style="fill:#1d2b47"/><circle cx="1224" cy="949" r="6" style="fill:#1d2b47"/><circle cx="1199" cy="974" r="6" style="fill:#1d2b47"/><circle cx="1224" cy="949" r="6" style="fill:#1d2b47"/><circle cx="1199" cy="974" r="6" style="fill:#1d2b47"/><rect width="25" height="25" x="1211.5" y="936.5" style="fill:transparent;stroke:#1d2b47;stroke-width:4px"/><circle cx="1199" cy="974" r="6" style="fill:#1d2b47"/><circle cx="1224" cy="949" r="6" style="fill:#1d2b47"/><circle cx="1199" cy="974" r="6" style="fill:#1d2b47"/><circle cx="1149" cy="974" r="6" style="fill:#1d2b47"/><circle cx="1149" cy="974" r="6" style="fill:#1d2b47"/></g></svg>