<svg xmlns="http://www.w3.org/2000/svg" width="2048" height="2048" viewBox="0 0 2048 2048"><rect x="0" y="0" width="2048" height="2048" fill="#f5f5fa"/><g class="main-g" transform="scale(2) translate(-387, -387)"><rect x="674" y="674" width="400" height="400" style="fill: transparent; stroke: rgb(29, 43, 71); stroke-width: 10px;"/><rect x="724" y="674" width="400" height="400" style="fill: transparent; stroke: rgb(29, 43, 71); stroke-width: 10px;"/><rect x="974" y="574" width="200" height="200" style="fill: transparent; stroke: rgb(29, 43, 71); stroke-width: 10px;"/><rect x="974" y="974" width="200" height="200" style="fill: transparent; stroke: rgb(29, 43, 71); stroke-width: 10px;"/><circle cx="974" cy="674" r="20" style="fill: rgb(29, 43, 71);"/><rect x="1024" y="724" width="100" height="100" style="fill: transparent; stroke: rgb(29, 43, 71); stroke-width: 10px;"/><circle cx="974" cy="674" r="50" style="fill: transparent; stroke: rgb(29, 43, 71); stroke-width: 10px;"/><circle cx="1124" cy="774" r="50" style="fill: transparent; stroke: rgb(29, 43, 71); stroke-width: 10px;"/><rect x="1024" y="924" width="100" height="100" style="fill: transparent; stroke: rgb(29, 43, 71); stroke-width: 10px;"/><circle cx="974" cy="1074" r="20" style="fill: rgb(29, 43, 71);"/><rect x="1074" y="924" width="100" height="100" style="fill: transparent; stroke: rgb(29, 43, 71); stroke-width: 10px;"/><circle cx="974" cy="1074" r="20" style="fill: rgb(29, 43, 71);"/><rect x="624" y="724" width="400" height="400" style="fill: transparent; stroke: rgb(29, 43, 71); stroke-width: 10px;"/><rect x="674" y="824" width="400" height="400" style="fill: transparent; stroke: rgb(29, 43, 71); stroke-width: 10px;"/><rect x="924" y="724" width="200" height="200" style="fill: transparent; stroke: rgb(29, 43, 71); stroke-width: 10px;"/><rect x="874" y="674" width="100" height="100" style="fill: transparent; stroke: rgb(29, 43, 71); stroke-width: 10px;"/><rect x="974" y="674" width="100" height="100" style="fill: transparent; stroke: rgb(29, 43, 71); stroke-width: 10px;"/><rect x="974" y="874" width="100" height="100" style="fill: transparent; stroke: rgb(29, 43, 71); stroke-width: 10px;"/><circle cx="924" cy="824" r="20" style="fill: rgb(29, 43, 71);"/><rect x="1024" y="874" width="100" height="100" style="fill: transparent; stroke: rgb(29, 43, 71); stroke-width: 10px;"/></g></svg>