<svg xmlns="http://www.w3.org/2000/svg" width="2048" height="2048" viewBox="0 0 2048 2048"><rect x="0" y="0" width="2048" height="2048" fill="#f5f5fa"/><g class="main-g" transform="scale(2) translate(-512, -562)"><rect x="1174" y="1124" width="100" height="100" style="fill: transparent; stroke: rgb(29, 43, 71); stroke-width: 4px;"/><rect x="1074" y="1174" width="100" height="100" style="fill: transparent; stroke: rgb(29, 43, 71); stroke-width: 4px;"/><rect x="1149" y="1149" width="50" height="50" style="fill: transparent; stroke: rgb(29, 43, 71); stroke-width: 4px;"/><rect x="1149" y="1199" width="50" height="50" style="fill: transparent; stroke: rgb(29, 43, 71); stroke-width: 4px;"/><rect x="1186.5" y="1186.5" width="25" height="25" style="fill: transparent; stroke: rgb(29, 43, 71); stroke-width: 4px;"/><rect x="1136.5" y="1186.5" width="25" height="25" style="fill: transparent; stroke: rgb(29, 43, 71); stroke-width: 4px;"/><rect x="1186.5" y="1186.5" width="25" height="25" style="fill: transparent; stroke: rgb(29, 43, 71); stroke-width: 4px;"/><rect x="1136.5" y="1161.5" width="25" height="25" style="fill: transparent; stroke: rgb(29, 43, 71); stroke-width: 4px;"/><rect x="1161.5" y="1186.5" width="25" height="25" style="fill: transparent; stroke: rgb(29, 43, 71); stroke-width: 4px;"/><rect x="1186.5" y="1211.5" width="25" height="25" style="fill: transparent; stroke: rgb(29, 43, 71); stroke-width: 4px;"/><rect x="1161.5" y="1186.5" width="25" height="25" style="fill: transparent; stroke: rgb(29, 43, 71); stroke-width: 4px;"/><rect x="1161.5" y="1236.5" width="25" height="25" style="fill: transparent; stroke: rgb(29, 43, 71); stroke-width: 4px;"/><rect x="924" y="1024" width="100" height="100" style="fill: transparent; stroke: rgb(29, 43, 71); stroke-width: 4px;"/><rect x="924" y="924" width="100" height="100" style="fill: transparent; stroke: rgb(29, 43, 71); stroke-width: 4px;"/><rect x="999" y="999" width="50" height="50" style="fill: transparent; stroke: rgb(29, 43, 71); stroke-width: 4px;"/><rect x="999" y="999" width="50" height="50" style="fill: transparent; stroke: rgb(29, 43, 71); stroke-width: 4px;"/><rect x="899" y="999" width="50" height="50" style="fill: transparent; stroke: rgb(29, 43, 71); stroke-width: 4px;"/><rect x="1036.5" y="986.5" width="25" height="25" style="fill: transparent; stroke: rgb(29, 43, 71); stroke-width: 4px;"/><circle cx="999" cy="999" r="6" style="fill: rgb(29, 43, 71);"/><rect x="1036.5" y="986.5" width="25" height="25" style="fill: transparent; stroke: rgb(29, 43, 71); stroke-width: 4px;"/><rect x="1036.5" y="1036.5" width="25" height="25" style="fill: transparent; stroke: rgb(29, 43, 71); stroke-width: 4px;"/><rect x="1036.5" y="1036.5" width="25" height="25" style="fill: transparent; stroke: rgb(29, 43, 71); stroke-width: 4px;"/><rect x="986.5" y="1036.5" width="25" height="25" style="fill: transparent; stroke: rgb(29, 43, 71); stroke-width: 4px;"/><rect x="986.5" y="1011.5" width="25" height="25" style="fill: transparent; stroke: rgb(29, 43, 71); stroke-width: 4px;"/><rect x="1011.5" y="1036.5" width="25" height="25" style="fill: transparent; stroke: rgb(29, 43, 71); stroke-width: 4px;"/><rect x="1011.5" y="986.5" width="25" height="25" style="fill: transparent; stroke: rgb(29, 43, 71); stroke-width: 4px;"/><circle cx="999" cy="1024" r="6" style="fill: rgb(29, 43, 71);"/><rect x="986.5" y="1011.5" width="25" height="25" style="fill: transparent; stroke: rgb(29, 43, 71); stroke-width: 4px;"/><circle cx="1024" cy="1049" r="6" style="fill: rgb(29, 43, 71);"/><rect x="1011.5" y="986.5" width="25" height="25" style="fill: transparent; stroke: rgb(29, 43, 71); stroke-width: 4px;"/><rect x="986.5" y="1011.5" width="25" height="25" style="fill: transparent; stroke: rgb(29, 43, 71); stroke-width: 4px;"/><rect x="936.5" y="1011.5" width="25" height="25" style="fill: transparent; stroke: rgb(29, 43, 71); stroke-width: 4px;"/><rect x="936.5" y="1011.5" width="25" height="25" style="fill: transparent; stroke: rgb(29, 43, 71); stroke-width: 4px;"/><rect x="774" y="1074" width="100" height="100" style="fill: transparent; stroke: rgb(29, 43, 71); stroke-width: 4px;"/><rect x="874" y="974" width="100" height="100" style="fill: transparent; stroke: rgb(29, 43, 71); stroke-width: 4px;"/><rect x="849" y="1049" width="50" height="50" style="fill: transparent; stroke: rgb(29, 43, 71); stroke-width: 4px;"/><rect x="836.5" y="1061.5" width="25" height="25" style="fill: transparent; stroke: rgb(29, 43, 71); stroke-width: 4px;"/><rect x="861.5" y="1086.5" width="25" height="25" style="fill: transparent; stroke: rgb(29, 43, 71); stroke-width: 4px;"/><circle cx="899" cy="1074" r="6" style="fill: rgb(29, 43, 71);"/><rect x="1074" y="874" width="100" height="100" style="fill: transparent; stroke: rgb(29, 43, 71); stroke-width: 4px;"/><rect x="1074" y="974" width="100" height="100" style="fill: transparent; stroke: rgb(29, 43, 71); stroke-width: 4px;"/><rect x="1149" y="949" width="50" height="50" style="fill: transparent; stroke: rgb(29, 43, 71); stroke-width: 4px;"/><rect x="1049" y="949" width="50" height="50" style="fill: transparent; stroke: rgb(29, 43, 71); stroke-width: 4px;"/><rect x="1149" y="949" width="50" height="50" style="fill: transparent; stroke: rgb(29, 43, 71); stroke-width: 4px;"/><rect x="1186.5" y="936.5" width="25" height="25" style="fill: transparent; stroke: rgb(29, 43, 71); stroke-width: 4px;"/><rect x="1136.5" y="936.5" width="25" height="25" style="fill: transparent; stroke: rgb(29, 43, 71); stroke-width: 4px;"/><rect x="1186.5" y="936.5" width="25" height="25" style="fill: transparent; stroke: rgb(29, 43, 71); stroke-width: 4px;"/><rect x="1186.5" y="986.5" width="25" height="25" style="fill: transparent; stroke: rgb(29, 43, 71); stroke-width: 4px;"/><rect x="1186.5" y="986.5" width="25" height="25" style="fill: transparent; stroke: rgb(29, 43, 71); stroke-width: 4px;"/><rect x="1136.5" y="986.5" width="25" height="25" style="fill: transparent; stroke: rgb(29, 43, 71); stroke-width: 4px;"/><rect x="1161.5" y="936.5" width="25" height="25" style="fill: transparent; stroke: rgb(29, 43, 71); stroke-width: 4px;"/><rect x="1136.5" y="961.5" width="25" height="25" style="fill: transparent; stroke: rgb(29, 43, 71); stroke-width: 4px;"/><rect x="1136.5" y="961.5" width="25" height="25" style="fill: transparent; stroke: rgb(29, 43, 71); stroke-width: 4px;"/><rect x="1161.5" y="986.5" width="25" height="25" style="fill: transparent; stroke: rgb(29, 43, 71); stroke-width: 4px;"/><rect x="1086.5" y="961.5" width="25" height="25" style="fill: transparent; stroke: rgb(29, 43, 71); stroke-width: 4px;"/><rect x="1086.5" y="961.5" width="25" height="25" style="fill: transparent; stroke: rgb(29, 43, 71); stroke-width: 4px;"/><rect x="1161.5" y="936.5" width="25" height="25" style="fill: transparent; stroke: rgb(29, 43, 71); stroke-width: 4px;"/><rect x="1136.5" y="961.5" width="25" height="25" style="fill: transparent; stroke: rgb(29, 43, 71); stroke-width: 4px;"/><rect x="1136.5" y="961.5" width="25" height="25" style="fill: transparent; stroke: rgb(29, 43, 71); stroke-width: 4px;"/><rect x="1161.5" y="986.5" width="25" height="25" style="fill: transparent; stroke: rgb(29, 43, 71); stroke-width: 4px;"/><circle cx="1174" cy="1074" r="50" style="fill: transparent; stroke: rgb(29, 43, 71); stroke-width: 4px;"/><rect x="1174" y="974" width="100" height="100" style="fill: transparent; stroke: rgb(29, 43, 71); stroke-width: 4px;"/></g></svg>