<svg xmlns="http://www.w3.org/2000/svg" width="2048" height="2048" viewBox="0 0 2048 2048"><rect x="0" y="0" width="2048" height="2048" fill="#f5f5fa"/><g class="main-g" transform="scale(2) translate(-569.5, -474.5)"><rect x="874" y="1074" width="200" height="200" style="fill: transparent; stroke: rgb(29, 43, 71); stroke-width: 5px;"/><rect x="824" y="1124" width="200" height="200" style="fill: transparent; stroke: rgb(29, 43, 71); stroke-width: 5px;"/><rect x="824" y="1074" width="100" height="100" style="fill: transparent; stroke: rgb(29, 43, 71); stroke-width: 5px;"/><rect x="974" y="1224" width="100" height="100" style="fill: transparent; stroke: rgb(29, 43, 71); stroke-width: 5px;"/><rect x="899" y="1049" width="50" height="50" style="fill: transparent; stroke: rgb(29, 43, 71); stroke-width: 5px;"/><circle cx="924" cy="1124" r="10" style="fill: rgb(29, 43, 71);"/><circle cx="824" cy="1124" r="10" style="fill: rgb(29, 43, 71);"/><rect x="1049" y="1199" width="50" height="50" style="fill: transparent; stroke: rgb(29, 43, 71); stroke-width: 5px;"/><circle cx="1074" cy="1274" r="10" style="fill: rgb(29, 43, 71);"/><circle cx="974" cy="1274" r="10" style="fill: rgb(29, 43, 71);"/><circle cx="1024" cy="1224" r="10" style="fill: rgb(29, 43, 71);"/><rect x="999" y="1299" width="50" height="50" style="fill: transparent; stroke: rgb(29, 43, 71); stroke-width: 5px;"/><circle cx="974" cy="1324" r="10" style="fill: rgb(29, 43, 71);"/><rect x="824" y="624" width="200" height="200" style="fill: transparent; stroke: rgb(29, 43, 71); stroke-width: 5px;"/><rect x="874" y="724" width="200" height="200" style="fill: transparent; stroke: rgb(29, 43, 71); stroke-width: 5px;"/><rect x="974" y="674" width="100" height="100" style="fill: transparent; stroke: rgb(29, 43, 71); stroke-width: 5px;"/><rect x="999" y="649" width="50" height="50" style="fill: transparent; stroke: rgb(29, 43, 71); stroke-width: 5px;"/><circle cx="1024" cy="774" r="10" style="fill: rgb(29, 43, 71);"/><circle cx="1074" cy="724" r="10" style="fill: rgb(29, 43, 71);"/><circle cx="974" cy="724" r="10" style="fill: rgb(29, 43, 71);"/><circle cx="1074" cy="774" r="10" style="fill: rgb(29, 43, 71);"/><rect x="1074" y="774" width="200" height="200" style="fill: transparent; stroke: rgb(29, 43, 71); stroke-width: 5px;"/><rect x="1074" y="874" width="200" height="200" style="fill: transparent; stroke: rgb(29, 43, 71); stroke-width: 5px;"/><rect x="1224" y="824" width="100" height="100" style="fill: transparent; stroke: rgb(29, 43, 71); stroke-width: 5px;"/><rect x="1024" y="824" width="100" height="100" style="fill: transparent; stroke: rgb(29, 43, 71); stroke-width: 5px;"/><rect x="1224" y="924" width="100" height="100" style="fill: transparent; stroke: rgb(29, 43, 71); stroke-width: 5px;"/><rect x="1299" y="899" width="50" height="50" style="fill: transparent; stroke: rgb(29, 43, 71); stroke-width: 5px;"/><rect x="1199" y="899" width="50" height="50" style="fill: transparent; stroke: rgb(29, 43, 71); stroke-width: 5px;"/><circle cx="1324" cy="924" r="10" style="fill: rgb(29, 43, 71);"/><rect x="1249" y="799" width="50" height="50" style="fill: transparent; stroke: rgb(29, 43, 71); stroke-width: 5px;"/><circle cx="1274" cy="924" r="25" style="fill: transparent; stroke: rgb(29, 43, 71); stroke-width: 5px;"/><circle cx="1224" cy="874" r="10" style="fill: rgb(29, 43, 71);"/><rect x="1249" y="899" width="50" height="50" style="fill: transparent; stroke: rgb(29, 43, 71); stroke-width: 5px;"/><rect x="1099" y="849" width="50" height="50" style="fill: transparent; stroke: rgb(29, 43, 71); stroke-width: 5px;"/><circle cx="1274" cy="924" r="10" style="fill: rgb(29, 43, 71);"/><rect x="1199" y="949" width="50" height="50" style="fill: transparent; stroke: rgb(29, 43, 71); stroke-width: 5px;"/><circle cx="1274" cy="924" r="10" style="fill: rgb(29, 43, 71);"/><rect x="1249" y="999" width="50" height="50" style="fill: transparent; stroke: rgb(29, 43, 71); stroke-width: 5px;"/></g></svg>