<svg xmlns="http://www.w3.org/2000/svg" width="2048" height="2048" viewBox="0 0 2048 2048"><rect width="2048" height="2048" x="0" y="0" fill="#f5f5fa"/><g class="main-g" transform="scale(2) translate(-387, -387)"><rect width="400" height="400" x="674" y="674" style="fill:transparent;stroke:#1d2b47;stroke-width:10px"/><rect width="400" height="400" x="724" y="674" style="fill:transparent;stroke:#1d2b47;stroke-width:10px"/><rect width="200" height="200" x="974" y="574" style="fill:transparent;stroke:#1d2b47;stroke-width:10px"/><rect width="200" height="200" x="974" y="974" style="fill:transparent;stroke:#1d2b47;stroke-width:10px"/><circle cx="974" cy="674" r="20" style="fill:#1d2b47"/><rect width="100" height="100" x="1024" y="724" style="fill:transparent;stroke:#1d2b47;stroke-width:10px"/><circle cx="974" cy="674" r="50" style="fill:transparent;stroke:#1d2b47;stroke-width:10px"/><circle cx="1124" cy="774" r="50" style="fill:transparent;stroke:#1d2b47;stroke-width:10px"/><rect width="100" height="100" x="1024" y="924" style="fill:transparent;stroke:#1d2b47;stroke-width:10px"/><circle cx="974" cy="1074" r="20" style="fill:#1d2b47"/><rect width="100" height="100" x="1074" y="924" style="fill:transparent;stroke:#1d2b47;stroke-width:10px"/><circle cx="974" cy="1074" r="20" style="fill:#1d2b47"/><rect width="400" height="400" x="624" y="724" style="fill:transparent;stroke:#1d2b47;stroke-width:10px"/><rect width="400" height="400" x="674" y="824" style="fill:transparent;stroke:#1d2b47;stroke-width:10px"/><rect width="200" height="200" x="924" y="724" style="fill:transparent;stroke:#1d2b47;stroke-width:10px"/><rect width="100" height="100" x="874" y="674" style="fill:transparent;stroke:#1d2b47;stroke-width:10px"/><rect width="100" height="100" x="974" y="674" style="fill:transparent;stroke:#1d2b47;stroke-width:10px"/><rect width="100" height="100" x="974" y="874" style="fill:transparent;stroke:#1d2b47;stroke-width:10px"/><circle cx="924" cy="824" r="20" style="fill:#1d2b47"/><rect width="100" height="100" x="1024" y="874" style="fill:transparent;stroke:#1d2b47;stroke-width:10px"/></g></svg>