<svg xmlns="http://www.w3.org/2000/svg" width="2048" height="2048" viewBox="0 0 2048 2048"><rect width="2048" height="2048" x="0" y="0" fill="#f5f5fa"/><g class="main-g" transform="scale(2) translate(-569.5, -474.5)"><rect width="200" height="200" x="874" y="1074" style="fill:transparent;stroke:#1d2b47;stroke-width:5px"/><rect width="200" height="200" x="824" y="1124" style="fill:transparent;stroke:#1d2b47;stroke-width:5px"/><rect width="100" height="100" x="824" y="1074" style="fill:transparent;stroke:#1d2b47;stroke-width:5px"/><rect width="100" height="100" x="974" y="1224" style="fill:transparent;stroke:#1d2b47;stroke-width:5px"/><rect width="50" height="50" x="899" y="1049" style="fill:transparent;stroke:#1d2b47;stroke-width:5px"/><circle cx="924" cy="1124" r="10" style="fill:#1d2b47"/><circle cx="824" cy="1124" r="10" style="fill:#1d2b47"/><rect width="50" height="50" x="1049" y="1199" style="fill:transparent;stroke:#1d2b47;stroke-width:5px"/><circle cx="1074" cy="1274" r="10" style="fill:#1d2b47"/><circle cx="974" cy="1274" r="10" style="fill:#1d2b47"/><circle cx="1024" cy="1224" r="10" style="fill:#1d2b47"/><rect width="50" height="50" x="999" y="1299" style="fill:transparent;stroke:#1d2b47;stroke-width:5px"/><circle cx="974" cy="1324" r="10" style="fill:#1d2b47"/><rect width="200" height="200" x="824" y="624" style="fill:transparent;stroke:#1d2b47;stroke-width:5px"/><rect width="200" height="200" x="874" y="724" style="fill:transparent;stroke:#1d2b47;stroke-width:5px"/><rect width="100" height="100" x="974" y="674" style="fill:transparent;stroke:#1d2b47;stroke-width:5px"/><rect width="50" height="50" x="999" y="649" style="fill:transparent;stroke:#1d2b47;stroke-width:5px"/><circle cx="1024" cy="774" r="10" style="fill:#1d2b47"/><circle cx="1074" cy="724" r="10" style="fill:#1d2b47"/><circle cx="974" cy="724" r="10" style="fill:#1d2b47"/><circle cx="1074" cy="774" r="10" style="fill:#1d2b47"/><rect width="200" height="200" x="1074" y="774" style="fill:transparent;stroke:#1d2b47;stroke-width:5px"/><rect width="200" height="200" x="1074" y="874" style="fill:transparent;stroke:#1d2b47;stroke-width:5px"/><rect width="100" height="100" x="1224" y="824" style="fill:transparent;stroke:#1d2b47;stroke-width:5px"/><rect width="100" height="100" x="1024" y="824" style="fill:transparent;stroke:#1d2b47;stroke-width:5px"/><rect width="100" height="100" x="1224" y="924" style="fill:transparent;stroke:#1d2b47;stroke-width:5px"/><rect width="50" height="50" x="1299" y="899" style="fill:transparent;stroke:#1d2b47;stroke-width:5px"/><rect width="50" height="50" x="1199" y="899" style="fill:transparent;stroke:#1d2b47;stroke-width:5px"/><circle cx="1324" cy="924" r="10" style="fill:#1d2b47"/><rect width="50" height="50" x="1249" y="799" style="fill:transparent;stroke:#1d2b47;stroke-width:5px"/><circle cx="1274" cy="924" r="25" style="fill:transparent;stroke:#1d2b47;stroke-width:5px"/><circle cx="1224" cy="874" r="10" style="fill:#1d2b47"/><rect width="50" height="50" x="1249" y="899" style="fill:transparent;stroke:#1d2b47;stroke-width:5px"/><rect width="50" height="50" x="1099" y="849" style="fill:transparent;stroke:#1d2b47;stroke-width:5px"/><circle cx="1274" cy="924" r="10" style="fill:#1d2b47"/><rect width="50" height="50" x="1199" y="949" style="fill:transparent;stroke:#1d2b47;stroke-width:5px"/><circle cx="1274" cy="924" r="10" style="fill:#1d2b47"/><rect width="50" height="50" x="1249" y="999" style="fill:transparent;stroke:#1d2b47;stroke-width:5px"/></g></svg>