<svg xmlns="http://www.w3.org/2000/svg" width="2048" height="2048" viewBox="0 0 2048 2048"><rect width="2048" height="2048" x="0" y="0" fill="#f5f5fa"/><g class="main-g" transform="scale(2) translate(-512, -562)"><rect width="100" height="100" x="1174" y="1124" style="fill:transparent;stroke:#1d2b47;stroke-width:4px"/><rect width="100" height="100" x="1074" y="1174" style="fill:transparent;stroke:#1d2b47;stroke-width:4px"/><rect width="50" height="50" x="1149" y="1149" style="fill:transparent;stroke:#1d2b47;stroke-width:4px"/><rect width="50" height="50" x="1149" y="1199" style="fill:transparent;stroke:#1d2b47;stroke-width:4px"/><rect width="25" height="25" x="1186.5" y="1186.5" style="fill:transparent;stroke:#1d2b47;stroke-width:4px"/><rect width="25" height="25" x="1136.5" y="1186.5" style="fill:transparent;stroke:#1d2b47;stroke-width:4px"/><rect width="25" height="25" x="1186.5" y="1186.5" style="fill:transparent;stroke:#1d2b47;stroke-width:4px"/><rect width="25" height="25" x="1136.5" y="1161.5" style="fill:transparent;stroke:#1d2b47;stroke-width:4px"/><rect width="25" height="25" x="1161.5" y="1186.5" style="fill:transparent;stroke:#1d2b47;stroke-width:4px"/><rect width="25" height="25" x="1186.5" y="1211.5" style="fill:transparent;stroke:#1d2b47;stroke-width:4px"/><rect width="25" height="25" x="1161.5" y="1186.5" style="fill:transparent;stroke:#1d2b47;stroke-width:4px"/><rect width="25" height="25" x="1161.5" y="1236.5" style="fill:transparent;stroke:#1d2b47;stroke-width:4px"/><rect width="100" height="100" x="924" y="1024" style="fill:transparent;stroke:#1d2b47;stroke-width:4px"/><rect width="100" height="100" x="924" y="924" style="fill:transparent;stroke:#1d2b47;stroke-width:4px"/><rect width="50" height="50" x="999" y="999" style="fill:transparent;stroke:#1d2b47;stroke-width:4px"/><rect width="50" height="50" x="999" y="999" style="fill:transparent;stroke:#1d2b47;stroke-width:4px"/><rect width="50" height="50" x="899" y="999" style="fill:transparent;stroke:#1d2b47;stroke-width:4px"/><rect width="25" height="25" x="1036.5" y="986.5" style="fill:transparent;stroke:#1d2b47;stroke-width:4px"/><circle cx="999" cy="999" r="6" style="fill:#1d2b47"/><rect width="25" height="25" x="1036.5" y="986.5" style="fill:transparent;stroke:#1d2b47;stroke-width:4px"/><rect width="25" height="25" x="1036.5" y="1036.5" style="fill:transparent;stroke:#1d2b47;stroke-width:4px"/><rect width="25" height="25" x="1036.5" y="1036.5" style="fill:transparent;stroke:#1d2b47;stroke-width:4px"/><rect width="25" height="25" x="986.5" y="1036.5" style="fill:transparent;stroke:#1d2b47;stroke-width:4px"/><rect width="25" height="25" x="986.5" y="1011.5" style="fill:transparent;stroke:#1d2b47;stroke-width:4px"/><rect width="25" height="25" x="1011.5" y="1036.5" style="fill:transparent;stroke:#1d2b47;stroke-width:4px"/><rect width="25" height="25" x="1011.5" y="986.5" style="fill:transparent;stroke:#1d2b47;stroke-width:4px"/><circle cx="999" cy="1024" r="6" style="fill:#1d2b47"/><rect width="25" height="25" x="986.5" y="1011.5" style="fill:transparent;stroke:#1d2b47;stroke-width:4px"/><circle cx="1024" cy="1049" r="6" style="fill:#1d2b47"/><rect width="25" height="25" x="1011.5" y="986.5" style="fill:transparent;stroke:#1d2b47;stroke-width:4px"/><rect width="25" height="25" x="986.5" y="1011.5" style="fill:transparent;stroke:#1d2b47;stroke-width:4px"/><rect width="25" height="25" x="936.5" y="1011.5" style="fill:transparent;stroke:#1d2b47;stroke-width:4px"/><rect width="25" height="25" x="936.5" y="1011.5" style="fill:transparent;stroke:#1d2b47;stroke-width:4px"/><rect width="100" height="100" x="774" y="1074" style="fill:transparent;stroke:#1d2b47;stroke-width:4px"/><rect width="100" height="100" x="874" y="974" style="fill:transparent;stroke:#1d2b47;stroke-width:4px"/><rect width="50" height="50" x="849" y="1049" style="fill:transparent;stroke:#1d2b47;stroke-width:4px"/><rect width="25" height="25" x="836.5" y="1061.5" style="fill:transparent;stroke:#1d2b47;stroke-width:4px"/><rect width="25" height="25" x="861.5" y="1086.5" style="fill:transparent;stroke:#1d2b47;stroke-width:4px"/><circle cx="899" cy="1074" r="6" style="fill:#1d2b47"/><rect width="100" height="100" x="1074" y="874" style="fill:transparent;stroke:#1d2b47;stroke-width:4px"/><rect width="100" height="100" x="1074" y="974" style="fill:transparent;stroke:#1d2b47;stroke-width:4px"/><rect width="50" height="50" x="1149" y="949" style="fill:transparent;stroke:#1d2b47;stroke-width:4px"/><rect width="50" height="50" x="1049" y="949" style="fill:transparent;stroke:#1d2b47;stroke-width:4px"/><rect width="50" height="50" x="1149" y="949" style="fill:transparent;stroke:#1d2b47;stroke-width:4px"/><rect width="25" height="25" x="1186.5" y="936.5" style="fill:transparent;stroke:#1d2b47;stroke-width:4px"/><rect width="25" height="25" x="1136.5" y="936.5" style="fill:transparent;stroke:#1d2b47;stroke-width:4px"/><rect width="25" height="25" x="1186.5" y="936.5" style="fill:transparent;stroke:#1d2b47;stroke-width:4px"/><rect width="25" height="25" x="1186.5" y="986.5" style="fill:transparent;stroke:#1d2b47;stroke-width:4px"/><rect width="25" height="25" x="1186.5" y="986.5" style="fill:transparent;stroke:#1d2b47;stroke-width:4px"/><rect width="25" height="25" x="1136.5" y="986.5" style="fill:transparent;stroke:#1d2b47;stroke-width:4px"/><rect width="25" height="25" x="1161.5" y="936.5" style="fill:transparent;stroke:#1d2b47;stroke-width:4px"/><rect width="25" height="25" x="1136.5" y="961.5" style="fill:transparent;stroke:#1d2b47;stroke-width:4px"/><rect width="25" height="25" x="1136.5" y="961.5" style="fill:transparent;stroke:#1d2b47;stroke-width:4px"/><rect width="25" height="25" x="1161.5" y="986.5" style="fill:transparent;stroke:#1d2b47;stroke-width:4px"/><rect width="25" height="25" x="1086.5" y="961.5" style="fill:transparent;stroke:#1d2b47;stroke-width:4px"/><rect width="25" height="25" x="1086.5" y="961.5" style="fill:transparent;stroke:#1d2b47;stroke-width:4px"/><rect width="25" height="25" x="1161.5" y="936.5" style="fill:transparent;stroke:#1d2b47;stroke-width:4px"/><rect width="25" height="25" x="1136.5" y="961.5" style="fill:transparent;stroke:#1d2b47;stroke-width:4px"/><rect width="25" height="25" x="1136.5" y="961.5" style="fill:transparent;stroke:#1d2b47;stroke-width:4px"/><rect width="25" height="25" x="1161.5" y="986.5" style="fill:transparent;stroke:#1d2b47;stroke-width:4px"/><circle cx="1174" cy="1074" r="50" style="fill:transparent;stroke:#1d2b47;stroke-width:4px"/><rect width="100" height="100" x="1174" y="974" style="fill:transparent;stroke:#1d2b47;stroke-width:4px"/></g></svg>