<svg xmlns="http://www.w3.org/2000/svg" width="2048" height="2048" viewBox="0 0 2048 2048"><rect x="0" y="0" width="2048" height="2048" fill="#f5f5fa"/><g class="main-g" transform="scale(2) translate(-493.25, -512)"><rect x="1124" y="1074" width="100" height="100" style="fill: transparent; stroke: rgb(29, 43, 71); stroke-width: 4px;"/><rect x="1174" y="974" width="100" height="100" style="fill: transparent; stroke: rgb(29, 43, 71); stroke-width: 4px;"/><rect x="1199" y="1049" width="50" height="50" style="fill: transparent; stroke: rgb(29, 43, 71); stroke-width: 4px;"/><rect x="1186.5" y="1061.5" width="25" height="25" style="fill: transparent; stroke: rgb(29, 43, 71); stroke-width: 4px;"/><circle cx="1224" cy="1099" r="6" style="fill: rgb(29, 43, 71);"/><rect x="1236.5" y="1061.5" width="25" height="25" style="fill: transparent; stroke: rgb(29, 43, 71); stroke-width: 4px;"/><circle cx="1199" cy="1074" r="6" style="fill: rgb(29, 43, 71);"/><rect x="1024" y="1074" width="100" height="100" style="fill: transparent; stroke: rgb(29, 43, 71); stroke-width: 4px;"/><rect x="1024" y="1024" width="100" height="100" style="fill: transparent; stroke: rgb(29, 43, 71); stroke-width: 4px;"/><rect x="1099" y="1049" width="50" height="50" style="fill: transparent; stroke: rgb(29, 43, 71); stroke-width: 4px;"/><rect x="1099" y="1099" width="50" height="50" style="fill: transparent; stroke: rgb(29, 43, 71); stroke-width: 4px;"/><rect x="999" y="1099" width="50" height="50" style="fill: transparent; stroke: rgb(29, 43, 71); stroke-width: 4px;"/><circle cx="1149" cy="1099" r="6" style="fill: rgb(29, 43, 71);"/><circle cx="1099" cy="1099" r="6" style="fill: rgb(29, 43, 71);"/><circle cx="1149" cy="1099" r="6" style="fill: rgb(29, 43, 71);"/><circle cx="1099" cy="1074" r="6" style="fill: rgb(29, 43, 71);"/><circle cx="1124" cy="1099" r="6" style="fill: rgb(29, 43, 71);"/><circle cx="1124" cy="1049" r="6" style="fill: rgb(29, 43, 71);"/><circle cx="1124" cy="1099" r="6" style="fill: rgb(29, 43, 71);"/><circle cx="1124" cy="1099" r="6" style="fill: rgb(29, 43, 71);"/><rect x="1111.5" y="1136.5" width="25" height="25" style="fill: transparent; stroke: rgb(29, 43, 71); stroke-width: 4px;"/><rect x="1111.5" y="1086.5" width="25" height="25" style="fill: transparent; stroke: rgb(29, 43, 71); stroke-width: 4px;"/><circle cx="1099" cy="1124" r="6" style="fill: rgb(29, 43, 71);"/><rect x="1036.5" y="1111.5" width="25" height="25" style="fill: transparent; stroke: rgb(29, 43, 71); stroke-width: 4px;"/><rect x="1024" y="1174" width="100" height="100" style="fill: transparent; stroke: rgb(29, 43, 71); stroke-width: 4px;"/><rect x="974" y="1124" width="100" height="100" style="fill: transparent; stroke: rgb(29, 43, 71); stroke-width: 4px;"/><rect x="1049" y="1149" width="50" height="50" style="fill: transparent; stroke: rgb(29, 43, 71); stroke-width: 4px;"/><rect x="999" y="1199" width="50" height="50" style="fill: transparent; stroke: rgb(29, 43, 71); stroke-width: 4px;"/><rect x="1036.5" y="1186.5" width="25" height="25" style="fill: transparent; stroke: rgb(29, 43, 71); stroke-width: 4px;"/><circle cx="1049" cy="1199" r="6" style="fill: rgb(29, 43, 71);"/><circle cx="1099" cy="1174" r="6" style="fill: rgb(29, 43, 71);"/><rect x="1036.5" y="1161.5" width="25" height="25" style="fill: transparent; stroke: rgb(29, 43, 71); stroke-width: 4px;"/><rect x="1061.5" y="1136.5" width="25" height="25" style="fill: transparent; stroke: rgb(29, 43, 71); stroke-width: 4px;"/><circle cx="1074" cy="1199" r="6" style="fill: rgb(29, 43, 71);"/><circle cx="1049" cy="1224" r="6" style="fill: rgb(29, 43, 71);"/><circle cx="999" cy="1224" r="6" style="fill: rgb(29, 43, 71);"/><rect x="824" y="1024" width="100" height="100" style="fill: transparent; stroke: rgb(29, 43, 71); stroke-width: 4px;"/><rect x="824" y="1024" width="100" height="100" style="fill: transparent; stroke: rgb(29, 43, 71); stroke-width: 4px;"/><rect x="899" y="999" width="50" height="50" style="fill: transparent; stroke: rgb(29, 43, 71); stroke-width: 4px;"/><rect x="799" y="999" width="50" height="50" style="fill: transparent; stroke: rgb(29, 43, 71); stroke-width: 4px;"/><rect x="899" y="999" width="50" height="50" style="fill: transparent; stroke: rgb(29, 43, 71); stroke-width: 4px;"/><rect x="899" y="1099" width="50" height="50" style="fill: transparent; stroke: rgb(29, 43, 71); stroke-width: 4px;"/><rect x="899" y="1099" width="50" height="50" style="fill: transparent; stroke: rgb(29, 43, 71); stroke-width: 4px;"/><rect x="799" y="1099" width="50" height="50" style="fill: transparent; stroke: rgb(29, 43, 71); stroke-width: 4px;"/><circle cx="949" cy="999" r="6" style="fill: rgb(29, 43, 71);"/><rect x="886.5" y="986.5" width="25" height="25" style="fill: transparent; stroke: rgb(29, 43, 71); stroke-width: 4px;"/><circle cx="949" cy="999" r="6" style="fill: rgb(29, 43, 71);"/><circle cx="949" cy="1049" r="6" style="fill: rgb(29, 43, 71);"/><circle cx="949" cy="1049" r="6" style="fill: rgb(29, 43, 71);"/><circle cx="899" cy="1049" r="6" style="fill: rgb(29, 43, 71);"/><circle cx="949" cy="1099" r="6" style="fill: rgb(29, 43, 71);"/><circle cx="899" cy="1099" r="6" style="fill: rgb(29, 43, 71);"/><rect x="936.5" y="1086.5" width="25" height="25" style="fill: transparent; stroke: rgb(29, 43, 71); stroke-width: 4px;"/><circle cx="949" cy="1149" r="6" style="fill: rgb(29, 43, 71);"/><circle cx="949" cy="1149" r="6" style="fill: rgb(29, 43, 71);"/><circle cx="899" cy="1149" r="6" style="fill: rgb(29, 43, 71);"/><circle cx="899" cy="1024" r="6" style="fill: rgb(29, 43, 71);"/><circle cx="924" cy="1049" r="6" style="fill: rgb(29, 43, 71);"/><rect x="886.5" y="1011.5" width="25" height="25" style="fill: transparent; stroke: rgb(29, 43, 71); stroke-width: 4px;"/><rect x="911.5" y="1036.5" width="25" height="25" style="fill: transparent; stroke: rgb(29, 43, 71); stroke-width: 4px;"/><circle cx="849" cy="1024" r="6" style="fill: rgb(29, 43, 71);"/><circle cx="849" cy="1024" r="6" style="fill: rgb(29, 43, 71);"/><circle cx="899" cy="1024" r="6" style="fill: rgb(29, 43, 71);"/><circle cx="924" cy="1049" r="6" style="fill: rgb(29, 43, 71);"/><circle cx="899" cy="1024" r="6" style="fill: rgb(29, 43, 71);"/><rect x="911.5" y="1036.5" width="25" height="25" style="fill: transparent; stroke: rgb(29, 43, 71); stroke-width: 4px;"/><circle cx="924" cy="1099" r="6" style="fill: rgb(29, 43, 71);"/><circle cx="899" cy="1124" r="12.5" style="fill: transparent; stroke: rgb(29, 43, 71); stroke-width: 4px;"/><circle cx="924" cy="1099" r="6" style="fill: rgb(29, 43, 71);"/><circle cx="899" cy="1124" r="6" style="fill: rgb(29, 43, 71);"/><circle cx="924" cy="1099" r="6" style="fill: rgb(29, 43, 71);"/><circle cx="899" cy="1124" r="6" style="fill: rgb(29, 43, 71);"/><circle cx="924" cy="1099" r="6" style="fill: rgb(29, 43, 71);"/><circle cx="899" cy="1124" r="6" style="fill: rgb(29, 43, 71);"/><circle cx="849" cy="1124" r="6" style="fill: rgb(29, 43, 71);"/><circle cx="849" cy="1124" r="6" style="fill: rgb(29, 43, 71);"/><rect x="1124" y="774" width="100" height="100" style="fill: transparent; stroke: rgb(29, 43, 71); stroke-width: 4px;"/><rect x="1074" y="874" width="100" height="100" style="fill: transparent; stroke: rgb(29, 43, 71); stroke-width: 4px;"/><rect x="1099" y="849" width="50" height="50" style="fill: transparent; stroke: rgb(29, 43, 71); stroke-width: 4px;"/><rect x="1149" y="849" width="50" height="50" style="fill: transparent; stroke: rgb(29, 43, 71); stroke-width: 4px;"/><circle cx="1149" cy="849" r="6" style="fill: rgb(29, 43, 71);"/><circle cx="1149" cy="899" r="6" style="fill: rgb(29, 43, 71);"/><circle cx="1149" cy="874" r="6" style="fill: rgb(29, 43, 71);"/><circle cx="1149" cy="874" r="6" style="fill: rgb(29, 43, 71);"/><circle cx="1099" cy="874" r="6" style="fill: rgb(29, 43, 71);"/><circle cx="1199" cy="874" r="6" style="fill: rgb(29, 43, 71);"/><circle cx="1149" cy="874" r="6" style="fill: rgb(29, 43, 71);"/><circle cx="1149" cy="874" r="6" style="fill: rgb(29, 43, 71);"/><circle cx="1174" cy="899" r="6" style="fill: rgb(29, 43, 71);"/><rect x="824" y="1024" width="100" height="100" style="fill: transparent; stroke: rgb(29, 43, 71); stroke-width: 4px;"/><rect x="874" y="1024" width="100" height="100" style="fill: transparent; stroke: rgb(29, 43, 71); stroke-width: 4px;"/><rect x="899" y="999" width="50" height="50" style="fill: transparent; stroke: rgb(29, 43, 71); stroke-width: 4px;"/><rect x="899" y="1099" width="50" height="50" style="fill: transparent; stroke: rgb(29, 43, 71); stroke-width: 4px;"/><circle cx="899" cy="1024" r="6" style="fill: rgb(29, 43, 71);"/><circle cx="924" cy="1049" r="6" style="fill: rgb(29, 43, 71);"/><rect x="936.5" y="1011.5" width="25" height="25" style="fill: transparent; stroke: rgb(29, 43, 71); stroke-width: 4px;"/><circle cx="899" cy="1024" r="6" style="fill: rgb(29, 43, 71);"/><circle cx="924" cy="1099" r="6" style="fill: rgb(29, 43, 71);"/><rect x="886.5" y="1111.5" width="25" height="25" style="fill: transparent; stroke: rgb(29, 43, 71); stroke-width: 4px;"/><circle cx="949" cy="1124" r="6" style="fill: rgb(29, 43, 71);"/><circle cx="899" cy="1124" r="6" style="fill: rgb(29, 43, 71);"/><rect x="1124" y="974" width="100" height="100" style="fill: transparent; stroke: rgb(29, 43, 71); stroke-width: 4px;"/><rect x="1024" y="1074" width="100" height="100" style="fill: transparent; stroke: rgb(29, 43, 71); stroke-width: 4px;"/><rect x="1099" y="1049" width="50" height="50" style="fill: transparent; stroke: rgb(29, 43, 71); stroke-width: 4px;"/><rect x="1099" y="1049" width="50" height="50" style="fill: transparent; stroke: rgb(29, 43, 71); stroke-width: 4px;"/><circle cx="1149" cy="1049" r="6" style="fill: rgb(29, 43, 71);"/><circle cx="1099" cy="1049" r="6" style="fill: rgb(29, 43, 71);"/><circle cx="1149" cy="1049" r="6" style="fill: rgb(29, 43, 71);"/><circle cx="1149" cy="1099" r="6" style="fill: rgb(29, 43, 71);"/><rect x="1136.5" y="1086.5" width="25" height="25" style="fill: transparent; stroke: rgb(29, 43, 71); stroke-width: 4px;"/><rect x="1086.5" y="1086.5" width="25" height="25" style="fill: transparent; stroke: rgb(29, 43, 71); stroke-width: 4px;"/><circle cx="1149" cy="1074" r="6" style="fill: rgb(29, 43, 71);"/><circle cx="1099" cy="1074" r="6" style="fill: rgb(29, 43, 71);"/><circle cx="1124" cy="1099" r="6" style="fill: rgb(29, 43, 71);"/><circle cx="1149" cy="1074" r="6" style="fill: rgb(29, 43, 71);"/><circle cx="1099" cy="1074" r="6" style="fill: rgb(29, 43, 71);"/><rect x="1111.5" y="1086.5" width="25" height="25" style="fill: transparent; stroke: rgb(29, 43, 71); stroke-width: 4px;"/><rect x="1174" y="924" width="100" height="100" style="fill: transparent; stroke: rgb(29, 43, 71); stroke-width: 4px;"/><rect x="1174" y="924" width="100" height="100" style="fill: transparent; stroke: rgb(29, 43, 71); stroke-width: 4px;"/><rect x="1249" y="899" width="50" height="50" style="fill: transparent; stroke: rgb(29, 43, 71); stroke-width: 4px;"/><rect x="1149" y="899" width="50" height="50" style="fill: transparent; stroke: rgb(29, 43, 71); stroke-width: 4px;"/><rect x="1249" y="899" width="50" height="50" style="fill: transparent; stroke: rgb(29, 43, 71); stroke-width: 4px;"/><rect x="1249" y="999" width="50" height="50" style="fill: transparent; stroke: rgb(29, 43, 71); stroke-width: 4px;"/><rect x="1249" y="999" width="50" height="50" style="fill: transparent; stroke: rgb(29, 43, 71); stroke-width: 4px;"/><rect x="1149" y="999" width="50" height="50" style="fill: transparent; stroke: rgb(29, 43, 71); stroke-width: 4px;"/><circle cx="1299" cy="899" r="6" style="fill: rgb(29, 43, 71);"/><circle cx="1249" cy="899" r="6" style="fill: rgb(29, 43, 71);"/><circle cx="1299" cy="899" r="6" style="fill: rgb(29, 43, 71);"/><circle cx="1299" cy="949" r="6" style="fill: rgb(29, 43, 71);"/><circle cx="1299" cy="949" r="6" style="fill: rgb(29, 43, 71);"/><circle cx="1249" cy="949" r="6" style="fill: rgb(29, 43, 71);"/><rect x="1286.5" y="986.5" width="25" height="25" style="fill: transparent; stroke: rgb(29, 43, 71); stroke-width: 4px;"/><circle cx="1249" cy="999" r="6" style="fill: rgb(29, 43, 71);"/><circle cx="1299" cy="999" r="6" style="fill: rgb(29, 43, 71);"/><circle cx="1299" cy="1049" r="6" style="fill: rgb(29, 43, 71);"/><circle cx="1299" cy="1049" r="6" style="fill: rgb(29, 43, 71);"/><circle cx="1249" cy="1049" r="6" style="fill: rgb(29, 43, 71);"/><rect x="1236.5" y="911.5" width="25" height="25" style="fill: transparent; stroke: rgb(29, 43, 71); stroke-width: 4px;"/><circle cx="1274" cy="949" r="6" style="fill: rgb(29, 43, 71);"/><circle cx="1249" cy="924" r="6" style="fill: rgb(29, 43, 71);"/><circle cx="1274" cy="949" r="6" style="fill: rgb(29, 43, 71);"/><circle cx="1199" cy="924" r="6" style="fill: rgb(29, 43, 71);"/><circle cx="1199" cy="924" r="6" style="fill: rgb(29, 43, 71);"/><circle cx="1249" cy="924" r="6" style="fill: rgb(29, 43, 71);"/><rect x="1261.5" y="936.5" width="25" height="25" style="fill: transparent; stroke: rgb(29, 43, 71); stroke-width: 4px;"/><circle cx="1249" cy="924" r="6" style="fill: rgb(29, 43, 71);"/><rect x="1261.5" y="936.5" width="25" height="25" style="fill: transparent; stroke: rgb(29, 43, 71); stroke-width: 4px;"/><circle cx="1274" cy="999" r="6" style="fill: rgb(29, 43, 71);"/><rect x="1236.5" y="1011.5" width="25" height="25" style="fill: transparent; stroke: rgb(29, 43, 71); stroke-width: 4px;"/><circle cx="1274" cy="999" r="6" style="fill: rgb(29, 43, 71);"/><circle cx="1249" cy="1024" r="6" style="fill: rgb(29, 43, 71);"/><circle cx="1274" cy="999" r="6" style="fill: rgb(29, 43, 71);"/><circle cx="1249" cy="1024" r="6" style="fill: rgb(29, 43, 71);"/><circle cx="1274" cy="999" r="6" style="fill: rgb(29, 43, 71);"/><circle cx="1249" cy="1024" r="6" style="fill: rgb(29, 43, 71);"/><circle cx="1199" cy="1024" r="6" style="fill: rgb(29, 43, 71);"/><circle cx="1199" cy="1024" r="6" style="fill: rgb(29, 43, 71);"/><rect x="724" y="974" width="100" height="100" style="fill: transparent; stroke: rgb(29, 43, 71); stroke-width: 4px;"/><rect x="724" y="974" width="100" height="100" style="fill: transparent; stroke: rgb(29, 43, 71); stroke-width: 4px;"/><rect x="799" y="949" width="50" height="50" style="fill: transparent; stroke: rgb(29, 43, 71); stroke-width: 4px;"/><rect x="699" y="949" width="50" height="50" style="fill: transparent; stroke: rgb(29, 43, 71); stroke-width: 4px;"/><rect x="799" y="949" width="50" height="50" style="fill: transparent; stroke: rgb(29, 43, 71); stroke-width: 4px;"/><rect x="799" y="1049" width="50" height="50" style="fill: transparent; stroke: rgb(29, 43, 71); stroke-width: 4px;"/><rect x="799" y="1049" width="50" height="50" style="fill: transparent; stroke: rgb(29, 43, 71); stroke-width: 4px;"/><rect x="699" y="1049" width="50" height="50" style="fill: transparent; stroke: rgb(29, 43, 71); stroke-width: 4px;"/><circle cx="849" cy="949" r="6" style="fill: rgb(29, 43, 71);"/><rect x="786.5" y="936.5" width="25" height="25" style="fill: transparent; stroke: rgb(29, 43, 71); stroke-width: 4px;"/><circle cx="849" cy="949" r="6" style="fill: rgb(29, 43, 71);"/><circle cx="849" cy="999" r="6" style="fill: rgb(29, 43, 71);"/><circle cx="849" cy="999" r="6" style="fill: rgb(29, 43, 71);"/><circle cx="799" cy="999" r="6" style="fill: rgb(29, 43, 71);"/><rect x="836.5" y="1036.5" width="25" height="25" style="fill: transparent; stroke: rgb(29, 43, 71); stroke-width: 4px;"/><rect x="786.5" y="1036.5" width="25" height="25" style="fill: transparent; stroke: rgb(29, 43, 71); stroke-width: 4px;"/><rect x="836.5" y="1036.5" width="25" height="25" style="fill: transparent; stroke: rgb(29, 43, 71); stroke-width: 4px;"/><circle cx="849" cy="1099" r="6" style="fill: rgb(29, 43, 71);"/><rect x="836.5" y="1086.5" width="25" height="25" style="fill: transparent; stroke: rgb(29, 43, 71); stroke-width: 4px;"/><circle cx="799" cy="1099" r="6" style="fill: rgb(29, 43, 71);"/><circle cx="799" cy="974" r="6" style="fill: rgb(29, 43, 71);"/><circle cx="824" cy="999" r="6" style="fill: rgb(29, 43, 71);"/><circle cx="799" cy="974" r="6" style="fill: rgb(29, 43, 71);"/><circle cx="824" cy="999" r="6" style="fill: rgb(29, 43, 71);"/><circle cx="749" cy="974" r="6" style="fill: rgb(29, 43, 71);"/><circle cx="749" cy="974" r="6" style="fill: rgb(29, 43, 71);"/><rect x="786.5" y="961.5" width="25" height="25" style="fill: transparent; stroke: rgb(29, 43, 71); stroke-width: 4px;"/><circle cx="824" cy="999" r="6" style="fill: rgb(29, 43, 71);"/><circle cx="799" cy="974" r="6" style="fill: rgb(29, 43, 71);"/><circle cx="824" cy="999" r="6" style="fill: rgb(29, 43, 71);"/><circle cx="824" cy="1049" r="6" style="fill: rgb(29, 43, 71);"/><circle cx="799" cy="1074" r="6" style="fill: rgb(29, 43, 71);"/><circle cx="824" cy="1049" r="6" style="fill: rgb(29, 43, 71);"/><circle cx="799" cy="1074" r="6" style="fill: rgb(29, 43, 71);"/><circle cx="824" cy="1049" r="6" style="fill: rgb(29, 43, 71);"/><rect x="786.5" y="1061.5" width="25" height="25" style="fill: transparent; stroke: rgb(29, 43, 71); stroke-width: 4px;"/><rect x="811.5" y="1036.5" width="25" height="25" style="fill: transparent; stroke: rgb(29, 43, 71); stroke-width: 4px;"/><circle cx="799" cy="1074" r="6" style="fill: rgb(29, 43, 71);"/><circle cx="749" cy="1074" r="6" style="fill: rgb(29, 43, 71);"/><circle cx="749" cy="1074" r="6" style="fill: rgb(29, 43, 71);"/><rect x="1124" y="874" width="100" height="100" style="fill: transparent; stroke: rgb(29, 43, 71); stroke-width: 4px;"/><rect x="1124" y="874" width="100" height="100" style="fill: transparent; stroke: rgb(29, 43, 71); stroke-width: 4px;"/><rect x="1199" y="849" width="50" height="50" style="fill: transparent; stroke: rgb(29, 43, 71); stroke-width: 4px;"/><rect x="1099" y="849" width="50" height="50" style="fill: transparent; stroke: rgb(29, 43, 71); stroke-width: 4px;"/><rect x="1199" y="849" width="50" height="50" style="fill: transparent; stroke: rgb(29, 43, 71); stroke-width: 4px;"/><rect x="1199" y="949" width="50" height="50" style="fill: transparent; stroke: rgb(29, 43, 71); stroke-width: 4px;"/><rect x="1199" y="949" width="50" height="50" style="fill: transparent; stroke: rgb(29, 43, 71); stroke-width: 4px;"/><rect x="1099" y="949" width="50" height="50" style="fill: transparent; stroke: rgb(29, 43, 71); stroke-width: 4px;"/><circle cx="1249" cy="849" r="6" style="fill: rgb(29, 43, 71);"/><circle cx="1199" cy="849" r="6" style="fill: rgb(29, 43, 71);"/><rect x="1236.5" y="836.5" width="25" height="25" style="fill: transparent; stroke: rgb(29, 43, 71); stroke-width: 4px;"/><rect x="1236.5" y="886.5" width="25" height="25" style="fill: transparent; stroke: rgb(29, 43, 71); stroke-width: 4px;"/><circle cx="1249" cy="899" r="6" style="fill: rgb(29, 43, 71);"/><circle cx="1199" cy="899" r="6" style="fill: rgb(29, 43, 71);"/><circle cx="1249" cy="949" r="6" style="fill: rgb(29, 43, 71);"/><circle cx="1199" cy="949" r="6" style="fill: rgb(29, 43, 71);"/><circle cx="1249" cy="949" r="6" style="fill: rgb(29, 43, 71);"/><rect x="1236.5" y="986.5" width="25" height="25" style="fill: transparent; stroke: rgb(29, 43, 71); stroke-width: 4px;"/><rect x="1236.5" y="986.5" width="25" height="25" style="fill: transparent; stroke: rgb(29, 43, 71); stroke-width: 4px;"/><circle cx="1199" cy="999" r="6" style="fill: rgb(29, 43, 71);"/><circle cx="1199" cy="874" r="6" style="fill: rgb(29, 43, 71);"/><circle cx="1224" cy="899" r="6" style="fill: rgb(29, 43, 71);"/><circle cx="1199" cy="874" r="6" style="fill: rgb(29, 43, 71);"/><rect x="1211.5" y="886.5" width="25" height="25" style="fill: transparent; stroke: rgb(29, 43, 71); stroke-width: 4px;"/><circle cx="1149" cy="874" r="6" style="fill: rgb(29, 43, 71);"/><rect x="1136.5" y="861.5" width="25" height="25" style="fill: transparent; stroke: rgb(29, 43, 71); stroke-width: 4px;"/><rect x="1186.5" y="861.5" width="25" height="25" style="fill: transparent; stroke: rgb(29, 43, 71); stroke-width: 4px;"/><circle cx="1224" cy="899" r="6" style="fill: rgb(29, 43, 71);"/><circle cx="1199" cy="874" r="6" style="fill: rgb(29, 43, 71);"/><circle cx="1224" cy="899" r="6" style="fill: rgb(29, 43, 71);"/><circle cx="1224" cy="949" r="6" style="fill: rgb(29, 43, 71);"/><circle cx="1199" cy="974" r="6" style="fill: rgb(29, 43, 71);"/><circle cx="1224" cy="949" r="6" style="fill: rgb(29, 43, 71);"/><circle cx="1199" cy="974" r="6" style="fill: rgb(29, 43, 71);"/><rect x="1211.5" y="936.5" width="25" height="25" style="fill: transparent; stroke: rgb(29, 43, 71); stroke-width: 4px;"/><circle cx="1199" cy="974" r="6" style="fill: rgb(29, 43, 71);"/><circle cx="1224" cy="949" r="6" style="fill: rgb(29, 43, 71);"/><circle cx="1199" cy="974" r="6" style="fill: rgb(29, 43, 71);"/><circle cx="1149" cy="974" r="6" style="fill: rgb(29, 43, 71);"/><circle cx="1149" cy="974" r="6" style="fill: rgb(29, 43, 71);"/></g></svg>