<svg xmlns="http://www.w3.org/2000/svg" width="2048" height="2048" viewBox="0 0 2048 2048"><rect width="2048" height="2048" x="0" y="0" fill="#f5f5fa"/><g class="main-g" transform="scale(2) translate(-587, -512)"><rect width="400" height="400" x="824" y="774" style="fill:transparent;stroke:#1d2b47;stroke-width:10px"/><rect width="400" height="400" x="924" y="724" style="fill:transparent;stroke:#1d2b47;stroke-width:10px"/><rect width="200" height="200" x="1124" y="1024" style="fill:transparent;stroke:#1d2b47;stroke-width:10px"/><circle cx="1224" cy="1024" r="20" style="fill:#1d2b47"/><rect width="100" height="100" x="1074" y="1124" style="fill:transparent;stroke:#1d2b47;stroke-width:10px"/><rect width="100" height="100" x="1274" y="974" style="fill:transparent;stroke:#1d2b47;stroke-width:10px"/><rect width="100" height="100" x="1274" y="1074" style="fill:transparent;stroke:#1d2b47;stroke-width:10px"/><circle cx="1124" cy="1124" r="20" style="fill:#1d2b47"/><rect width="400" height="400" x="824" y="874" style="fill:transparent;stroke:#1d2b47;stroke-width:10px"/><rect width="400" height="400" x="874" y="774" style="fill:transparent;stroke:#1d2b47;stroke-width:10px"/><rect width="200" height="200" x="1124" y="1074" style="fill:transparent;stroke:#1d2b47;stroke-width:10px"/><circle cx="1224" cy="1074" r="20" style="fill:#1d2b47"/><circle cx="1224" cy="1274" r="20" style="fill:#1d2b47"/><rect width="100" height="100" x="1074" y="1224" style="fill:transparent;stroke:#1d2b47;stroke-width:10px"/><rect width="100" height="100" x="1224" y="1024" style="fill:transparent;stroke:#1d2b47;stroke-width:10px"/><rect width="100" height="100" x="1074" y="1124" style="fill:transparent;stroke:#1d2b47;stroke-width:10px"/></g></svg>