<svg xmlns="http://www.w3.org/2000/svg" width="2048" height="2048" viewBox="0 0 2048 2048"><rect width="2048" height="2048" x="0" y="0" fill="#f5f5fa"/><g class="main-g" transform="scale(2) translate(-237, -512)"><rect width="400" height="400" x="574" y="824" style="fill:transparent;stroke:#1d2b47;stroke-width:10px"/><rect width="400" height="400" x="524" y="824" style="fill:transparent;stroke:#1d2b47;stroke-width:10px"/><rect width="200" height="200" x="474" y="724" style="fill:transparent;stroke:#1d2b47;stroke-width:10px"/><rect width="200" height="200" x="824" y="724" style="fill:transparent;stroke:#1d2b47;stroke-width:10px"/><rect width="200" height="200" x="824" y="1124" style="fill:transparent;stroke:#1d2b47;stroke-width:10px"/><rect width="200" height="200" x="474" y="1124" style="fill:transparent;stroke:#1d2b47;stroke-width:10px"/><circle cx="674" cy="824" r="20" style="fill:#1d2b47"/><circle cx="674" cy="824" r="20" style="fill:#1d2b47"/><circle cx="824" cy="824" r="20" style="fill:#1d2b47"/><rect width="100" height="100" x="924" y="874" style="fill:transparent;stroke:#1d2b47;stroke-width:10px"/><circle cx="824" cy="824" r="50" style="fill:transparent;stroke:#1d2b47;stroke-width:10px"/><circle cx="924" cy="924" r="20" style="fill:#1d2b47"/><circle cx="974" cy="1124" r="20" style="fill:#1d2b47"/><circle cx="824" cy="1224" r="20" style="fill:#1d2b47"/><circle cx="924" cy="1124" r="20" style="fill:#1d2b47"/><rect width="100" height="100" x="774" y="1174" style="fill:transparent;stroke:#1d2b47;stroke-width:10px"/><circle cx="674" cy="1224" r="50" style="fill:transparent;stroke:#1d2b47;stroke-width:10px"/><circle cx="674" cy="1224" r="20" style="fill:#1d2b47"/></g></svg>