<svg xmlns="http://www.w3.org/2000/svg" width="2048" height="2048" viewBox="0 0 2048 2048"><rect width="2048" height="2048" x="0" y="0" fill="#f5f5fa"/><g class="main-g" transform="scale(2) translate(-424.5, -512)"><rect width="100" height="100" x="924" y="774" style="fill:transparent;stroke:#1d2b47;stroke-width:4px"/><circle cx="1024" cy="874" r="50" style="fill:transparent;stroke:#1d2b47;stroke-width:4px"/><rect width="100" height="100" x="924" y="824" style="fill:transparent;stroke:#1d2b47;stroke-width:4px"/><circle cx="924" cy="824" r="50" style="fill:transparent;stroke:#1d2b47;stroke-width:4px"/><rect width="100" height="100" x="724" y="874" style="fill:transparent;stroke:#1d2b47;stroke-width:4px"/><rect width="100" height="100" x="724" y="974" style="fill:transparent;stroke:#1d2b47;stroke-width:4px"/><rect width="50" height="50" x="799" y="949" style="fill:transparent;stroke:#1d2b47;stroke-width:4px"/><rect width="50" height="50" x="699" y="949" style="fill:transparent;stroke:#1d2b47;stroke-width:4px"/><rect width="50" height="50" x="799" y="949" style="fill:transparent;stroke:#1d2b47;stroke-width:4px"/><circle cx="849" cy="949" r="6" style="fill:#1d2b47"/><circle cx="799" cy="949" r="6" style="fill:#1d2b47"/><circle cx="849" cy="949" r="6" style="fill:#1d2b47"/><circle cx="849" cy="999" r="6" style="fill:#1d2b47"/><circle cx="849" cy="999" r="6" style="fill:#1d2b47"/><circle cx="799" cy="999" r="6" style="fill:#1d2b47"/><circle cx="824" cy="949" r="6" style="fill:#1d2b47"/><rect width="25" height="25" x="786.5" y="961.5" style="fill:transparent;stroke:#1d2b47;stroke-width:4px"/><circle cx="799" cy="974" r="6" style="fill:#1d2b47"/><circle cx="824" cy="999" r="6" style="fill:#1d2b47"/><circle cx="749" cy="974" r="6" style="fill:#1d2b47"/><rect width="25" height="25" x="736.5" y="961.5" style="fill:transparent;stroke:#1d2b47;stroke-width:4px"/><circle cx="824" cy="949" r="6" style="fill:#1d2b47"/><circle cx="799" cy="974" r="6" style="fill:#1d2b47"/><circle cx="799" cy="974" r="6" style="fill:#1d2b47"/><circle cx="824" cy="999" r="6" style="fill:#1d2b47"/><rect width="100" height="100" x="924" y="1074" style="fill:transparent;stroke:#1d2b47;stroke-width:4px"/><rect width="100" height="100" x="974" y="1174" style="fill:transparent;stroke:#1d2b47;stroke-width:4px"/><rect width="50" height="50" x="999" y="1149" style="fill:transparent;stroke:#1d2b47;stroke-width:4px"/><circle cx="1024" cy="1149" r="6" style="fill:#1d2b47"/><circle cx="999" cy="1174" r="6" style="fill:#1d2b47"/><circle cx="1049" cy="1174" r="6" style="fill:#1d2b47"/><circle cx="999" cy="1174" r="6" style="fill:#1d2b47"/><rect width="100" height="100" x="874" y="924" style="fill:transparent;stroke:#1d2b47;stroke-width:4px"/><rect width="100" height="100" x="974" y="874" style="fill:transparent;stroke:#1d2b47;stroke-width:4px"/><rect width="50" height="50" x="949" y="949" style="fill:transparent;stroke:#1d2b47;stroke-width:4px"/><circle cx="974" cy="949" r="6" style="fill:#1d2b47"/><circle cx="974" cy="999" r="6" style="fill:#1d2b47"/><circle cx="999" cy="974" r="6" style="fill:#1d2b47"/><rect width="100" height="100" x="774" y="974" style="fill:transparent;stroke:#1d2b47;stroke-width:4px"/><rect width="100" height="100" x="824" y="924" style="fill:transparent;stroke:#1d2b47;stroke-width:4px"/><rect width="50" height="50" x="849" y="999" style="fill:transparent;stroke:#1d2b47;stroke-width:4px"/><rect width="25" height="25" x="861.5" y="986.5" style="fill:transparent;stroke:#1d2b47;stroke-width:4px"/><circle cx="874" cy="1049" r="6" style="fill:#1d2b47"/><circle cx="899" cy="1024" r="6" style="fill:#1d2b47"/><circle cx="849" cy="1024" r="6" style="fill:#1d2b47"/><rect width="100" height="100" x="1074" y="974" style="fill:transparent;stroke:#1d2b47;stroke-width:4px"/><rect width="100" height="100" x="1024" y="1024" style="fill:transparent;stroke:#1d2b47;stroke-width:4px"/><rect width="50" height="50" x="1049" y="999" style="fill:transparent;stroke:#1d2b47;stroke-width:4px"/><rect width="50" height="50" x="1099" y="1049" style="fill:transparent;stroke:#1d2b47;stroke-width:4px"/><circle cx="1099" cy="1049" r="6" style="fill:#1d2b47"/><circle cx="1099" cy="1024" r="6" style="fill:#1d2b47"/><circle cx="1049" cy="1024" r="6" style="fill:#1d2b47"/><circle cx="1149" cy="1074" r="6" style="fill:#1d2b47"/><circle cx="1099" cy="1074" r="6" style="fill:#1d2b47"/><circle cx="1124" cy="1049" r="6" style="fill:#1d2b47"/><rect width="25" height="25" x="1111.5" y="1086.5" style="fill:transparent;stroke:#1d2b47;stroke-width:4px"/></g></svg>