<svg xmlns="http://www.w3.org/2000/svg" width="2048" height="2048" viewBox="0 0 2048 2048"><rect x="0" y="0" width="2048" height="2048" fill="#f5f5fa"/><g class="main-g" transform="scale(2) translate(-237, -512)"><rect x="574" y="824" width="400" height="400" style="fill: transparent; stroke: rgb(29, 43, 71); stroke-width: 10px;"/><rect x="524" y="824" width="400" height="400" style="fill: transparent; stroke: rgb(29, 43, 71); stroke-width: 10px;"/><rect x="474" y="724" width="200" height="200" style="fill: transparent; stroke: rgb(29, 43, 71); stroke-width: 10px;"/><rect x="824" y="724" width="200" height="200" style="fill: transparent; stroke: rgb(29, 43, 71); stroke-width: 10px;"/><rect x="824" y="1124" width="200" height="200" style="fill: transparent; stroke: rgb(29, 43, 71); stroke-width: 10px;"/><rect x="474" y="1124" width="200" height="200" style="fill: transparent; stroke: rgb(29, 43, 71); stroke-width: 10px;"/><circle cx="674" cy="824" r="20" style="fill: rgb(29, 43, 71);"/><circle cx="674" cy="824" r="20" style="fill: rgb(29, 43, 71);"/><circle cx="824" cy="824" r="20" style="fill: rgb(29, 43, 71);"/><rect x="924" y="874" width="100" height="100" style="fill: transparent; stroke: rgb(29, 43, 71); stroke-width: 10px;"/><circle cx="824" cy="824" r="50" style="fill: transparent; stroke: rgb(29, 43, 71); stroke-width: 10px;"/><circle cx="924" cy="924" r="20" style="fill: rgb(29, 43, 71);"/><circle cx="974" cy="1124" r="20" style="fill: rgb(29, 43, 71);"/><circle cx="824" cy="1224" r="20" style="fill: rgb(29, 43, 71);"/><circle cx="924" cy="1124" r="20" style="fill: rgb(29, 43, 71);"/><rect x="774" y="1174" width="100" height="100" style="fill: transparent; stroke: rgb(29, 43, 71); stroke-width: 10px;"/><circle cx="674" cy="1224" r="50" style="fill: transparent; stroke: rgb(29, 43, 71); stroke-width: 10px;"/><circle cx="674" cy="1224" r="20" style="fill: rgb(29, 43, 71);"/></g></svg>