<svg xmlns="http://www.w3.org/2000/svg" width="2048" height="2048" viewBox="0 0 2048 2048"><rect width="2048" height="2048" x="0" y="0" fill="#f5f5fa"/><g class="main-g" transform="scale(2) translate(-369.5, -354.5)"><rect width="200" height="200" x="724" y="874" style="fill:transparent;stroke:#1d2b47;stroke-width:5px"/><rect width="200" height="200" x="674" y="824" style="fill:transparent;stroke:#1d2b47;stroke-width:5px"/><rect width="100" height="100" x="824" y="824" style="fill:transparent;stroke:#1d2b47;stroke-width:5px"/><rect width="100" height="100" x="674" y="974" style="fill:transparent;stroke:#1d2b47;stroke-width:5px"/><rect width="50" height="50" x="899" y="849" style="fill:transparent;stroke:#1d2b47;stroke-width:5px"/><rect width="50" height="50" x="799" y="849" style="fill:transparent;stroke:#1d2b47;stroke-width:5px"/><circle cx="924" cy="924" r="10" style="fill:#1d2b47"/><rect width="50" height="50" x="799" y="799" style="fill:transparent;stroke:#1d2b47;stroke-width:5px"/><circle cx="874" cy="824" r="10" style="fill:#1d2b47"/><rect width="50" height="50" x="849" y="899" style="fill:transparent;stroke:#1d2b47;stroke-width:5px"/><circle cx="774" cy="1074" r="10" style="fill:#1d2b47"/><circle cx="774" cy="1024" r="10" style="fill:#1d2b47"/><circle cx="674" cy="1024" r="10" style="fill:#1d2b47"/><rect width="200" height="200" x="874" y="724" style="fill:transparent;stroke:#1d2b47;stroke-width:5px"/><rect width="200" height="200" x="824" y="674" style="fill:transparent;stroke:#1d2b47;stroke-width:5px"/><rect width="100" height="100" x="974" y="674" style="fill:transparent;stroke:#1d2b47;stroke-width:5px"/><rect width="100" height="100" x="824" y="824" style="fill:transparent;stroke:#1d2b47;stroke-width:5px"/><circle cx="1074" cy="724" r="10" style="fill:#1d2b47"/><rect width="50" height="50" x="949" y="699" style="fill:transparent;stroke:#1d2b47;stroke-width:5px"/><circle cx="1074" cy="774" r="25" style="fill:transparent;stroke:#1d2b47;stroke-width:5px"/><circle cx="974" cy="674" r="10" style="fill:#1d2b47"/><rect width="50" height="50" x="999" y="649" style="fill:transparent;stroke:#1d2b47;stroke-width:5px"/><circle cx="1024" cy="774" r="10" style="fill:#1d2b47"/><circle cx="924" cy="924" r="10" style="fill:#1d2b47"/><rect width="50" height="50" x="899" y="849" style="fill:transparent;stroke:#1d2b47;stroke-width:5px"/><circle cx="824" cy="874" r="10" style="fill:#1d2b47"/></g></svg>