<svg xmlns="http://www.w3.org/2000/svg" width="2048" height="2048" viewBox="0 0 2048 2048"><rect x="0" y="0" width="2048" height="2048" fill="#f5f5fa"/><g class="main-g" transform="scale(2) translate(-387, -462)"><rect x="824" y="824" width="100" height="100" style="fill: transparent; stroke: rgb(29, 43, 71); stroke-width: 4px;"/><rect x="724" y="824" width="100" height="100" style="fill: transparent; stroke: rgb(29, 43, 71); stroke-width: 4px;"/><rect x="799" y="799" width="50" height="50" style="fill: transparent; stroke: rgb(29, 43, 71); stroke-width: 4px;"/><rect x="799" y="799" width="50" height="50" style="fill: transparent; stroke: rgb(29, 43, 71); stroke-width: 4px;"/><rect x="799" y="899" width="50" height="50" style="fill: transparent; stroke: rgb(29, 43, 71); stroke-width: 4px;"/><rect x="799" y="899" width="50" height="50" style="fill: transparent; stroke: rgb(29, 43, 71); stroke-width: 4px;"/><rect x="836.5" y="786.5" width="25" height="25" style="fill: transparent; stroke: rgb(29, 43, 71); stroke-width: 4px;"/><rect x="786.5" y="786.5" width="25" height="25" style="fill: transparent; stroke: rgb(29, 43, 71); stroke-width: 4px;"/><rect x="836.5" y="786.5" width="25" height="25" style="fill: transparent; stroke: rgb(29, 43, 71); stroke-width: 4px;"/><rect x="836.5" y="836.5" width="25" height="25" style="fill: transparent; stroke: rgb(29, 43, 71); stroke-width: 4px;"/><rect x="836.5" y="836.5" width="25" height="25" style="fill: transparent; stroke: rgb(29, 43, 71); stroke-width: 4px;"/><rect x="786.5" y="836.5" width="25" height="25" style="fill: transparent; stroke: rgb(29, 43, 71); stroke-width: 4px;"/><rect x="836.5" y="886.5" width="25" height="25" style="fill: transparent; stroke: rgb(29, 43, 71); stroke-width: 4px;"/><rect x="786.5" y="886.5" width="25" height="25" style="fill: transparent; stroke: rgb(29, 43, 71); stroke-width: 4px;"/><rect x="836.5" y="886.5" width="25" height="25" style="fill: transparent; stroke: rgb(29, 43, 71); stroke-width: 4px;"/><rect x="836.5" y="936.5" width="25" height="25" style="fill: transparent; stroke: rgb(29, 43, 71); stroke-width: 4px;"/><rect x="836.5" y="936.5" width="25" height="25" style="fill: transparent; stroke: rgb(29, 43, 71); stroke-width: 4px;"/><circle cx="799" cy="949" r="12.5" style="fill: transparent; stroke: rgb(29, 43, 71); stroke-width: 4px;"/><circle cx="849" cy="824" r="6" style="fill: rgb(29, 43, 71);"/><rect x="786.5" y="811.5" width="25" height="25" style="fill: transparent; stroke: rgb(29, 43, 71); stroke-width: 4px;"/><circle cx="824" cy="849" r="6" style="fill: rgb(29, 43, 71);"/><rect x="836.5" y="811.5" width="25" height="25" style="fill: transparent; stroke: rgb(29, 43, 71); stroke-width: 4px;"/><rect x="786.5" y="811.5" width="25" height="25" style="fill: transparent; stroke: rgb(29, 43, 71); stroke-width: 4px;"/><rect x="811.5" y="836.5" width="25" height="25" style="fill: transparent; stroke: rgb(29, 43, 71); stroke-width: 4px;"/><circle cx="849" cy="924" r="6" style="fill: rgb(29, 43, 71);"/><rect x="811.5" y="886.5" width="25" height="25" style="fill: transparent; stroke: rgb(29, 43, 71); stroke-width: 4px;"/><circle cx="799" cy="924" r="6" style="fill: rgb(29, 43, 71);"/><rect x="836.5" y="911.5" width="25" height="25" style="fill: transparent; stroke: rgb(29, 43, 71); stroke-width: 4px;"/><rect x="811.5" y="886.5" width="25" height="25" style="fill: transparent; stroke: rgb(29, 43, 71); stroke-width: 4px;"/><rect x="786.5" y="911.5" width="25" height="25" style="fill: transparent; stroke: rgb(29, 43, 71); stroke-width: 4px;"/><rect x="774" y="974" width="100" height="100" style="fill: transparent; stroke: rgb(29, 43, 71); stroke-width: 4px;"/><rect x="774" y="1074" width="100" height="100" style="fill: transparent; stroke: rgb(29, 43, 71); stroke-width: 4px;"/><rect x="849" y="1049" width="50" height="50" style="fill: transparent; stroke: rgb(29, 43, 71); stroke-width: 4px;"/><rect x="749" y="1049" width="50" height="50" style="fill: transparent; stroke: rgb(29, 43, 71); stroke-width: 4px;"/><rect x="849" y="1049" width="50" height="50" style="fill: transparent; stroke: rgb(29, 43, 71); stroke-width: 4px;"/><rect x="886.5" y="1036.5" width="25" height="25" style="fill: transparent; stroke: rgb(29, 43, 71); stroke-width: 4px;"/><rect x="836.5" y="1036.5" width="25" height="25" style="fill: transparent; stroke: rgb(29, 43, 71); stroke-width: 4px;"/><rect x="886.5" y="1036.5" width="25" height="25" style="fill: transparent; stroke: rgb(29, 43, 71); stroke-width: 4px;"/><rect x="886.5" y="1086.5" width="25" height="25" style="fill: transparent; stroke: rgb(29, 43, 71); stroke-width: 4px;"/><rect x="886.5" y="1086.5" width="25" height="25" style="fill: transparent; stroke: rgb(29, 43, 71); stroke-width: 4px;"/><rect x="836.5" y="1086.5" width="25" height="25" style="fill: transparent; stroke: rgb(29, 43, 71); stroke-width: 4px;"/><rect x="861.5" y="1036.5" width="25" height="25" style="fill: transparent; stroke: rgb(29, 43, 71); stroke-width: 4px;"/><rect x="836.5" y="1061.5" width="25" height="25" style="fill: transparent; stroke: rgb(29, 43, 71); stroke-width: 4px;"/><rect x="836.5" y="1061.5" width="25" height="25" style="fill: transparent; stroke: rgb(29, 43, 71); stroke-width: 4px;"/><rect x="861.5" y="1086.5" width="25" height="25" style="fill: transparent; stroke: rgb(29, 43, 71); stroke-width: 4px;"/><rect x="786.5" y="1061.5" width="25" height="25" style="fill: transparent; stroke: rgb(29, 43, 71); stroke-width: 4px;"/><rect x="786.5" y="1061.5" width="25" height="25" style="fill: transparent; stroke: rgb(29, 43, 71); stroke-width: 4px;"/><circle cx="874" cy="1049" r="6" style="fill: rgb(29, 43, 71);"/><rect x="836.5" y="1061.5" width="25" height="25" style="fill: transparent; stroke: rgb(29, 43, 71); stroke-width: 4px;"/><rect x="836.5" y="1061.5" width="25" height="25" style="fill: transparent; stroke: rgb(29, 43, 71); stroke-width: 4px;"/><rect x="861.5" y="1086.5" width="25" height="25" style="fill: transparent; stroke: rgb(29, 43, 71); stroke-width: 4px;"/><rect x="974" y="774" width="100" height="100" style="fill: transparent; stroke: rgb(29, 43, 71); stroke-width: 4px;"/><rect x="874" y="774" width="100" height="100" style="fill: transparent; stroke: rgb(29, 43, 71); stroke-width: 4px;"/><rect x="949" y="749" width="50" height="50" style="fill: transparent; stroke: rgb(29, 43, 71); stroke-width: 4px;"/><rect x="949" y="749" width="50" height="50" style="fill: transparent; stroke: rgb(29, 43, 71); stroke-width: 4px;"/><rect x="949" y="849" width="50" height="50" style="fill: transparent; stroke: rgb(29, 43, 71); stroke-width: 4px;"/><rect x="949" y="849" width="50" height="50" style="fill: transparent; stroke: rgb(29, 43, 71); stroke-width: 4px;"/><rect x="986.5" y="736.5" width="25" height="25" style="fill: transparent; stroke: rgb(29, 43, 71); stroke-width: 4px;"/><rect x="936.5" y="736.5" width="25" height="25" style="fill: transparent; stroke: rgb(29, 43, 71); stroke-width: 4px;"/><circle cx="999" cy="749" r="6" style="fill: rgb(29, 43, 71);"/><rect x="986.5" y="786.5" width="25" height="25" style="fill: transparent; stroke: rgb(29, 43, 71); stroke-width: 4px;"/><rect x="986.5" y="786.5" width="25" height="25" style="fill: transparent; stroke: rgb(29, 43, 71); stroke-width: 4px;"/><rect x="936.5" y="786.5" width="25" height="25" style="fill: transparent; stroke: rgb(29, 43, 71); stroke-width: 4px;"/><rect x="986.5" y="836.5" width="25" height="25" style="fill: transparent; stroke: rgb(29, 43, 71); stroke-width: 4px;"/><circle cx="949" cy="849" r="6" style="fill: rgb(29, 43, 71);"/><rect x="986.5" y="836.5" width="25" height="25" style="fill: transparent; stroke: rgb(29, 43, 71); stroke-width: 4px;"/><rect x="986.5" y="886.5" width="25" height="25" style="fill: transparent; stroke: rgb(29, 43, 71); stroke-width: 4px;"/><rect x="986.5" y="886.5" width="25" height="25" style="fill: transparent; stroke: rgb(29, 43, 71); stroke-width: 4px;"/><circle cx="949" cy="899" r="6" style="fill: rgb(29, 43, 71);"/><rect x="986.5" y="761.5" width="25" height="25" style="fill: transparent; stroke: rgb(29, 43, 71); stroke-width: 4px;"/><rect x="936.5" y="761.5" width="25" height="25" style="fill: transparent; stroke: rgb(29, 43, 71); stroke-width: 4px;"/><rect x="961.5" y="786.5" width="25" height="25" style="fill: transparent; stroke: rgb(29, 43, 71); stroke-width: 4px;"/><rect x="986.5" y="761.5" width="25" height="25" style="fill: transparent; stroke: rgb(29, 43, 71); stroke-width: 4px;"/><rect x="936.5" y="761.5" width="25" height="25" style="fill: transparent; stroke: rgb(29, 43, 71); stroke-width: 4px;"/><rect x="961.5" y="786.5" width="25" height="25" style="fill: transparent; stroke: rgb(29, 43, 71); stroke-width: 4px;"/><rect x="986.5" y="861.5" width="25" height="25" style="fill: transparent; stroke: rgb(29, 43, 71); stroke-width: 4px;"/><rect x="961.5" y="836.5" width="25" height="25" style="fill: transparent; stroke: rgb(29, 43, 71); stroke-width: 4px;"/><rect x="936.5" y="861.5" width="25" height="25" style="fill: transparent; stroke: rgb(29, 43, 71); stroke-width: 4px;"/><rect x="986.5" y="861.5" width="25" height="25" style="fill: transparent; stroke: rgb(29, 43, 71); stroke-width: 4px;"/><rect x="961.5" y="836.5" width="25" height="25" style="fill: transparent; stroke: rgb(29, 43, 71); stroke-width: 4px;"/><circle cx="949" cy="874" r="6" style="fill: rgb(29, 43, 71);"/><rect x="974" y="1074" width="100" height="100" style="fill: transparent; stroke: rgb(29, 43, 71); stroke-width: 4px;"/><rect x="874" y="1074" width="100" height="100" style="fill: transparent; stroke: rgb(29, 43, 71); stroke-width: 4px;"/><rect x="949" y="1049" width="50" height="50" style="fill: transparent; stroke: rgb(29, 43, 71); stroke-width: 4px;"/><rect x="949" y="1049" width="50" height="50" style="fill: transparent; stroke: rgb(29, 43, 71); stroke-width: 4px;"/><rect x="949" y="1149" width="50" height="50" style="fill: transparent; stroke: rgb(29, 43, 71); stroke-width: 4px;"/><rect x="949" y="1149" width="50" height="50" style="fill: transparent; stroke: rgb(29, 43, 71); stroke-width: 4px;"/><rect x="986.5" y="1036.5" width="25" height="25" style="fill: transparent; stroke: rgb(29, 43, 71); stroke-width: 4px;"/><rect x="936.5" y="1036.5" width="25" height="25" style="fill: transparent; stroke: rgb(29, 43, 71); stroke-width: 4px;"/><rect x="986.5" y="1036.5" width="25" height="25" style="fill: transparent; stroke: rgb(29, 43, 71); stroke-width: 4px;"/><rect x="986.5" y="1086.5" width="25" height="25" style="fill: transparent; stroke: rgb(29, 43, 71); stroke-width: 4px;"/><rect x="986.5" y="1086.5" width="25" height="25" style="fill: transparent; stroke: rgb(29, 43, 71); stroke-width: 4px;"/><circle cx="949" cy="1099" r="6" style="fill: rgb(29, 43, 71);"/><rect x="986.5" y="1136.5" width="25" height="25" style="fill: transparent; stroke: rgb(29, 43, 71); stroke-width: 4px;"/><rect x="936.5" y="1136.5" width="25" height="25" style="fill: transparent; stroke: rgb(29, 43, 71); stroke-width: 4px;"/><rect x="986.5" y="1136.5" width="25" height="25" style="fill: transparent; stroke: rgb(29, 43, 71); stroke-width: 4px;"/><rect x="986.5" y="1186.5" width="25" height="25" style="fill: transparent; stroke: rgb(29, 43, 71); stroke-width: 4px;"/><rect x="986.5" y="1186.5" width="25" height="25" style="fill: transparent; stroke: rgb(29, 43, 71); stroke-width: 4px;"/><rect x="936.5" y="1186.5" width="25" height="25" style="fill: transparent; stroke: rgb(29, 43, 71); stroke-width: 4px;"/><rect x="986.5" y="1061.5" width="25" height="25" style="fill: transparent; stroke: rgb(29, 43, 71); stroke-width: 4px;"/><rect x="936.5" y="1061.5" width="25" height="25" style="fill: transparent; stroke: rgb(29, 43, 71); stroke-width: 4px;"/><rect x="961.5" y="1086.5" width="25" height="25" style="fill: transparent; stroke: rgb(29, 43, 71); stroke-width: 4px;"/><rect x="986.5" y="1061.5" width="25" height="25" style="fill: transparent; stroke: rgb(29, 43, 71); stroke-width: 4px;"/><rect x="936.5" y="1061.5" width="25" height="25" style="fill: transparent; stroke: rgb(29, 43, 71); stroke-width: 4px;"/><rect x="961.5" y="1086.5" width="25" height="25" style="fill: transparent; stroke: rgb(29, 43, 71); stroke-width: 4px;"/><rect x="986.5" y="1161.5" width="25" height="25" style="fill: transparent; stroke: rgb(29, 43, 71); stroke-width: 4px;"/><rect x="961.5" y="1136.5" width="25" height="25" style="fill: transparent; stroke: rgb(29, 43, 71); stroke-width: 4px;"/><rect x="936.5" y="1161.5" width="25" height="25" style="fill: transparent; stroke: rgb(29, 43, 71); stroke-width: 4px;"/><rect x="986.5" y="1161.5" width="25" height="25" style="fill: transparent; stroke: rgb(29, 43, 71); stroke-width: 4px;"/><rect x="961.5" y="1136.5" width="25" height="25" style="fill: transparent; stroke: rgb(29, 43, 71); stroke-width: 4px;"/><rect x="936.5" y="1161.5" width="25" height="25" style="fill: transparent; stroke: rgb(29, 43, 71); stroke-width: 4px;"/><rect x="974" y="924" width="100" height="100" style="fill: transparent; stroke: rgb(29, 43, 71); stroke-width: 4px;"/><rect x="924" y="924" width="100" height="100" style="fill: transparent; stroke: rgb(29, 43, 71); stroke-width: 4px;"/><rect x="949" y="899" width="50" height="50" style="fill: transparent; stroke: rgb(29, 43, 71); stroke-width: 4px;"/><rect x="999" y="899" width="50" height="50" style="fill: transparent; stroke: rgb(29, 43, 71); stroke-width: 4px;"/><rect x="999" y="999" width="50" height="50" style="fill: transparent; stroke: rgb(29, 43, 71); stroke-width: 4px;"/><rect x="949" y="999" width="50" height="50" style="fill: transparent; stroke: rgb(29, 43, 71); stroke-width: 4px;"/><rect x="986.5" y="886.5" width="25" height="25" style="fill: transparent; stroke: rgb(29, 43, 71); stroke-width: 4px;"/><rect x="986.5" y="936.5" width="25" height="25" style="fill: transparent; stroke: rgb(29, 43, 71); stroke-width: 4px;"/><rect x="986.5" y="986.5" width="25" height="25" style="fill: transparent; stroke: rgb(29, 43, 71); stroke-width: 4px;"/><rect x="986.5" y="986.5" width="25" height="25" style="fill: transparent; stroke: rgb(29, 43, 71); stroke-width: 4px;"/><rect x="986.5" y="1036.5" width="25" height="25" style="fill: transparent; stroke: rgb(29, 43, 71); stroke-width: 4px;"/><rect x="986.5" y="1036.5" width="25" height="25" style="fill: transparent; stroke: rgb(29, 43, 71); stroke-width: 4px;"/><rect x="986.5" y="911.5" width="25" height="25" style="fill: transparent; stroke: rgb(29, 43, 71); stroke-width: 4px;"/><rect x="986.5" y="911.5" width="25" height="25" style="fill: transparent; stroke: rgb(29, 43, 71); stroke-width: 4px;"/><rect x="936.5" y="911.5" width="25" height="25" style="fill: transparent; stroke: rgb(29, 43, 71); stroke-width: 4px;"/><rect x="1036.5" y="911.5" width="25" height="25" style="fill: transparent; stroke: rgb(29, 43, 71); stroke-width: 4px;"/><rect x="986.5" y="911.5" width="25" height="25" style="fill: transparent; stroke: rgb(29, 43, 71); stroke-width: 4px;"/><rect x="986.5" y="911.5" width="25" height="25" style="fill: transparent; stroke: rgb(29, 43, 71); stroke-width: 4px;"/><rect x="1011.5" y="936.5" width="25" height="25" style="fill: transparent; stroke: rgb(29, 43, 71); stroke-width: 4px;"/><rect x="1036.5" y="1011.5" width="25" height="25" style="fill: transparent; stroke: rgb(29, 43, 71); stroke-width: 4px;"/><rect x="986.5" y="1011.5" width="25" height="25" style="fill: transparent; stroke: rgb(29, 43, 71); stroke-width: 4px;"/><rect x="1011.5" y="986.5" width="25" height="25" style="fill: transparent; stroke: rgb(29, 43, 71); stroke-width: 4px;"/><rect x="986.5" y="1011.5" width="25" height="25" style="fill: transparent; stroke: rgb(29, 43, 71); stroke-width: 4px;"/><rect x="986.5" y="1011.5" width="25" height="25" style="fill: transparent; stroke: rgb(29, 43, 71); stroke-width: 4px;"/><rect x="986.5" y="1011.5" width="25" height="25" style="fill: transparent; stroke: rgb(29, 43, 71); stroke-width: 4px;"/><rect x="936.5" y="1011.5" width="25" height="25" style="fill: transparent; stroke: rgb(29, 43, 71); stroke-width: 4px;"/></g></svg>