<svg xmlns="http://www.w3.org/2000/svg" width="2048" height="2048" viewBox="0 0 2048 2048"><rect width="2048" height="2048" x="0" y="0" fill="#f5f5fa"/><g class="main-g" transform="scale(2) translate(-637, -469.5)"><rect width="200" height="200" x="974" y="674" style="fill:transparent;stroke:#1d2b47;stroke-width:5px"/><rect width="200" height="200" x="974" y="724" style="fill:transparent;stroke:#1d2b47;stroke-width:5px"/><circle cx="1174" cy="724" r="50" style="fill:transparent;stroke:#1d2b47;stroke-width:5px"/><rect width="100" height="100" x="924" y="674" style="fill:transparent;stroke:#1d2b47;stroke-width:5px"/><rect width="100" height="100" x="1124" y="824" style="fill:transparent;stroke:#1d2b47;stroke-width:5px"/><circle cx="1024" cy="674" r="10" style="fill:#1d2b47"/><circle cx="1024" cy="724" r="10" style="fill:#1d2b47"/><rect width="50" height="50" x="1149" y="799" style="fill:transparent;stroke:#1d2b47;stroke-width:5px"/><circle cx="1124" cy="874" r="10" style="fill:#1d2b47"/><circle cx="1174" cy="824" r="10" style="fill:#1d2b47"/><rect width="50" height="50" x="1149" y="899" style="fill:transparent;stroke:#1d2b47;stroke-width:5px"/><circle cx="1124" cy="924" r="10" style="fill:#1d2b47"/><rect width="200" height="200" x="974" y="924" style="fill:transparent;stroke:#1d2b47;stroke-width:5px"/><rect width="200" height="200" x="1024" y="874" style="fill:transparent;stroke:#1d2b47;stroke-width:5px"/><rect width="100" height="100" x="1124" y="1024" style="fill:transparent;stroke:#1d2b47;stroke-width:5px"/><circle cx="1174" cy="1024" r="10" style="fill:#1d2b47"/><circle cx="1174" cy="1124" r="10" style="fill:#1d2b47"/><rect width="50" height="50" x="1099" y="1099" style="fill:transparent;stroke:#1d2b47;stroke-width:5px"/><rect width="50" height="50" x="1199" y="999" style="fill:transparent;stroke:#1d2b47;stroke-width:5px"/><circle cx="1224" cy="1074" r="10" style="fill:#1d2b47"/><rect width="50" height="50" x="1099" y="1049" style="fill:transparent;stroke:#1d2b47;stroke-width:5px"/><rect width="200" height="200" x="1174" y="1024" style="fill:transparent;stroke:#1d2b47;stroke-width:5px"/><rect width="200" height="200" x="1074" y="1024" style="fill:transparent;stroke:#1d2b47;stroke-width:5px"/><rect width="100" height="100" x="1124" y="974" style="fill:transparent;stroke:#1d2b47;stroke-width:5px"/><rect width="100" height="100" x="1224" y="974" style="fill:transparent;stroke:#1d2b47;stroke-width:5px"/><rect width="100" height="100" x="1224" y="1174" style="fill:transparent;stroke:#1d2b47;stroke-width:5px"/><rect width="100" height="100" x="1124" y="1174" style="fill:transparent;stroke:#1d2b47;stroke-width:5px"/><rect width="50" height="50" x="1199" y="949" style="fill:transparent;stroke:#1d2b47;stroke-width:5px"/><circle cx="1224" cy="1074" r="10" style="fill:#1d2b47"/><circle cx="1224" cy="1174" r="10" style="fill:#1d2b47"/><circle cx="1224" cy="1174" r="10" style="fill:#1d2b47"/><rect width="50" height="50" x="1199" y="1249" style="fill:transparent;stroke:#1d2b47;stroke-width:5px"/><rect width="50" height="50" x="1199" y="1249" style="fill:transparent;stroke:#1d2b47;stroke-width:5px"/><rect width="50" height="50" x="1199" y="999" style="fill:transparent;stroke:#1d2b47;stroke-width:5px"/><rect width="50" height="50" x="1199" y="999" style="fill:transparent;stroke:#1d2b47;stroke-width:5px"/><circle cx="1124" cy="1024" r="10" style="fill:#1d2b47"/><circle cx="1324" cy="1024" r="25" style="fill:transparent;stroke:#1d2b47;stroke-width:5px"/><rect width="50" height="50" x="1199" y="999" style="fill:transparent;stroke:#1d2b47;stroke-width:5px"/><circle cx="1224" cy="1024" r="10" style="fill:#1d2b47"/><circle cx="1274" cy="1074" r="10" style="fill:#1d2b47"/><circle cx="1324" cy="1224" r="25" style="fill:transparent;stroke:#1d2b47;stroke-width:5px"/><rect width="50" height="50" x="1199" y="1199" style="fill:transparent;stroke:#1d2b47;stroke-width:5px"/><circle cx="1274" cy="1174" r="10" style="fill:#1d2b47"/><rect width="50" height="50" x="1199" y="1199" style="fill:transparent;stroke:#1d2b47;stroke-width:5px"/><circle cx="1224" cy="1224" r="10" style="fill:#1d2b47"/><rect width="50" height="50" x="1199" y="1199" style="fill:transparent;stroke:#1d2b47;stroke-width:5px"/><circle cx="1124" cy="1224" r="10" style="fill:#1d2b47"/></g></svg>