<svg xmlns="http://www.w3.org/2000/svg" width="2048" height="2048" viewBox="0 0 2048 2048"><rect x="0" y="0" width="2048" height="2048" fill="#f5f5fa"/><g class="main-g" transform="scale(2) translate(-474.5, -462)"><rect x="1024" y="824" width="100" height="100" style="fill: transparent; stroke: rgb(29, 43, 71); stroke-width: 4px;"/><rect x="1074" y="824" width="100" height="100" style="fill: transparent; stroke: rgb(29, 43, 71); stroke-width: 4px;"/><rect x="1099" y="799" width="50" height="50" style="fill: transparent; stroke: rgb(29, 43, 71); stroke-width: 4px;"/><rect x="1099" y="899" width="50" height="50" style="fill: transparent; stroke: rgb(29, 43, 71); stroke-width: 4px;"/><circle cx="1099" cy="824" r="6" style="fill: rgb(29, 43, 71);"/><circle cx="1124" cy="849" r="6" style="fill: rgb(29, 43, 71);"/><rect x="1136.5" y="811.5" width="25" height="25" style="fill: transparent; stroke: rgb(29, 43, 71); stroke-width: 4px;"/><circle cx="1099" cy="824" r="6" style="fill: rgb(29, 43, 71);"/><circle cx="1124" cy="899" r="6" style="fill: rgb(29, 43, 71);"/><circle cx="1099" cy="924" r="6" style="fill: rgb(29, 43, 71);"/><circle cx="1149" cy="924" r="6" style="fill: rgb(29, 43, 71);"/><rect x="1086.5" y="911.5" width="25" height="25" style="fill: transparent; stroke: rgb(29, 43, 71); stroke-width: 4px;"/><rect x="874" y="1124" width="100" height="100" style="fill: transparent; stroke: rgb(29, 43, 71); stroke-width: 4px;"/><rect x="774" y="1124" width="100" height="100" style="fill: transparent; stroke: rgb(29, 43, 71); stroke-width: 4px;"/><rect x="849" y="1099" width="50" height="50" style="fill: transparent; stroke: rgb(29, 43, 71); stroke-width: 4px;"/><rect x="849" y="1099" width="50" height="50" style="fill: transparent; stroke: rgb(29, 43, 71); stroke-width: 4px;"/><rect x="849" y="1199" width="50" height="50" style="fill: transparent; stroke: rgb(29, 43, 71); stroke-width: 4px;"/><rect x="849" y="1199" width="50" height="50" style="fill: transparent; stroke: rgb(29, 43, 71); stroke-width: 4px;"/><circle cx="899" cy="1099" r="6" style="fill: rgb(29, 43, 71);"/><circle cx="849" cy="1099" r="6" style="fill: rgb(29, 43, 71);"/><circle cx="899" cy="1099" r="6" style="fill: rgb(29, 43, 71);"/><rect x="886.5" y="1136.5" width="25" height="25" style="fill: transparent; stroke: rgb(29, 43, 71); stroke-width: 4px;"/><rect x="886.5" y="1136.5" width="25" height="25" style="fill: transparent; stroke: rgb(29, 43, 71); stroke-width: 4px;"/><circle cx="849" cy="1149" r="6" style="fill: rgb(29, 43, 71);"/><circle cx="899" cy="1199" r="6" style="fill: rgb(29, 43, 71);"/><circle cx="849" cy="1199" r="6" style="fill: rgb(29, 43, 71);"/><circle cx="899" cy="1199" r="6" style="fill: rgb(29, 43, 71);"/><rect x="886.5" y="1236.5" width="25" height="25" style="fill: transparent; stroke: rgb(29, 43, 71); stroke-width: 4px;"/><circle cx="899" cy="1249" r="6" style="fill: rgb(29, 43, 71);"/><circle cx="849" cy="1249" r="6" style="fill: rgb(29, 43, 71);"/><circle cx="899" cy="1124" r="6" style="fill: rgb(29, 43, 71);"/><circle cx="849" cy="1124" r="6" style="fill: rgb(29, 43, 71);"/><circle cx="874" cy="1149" r="6" style="fill: rgb(29, 43, 71);"/><circle cx="899" cy="1124" r="6" style="fill: rgb(29, 43, 71);"/><circle cx="849" cy="1124" r="6" style="fill: rgb(29, 43, 71);"/><circle cx="874" cy="1149" r="6" style="fill: rgb(29, 43, 71);"/><circle cx="899" cy="1224" r="6" style="fill: rgb(29, 43, 71);"/><circle cx="874" cy="1199" r="6" style="fill: rgb(29, 43, 71);"/><rect x="836.5" y="1211.5" width="25" height="25" style="fill: transparent; stroke: rgb(29, 43, 71); stroke-width: 4px;"/><rect x="886.5" y="1211.5" width="25" height="25" style="fill: transparent; stroke: rgb(29, 43, 71); stroke-width: 4px;"/><circle cx="874" cy="1199" r="6" style="fill: rgb(29, 43, 71);"/><circle cx="849" cy="1224" r="6" style="fill: rgb(29, 43, 71);"/><rect x="724" y="1024" width="100" height="100" style="fill: transparent; stroke: rgb(29, 43, 71); stroke-width: 4px;"/><rect x="724" y="1074" width="100" height="100" style="fill: transparent; stroke: rgb(29, 43, 71); stroke-width: 4px;"/><rect x="799" y="1049" width="50" height="50" style="fill: transparent; stroke: rgb(29, 43, 71); stroke-width: 4px;"/><rect x="699" y="1049" width="50" height="50" style="fill: transparent; stroke: rgb(29, 43, 71); stroke-width: 4px;"/><rect x="799" y="1099" width="50" height="50" style="fill: transparent; stroke: rgb(29, 43, 71); stroke-width: 4px;"/><circle cx="849" cy="1099" r="6" style="fill: rgb(29, 43, 71);"/><circle cx="799" cy="1099" r="6" style="fill: rgb(29, 43, 71);"/><circle cx="849" cy="1099" r="6" style="fill: rgb(29, 43, 71);"/><circle cx="824" cy="1049" r="6" style="fill: rgb(29, 43, 71);"/><circle cx="824" cy="1099" r="6" style="fill: rgb(29, 43, 71);"/><circle cx="799" cy="1074" r="6" style="fill: rgb(29, 43, 71);"/><circle cx="824" cy="1099" r="6" style="fill: rgb(29, 43, 71);"/><rect x="736.5" y="1061.5" width="25" height="25" style="fill: transparent; stroke: rgb(29, 43, 71); stroke-width: 4px;"/><circle cx="824" cy="1099" r="6" style="fill: rgb(29, 43, 71);"/><circle cx="799" cy="1124" r="6" style="fill: rgb(29, 43, 71);"/><rect x="811.5" y="1086.5" width="25" height="25" style="fill: transparent; stroke: rgb(29, 43, 71); stroke-width: 4px;"/><circle cx="824" cy="1149" r="6" style="fill: rgb(29, 43, 71);"/><rect x="1174" y="724" width="100" height="100" style="fill: transparent; stroke: rgb(29, 43, 71); stroke-width: 4px;"/><rect x="1124" y="674" width="100" height="100" style="fill: transparent; stroke: rgb(29, 43, 71); stroke-width: 4px;"/><rect x="1199" y="699" width="50" height="50" style="fill: transparent; stroke: rgb(29, 43, 71); stroke-width: 4px;"/><rect x="1149" y="749" width="50" height="50" style="fill: transparent; stroke: rgb(29, 43, 71); stroke-width: 4px;"/><circle cx="1199" cy="749" r="6" style="fill: rgb(29, 43, 71);"/><rect x="1186.5" y="736.5" width="25" height="25" style="fill: transparent; stroke: rgb(29, 43, 71); stroke-width: 4px;"/><circle cx="1249" cy="724" r="6" style="fill: rgb(29, 43, 71);"/><circle cx="1199" cy="724" r="6" style="fill: rgb(29, 43, 71);"/><rect x="1211.5" y="686.5" width="25" height="25" style="fill: transparent; stroke: rgb(29, 43, 71); stroke-width: 4px;"/><rect x="1211.5" y="736.5" width="25" height="25" style="fill: transparent; stroke: rgb(29, 43, 71); stroke-width: 4px;"/><circle cx="1199" cy="774" r="6" style="fill: rgb(29, 43, 71);"/><circle cx="1149" cy="774" r="6" style="fill: rgb(29, 43, 71);"/><rect x="1124" y="774" width="100" height="100" style="fill: transparent; stroke: rgb(29, 43, 71); stroke-width: 4px;"/><rect x="1124" y="724" width="100" height="100" style="fill: transparent; stroke: rgb(29, 43, 71); stroke-width: 4px;"/><rect x="1199" y="749" width="50" height="50" style="fill: transparent; stroke: rgb(29, 43, 71); stroke-width: 4px;"/><rect x="1199" y="799" width="50" height="50" style="fill: transparent; stroke: rgb(29, 43, 71); stroke-width: 4px;"/><rect x="1099" y="799" width="50" height="50" style="fill: transparent; stroke: rgb(29, 43, 71); stroke-width: 4px;"/><circle cx="1249" cy="799" r="6" style="fill: rgb(29, 43, 71);"/><circle cx="1199" cy="799" r="6" style="fill: rgb(29, 43, 71);"/><circle cx="1249" cy="799" r="6" style="fill: rgb(29, 43, 71);"/><circle cx="1199" cy="774" r="6" style="fill: rgb(29, 43, 71);"/><circle cx="1224" cy="799" r="6" style="fill: rgb(29, 43, 71);"/><rect x="1211.5" y="736.5" width="25" height="25" style="fill: transparent; stroke: rgb(29, 43, 71); stroke-width: 4px;"/><rect x="1211.5" y="786.5" width="25" height="25" style="fill: transparent; stroke: rgb(29, 43, 71); stroke-width: 4px;"/><circle cx="1224" cy="799" r="6" style="fill: rgb(29, 43, 71);"/><circle cx="1224" cy="849" r="6" style="fill: rgb(29, 43, 71);"/><rect x="1211.5" y="786.5" width="25" height="25" style="fill: transparent; stroke: rgb(29, 43, 71); stroke-width: 4px;"/><circle cx="1199" cy="824" r="6" style="fill: rgb(29, 43, 71);"/><circle cx="1149" cy="824" r="6" style="fill: rgb(29, 43, 71);"/><rect x="824" y="1124" width="100" height="100" style="fill: transparent; stroke: rgb(29, 43, 71); stroke-width: 4px;"/><rect x="974" y="1074" width="100" height="100" style="fill: transparent; stroke: rgb(29, 43, 71); stroke-width: 4px;"/><rect x="924" y="1174" width="100" height="100" style="fill: transparent; stroke: rgb(29, 43, 71); stroke-width: 4px;"/><rect x="974" y="1124" width="100" height="100" style="fill: transparent; stroke: rgb(29, 43, 71); stroke-width: 4px;"/><rect x="999" y="1199" width="50" height="50" style="fill: transparent; stroke: rgb(29, 43, 71); stroke-width: 4px;"/><circle cx="1024" cy="1199" r="6" style="fill: rgb(29, 43, 71);"/><circle cx="1024" cy="1249" r="6" style="fill: rgb(29, 43, 71);"/><circle cx="1049" cy="1224" r="6" style="fill: rgb(29, 43, 71);"/><circle cx="999" cy="1224" r="6" style="fill: rgb(29, 43, 71);"/><rect x="924" y="974" width="100" height="100" style="fill: transparent; stroke: rgb(29, 43, 71); stroke-width: 4px;"/><rect x="974" y="824" width="100" height="100" style="fill: transparent; stroke: rgb(29, 43, 71); stroke-width: 4px;"/><rect x="1024" y="874" width="100" height="100" style="fill: transparent; stroke: rgb(29, 43, 71); stroke-width: 4px;"/><rect x="1124" y="874" width="100" height="100" style="fill: transparent; stroke: rgb(29, 43, 71); stroke-width: 4px;"/><rect x="1099" y="849" width="50" height="50" style="fill: transparent; stroke: rgb(29, 43, 71); stroke-width: 4px;"/><rect x="1099" y="949" width="50" height="50" style="fill: transparent; stroke: rgb(29, 43, 71); stroke-width: 4px;"/><circle cx="1099" cy="874" r="6" style="fill: rgb(29, 43, 71);"/><circle cx="1124" cy="899" r="6" style="fill: rgb(29, 43, 71);"/><circle cx="1149" cy="874" r="6" style="fill: rgb(29, 43, 71);"/><rect x="1111.5" y="936.5" width="25" height="25" style="fill: transparent; stroke: rgb(29, 43, 71); stroke-width: 4px;"/><circle cx="1099" cy="974" r="6" style="fill: rgb(29, 43, 71);"/><rect x="1136.5" y="961.5" width="25" height="25" style="fill: transparent; stroke: rgb(29, 43, 71); stroke-width: 4px;"/><rect x="1074" y="1174" width="100" height="100" style="fill: transparent; stroke: rgb(29, 43, 71); stroke-width: 4px;"/><rect x="1074" y="1124" width="100" height="100" style="fill: transparent; stroke: rgb(29, 43, 71); stroke-width: 4px;"/><rect x="1149" y="1149" width="50" height="50" style="fill: transparent; stroke: rgb(29, 43, 71); stroke-width: 4px;"/><rect x="1149" y="1199" width="50" height="50" style="fill: transparent; stroke: rgb(29, 43, 71); stroke-width: 4px;"/><circle cx="1074" cy="1224" r="25" style="fill: transparent; stroke: rgb(29, 43, 71); stroke-width: 4px;"/><circle cx="1199" cy="1199" r="6" style="fill: rgb(29, 43, 71);"/><circle cx="1149" cy="1199" r="6" style="fill: rgb(29, 43, 71);"/><circle cx="1199" cy="1199" r="6" style="fill: rgb(29, 43, 71);"/><circle cx="1149" cy="1174" r="6" style="fill: rgb(29, 43, 71);"/><circle cx="1174" cy="1199" r="6" style="fill: rgb(29, 43, 71);"/><circle cx="1174" cy="1149" r="6" style="fill: rgb(29, 43, 71);"/><circle cx="1174" cy="1199" r="6" style="fill: rgb(29, 43, 71);"/><rect x="1161.5" y="1186.5" width="25" height="25" style="fill: transparent; stroke: rgb(29, 43, 71); stroke-width: 4px;"/><circle cx="1174" cy="1249" r="6" style="fill: rgb(29, 43, 71);"/><circle cx="1174" cy="1199" r="6" style="fill: rgb(29, 43, 71);"/><circle cx="1149" cy="1224" r="6" style="fill: rgb(29, 43, 71);"/></g></svg>