<svg width="1200px" height="659px" viewBox="0 0 1200 659" version="1.1" xmlns:xlink="http://www.w3.org/1999/xlink" xmlns="http://www.w3.org/2000/svg"><defs><style type="text/css"></style></defs><defs><style type="text/css"></style></defs> <g class="graph" transform="translate(25, 100)"> <g class="links"><g class="link defined" style="fill: none; stroke: black; stroke-width: 1;"><path d="M279.25,192.39097108877544
	C143.625,192.39097108877544 
	143.625,192.1235886504197 
	8,192.1235886504197"></path></g><g class="link defined" style="fill: none; stroke: black; stroke-width: 1;"><path d="M566.5,15.000000000000075
	C430.875,15.000000000000075 
	430.875,192.39097108877544 
	295.25,192.39097108877544"></path></g><g class="link defined" style="fill: none; stroke: black; stroke-width: 1;"><path d="M861.75,-2.353672812205332e-13
	C718.125,-2.353672812205332e-13 
	718.125,15.000000000000075 
	582.5,15.000000000000075"></path></g><g class="link defined" style="fill: none; stroke: black; stroke-width: 1;"><path d="M1149,-2.2737367544323206e-13
	C1005.375,-2.2737367544323206e-13 
	1005.375,-2.353672812205332e-13 
	861.75,-2.353672812205332e-13"></path></g><g class="link defined" style="fill: none; stroke: black; stroke-width: 1;"><path d="M279.25,339.7439122652461
	C143.625,339.7439122652461 
	143.625,192.1235886504197 
	8,192.1235886504197"></path></g><g class="link defined" style="fill: none; stroke: black; stroke-width: 1;"><path d="M566.5,186.82352941176478
	C430.875,186.82352941176478 
	430.875,339.7439122652461 
	295.25,339.7439122652461"></path></g><g class="link defined" style="fill: none; stroke: black; stroke-width: 1;"><path d="M853.75,176.82352941176447
	C718.125,176.82352941176447 
	718.125,186.82352941176478 
	582.5,186.82352941176478"></path></g><g class="link defined" style="fill: none; stroke: black; stroke-width: 1;"><path d="M1141,176.82352941176447
	C1005.375,176.82352941176447 
	1005.375,176.82352941176447 
	869.75,176.82352941176447"></path></g><g class="link defined" style="fill: none; stroke: black; stroke-width: 1;"><path d="M853.75,206.29411764705858
	C718.125,206.29411764705858 
	718.125,186.82352941176478 
	582.5,186.82352941176478"></path></g><g class="link defined" style="fill: none; stroke: black; stroke-width: 1;"><path d="M1141,206.29411764705858
	C1005.375,206.29411764705858 
	1005.375,206.29411764705858 
	869.75,206.29411764705858"></path></g><g class="link defined" style="fill: none; stroke: black; stroke-width: 1;"><path d="M279.25,221.86155932406956
	C143.625,221.86155932406956 
	143.625,192.1235886504197 
	8,192.1235886504197"></path></g><g class="link defined" style="fill: none; stroke: black; stroke-width: 1;"><path d="M566.5,15.000000000000075
	C430.875,15.000000000000075 
	430.875,221.86155932406956 
	295.25,221.86155932406956"></path></g><g class="link defined" style="fill: none; stroke: black; stroke-width: 1;"><path d="M861.75,29.47058823529388
	C718.125,29.47058823529388 
	718.125,15.000000000000075 
	582.5,15.000000000000075"></path></g><g class="link defined" style="fill: none; stroke: black; stroke-width: 1;"><path d="M1149,29.47058823529389
	C1005.375,29.47058823529389 
	1005.375,29.47058823529388 
	861.75,29.47058823529388"></path></g><g class="link defined" style="fill: none; stroke: black; stroke-width: 1;"><path d="M853.75,235.7647058823527
	C718.125,235.7647058823527 
	718.125,186.82352941176478 
	582.5,186.82352941176478"></path></g><g class="link defined" style="fill: none; stroke: black; stroke-width: 1;"><path d="M1141,235.7647058823527
	C1005.375,235.7647058823527 
	1005.375,235.7647058823527 
	869.75,235.7647058823527"></path></g><g class="link defined" style="fill: none; stroke: black; stroke-width: 1;"><path d="M566.5,15.000000000000075
	C430.875,15.000000000000075 
	430.875,339.7439122652461 
	295.25,339.7439122652461"></path></g><g class="link defined" style="fill: none; stroke: black; stroke-width: 1;"><path d="M861.75,58.941176470588005
	C718.125,58.941176470588005 
	718.125,15.000000000000075 
	582.5,15.000000000000075"></path></g><g class="link defined" style="fill: none; stroke: black; stroke-width: 1;"><path d="M1149,58.941176470588005
	C1005.375,58.941176470588005 
	1005.375,58.941176470588005 
	861.75,58.941176470588005"></path></g><g class="link defined" style="fill: none; stroke: black; stroke-width: 1;"><path d="M279.25,251.33214755936368
	C143.625,251.33214755936368 
	143.625,192.1235886504197 
	8,192.1235886504197"></path></g><g class="link defined" style="fill: none; stroke: black; stroke-width: 1;"><path d="M566.5,15.000000000000075
	C430.875,15.000000000000075 
	430.875,251.33214755936368 
	295.25,251.33214755936368"></path></g><g class="link defined" style="fill: none; stroke: black; stroke-width: 1;"><path d="M861.75,88.41176470588212
	C718.125,88.41176470588212 
	718.125,15.000000000000075 
	582.5,15.000000000000075"></path></g><g class="link defined" style="fill: none; stroke: black; stroke-width: 1;"><path d="M1149,88.41176470588212
	C1005.375,88.41176470588212 
	1005.375,88.41176470588212 
	861.75,88.41176470588212"></path></g><g class="link undefined" style="fill: none; stroke: black; stroke-dasharray: 5,5; stroke-width: 1px;"><path d="M287.25,397.6850887358343
	C143.625,397.6850887358343 
	143.625,192.1235886504197 
	8,192.1235886504197"></path></g><g class="link undefined" style="fill: none; stroke: black; stroke-dasharray: 5,5; stroke-width: 1px;"><path d="M566.5,186.82352941176478
	C430.875,186.82352941176478 
	430.875,397.6850887358343 
	287.25,397.6850887358343"></path></g><g class="link undefined" style="fill: none; stroke: black; stroke-dasharray: 5,5; stroke-width: 1px;"><path d="M861.75,265.23529411764684
	C718.125,265.23529411764684 
	718.125,186.82352941176478 
	582.5,186.82352941176478"></path></g><g class="link undefined" style="fill: none; stroke: black; stroke-dasharray: 5,5; stroke-width: 1px;"><path d="M1141,265.23529411764684
	C1005.375,265.23529411764684 
	1005.375,265.23529411764684 
	861.75,265.23529411764684"></path></g><g class="link defined" style="fill: none; stroke: black; stroke-width: 1;"><path d="M853.75,294.705882352941
	C718.125,294.705882352941 
	718.125,186.82352941176478 
	582.5,186.82352941176478"></path></g><g class="link defined" style="fill: none; stroke: black; stroke-width: 1;"><path d="M1141,294.705882352941
	C1005.375,294.705882352941 
	1005.375,294.705882352941 
	869.75,294.705882352941"></path></g><g class="link defined" style="fill: none; stroke: black; stroke-width: 1;"><path d="M853.75,324.17647058823513
	C718.125,324.17647058823513 
	718.125,186.82352941176478 
	582.5,186.82352941176478"></path></g><g class="link defined" style="fill: none; stroke: black; stroke-width: 1;"><path d="M1141,324.17647058823513
	C1005.375,324.17647058823513 
	1005.375,324.17647058823513 
	869.75,324.17647058823513"></path></g><g class="link defined" style="fill: none; stroke: black; stroke-width: 1;"><path d="M853.75,353.6470588235293
	C718.125,353.6470588235293 
	718.125,186.82352941176478 
	582.5,186.82352941176478"></path></g><g class="link defined" style="fill: none; stroke: black; stroke-width: 1;"><path d="M1141,353.6470588235293
	C1005.375,353.6470588235293 
	1005.375,353.6470588235293 
	869.75,353.6470588235293"></path></g><g class="link defined" style="fill: none; stroke: black; stroke-width: 1;"><path d="M853.75,383.1176470588234
	C718.125,383.1176470588234 
	718.125,186.82352941176478 
	582.5,186.82352941176478"></path></g><g class="link defined" style="fill: none; stroke: black; stroke-width: 1;"><path d="M1141,383.1176470588234
	C1005.375,383.1176470588234 
	1005.375,383.1176470588234 
	869.75,383.1176470588234"></path></g><g class="link defined" style="fill: none; stroke: black; stroke-width: 1;"><path d="M853.75,412.58823529411757
	C718.125,412.58823529411757 
	718.125,186.82352941176478 
	582.5,186.82352941176478"></path></g><g class="link defined" style="fill: none; stroke: black; stroke-width: 1;"><path d="M1141,412.58823529411757
	C1005.375,412.58823529411757 
	1005.375,412.58823529411757 
	869.75,412.58823529411757"></path></g><g class="link defined" style="fill: none; stroke: black; stroke-width: 1;"><path d="M853.75,442.0588235294117
	C718.125,442.0588235294117 
	718.125,186.82352941176478 
	582.5,186.82352941176478"></path></g><g class="link defined" style="fill: none; stroke: black; stroke-width: 1;"><path d="M1141,442.0588235294117
	C1005.375,442.0588235294117 
	1005.375,442.0588235294117 
	869.75,442.0588235294117"></path></g><g class="link defined" style="fill: none; stroke: black; stroke-width: 1;"><path d="M279.25,280.8027357946578
	C143.625,280.8027357946578 
	143.625,192.1235886504197 
	8,192.1235886504197"></path></g><g class="link defined" style="fill: none; stroke: black; stroke-width: 1;"><path d="M566.5,15.000000000000075
	C430.875,15.000000000000075 
	430.875,280.8027357946578 
	295.25,280.8027357946578"></path></g><g class="link defined" style="fill: none; stroke: black; stroke-width: 1;"><path d="M861.75,117.88235294117624
	C718.125,117.88235294117624 
	718.125,15.000000000000075 
	582.5,15.000000000000075"></path></g><g class="link defined" style="fill: none; stroke: black; stroke-width: 1;"><path d="M1149,117.88235294117624
	C1005.375,117.88235294117624 
	1005.375,117.88235294117624 
	861.75,117.88235294117624"></path></g><g class="link defined" style="fill: none; stroke: black; stroke-width: 1;"><path d="M279.25,310.27332402995194
	C143.625,310.27332402995194 
	143.625,192.1235886504197 
	8,192.1235886504197"></path></g><g class="link defined" style="fill: none; stroke: black; stroke-width: 1;"><path d="M566.5,15.000000000000075
	C430.875,15.000000000000075 
	430.875,310.27332402995194 
	295.25,310.27332402995194"></path></g><g class="link defined" style="fill: none; stroke: black; stroke-width: 1;"><path d="M861.75,147.35294117647035
	C718.125,147.35294117647035 
	718.125,15.000000000000075 
	582.5,15.000000000000075"></path></g><g class="link defined" style="fill: none; stroke: black; stroke-width: 1;"><path d="M1149,147.35294117647035
	C1005.375,147.35294117647035 
	1005.375,147.35294117647035 
	861.75,147.35294117647035"></path></g><g class="link undefined" style="fill: none; stroke: black; stroke-dasharray: 5,5; stroke-width: 1px;"><path d="M287.25,427.1556769711284
	C143.625,427.1556769711284 
	143.625,192.1235886504197 
	8,192.1235886504197"></path></g><g class="link undefined" style="fill: none; stroke: black; stroke-dasharray: 5,5; stroke-width: 1px;"><path d="M566.5,186.82352941176478
	C430.875,186.82352941176478 
	430.875,427.1556769711284 
	287.25,427.1556769711284"></path></g><g class="link undefined" style="fill: none; stroke: black; stroke-dasharray: 5,5; stroke-width: 1px;"><path d="M861.75,471.52941176470586
	C718.125,471.52941176470586 
	718.125,186.82352941176478 
	582.5,186.82352941176478"></path></g><g class="link undefined" style="fill: none; stroke: black; stroke-dasharray: 5,5; stroke-width: 1px;"><path d="M1141,471.52941176470586
	C1005.375,471.52941176470586 
	1005.375,471.52941176470586 
	861.75,471.52941176470586"></path></g></g> <g class="nodes"><g class="node visible" transform="translate(0, 192.1235886504197)"><circle class="ring-3" r="4"></circle></g><g class="node visible" transform="translate(287.25, 192.39097108877544)"><circle class="ring-0" r="4"></circle></g><g class="node visible" transform="translate(287.25, 339.7439122652461)"><circle class="ring-0" r="4"></circle></g><g class="node visible" transform="translate(287.25, 221.86155932406956)"><circle class="ring-0" r="4"></circle></g><g class="node visible" transform="translate(287.25, 251.33214755936368)"><circle class="ring-0" r="4"></circle></g><g class="node hidden" style="display: none;" transform="translate(287.25, 397.6850887358343)"><circle class="ring-0" r="4"></circle></g><g class="node visible" transform="translate(287.25, 280.8027357946578)"><circle class="ring-0" r="4"></circle></g><g class="node visible" transform="translate(287.25, 310.27332402995194)"><circle class="ring-0" r="4"></circle></g><g class="node hidden" style="display: none;" transform="translate(287.25, 427.1556769711284)"><circle class="ring-0" r="4"></circle></g><g class="node visible" transform="translate(574.5, 15.000000000000075)"><circle class="ring-1" r="4"></circle></g><g class="node visible" transform="translate(574.5, 186.82352941176478)"><circle class="ring-1" r="4"></circle></g><g class="node hidden" style="display: none;" transform="translate(861.75, -2.353672812205332e-13)"><circle class="ring-2" r="4"></circle></g><g class="node hidden" style="display: none;" transform="translate(861.75, 29.47058823529388)"><circle class="ring-2" r="4"></circle></g><g class="node hidden" style="display: none;" transform="translate(861.75, 58.941176470588005)"><circle class="ring-2" r="4"></circle></g><g class="node hidden" style="display: none;" transform="translate(861.75, 88.41176470588212)"><circle class="ring-2" r="4"></circle></g><g class="node hidden" style="display: none;" transform="translate(861.75, 117.88235294117624)"><circle class="ring-2" r="4"></circle></g><g class="node hidden" style="display: none;" transform="translate(861.75, 147.35294117647035)"><circle class="ring-2" r="4"></circle></g><g class="node visible" transform="translate(861.75, 176.82352941176447)"><circle class="ring-2" r="4"></circle></g><g class="node visible" transform="translate(861.75, 206.29411764705858)"><circle class="ring-2" r="4"></circle></g><g class="node visible" transform="translate(861.75, 235.7647058823527)"><circle class="ring-2" r="4"></circle></g><g class="node hidden" style="display: none;" transform="translate(861.75, 265.23529411764684)"><circle class="ring-2" r="4"></circle></g><g class="node visible" transform="translate(861.75, 294.705882352941)"><circle class="ring-2" r="4"></circle></g><g class="node visible" transform="translate(861.75, 324.17647058823513)"><circle class="ring-2" r="4"></circle></g><g class="node visible" transform="translate(861.75, 353.6470588235293)"><circle class="ring-2" r="4"></circle></g><g class="node visible" transform="translate(861.75, 383.1176470588234)"><circle class="ring-2" r="4"></circle></g><g class="node visible" transform="translate(861.75, 412.58823529411757)"><circle class="ring-2" r="4"></circle></g><g class="node visible" transform="translate(861.75, 442.0588235294117)"><circle class="ring-2" r="4"></circle></g><g class="node hidden" style="display: none;" transform="translate(861.75, 471.52941176470586)"><circle class="ring-2" r="4"></circle></g><g class="node hidden" style="display: none;" transform="translate(1149, -2.2737367544323206e-13)"><circle class="ring-3" r="4"></circle></g><g class="node hidden" style="display: none;" transform="translate(1149, 29.47058823529389)"><circle class="ring-3" r="4"></circle></g><g class="node hidden" style="display: none;" transform="translate(1149, 58.941176470588005)"><circle class="ring-3" r="4"></circle></g><g class="node hidden" style="display: none;" transform="translate(1149, 88.41176470588212)"><circle class="ring-3" r="4"></circle></g><g class="node hidden" style="display: none;" transform="translate(1149, 117.88235294117624)"><circle class="ring-3" r="4"></circle></g><g class="node hidden" style="display: none;" transform="translate(1149, 147.35294117647035)"><circle class="ring-3" r="4"></circle></g><g class="node visible" transform="translate(1149, 176.82352941176447)"><circle class="ring-3" r="4"></circle></g><g class="node visible" transform="translate(1149, 206.29411764705858)"><circle class="ring-3" r="4"></circle></g><g class="node visible" transform="translate(1149, 235.7647058823527)"><circle class="ring-3" r="4"></circle></g><g class="node visible" transform="translate(1149, 265.23529411764684)"><circle class="ring-3" r="4"></circle></g><g class="node visible" transform="translate(1149, 294.705882352941)"><circle class="ring-3" r="4"></circle></g><g class="node visible" transform="translate(1149, 324.17647058823513)"><circle class="ring-3" r="4"></circle></g><g class="node visible" transform="translate(1149, 353.6470588235293)"><circle class="ring-3" r="4"></circle></g><g class="node visible" transform="translate(1149, 383.1176470588234)"><circle class="ring-3" r="4"></circle></g><g class="node visible" transform="translate(1149, 412.58823529411757)"><circle class="ring-3" r="4"></circle></g><g class="node visible" transform="translate(1149, 442.0588235294117)"><circle class="ring-3" r="4"></circle></g><g class="node visible" transform="translate(1149, 471.52941176470586)"><circle class="ring-3" r="4"></circle></g></g></g> </svg>