<?xml version="1.0" encoding="UTF-8" standalone="no"?>
<svg
   xmlns:dc="http://purl.org/dc/elements/1.1/"
   xmlns:cc="http://creativecommons.org/ns#"
   xmlns:rdf="http://www.w3.org/1999/02/22-rdf-syntax-ns#"
   xmlns:svg="http://www.w3.org/2000/svg"
   xmlns="http://www.w3.org/2000/svg"
   xmlns:xlink="http://www.w3.org/1999/xlink"
   version="1.1"
   id="altimetria"
   x="0px"
   y="0px"
   width="1181.717"
   height="149.98399"
   viewBox="0 0 1181.717 149.984"
   enable-background="new 0 0 1190.55 419.529"
   xml:space="preserve"><metadata
     id="metadata5133"><rdf:RDF><cc:Work
         rdf:about=""><dc:format>image/svg+xml</dc:format><dc:type
           rdf:resource="http://purl.org/dc/dcmitype/StillImage" /><dc:title></dc:title></cc:Work></rdf:RDF></metadata><defs
     id="defs5131"><defs
       id="defs2453"><rect
         id="SVGID_3_"
         x="11.774"
         y="7.6139998"
         width="627.77301"
         height="147.117" /></defs><clipPath
       id="SVGID_4_"><use
         xlink:href="#SVGID_3_"
         overflow="visible"
         id="use2457"
         style="overflow:visible"
         x="0"
         y="0"
         width="100%"
         height="100%" /></clipPath><defs
       id="defs7"><rect
         id="SVGID_1_"
         x="638.86401"
         y="7.6139998"
         width="579.63599"
         height="147.117" /></defs><clipPath
       id="SVGID_2_"><use
         xlink:href="#SVGID_1_"
         overflow="visible"
         id="use11"
         style="overflow:visible"
         x="0"
         y="0"
         width="100%"
         height="100%" /></clipPath></defs><path
     style="fill:#d1b4ba"
     id="path21"
     d="m 1154.721,86.097 -0.454,-0.616 -0.53,-0.525 -1.578,-0.869 -2.168,-0.942 -1.526,-0.954 -0.63,-0.412 -0.573,-0.154 -0.626,-0.498 -1.12,-0.105 -0.582,-0.643 -0.705,-1.245 -0.869,-0.769 -0.916,-1.172 -1.548,-1.507 0,-0.105 -1.35,-0.954 -0.411,0.035 -1.512,0.382 -1.81,0.52 -1.78,0.163 -1.001,0.303 -0.863,0.047 -1.194,-0.257 -0.629,-0.508 -0.862,0 -0.515,0.508 -0.491,0 -0.692,0.295 -0.499,0.264 -0.587,0 -0.6,-0.395 -1.04,-0.117 -0.278,-0.047 -0.773,-0.335 -1.227,-0.257 -0.501,0.121 -0.735,0.041 -0.636,-0.388 -0.634,0.388 -0.685,0.51 -0.731,0.13 -0.316,0.176 -0.635,0.291 -0.419,-0.291 -0.589,0.291 -0.457,0 -0.452,-0.212 -0.557,-0.301 -0.56,-0.695 0,-0.13 -0.61,-0.678 -1.275,-1.252 -0.874,-0.416 -0.807,-0.477 -0.527,-0.146 -0.736,0 -1.679,-0.37 -1.139,-0.315 -1.815,-0.622 -1.275,-0.375 -0.467,-0.565 -0.739,-1.312 -0.669,-0.47 -0.405,-0.31 -0.541,-0.838 -1.938,-1.037 -0.668,-0.785 -0.41,-0.109 -1.471,-1.305 -0.47,-0.622 -0.268,-0.057 -0.337,0.415 -0.611,0.683 -0.524,0.521 -1.01,0.104 -0.54,0.261 -0.806,0.995 -0.463,0.729 -0.472,0.522 -0.734,0.885 -0.274,0.212 -0.794,0.628 -0.676,0.621 -0.675,0.991 -0.333,0.164 -0.606,0.67 -0.513,-0.196 -0.886,0.053 0,-0.119 -0.551,0.485 -0.841,0.854 -1.526,1.027 -2.455,0.792 -0.348,0.729 -0.837,0.603 -0.629,0 -0.976,0.554 -1.048,0.363 -0.971,-0.244 -1.116,-0.246 -0.494,0.37 -0.555,0.24 -0.976,1.397 -0.359,0.854 -0.975,0.724 -0.98,0.25 -1.178,0.479 -0.418,0.122 -1.122,-0.175 -1.605,0 -0.833,0.123 -1.398,0.357 -0.274,-0.178 -0.905,-0.553 -1.052,0.553 -0.419,-0.18 -1.328,0.18 -1.253,0.786 -0.767,-0.366 -0.917,0.366 -0.625,-0.245 -1.047,-0.056 0,0.012 -1.013,-0.116 -0.625,-0.017 -1.203,-0.034 -1.256,-0.182 -2.166,-0.357 -1.72,-0.216 -1.273,0 -1.536,-0.147 -1.273,-0.313 -2.163,-0.116 -2.792,-0.165 -2.062,-0.17 -2.824,0.054 -2.596,-0.048 -3.229,-0.091 -1.462,-0.054 -1.85,0.082 -2.099,-0.189 0,-0.015 -0.961,-0.973 -0.629,-0.125 -0.798,-0.664 -0.713,-0.373 -1.676,-1.517 -1.59,-0.789 -2.067,-1.526 -0.801,-1.276 -0.957,-1.275 -1.196,-0.851 -1.188,-1.277 -1.679,-1.585 -0.396,0 -1.037,0.299 -0.397,0.608 -0.717,0.795 -1.273,1.16 -0.318,0.972 -1.044,0.914 0,0.023 -0.163,0.044 -0.891,0.57 -1.667,1.188 -0.392,0.75 -0.552,0.348 -1.176,0.66 -1.057,0.706 -0.441,0.355 -0.671,0.788 -1,0.619 -1.055,1.013 0,0.886 -0.223,0.215 -0.339,-0.178 -0.451,0.354 -0.438,0.265 -0.452,1.323 -0.822,0.263 -0.511,0.44 -0.499,0.044 -0.164,1.144 -0.337,0.482 -0.443,-0.038 -0.835,0.124 0,0.088 -1.489,0.169 -0.799,-0.406 -0.882,-0.613 -0.797,-0.861 -0.157,-0.695 -0.566,-0.245 -0.557,-0.489 -0.802,-0.207 -1.438,-0.818 -0.633,-0.158 -1.116,-0.372 -1.05,0.037 -0.47,-0.491 -1.047,-0.812 -0.65,-0.151 0,-0.067 -1.081,-0.415 -0.807,-0.181 -0.57,-0.531 -0.806,-0.184 -0.737,-1.125 -0.721,-0.525 -1.308,-1.254 -0.289,-0.774 -0.513,-0.767 -0.513,-1.429 -0.51,-0.363 -0.29,-0.651 -0.577,-0.47 -0.228,0.47 -0.789,1.009 -0.515,0.18 -1.382,0 -0.079,0.177 -0.948,1.839 -0.434,0 -0.511,0.242 -1.015,1.01 0,0.001 -0.99,0 -0.395,0.213 -0.532,0.264 -0.415,0.62 -0.47,0.154 -0.599,0.267 -1.413,0.733 -0.596,0.523 -0.535,1.089 -0.602,0.057 -0.476,0.629 -1.265,1.672 -0.479,0.206 -0.465,0.527 -0.464,0.363 -0.677,0.055 -1.003,0.468 -0.06,0.575 -1.143,0.158 -0.607,0.472 -0.605,-0.162 -1.068,0.894 -0.513,0.041 0,-0.036 -0.087,0.042 -0.072,0.007 0,0.028 -0.89,0.429 -0.435,0.276 -0.709,0.927 -0.812,0 -0.26,-0.14 -0.88,-1.017 -0.929,-1.294 -0.6,-0.37 -0.536,-0.097 -0.386,-0.317 -0.437,-0.416 -0.866,-0.874 -0.55,-0.188 -1.084,-1.017 -1.258,-0.406 -3.695,-2.596 -1.737,0 -0.382,-0.329 -0.546,0 -0.924,-0.365 -1.742,-0.6 -0.98,-0.227 -0.869,-0.841 -1.36,-1.519 -0.652,0.085 -0.822,-0.367 -0.481,-0.277 -1.853,-1.661 -1.249,-1.473 -0.384,-0.237 -1.635,-2.676 -0.916,-1.754 -0.603,-0.231 -0.815,0.094 -0.907,1.301 -0.879,-0.223 -0.433,0.226 -0.667,-0.111 -0.796,0.444 -0.869,1.58 -0.917,0.332 -0.8,0.503 -0.981,-0.892 -0.927,-1.631 -1.04,1.35 -0.615,-0.115 -1.104,0.679 -0.489,0.217 -2.031,0 -0.56,0.172 -0.852,-0.339 -0.805,-1.018 -0.531,0.045 -0.963,0 -0.365,0.419 -0.954,0.416 -0.659,0 -0.243,0.229 -1.318,0.557 -0.349,0.089 -0.363,-0.597 -0.354,0.135 -1.559,-1.151 -0.897,0.37 -0.898,-0.048 -1.193,-0.784 -0.36,-1.108 -0.541,-0.638 -0.901,0.272 -0.414,0.599 -0.181,0.093 -0.414,0.782 -0.664,0.462 -0.775,0.096 -0.66,0.692 -1.196,0.044 0,0.034 -0.264,0 -0.51,0.562 -0.501,0 -0.414,0.317 -0.549,0 -0.607,-0.475 -0.048,-0.438 -0.597,-1.219 -0.372,-0.519 -0.463,0.239 -0.918,1.183 -0.968,0.28 -0.323,0.272 -0.415,0 -1.57,0.831 -0.553,0.471 -0.549,0.276 -0.376,-0.357 -0.371,0 -0.417,-0.308 -0.504,0 -0.65,0.945 -0.783,0.91 -0.503,-0.158 -0.414,0.352 -0.785,-0.273 -0.558,0.435 -1,0.076 -0.176,0.088 -0.423,0.055 -2.451,0.576 -1.124,-0.114 -1.265,-0.578 -1.82,0.659 -0.994,0.234 -1.056,0.51 -0.333,0.295 -1.214,0.715 -1.326,0.962 -0.928,0.471 -1.327,0.151 -1.556,-0.347 -1.962,-0.586 -2.32,-0.733 -1.899,-0.466 -0.248,-0.016 0.008,-0.074 -1.221,-0.002 -0.612,0.48 -0.622,-0.145 -0.442,0.237 -0.164,-0.051 -0.845,1.051 -0.776,0.422 -0.731,0.05 -0.825,1.237 -0.397,0.199 -0.338,0 -0.557,0.511 -0.222,-0.048 -0.17,0.767 -0.326,0.187 -1.291,1.377 -0.781,0.096 -0.335,0.286 -0.051,0.81 -0.339,0.518 -0.501,0.861 -0.669,0.661 -0.615,0.148 -0.838,0.521 -0.556,0 -0.564,-0.381 -0.335,0.094 -0.544,-0.01 0,-0.008 -0.464,-0.364 -0.645,-0.174 -0.476,0.226 -0.64,-0.447 -0.703,-0.441 -0.365,-0.618 -0.574,-0.804 -0.475,-0.717 -0.591,-0.529 -0.23,-0.669 -1.059,-0.399 -0.821,-0.846 -0.752,-1.116 -0.418,-0.355 -0.466,-0.489 -0.709,-0.396 -0.586,-0.094 -0.818,-0.626 -0.473,-0.792 -1.934,-1.119 -0.642,-0.262 -0.716,-0.132 -0.877,-0.844 -1.75,-2.051 -1.471,-1.196 -1.347,-1.152 -0.243,0.218 -0.873,0.399 -0.646,0.129 -0.649,-0.528 -0.467,0 -0.716,-0.581 -0.991,-0.537 -0.237,0.05 -0.4,0.36 -0.476,0.84 -0.471,0.311 -0.695,0.132 -0.294,0.224 -0.651,0.98 -0.765,0.353 -0.698,-0.244 0,-0.072 -1.242,0.398 -0.634,0.705 -0.998,0.1 -0.904,0.889 -1.571,1.271 -0.269,0.495 -0.74,0.354 -1.474,0.775 -0.949,-0.071 -0.361,0.252 -1.475,0.453 -1.426,0.607 -0.369,0 -0.633,0.557 -0.783,0.886 -0.428,0.281 -1.577,1.03 -0.845,0.489 -1.313,0.632 -0.429,0.026 -0.666,-0.524 -1.693,-1.664 -1.07,-1.441 -0.869,-1.253 -1.386,0.191 -0.769,0.642 -1.081,0.111 -0.969,0.614 -0.308,-0.04 -0.615,0.49 -0.722,-0.45 -0.612,0 -0.564,-0.422 -1.226,0.035 -1.231,0.722 -0.203,0 -0.813,-0.493 -1.036,-0.072 -0.669,-0.384 -1.43,-0.034 -1.435,0.115 -0.252,-0.233 -1.027,0.419 -0.545,-0.222 -0.814,-0.496 -0.556,-0.112 -0.607,-0.425 -0.92,0.181 -0.748,-0.358 -0.309,0.039 -1.112,-0.464 -0.811,-0.641 -0.761,-0.396 -0.255,-0.488 -1.011,-0.68 -0.917,-0.07 -1.052,-0.498 -0.563,-0.925 -0.809,-0.926 -0.864,-1.491 -0.666,-0.392 -0.962,-0.745 -0.404,0.033 -0.308,-0.384 -0.04,-0.291 -0.411,-0.209 -0.301,0.138 -0.247,0.925 -0.669,0.634 -0.862,0.789 -0.557,0.605 -0.857,0.643 -0.566,0 -0.761,0.638 -0.405,0.179 -1.464,0.816 -1.065,0.672 -0.512,0.609 -0.459,0.168 -1.162,1.142 -0.658,0.145 -0.857,0.994 -1.163,0.566 -0.311,0.424 -0.657,0.579 -0.916,0.919 -1.101,0.833 0,-0.13 -0.974,1.184 -1.281,2.028 -1.371,2.109 -0.564,1.256 -1.114,0.393 -1.45,0 -3.299,0.233 -2.657,0.162 -1.77,-0.088 -0.806,0.247 -1.442,-0.873 -0.876,0.086 -1.539,-0.391 -1.363,0.545 -1.769,0.633 -1.288,0.234 0,0.112 -0.721,0.052 -0.52,0.2 -0.56,-0.125 -0.43,0.246 -1.302,0.122 -0.605,0.181 -1.31,0.191 -0.452,0.069 -0.79,-0.563 -0.913,-0.436 -0.556,-0.685 -1.304,-1.545 -0.623,-0.563 -0.681,-1.235 -1.665,-2.174 -1.675,-1.545 -0.92,-0.064 -0.747,-0.559 -1.238,0 -0.617,-0.058 -0.859,-0.378 -0.809,-0.684 -1.116,-0.677 -1.049,-0.556 -0.712,-0.387 0,-0.104 -1.487,-0.826 -1.055,-0.648 -0.478,-0.152 -0.689,-0.36 -1.283,-0.594 -0.528,0.028 -0.727,-0.269 -0.443,0.031 -0.845,0 -0.195,0.178 -0.967,0.715 -0.356,0.297 -0.974,0.565 -1.693,0.391 -1.044,0.563 -1.409,0.477 -0.81,0.451 -0.973,0.025 -1.766,0.949 -1.945,0.925 -1.397,0.42 -0.965,0.088 -0.284,0.386 -0.568,0.207 -0.918,0.951 -0.33,0.063 0,-0.036 -0.7,0 -0.129,0.225 -0.268,-0.107 -0.575,0.052 -0.261,0 -0.321,-0.256 -0.328,-0.08 -0.291,-0.343 -0.13,0 -1.087,-1.506 -0.587,0.283 -0.52,0.278 -0.252,-0.055 -0.654,0.588 -0.288,-0.062 -0.518,0.227 -0.221,-0.165 -0.29,0.083 -0.294,-0.145 -0.098,-0.248 -0.247,-0.05 -0.822,-0.902 -0.055,-0.279 -0.431,-0.167 -1.029,-1.512 -0.42,0.027 -0.124,-0.142 -0.199,0.03 -1.191,-1.314 -0.516,-0.364 -0.226,0.023 -0.417,-0.303 -0.363,-0.032 -0.248,-0.224 -0.84,0.195 -0.423,0.363 -0.561,0.114 -0.247,0.42 -0.457,0.025 -0.552,0.314 -0.905,-0.314 -0.222,0.365 -0.905,-0.777 -1.005,-0.45 -0.481,-0.396 -0.805,-1.481 -0.682,0.421 -1.876,3.584 -0.394,0.18 -1.208,-0.248 -1.235,-1.029 -0.577,0 -0.428,-0.267 -0.565,-0.915 -0.81,-0.703 -1.001,-1.67 -0.681,1.018 -0.69,0.762 -0.495,0.209 -0.812,0.921 -0.932,0.168 -0.875,0.371 -0.557,0.809 -1.128,0.164 -1.371,0.921 -0.745,0.271 -1.373,-0.271 -1.996,0.048 -2.239,0.384 -2.181,0.646 -2.494,2.207 0,0.494 -0.365,0.312 -0.398,-0.132 -1.163,-1.016 -0.805,-0.923 -1.606,-0.778 -0.953,-0.141 -0.657,-0.388 -0.436,0.093 -0.51,0.583 -0.662,0.244 -1.316,-0.042 -0.723,0.189 -1.03,0.624 -1.092,-0.239 -0.807,0.052 -0.653,-0.197 -1.386,-0.725 -0.585,0.145 -0.736,0.626 -1.087,-0.433 -0.957,-0.674 -0.794,-0.832 -0.521,-0.871 -0.58,-0.383 -0.723,0.097 -0.447,-0.395 -0.505,-0.039 -1.028,-1.265 -0.002,0.224 -0.31,-0.341 -0.208,0.109 -0.18,0.115 -0.261,0.459 -0.307,0.597 -0.363,0.084 -0.212,0.302 -0.132,-0.302 -0.236,0.109 -0.392,0.643 -0.57,0.271 -0.701,0.264 -0.784,0.376 -0.57,-0.262 -0.26,0 -0.212,0.227 0.029,0 -0.207,0.077 -0.183,0.036 -0.335,0.271 -0.389,0.328 -0.675,0.348 -0.502,0.454 -0.805,0.605 -0.852,0.648 -0.579,0.757 -0.444,0.945 -0.544,0.724 -0.313,0.684 -0.596,0.382 -0.469,0.713 -0.547,0.458 -0.57,0.421 -0.574,0.381 -0.465,0.223 -0.722,0.08 0,0.015 -0.022,-0.04 -0.076,0.042 c -0.307,0.144 -0.858,0.441 -1.029,0.551 -0.108,0.075 -0.375,0.27 -0.581,0.434 l -0.391,0.31 -0.39,0.04 c -0.508,0.043 -0.547,0.063 -0.979,0.362 l -0.353,0.245 -0.832,1.179 c -1.171,1.655 -1.402,1.955 -1.53,1.982 -0.036,0 -0.132,0.021 -0.216,0.028 -0.083,0.006 -0.167,0.027 -0.198,0.045 -0.02,0.02 -0.132,0.135 -0.256,0.26 -0.126,0.139 -0.298,0.29 -0.421,0.379 -0.107,0.087 -0.312,0.245 -0.454,0.351 -0.184,0.153 -0.261,0.202 -0.312,0.202 -0.131,0.01 -0.789,-0.276 -1.043,-0.458 l -0.128,-0.084 -1.112,-0.016 c -0.601,-0.01 -1.299,-0.013 -1.534,-0.026 l -0.438,-0.004 -0.211,0.178 c -0.534,0.442 -0.753,0.581 -1.657,1.021 -1.106,0.536 -1.793,0.847 -2.411,1.068 l -0.455,0.159 -0.193,0.237 c -0.304,0.377 -0.414,0.46 -1.01,0.847 l -0.286,0.193 -0.693,0.066 -0.688,0.067 -0.08,0.073 c -0.143,0.131 -0.328,0.245 -0.602,0.365 -0.402,0.188 -0.567,0.239 -0.916,0.299 -0.176,0.024 -0.348,0.058 -0.388,0.071 -0.075,0.021 -0.146,0.064 -0.796,0.498 -0.167,0.111 -0.319,0.21 -0.327,0.21 -0.02,0 -0.14,-0.109 -0.269,-0.246 -0.298,-0.305 -0.361,-0.349 -0.465,-0.367 -0.135,-0.019 -0.268,-0.112 -0.844,-0.654 -0.299,-0.279 -0.56,-0.512 -0.579,-0.535 -0.019,-0.011 -0.029,-0.01 -0.036,0.116 l -0.291,-0.287 c -0.142,-0.071 -0.295,-0.149 -0.327,-0.168 -0.031,-0.024 -0.182,-0.202 -0.337,-0.399 l -0.287,-0.362 -0.543,0 -0.51,-0.707 -0.51,-0.707 -0.414,0 -0.145,0.288 -0.143,0.294 -0.427,0.466 c -0.322,0.355 -0.442,0.463 -0.474,0.463 -0.101,0 -0.352,-0.053 -0.396,-0.07 -0.023,-0.022 -0.103,-0.08 -0.186,-0.142 -0.138,-0.103 -0.162,-0.11 -0.691,-0.271 l -0.541,-0.167 -0.654,-0.454 -0.657,-0.457 -0.775,-0.084 -0.798,-0.08 -0.292,0.405 -0.295,0.4 -0.594,0.347 -0.603,0.355 -0.477,0.488 -0.474,0.48 -0.423,0.876 -0.41,0.866 -0.243,0.152 -0.235,0.161 -0.164,0.422 c -0.082,0.236 -0.258,0.708 -0.389,1.055 l -0.229,0.623 -2.199,0.008 -0.807,0.277 -0.826,0.27 0,0.014 -0.687,0.017 -1.583,-0.184 -2.457,-0.321 -0.506,-0.66 -0.629,0.404 -2.02,-0.009 -1.668,-0.234 -0.792,-0.099 -1.439,-0.525 -1.555,-1.185 -0.355,-0.667 -0.434,0.19 -2.868,-2.189 -0.299,0.461 -1.317,-0.723 -1.161,0.087 -1.36,-1.304 -0.898,0.164 -0.948,-0.527 -0.914,0.405 -0.514,-0.405 -0.771,0.133 -0.675,0.748 -0.509,0.075 -0.436,0.571 -0.318,-0.511 -0.51,0.518 -0.854,0.381 -1.008,-0.441 -1.134,-0.494 -1.204,-0.338 -0.585,0.314 -0.361,-0.27 0,-0.062 -0.121,-0.028 -0.094,-0.069 0,0.048 -0.764,-0.18 -1.919,-0.337 -1.494,-0.874 -2.243,-1.709 -2.249,-0.249 -1.297,-0.303 -1.281,-0.161 -1.119,-0.231 -1.076,-0.161 -0.822,-0.042 -0.546,-0.138 -0.544,-0.037 -0.576,-0.021 -0.341,0.121 -0.366,-0.025 -1.012,-0.245 -0.856,-0.158 -0.994,-0.197 -1.673,-0.275 -1.187,-0.949 -0.989,-0.208 -0.932,-0.029 -0.71,-0.058 -0.574,0.39 -0.57,-0.499 -0.35,0.167 -0.379,-0.181 -0.55,0.181 -0.311,-0.14 -0.553,-0.284 -0.526,-0.407 -1.069,-0.769 -1.251,-0.496 0.001,-0.041 -0.149,-0.021 -0.057,-0.022 0,0.014 -0.539,-0.072 -0.646,-0.311 -0.171,-0.154 -0.366,-0.463 -0.761,-0.382 -0.751,-0.239 -0.652,-0.267 -0.868,-1.005 -0.427,0.033 -1.079,-0.736 -0.214,-0.543 -0.215,-0.188 -0.813,-0.652 -0.325,-0.746 -0.484,-0.188 -1.238,-0.159 -0.38,0 -0.869,-0.618 -0.805,-0.506 -0.7,-0.076 -1.131,-0.159 -1.032,-0.151 -0.703,-0.303 -1.192,-0.244 -0.317,0 -0.487,-0.373 -0.423,0 -0.819,-0.506 -1.502,-0.346 -10e-4,0.025 -0.67,-0.242 -0.938,-0.35 -0.801,-0.153 -1.144,-0.548 -1.393,-0.797 -0.892,-0.395 -0.896,-0.651 -0.389,0 -0.75,-0.403 -0.953,-0.5 -0.499,0 -0.498,-0.445 -0.939,-1.346 -0.554,-0.453 0,0.046 -0.265,-0.194 -0.537,-0.118 -0.641,-0.267 -0.974,-0.231 -1.45,-0.644 -1.02,-0.119 -0.809,-0.378 -0.752,-0.463 -0.176,-0.107 -0.468,-0.652 -0.488,0.034 -0.375,0.497 -0.697,0.462 -1.131,0.607 -1.72,1.074 -1.667,0.874 -0.715,0.024 0,0.09 -0.899,0.242 -1.111,0.519 -1.913,-0.519 -1.521,0.128 -1.906,0.843 -2.634,0.705 -1.821,0.263 -0.797,-0.33 -1.753,0.457 -2.076,1.029 -1.745,0.392 -1.443,0.705 -0.956,0.258 -0.634,0.578 -2.146,0 -3.027,2.138 -1.116,0.061 -0.958,1.029 -0.793,0.068 -1.358,1.096 -0.872,0 0,0.054 -0.882,-0.14 -1.06,0.608 -0.919,-0.537 -0.611,0.23 -1.755,2.437 -1.599,1.216 -7.705,0.152 -1.144,0.387 -2.272,0.713 0,-0.027 -1.1,-0.061 -1.55,-0.563 -1.254,-0.503 -1.037,-0.57 -0.441,-0.055 -1.263,-0.054 -1.171,-0.116 -2.073,0.116 -1.335,-0.346 -1.175,-0.506 -1.703,-1.419 -0.663,-0.22 -0.889,-0.742 -1.697,-1.46 -1.63,-2.213 -0.888,-0.729 -0.662,-0.233 -1.183,-1.176 -0.812,-0.349 -4.486,-2.454 0,-0.043 -2.534,-1.887 -0.585,-0.086 -0.702,-0.911 -0.999,-0.197 -1.276,-0.503 -2.17,-1.231 -1.113,-0.415 -1.289,-1.102 -2.191,-1.601 -0.942,-0.642 -0.322,-0.817 -0.786,-1.22 -2.335,3.208 -2.215,1.469 -2.334,2.953 -0.525,0.175 -0.817,0.686 -1.297,0.515 -2.035,1.098 -0.893,0.324 -0.111,0.96 -1.757,0.688 -1.813,0.687 -2.278,1.464 -1.527,0.238 -1.104,-0.37 -2.292,1.602 -1.457,0.558 -0.599,0 -1.81,1.006 -2.688,1.186 -1.582,1.241 -4.33,2.53 -0.521,0 -0.3,0.075 0,-0.068 -0.905,-0.328 -1.039,-0.89 -1.14,-0.717 -1.137,-0.411 -1.542,-1.225 -0.68,-0.292 -0.456,-0.083 -3.645,-2.595 -1.028,0.19 -0.564,-0.653 -0.867,-0.378 -0.624,0.086 -3.068,-1.78 -1.26,-0.095 -1.363,-0.515 -1.542,-1.127 -1.713,-0.617 -2.054,-1.219 -2.265,-1.089 -0.58,-0.327 -2.853,-2.107 -1.074,-1.042 -0.574,-0.046 -1.256,2.072 -0.68,0.991 -0.685,0.882 -0.618,0.709 -0.805,0.896 -0.518,0.896 -1.242,1.358 -0.58,0.378 -0.968,1.033 -1.486,0.987 -0.554,0.61 -0.407,0.144 -0.572,0.053 -0.903,0.421 -0.353,0.05 -2.498,2.629 -0.401,0.509 -0.28,0.149 -0.637,0.938 -0.622,0.428 -1.021,0.469 -0.463,0.126 0.001,-0.032 -2.017,-0.276 -2.656,-0.664 -0.975,-0.576 -1.412,-0.742 -1.332,-0.859 -1.584,-1.886 -2.507,-5.129 -0.488,-0.917 -1.832,-2.563 -0.729,-1.285 -5.121,5.066 -1.836,0.491 -0.972,0.618 -1.403,0.909 -0.611,0.246 -1.077,0.916 0,0.019 -0.444,0.063 -0.568,-0.31 -0.932,0 -0.499,0.265 -1.363,0.344 -1.869,0.42 -1.004,0.831 -2.134,0.11 -1.378,0.459 -1.858,0.533 -1.434,-0.112 -1.208,0.453 -0.802,0.494 -1.935,-0.074 -0.782,0.493 -1.075,0 -5.301,3.757 -0.581,0.113 -0.717,0.383 -2.193,0.279 0,-0.038 -1.833,0 -0.945,0.44 -1.65,-0.44 -0.746,-0.038 -0.446,-0.502 -1.84,-0.048 -0.493,-0.202 -0.604,0.752 -0.299,0.341 -0.297,0.642 -2.488,0.248 -0.604,0.099 -0.94,-0.546 -0.395,0.049 -0.506,0.594 -0.649,0 -0.297,0.155 -0.545,-0.053 -0.9,0.243 -3.05,-0.836 0,0.074 -0.925,-0.351 -4.28,-0.274 -0.398,-0.579 -0.585,-0.688 -0.575,-1.148 -0.932,-0.866 -0.518,-0.805 -1.384,-2.586 -0.929,-0.92 -0.401,-0.114 -0.754,-0.572 -0.633,-0.289 -0.574,-0.229 -0.582,-1.089 -2.311,-0.694 -0.63,-0.579 -0.872,-1.262 -0.578,-0.405 -1.211,-2.191 -1.445,-0.884 -0.564,-0.502 -0.721,-0.307 -0.701,-0.33 -3.797,5.362 -0.984,1.148 -1.159,1.905 -0.917,0.976 -1.618,1.896 -0.597,-0.051 -0.001,-0.07 -1.045,-1.119 -0.509,-0.386 -0.401,-0.722 -0.506,-0.587 -0.756,-0.575 -0.756,-0.236 -0.26,-0.247 -0.559,-0.917 -0.251,-0.146 -1.162,-0.483 -0.765,-1.644 -0.709,-1.351 -0.607,-0.341 -0.298,-0.675 -0.254,-0.724 -0.462,-0.385 -0.658,-0.917 -1.316,1.976 -0.911,0.19 -0.354,0.828 -1.619,1.547 -1.371,-0.098 -0.505,0.433 -0.81,0 -0.461,0.24 -0.608,-0.153 0,-0.087 -1.667,0 c -0.483,0.341 -0.303,-0.198 -1.646,1.434 l -1.347,1.64 -1.076,0.915 c -0.589,0.509 -1.131,0.973 -1.206,1.039 l -0.141,0.102 -0.312,-0.21 c -0.172,-0.126 -0.317,-0.216 -0.33,-0.204 -0.008,0.011 -0.409,0.544 -0.898,1.191 -0.484,0.646 -1.312,1.697 -1.859,2.327 -0.528,0.634 -0.983,1.165 -0.997,1.172 -0.002,0.006 -0.218,0.051 -0.476,0.093 -0.451,0.071 -0.466,0.074 -0.866,0.367 -0.228,0.161 -0.626,0.449 -0.903,0.628 -0.276,0.182 -0.651,0.479 -0.831,0.662 -0.258,0.246 -0.381,0.342 -0.544,0.38 -0.104,0.03 -0.224,0.068 -0.254,0.093 -0.021,0.015 -0.196,0.282 -0.379,0.578 -0.249,0.412 -0.378,0.566 -0.514,0.645 -0.093,0.068 -0.334,0.213 -0.534,0.334 l -0.342,0.212 -0.481,-0.055 c -0.467,-0.05 -0.505,-0.05 -0.735,0.038 l -0.239,0.1 -0.323,-0.164 C 97.911,82.774 97.701,82.66 97.643,82.613 l -0.152,-0.083 -1.123,0.851 -1.133,0.847 -2.335,0.194 c -1.284,0.105 -2.851,0.253 -3.488,0.321 -1.176,0.148 -2.77,0.347 -3.07,0.39 l -0.134,0.02 -1.773,-0.508 -1.33,-0.059 -1.701,-0.524 -1.463,-1.797 -2.216,-0.408 -1.584,-0.853 -1.855,-0.289 -0.844,-0.27 -1.336,-0.897 -2.103,-0.85 -0.939,-1.032 -0.803,-1.165 -1.04,-0.499 -0.89,-0.293 0.009,-0.172 -0.003,0 -0.439,0.03 -0.005,-10e-4 0,10e-4 -0.608,0.043 -1.586,-0.197 -1.047,-0.429 -0.853,-0.202 -1.267,-0.54 -1.713,-1.227 -1.415,-0.784 -2.129,-1.482 -0.818,-1.49 -0.702,-0.529 -0.207,-0.639 -0.643,-0.481 -1.082,2.712 -2.248,1.745 -1.573,1.913 -1.742,1.019 -0.74,0.799 -1.168,0.586 -1.857,1.271 -0.8,0.375 -0.809,0.108 -1.045,0.795 -1.55,1.002 -2.271,0.904 -1.187,0.965 -0.962,0.472 -2.222,1.065 -1.678,0.982 -1.032,0.904 -1.246,0.268 -2.348,1.233 -1.535,0.947 -1.885,0.361 -1.123,0.251 -1.221,-0.043 -0.009,15.6 46.538,-0.002 0,0.002 487.208,0 c 4.312,0 9.363,-0.012 11.436,0 2.071,0.004 4.228,0 4.792,0 l 585.723,0 0,-16.746 -0.548,-1.001 z" /><rect
     style="fill:none"
     id="rect23"
     height="146.32401"
     width="1197.214"
     y="4.359741e-08"
     x="-15.497" /><rect
     style="fill:none"
     id="rect2145"
     height="146.32401"
     width="1184.677"
     y="4.359741e-08"
     x="-15.497" /></svg>