<svg class="poster" width="750" height="750" viewBox="0,0,150,150" version="1.1" xmlns="http://www.w3.org/2000/svg" xmlns:xlink="http://www.w3.org/1999/xlink"><defs><style type="text/css"></style></defs> <rect style="fill: white" width="150" height="150"></rect>
<g class="icon" transform="translate(75,75)"><g class="ring ring-0"><path class="arc defined" d="M1.102182119232618e-15,-18A18,18,0,0,1,2.5909076605341435,-17.812557298001472L1.8712110881635482,-12.864624715223286A13,13,0,0,0,7.960204194457795e-16,-13Z" style="stroke: white; fill: black;"></path><path class="arc defined" d="M2.5909076605341435,-17.812557298001472A18,18,0,0,1,10.893135873487774,-14.329675182701587L7.867264797518948,-10.349209854173369A13,13,0,0,0,1.8712110881635482,-12.864624715223286Z" style="stroke: white; fill: black;"></path><path class="arc defined" d="M10.893135873487774,-14.329675182701587A18,18,0,0,1,13.718916992297457,-11.652953126072896L9.908106716659274,-8.416021702163759A13,13,0,0,0,7.867264797518948,-10.349209854173369Z" style="stroke: white; fill: black;"></path><path class="arc defined" d="M13.718916992297457,-11.652953126072896A18,18,0,0,1,15.253373361889558,-9.556913784417961L11.016325205809126,-6.902215510968528A13,13,0,0,0,9.908106716659274,-8.416021702163759Z" style="stroke: white; fill: black;"></path><path class="arc defined" d="M15.253373361889558,-9.556913784417961A18,18,0,0,1,16.951211932437147,-6.054454064703149L12.242541951204606,-4.372661268952275A13,13,0,0,0,11.016325205809126,-6.902215510968528Z" style="stroke: white; fill: black;"></path><path class="arc defined" d="M16.951211932437147,-6.054454064703149A18,18,0,0,1,17.856430672942878,-2.2688948019652044L12.896311041569856,-1.6386462458637587A13,13,0,0,0,12.242541951204606,-4.372661268952275Z" style="stroke: white; fill: black;"></path><path class="arc defined" d="M17.856430672942878,-2.2688948019652044A18,18,0,0,1,17.926702561179077,1.62275546001718L12.947062960851556,1.1719900544568522A13,13,0,0,0,12.896311041569856,-1.6386462458637587Z" style="stroke: white; fill: black;"></path><path class="arc defined" d="M17.926702561179077,1.62275546001718A18,18,0,0,1,17.158741761753408,5.438527480252316L12.392424605710794,3.9278254024044505A13,13,0,0,0,12.947062960851556,1.1719900544568522Z" style="stroke: white; fill: black;"></path><path class="arc undefined" d="M17.158741761753408,5.438527480252316A18,18,0,1,1,-3.3065463576978533e-15,-18L-2.3880612583373385e-15,-13A13,13,0,1,0,12.392424605710794,3.9278254024044505Z" style="stroke: white; fill: white;"></path></g><g class="ring ring-1"><path class="arc defined" d="M1.4695761589768238e-15,-24A24,24,0,0,1,1.7317861392147862,-23.937437556430794L1.3709973602117058,-18.950471398841046A19,19,0,0,0,1.1634144591899855e-15,-19Z" style="stroke: white; fill: black;"></path><path class="arc defined" d="M1.7317861392147862,-23.937437556430794A24,24,0,0,1,3.4545435473788633,-23.750076397335295L2.734846975008267,-18.80214381455711A19,19,0,0,0,1.3709973602117058,-18.950471398841046Z" style="stroke: white; fill: black;"></path><path class="arc defined" d="M3.4545435473788633,-23.750076397335295A24,24,0,0,1,10.077338437446354,-21.781810072102967L7.977892929645031,-17.243932973748183A19,19,0,0,0,2.734846975008267,-18.80214381455711Z" style="stroke: white; fill: black;"></path><path class="arc defined" d="M10.077338437446354,-21.781810072102967A24,24,0,0,1,11.622795681302875,-20.99787181003559L9.201379914364777,-16.62331518294484A19,19,0,0,0,7.977892929645031,-17.243932973748183Z" style="stroke: white; fill: black;"></path><path class="arc defined" d="M11.622795681302875,-20.99787181003559A24,24,0,0,1,13.107657050248733,-20.10446036711915L10.376895164780247,-15.916031123969326A19,19,0,0,0,9.201379914364777,-16.62331518294484Z" style="stroke: white; fill: black;"></path><path class="arc defined" d="M13.107657050248733,-20.10446036711915A24,24,0,0,1,14.524181164650372,-19.106233576935445L11.498310088681544,-15.125768248407226A19,19,0,0,0,10.376895164780247,-15.916031123969326Z" style="stroke: white; fill: black;"></path><path class="arc defined" d="M14.524181164650372,-19.106233576935445A24,24,0,0,1,15.864982923676815,-18.008395731753648L12.559778147910812,-14.256646620971638A19,19,0,0,0,11.498310088681544,-15.125768248407226Z" style="stroke: white; fill: black;"></path><path class="arc defined" d="M15.864982923676815,-18.008395731753648A24,24,0,0,1,17.123072007795848,-16.81667044976021L13.555765339505047,-13.3131974393935A19,19,0,0,0,12.559778147910812,-14.256646620971638Z" style="stroke: white; fill: black;"></path><path class="arc defined" d="M17.123072007795848,-16.81667044976021A24,24,0,0,1,18.291889323063288,-15.537270834763852L14.481079047425101,-12.300339410854715A19,19,0,0,0,13.555765339505047,-13.3131974393935Z" style="stroke: white; fill: black;"></path><path class="arc defined" d="M18.291889323063288,-15.537270834763852A24,24,0,0,1,19.365341197201698,-14.176867083949215L15.330895114451344,-11.223353108126462A19,19,0,0,0,14.481079047425101,-12.300339410854715Z" style="stroke: white; fill: black;"></path><path class="arc defined" d="M19.365341197201698,-14.176867083949215A24,24,0,0,1,20.337831149186087,-12.742551712557269L16.10078299310565,-10.087853439107839A19,19,0,0,0,15.330895114451344,-11.223353108126462Z" style="stroke: white; fill: black;"></path><path class="arc defined" d="M20.337831149186087,-12.742551712557269A24,24,0,0,1,21.204289066704558,-11.24180257679495L16.786728844474442,-8.899760373296001A19,19,0,0,0,16.10078299310565,-10.087853439107839Z" style="stroke: white; fill: black;"></path><path class="arc defined" d="M21.204289066704558,-11.24180257679495A24,24,0,0,1,21.960197639376297,-9.68244388775539L17.385156464506235,-7.66526807780635A19,19,0,0,0,16.786728844474442,-8.899760373296001Z" style="stroke: white; fill: black;"></path><path class="arc defined" d="M21.960197639376297,-9.68244388775539A24,24,0,0,1,22.601615909916198,-8.072605419604189L17.89294592868366,-6.390812623853316A19,19,0,0,0,17.385156464506235,-7.66526807780635Z" style="stroke: white; fill: black;"></path><path class="arc defined" d="M22.601615909916198,-8.072605419604189A24,24,0,0,1,23.125199820461354,-6.420680124701287L18.30744985786524,-5.083038432055185A19,19,0,0,0,17.89294592868366,-6.390812623853316Z" style="stroke: white; fill: black;"></path><path class="arc defined" d="M23.125199820461354,-6.420680124701287A24,24,0,0,1,23.52821964694033,-4.73528037663359L18.626507220494425,-3.7487636315015918A19,19,0,0,0,18.30744985786524,-5.083038432055185Z" style="stroke: white; fill: black;"></path><path class="arc defined" d="M23.52821964694033,-4.73528037663359A24,24,0,0,1,23.80857423059051,-3.0251930692869338L18.848454599217483,-2.3949445131854894A19,19,0,0,0,18.626507220494425,-3.7487636315015918Z" style="stroke: white; fill: black;"></path><path class="arc defined" d="M23.80857423059051,-3.0251930692869338A24,24,0,0,1,23.964801932426973,-1.2993338060500106L18.972134863171355,-1.0286392631229249A19,19,0,0,0,18.848454599217483,-2.3949445131854894Z" style="stroke: white; fill: black;"></path><path class="arc defined" d="M23.964801932426973,-1.2993338060500106A24,24,0,0,1,23.99608825355139,0.4332995820134597L18.996903200728184,0.34302883576065557A19,19,0,0,0,18.972134863171355,-1.0286392631229249Z" style="stroke: white; fill: black;"></path><path class="arc defined" d="M23.99608825355139,0.4332995820134597A24,24,0,0,1,23.9022700815721,2.1636739466895736L18.922630481244582,1.7129085411292457A19,19,0,0,0,18.996903200728184,0.34302883576065557Z" style="stroke: white; fill: black;"></path><path class="arc defined" d="M23.9022700815721,2.1636739466895736A24,24,0,0,1,23.683836540996626,3.88276791726636L18.749703928288998,3.073857934502535A19,19,0,0,0,18.922630481244582,1.7129085411292457Z" style="stroke: white; fill: black;"></path><path class="arc defined" d="M23.683836540996626,3.88276791726636A24,24,0,0,1,23.341926443162954,5.581618933783456L18.47902510083734,4.418781655911903A19,19,0,0,0,18.749703928288998,3.073857934502535Z" style="stroke: white; fill: black;"></path><path class="arc defined" d="M23.341926443162954,5.581618933783456A24,24,0,0,1,22.87832234900454,7.25136997366975L18.11200519296193,5.740667895821884A19,19,0,0,0,18.47902510083734,4.418781655911903Z" style="stroke: white; fill: black;"></path><path class="arc defined" d="M22.87832234900454,7.25136997366975A24,24,0,1,1,-3.4545435473788295,-23.7500763973353L-2.73484697500824,-18.802143814557112A19,19,0,1,0,18.11200519296193,5.740667895821884Z" style="stroke: white; fill: black;"></path><path class="arc defined" d="M-3.4545435473788295,-23.7500763973353A24,24,0,0,1,-1.7317861392147624,-23.937437556430798L-1.370997360211687,-18.95047139884105A19,19,0,0,0,-2.73484697500824,-18.802143814557112Z" style="stroke: white; fill: black;"></path><path class="arc defined" d="M-1.7317861392147624,-23.937437556430798A24,24,0,0,1,1.6907553595872534e-14,-24L1.3385146596732421e-14,-19A19,19,0,0,0,-1.370997360211687,-18.95047139884105Z" style="stroke: white; fill: black;"></path></g><g class="ring ring-2"><path class="arc undefined" d="M1.83697019872103e-15,-30A30,30,0,0,1,4.318179434223572,-29.687595496669122L3.598482861852977,-24.739662913890932A25,25,0,0,0,1.5308084989341915e-15,-25Z" style="stroke: white; fill: white;"></path><path class="arc defined" d="M4.318179434223572,-29.687595496669122A30,30,0,0,1,12.596673046807943,-27.22726259012871L10.49722753900662,-22.689385491773926A25,25,0,0,0,3.598482861852977,-24.739662913890932Z" style="stroke: white; fill: black;"></path><path class="arc undefined" d="M12.596673046807943,-27.22726259012871A30,30,0,0,1,27.450247049220366,-12.103054859694248L22.875205874350304,-10.085879049745207A25,25,0,0,0,10.49722753900662,-22.689385491773926Z" style="stroke: white; fill: white;"></path><path class="arc defined" d="M27.450247049220366,-12.103054859694248A30,30,0,0,1,28.252019887395242,-10.09075677450525L23.543349906162703,-8.408963978754375A25,25,0,0,0,22.875205874350304,-10.085879049745207Z" style="stroke: white; fill: black;"></path><path class="arc undefined" d="M28.252019887395242,-10.09075677450525A30,30,0,0,1,29.995110316939236,0.541624477516818L24.995925264116032,0.45135373126401496A25,25,0,0,0,23.543349906162703,-8.408963978754375Z" style="stroke: white; fill: white;"></path><path class="arc defined" d="M29.995110316939236,0.541624477516818A30,30,0,0,1,29.877837601965126,2.70459243336196L24.898198001637606,2.2538270278016337A25,25,0,0,0,24.995925264116032,0.45135373126401496Z" style="stroke: white; fill: black;"></path><path class="arc undefined" d="M29.877837601965126,2.70459243336196A30,30,0,0,1,29.177408053953698,6.9770236672293136L24.31450671162808,5.8141863893577606A25,25,0,0,0,24.898198001637606,2.2538270278016337Z" style="stroke: white; fill: white;"></path><path class="arc defined" d="M29.177408053953698,6.9770236672293136A30,30,0,0,1,28.597902936255682,9.064212467087179L23.831585780213068,7.5535103892393165A25,25,0,0,0,24.31450671162808,5.8141863893577606Z" style="stroke: white; fill: black;"></path><path class="arc defined" d="M28.597902936255682,9.064212467087179A30,30,0,0,1,26.995402618725198,13.086184984667026L22.496168848937664,10.905154153889189A25,25,0,0,0,23.831585780213068,7.5535103892393165Z" style="stroke: white; fill: black;"></path><path class="arc defined" d="M26.995402618725198,13.086184984667026A30,30,0,0,1,20.630983765602696,21.77986475769393L17.19248647133558,18.149887298078273A25,25,0,0,0,22.496168848937664,10.905154153889189Z" style="stroke: white; fill: black;"></path><path class="arc defined" d="M20.630983765602696,21.77986475769393A30,30,0,0,1,-5.387158233566153,29.512345317960083L-4.489298527971795,24.59362109830007A25,25,0,0,0,17.19248647133558,18.149887298078273Z" style="stroke: white; fill: black;"></path><path class="arc defined" d="M-5.387158233566153,29.512345317960083A30,30,0,0,1,-6.449113206330704,-29.298616671302604L-5.374261005275587,-24.41551389275217A25,25,0,0,0,-4.489298527971795,24.59362109830007Z" style="stroke: white; fill: black;"></path><path class="arc undefined" d="M-6.449113206330704,-29.298616671302604A30,30,0,0,1,2.1134441994840666e-14,-30L1.7612034995700556e-14,-25A25,25,0,0,0,-5.374261005275587,-24.41551389275217Z" style="stroke: white; fill: white;"></path></g><g class="ring ring-3"><path class="arc undefined" d="M2.204364238465236e-15,-36A36,36,0,0,1,5.181815321068295,-35.625114596002945L4.462118748697699,-30.67718201322476A31,31,0,0,0,1.8982025386783976e-15,-31Z" style="stroke: white; fill: white;"></path><path class="arc defined" d="M5.181815321068295,-35.625114596002945A36,36,0,0,1,7.7389358475968715,-35.15834000556312L6.664083646541751,-30.275237227012685A31,31,0,0,0,4.462118748697699,-30.67718201322476Z" style="stroke: white; fill: black;"></path><path class="arc defined" d="M7.7389358475968715,-35.15834000556312A36,36,0,0,1,10.255709146021207,-34.508266109907886L8.831305097962707,-29.715451372420677A31,31,0,0,0,6.664083646541751,-30.275237227012685Z" style="stroke: white; fill: black;"></path><path class="arc defined" d="M10.255709146021207,-34.508266109907886A36,36,0,0,1,12.719013925719693,-33.678282093321634L10.95248421381418,-29.000742913693628A31,31,0,0,0,8.831305097962707,-29.715451372420677Z" style="stroke: white; fill: black;"></path><path class="arc defined" d="M12.719013925719693,-33.678282093321634A36,36,0,0,1,15.11600765616954,-32.67271510815445L13.016562148368214,-28.134838009799665A31,31,0,0,0,10.95248421381418,-29.000742913693628Z" style="stroke: white; fill: black;"></path><path class="arc undefined" d="M15.11600765616954,-32.67271510815445A36,36,0,0,1,32.94029645906445,-14.523665831633076L28.365255284194387,-12.506490021684037A31,31,0,0,0,13.016562148368214,-28.134838009799665Z" style="stroke: white; fill: white;"></path><path class="arc defined" d="M32.94029645906445,-14.523665831633076A36,36,0,0,1,33.9024238648743,-12.108908129406277L29.193753883641758,-10.427115333655406A31,31,0,0,0,28.365255284194387,-12.506490021684037Z" style="stroke: white; fill: black;"></path><path class="arc undefined" d="M33.9024238648743,-12.108908129406277A36,36,0,0,1,35.99413238032709,0.6499493730202135L30.99494732750388,0.5596786267674061A31,31,0,0,0,29.193753883641758,-10.427115333655406Z" style="stroke: white; fill: white;"></path><path class="arc defined" d="M35.99413238032709,0.6499493730202135A36,36,0,0,1,35.85340512235815,3.245510920034384L30.873765522030627,2.794745514474053A31,31,0,0,0,30.99494732750388,0.5596786267674061Z" style="stroke: white; fill: black;"></path><path class="arc undefined" d="M35.85340512235815,3.245510920034384A36,36,0,0,1,35.01288966474443,8.372428400675215L30.14998832241881,7.2095911228036575A31,31,0,0,0,30.873765522030627,2.794745514474053Z" style="stroke: white; fill: white;"></path><path class="arc defined" d="M35.01288966474443,8.372428400675215A36,36,0,0,1,34.31748352350681,10.877054960504655L29.551166367464194,9.366352882656786A31,31,0,0,0,30.14998832241881,7.2095911228036575Z" style="stroke: white; fill: black;"></path><path class="arc defined" d="M34.31748352350681,10.877054960504655A36,36,0,0,1,33.44316191340448,13.324973592236953L28.798278314320523,11.474282815537375A31,31,0,0,0,29.551166367464194,9.366352882656786Z" style="stroke: white; fill: black;"></path><path class="arc defined" d="M33.44316191340448,13.324973592236953A36,36,0,0,1,32.39448314247022,15.70342198160046L27.895249372682695,13.522391150822619A31,31,0,0,0,28.798278314320523,11.474282815537375Z" style="stroke: white; fill: black;"></path><path class="arc defined" d="M32.39448314247022,15.70342198160046A36,36,0,0,1,31.17691453623977,18.000000000000036L26.84678751731758,15.50000000000003A31,31,0,0,0,27.895249372682695,13.522391150822619Z" style="stroke: white; fill: black;"></path><path class="arc defined" d="M31.17691453623977,18.000000000000036A36,36,0,0,1,29.796803933648032,20.202734353045805L25.658358942863583,17.39679902623389A31,31,0,0,0,26.84678751731758,15.50000000000003Z" style="stroke: white; fill: black;"></path><path class="arc defined" d="M29.796803933648032,20.202734353045805A36,36,0,0,1,28.26134659233617,22.30014100376607L24.336159565622815,19.202899197687447A31,31,0,0,0,25.658358942863583,17.39679902623389Z" style="stroke: white; fill: black;"></path><path class="arc defined" d="M28.26134659233617,22.30014100376607A36,36,0,0,1,26.578547675909913,24.28128504505855L22.887082720922425,20.90888434435597A31,31,0,0,0,24.336159565622815,19.202899197687447Z" style="stroke: white; fill: black;"></path><path class="arc defined" d="M26.578547675909913,24.28128504505855A36,36,0,0,1,24.757180518723192,26.13583770923276L21.31868322445608,22.505860249617097A31,31,0,0,0,22.887082720922425,20.90888434435597Z" style="stroke: white; fill: black;"></path><path class="arc defined" d="M24.757180518723192,26.13583770923276A36,36,0,0,1,22.8067408857752,27.854130217422153L19.63913798497309,23.985501020557965A31,31,0,0,0,21.31868322445608,22.505860249617097Z" style="stroke: white; fill: black;"></path><path class="arc defined" d="M22.8067408857752,27.854130217422153A36,36,0,0,1,20.73739746618856,29.427204188120154L17.857203373662372,25.34009249532569A31,31,0,0,0,19.63913798497309,23.985501020557965Z" style="stroke: white; fill: black;"></path><path class="arc defined" d="M20.73739746618856,29.427204188120154A36,36,0,0,1,18.55993885837271,30.846858342033258L15.982169572487612,26.562572461195305A31,31,0,0,0,17.857203373662372,25.34009249532569Z" style="stroke: white; fill: black;"></path><path class="arc defined" d="M18.55993885837271,30.846858342033258A36,36,0,0,1,16.28571732326729,32.105691259753804L14.023812139480164,27.64656747367689A31,31,0,0,0,15.982169572487612,26.562572461195305Z" style="stroke: white; fill: black;"></path><path class="arc defined" d="M16.28571732326729,32.105691259753804A36,36,0,0,1,13.92658959891012,33.19713996933363L11.992341043505936,28.58642608470396A31,31,0,0,0,14.023812139480164,27.64656747367689Z" style="stroke: white; fill: black;"></path><path class="arc defined" d="M13.92658959891012,33.19713996933363A36,36,0,0,1,11.49485508489518,34.11551416258092L9.898347434215294,29.377248306666903A31,31,0,0,0,11.992341043505936,28.58642608470396Z" style="stroke: white; fill: black;"></path><path class="arc defined" d="M11.49485508489518,34.11551416258092A36,36,0,0,1,9.00319171899816,34.85602586169231L7.752748424692861,30.014911158679485A31,31,0,0,0,9.898347434215294,29.377248306666903Z" style="stroke: white; fill: black;"></path><path class="arc defined" d="M9.00319171899816,34.85602586169231A36,36,0,0,1,6.464589880279263,35.41481438155212L5.566730174684921,30.496090161892102A31,31,0,0,0,7.752748424692861,30.014911158679485Z" style="stroke: white; fill: black;"></path><path class="arc defined" d="M6.464589880279263,35.41481438155212A36,36,0,0,1,3.8922846632617802,35.78896645755696L3.3516895711420887,30.818276671785156A31,31,0,0,0,5.566730174684921,30.496090161892102Z" style="stroke: white; fill: black;"></path><path class="arc defined" d="M3.8922846632617802,35.78896645755696A36,36,0,0,1,1.2996868762775806,35.976531434028374L1.1191748101279166,30.979790957079988A31,31,0,0,0,3.3516895711420887,30.818276671785156Z" style="stroke: white; fill: black;"></path><path class="arc defined" d="M1.2996868762775806,35.976531434028374A36,36,0,0,1,-1.299686876277848,35.97653143402837L-1.119174810128147,30.97979095707998A31,31,0,0,0,1.1191748101279166,30.979790957079988Z" style="stroke: white; fill: black;"></path><path class="arc defined" d="M-1.299686876277848,35.97653143402837A36,36,0,0,1,-3.8922846632620463,35.78896645755693L-3.3516895711423174,30.818276671785135A31,31,0,0,0,-1.119174810128147,30.97979095707998Z" style="stroke: white; fill: black;"></path><path class="arc defined" d="M-3.8922846632620463,35.78896645755693A36,36,0,0,1,-6.464589880279526,35.41481438155207L-5.566730174685148,30.496090161892063A31,31,0,0,0,-3.3516895711423174,30.818276671785135Z" style="stroke: white; fill: black;"></path><path class="arc defined" d="M-6.464589880279526,35.41481438155207A36,36,0,0,1,-9.003191718998421,34.85602586169224L-7.752748424693085,30.01491115867943A31,31,0,0,0,-5.566730174685148,30.496090161892063Z" style="stroke: white; fill: black;"></path><path class="arc defined" d="M-9.003191718998421,34.85602586169224A36,36,0,0,1,-11.494855084895432,34.11551416258084L-9.89834743421551,29.377248306666832A31,31,0,0,0,-7.752748424693085,30.01491115867943Z" style="stroke: white; fill: black;"></path><path class="arc defined" d="M-11.494855084895432,34.11551416258084A36,36,0,0,1,-13.926589598910365,33.19713996933353L-11.992341043506148,28.58642608470387A31,31,0,0,0,-9.89834743421551,29.377248306666832Z" style="stroke: white; fill: black;"></path><path class="arc defined" d="M-13.926589598910365,33.19713996933353A36,36,0,0,1,-16.285717323267527,32.105691259753684L-14.023812139480368,27.646567473676782A31,31,0,0,0,-11.992341043506148,28.58642608470387Z" style="stroke: white; fill: black;"></path><path class="arc defined" d="M-16.285717323267527,32.105691259753684A36,36,0,0,1,-18.559938858372938,30.84685834203312L-15.982169572487807,26.562572461195185A31,31,0,0,0,-14.023812139480368,27.646567473676782Z" style="stroke: white; fill: black;"></path><path class="arc defined" d="M-18.559938858372938,30.84685834203312A36,36,0,0,1,-20.73739746618878,29.427204188119997L-17.857203373662564,25.340092495325553A31,31,0,0,0,-15.982169572487807,26.562572461195185Z" style="stroke: white; fill: black;"></path><path class="arc defined" d="M-20.73739746618878,29.427204188119997A36,36,0,0,1,-22.806740885775408,27.854130217421982L-19.639137984973267,23.985501020557816A31,31,0,0,0,-17.857203373662564,25.340092495325553Z" style="stroke: white; fill: black;"></path><path class="arc defined" d="M-22.806740885775408,27.854130217421982A36,36,0,0,1,-24.757180518723384,26.135837709232575L-21.318683224456247,22.50586024961694A31,31,0,0,0,-19.639137984973267,23.985501020557816Z" style="stroke: white; fill: black;"></path><path class="arc defined" d="M-24.757180518723384,26.135837709232575A36,36,0,0,1,-26.57854767591009,24.28128504505835L-22.887082720922578,20.9088843443558A31,31,0,0,0,-21.318683224456247,22.50586024961694Z" style="stroke: white; fill: black;"></path><path class="arc defined" d="M-26.57854767591009,24.28128504505835A36,36,0,0,1,-28.261346592336327,22.300141003765873L-24.33615956562295,19.20289919768728A31,31,0,0,0,-22.887082720922578,20.9088843443558Z" style="stroke: white; fill: black;"></path><path class="arc defined" d="M-28.261346592336327,22.300141003765873A36,36,0,0,1,-29.796803933648164,20.20273435304561L-25.658358942863696,17.39679902623372A31,31,0,0,0,-24.33615956562295,19.20289919768728Z" style="stroke: white; fill: black;"></path><path class="arc defined" d="M-29.796803933648164,20.20273435304561A36,36,0,0,1,-31.17691453623988,17.999999999999847L-26.846787517317676,15.499999999999867A31,31,0,0,0,-25.658358942863696,17.39679902623372Z" style="stroke: white; fill: black;"></path><path class="arc defined" d="M-31.17691453623988,17.999999999999847A36,36,0,0,1,-32.394483142470314,15.703421981600277L-27.89524937268277,13.522391150822461A31,31,0,0,0,-26.846787517317676,15.499999999999867Z" style="stroke: white; fill: black;"></path><path class="arc defined" d="M-32.394483142470314,15.703421981600277A36,36,0,0,1,-33.44316191340455,13.32497359223677L-28.798278314320587,11.474282815537219A31,31,0,0,0,-27.89524937268277,13.522391150822461Z" style="stroke: white; fill: black;"></path><path class="arc defined" d="M-33.44316191340455,13.32497359223677A36,36,0,0,1,-34.317483523506866,10.877054960504475L-29.551166367464244,9.366352882656631A31,31,0,0,0,-28.798278314320587,11.474282815537219Z" style="stroke: white; fill: black;"></path><path class="arc defined" d="M-34.317483523506866,10.877054960504475A36,36,0,0,1,-35.01288966474447,8.37242840067504L-30.14998832241885,7.209591122803507A31,31,0,0,0,-29.551166367464244,9.366352882656631Z" style="stroke: white; fill: black;"></path><path class="arc defined" d="M-35.01288966474447,8.37242840067504A36,36,0,0,1,-35.52575481149496,5.824151875899402L-30.591622198787327,5.015241893135596A31,31,0,0,0,-30.14998832241885,7.209591122803507Z" style="stroke: white; fill: black;"></path><path class="arc defined" d="M-35.52575481149496,5.824151875899402A36,36,0,0,1,-35.85340512235816,3.245510920034229L-30.87376552203064,2.7947455144739197A31,31,0,0,0,-30.591622198787327,5.015241893135596Z" style="stroke: white; fill: black;"></path><path class="arc defined" d="M-35.85340512235816,3.245510920034229A36,36,0,0,1,-35.99413238032709,0.6499493730200661L-30.99494732750388,0.5596786267672791A31,31,0,0,0,-30.87376552203064,2.7947455144739197Z" style="stroke: white; fill: black;"></path><path class="arc defined" d="M-35.99413238032709,0.6499493730200661A36,36,0,0,1,-35.947202898640455,-1.9490007090751311L-30.954535829384834,-1.6783061661480296A31,31,0,0,0,-30.99494732750388,0.5596786267672791Z" style="stroke: white; fill: black;"></path><path class="arc defined" d="M-35.947202898640455,-1.9490007090751311A36,36,0,0,1,-35.71286134588574,-4.5377896039305075L-30.752741714512723,-3.907541047829048A31,31,0,0,0,-30.954535829384834,-1.6783061661480296Z" style="stroke: white; fill: black;"></path><path class="arc defined" d="M-35.71286134588574,-4.5377896039305075A36,36,0,0,1,-35.29232947041047,-7.102920564950481L-30.390617043964575,-6.11640381981847A31,31,0,0,0,-30.752741714512723,-3.907541047829048Z" style="stroke: white; fill: black;"></path><path class="arc defined" d="M-35.29232947041047,-7.102920564950481A36,36,0,0,1,-34.68779973069201,-9.63102018705202L-29.870049768095896,-8.293378494405905A31,31,0,0,0,-30.390617043964575,-6.11640381981847Z" style="stroke: white; fill: black;"></path><path class="arc defined" d="M-34.68779973069201,-9.63102018705202A36,36,0,0,1,-33.90242386487427,-12.108908129406363L-29.193753883641733,-10.427115333655479A31,31,0,0,0,-29.870049768095896,-8.293378494405905Z" style="stroke: white; fill: black;"></path><path class="arc defined" d="M-33.90242386487427,-12.108908129406363A36,36,0,0,1,-32.94029645906441,-14.523665831633153L-28.365255284194358,-12.506490021684103A31,31,0,0,0,-29.193753883641733,-10.427115333655479Z" style="stroke: white; fill: black;"></path><path class="arc defined" d="M-32.94029645906441,-14.523665831633153A36,36,0,0,1,-31.806433600056806,-16.862703865192483L-27.388873377826695,-14.520661661693527A31,31,0,0,0,-28.365255284194358,-12.506490021684103Z" style="stroke: white; fill: black;"></path><path class="arc defined" d="M-31.806433600056806,-16.862703865192483A36,36,0,0,1,-30.5067467237791,-19.11382756883595L-26.26969856769867,-16.459129295386514A31,31,0,0,0,-27.388873377826695,-14.520661661693527Z" style="stroke: white; fill: black;"></path><path class="arc defined" d="M-30.5067467237791,-19.11382756883595A36,36,0,0,1,-29.04801179580252,-21.265300625923857L-25.01356571305217,-18.311786650101098A31,31,0,0,0,-26.26969856769867,-16.459129295386514Z" style="stroke: white; fill: black;"></path><path class="arc defined" d="M-29.04801179580252,-21.265300625923857A36,36,0,0,1,-27.437833984594903,-23.305906252145803L-23.627023708956724,-20.068974828236666A31,31,0,0,0,-25.01356571305217,-18.311786650101098Z" style="stroke: white; fill: black;"></path><path class="arc defined" d="M-27.437833984594903,-23.305906252145803A36,36,0,0,1,-25.684608011693754,-25.225005674640332L-22.117301343402957,-21.72153266427362A31,31,0,0,0,-23.627023708956724,-20.068974828236666Z" style="stroke: white; fill: black;"></path><path class="arc defined" d="M-25.684608011693754,-25.225005674640332A36,36,0,0,1,-23.797474385515216,-27.01259359763048L-20.49226960974921,-23.26084448684847A31,31,0,0,0,-22.117301343402957,-21.72153266427362Z" style="stroke: white; fill: black;"></path><path class="arc defined" d="M-23.797474385515216,-27.01259359763048A36,36,0,0,1,-21.786271746975558,-28.659350365403167L-18.760400671006728,-24.67888503687495A31,31,0,0,0,-20.49226960974921,-23.26084448684847Z" style="stroke: white; fill: black;"></path><path class="arc defined" d="M-21.786271746975558,-28.659350365403167A36,36,0,0,1,-19.661485575373113,-30.156690550678718L-16.930723689904625,-25.9682613075289A31,31,0,0,0,-18.760400671006728,-24.67888503687495Z" style="stroke: white; fill: black;"></path><path class="arc defined" d="M-19.661485575373113,-30.156690550678718A36,36,0,0,1,-17.43419352195433,-31.49680771505337L-15.01277775501623,-27.122251087962624A31,31,0,0,0,-16.930723689904625,-25.9682613075289Z" style="stroke: white; fill: black;"></path><path class="arc defined" d="M-17.43419352195433,-31.49680771505337A36,36,0,0,1,-15.116007656169565,-32.672715108154435L-13.016562148368237,-28.134838009799655A31,31,0,0,0,-15.01277775501623,-27.122251087962624Z" style="stroke: white; fill: black;"></path><path class="arc defined" d="M-15.116007656169565,-32.672715108154435A36,36,0,0,1,-12.719013925719734,-33.67828209332162L-10.952484213814216,-29.000742913693614A31,31,0,0,0,-13.016562148368237,-28.134838009799655Z" style="stroke: white; fill: black;"></path><path class="arc defined" d="M-12.719013925719734,-33.67828209332162A36,36,0,0,1,-10.255709146021259,-34.508266109907865L-8.831305097962751,-29.715451372420663A31,31,0,0,0,-10.952484213814216,-29.000742913693614Z" style="stroke: white; fill: black;"></path><path class="arc defined" d="M-10.255709146021259,-34.508266109907865A36,36,0,0,1,-7.738935847596938,-35.158340005563105L-6.664083646541808,-30.275237227012674A31,31,0,0,0,-8.831305097962751,-29.715451372420663Z" style="stroke: white; fill: black;"></path><path class="arc defined" d="M-7.738935847596938,-35.158340005563105A36,36,0,0,1,-5.18181532106837,-35.62511459600293L-4.462118748697764,-30.677182013224748A31,31,0,0,0,-6.664083646541808,-30.275237227012674Z" style="stroke: white; fill: black;"></path><path class="arc defined" d="M-5.18181532106837,-35.62511459600293A36,36,0,0,1,-2.5976792088222713,-35.90615633464619L-2.236890429819178,-30.91919017705644A31,31,0,0,0,-4.462118748697764,-30.677182013224748Z" style="stroke: white; fill: black;"></path><path class="arc defined" d="M-2.5976792088222713,-35.90615633464619A36,36,0,0,1,-1.0253636204300924e-13,-36L-8.829520064814684e-14,-31A31,31,0,0,0,-2.236890429819178,-30.91919017705644Z" style="stroke: white; fill: black;"></path></g></g>
</svg>