<?xml version="1.0" encoding="UTF-8" standalone="no"?>
<!-- Created with Inkscape (http://www.inkscape.org/) -->

<svg
   xmlns:dc="http://purl.org/dc/elements/1.1/"
   xmlns:cc="http://creativecommons.org/ns#"
   xmlns:rdf="http://www.w3.org/1999/02/22-rdf-syntax-ns#"
   xmlns:svg="http://www.w3.org/2000/svg"
   xmlns="http://www.w3.org/2000/svg"
   xmlns:xlink="http://www.w3.org/1999/xlink"
   version="1.1"
   width="900"
   height="741"
   viewBox="0 0 900 741"
   id="Layer_1"
   xml:space="preserve"><metadata
     id="metadata45"><rdf:RDF><cc:Work
         rdf:about=""><dc:format>image/svg+xml</dc:format><dc:type
           rdf:resource="http://purl.org/dc/dcmitype/StillImage" /><dc:title></dc:title></cc:Work></rdf:RDF></metadata>
    <defs id="defs43"><pattern
       patternTransform="matrix(0.98164471,0,0,0.98164471,90.561479,112.53339)"
       id="pattern3648"
       xlink:href="#diagonalHatchBL80995" /><pattern
       id="diagonalHatchBL80995"
       patternUnits="userSpaceOnUse"
       width="4"
       height="4"><path
         d="M-1,1 l2,-2 M0,4 l4,-4 M3,5 l2,-2"
         stroke="rgb(166, 192, 214)"
         stroke-width="1"
         id="path3028" /></pattern><pattern
       patternTransform="matrix(0.98164471,0,0,0.98164471,90.561479,92.900491)"
       id="pattern3653"
       xlink:href="#diagonalHatchBL80995" /><pattern
       id="pattern3846"
       patternUnits="userSpaceOnUse"
       width="4"
       height="4"><path
         d="M-1,1 l2,-2 M0,4 l4,-4 M3,5 l2,-2"
         stroke="rgb(166, 192, 214)"
         stroke-width="1"
         id="path3848" /></pattern><pattern
       patternTransform="matrix(0.98164471,0,0,0.98164471,99.325346,334.91675)"
       id="pattern3702"
       xlink:href="#diagonalHatchBL80995" /><pattern
       id="pattern3851"
       patternUnits="userSpaceOnUse"
       width="4"
       height="4"><path
         d="M-1,1 l2,-2 M0,4 l4,-4 M3,5 l2,-2"
         stroke="rgb(166, 192, 214)"
         stroke-width="1"
         id="path3853" /></pattern><pattern
       patternTransform="matrix(0.98164471,0,0,0.98164471,99.325346,334.91675)"
       id="pattern3705"
       xlink:href="#diagonalHatchBL80995" /><pattern
       id="pattern3856"
       patternUnits="userSpaceOnUse"
       width="4"
       height="4"><path
         d="M-1,1 l2,-2 M0,4 l4,-4 M3,5 l2,-2"
         stroke="rgb(166, 192, 214)"
         stroke-width="1"
         id="path3858" /></pattern><pattern
       patternTransform="matrix(0.98164471,0,0,0.98164471,99.325346,334.91675)"
       id="pattern3708"
       xlink:href="#diagonalHatchBL80995" /><pattern
       id="pattern3861"
       patternUnits="userSpaceOnUse"
       width="4"
       height="4"><path
         d="M-1,1 l2,-2 M0,4 l4,-4 M3,5 l2,-2"
         stroke="rgb(166, 192, 214)"
         stroke-width="1"
         id="path3863" /></pattern><pattern
       patternTransform="matrix(0.98164471,0,0,0.98164471,99.325346,334.91675)"
       id="pattern3711"
       xlink:href="#diagonalHatchBL80995" /><pattern
       id="pattern3866"
       patternUnits="userSpaceOnUse"
       width="4"
       height="4"><path
         d="M-1,1 l2,-2 M0,4 l4,-4 M3,5 l2,-2"
         stroke="rgb(166, 192, 214)"
         stroke-width="1"
         id="path3868" /></pattern><pattern
       patternTransform="matrix(0.98164471,0,0,0.98164471,99.325346,334.91675)"
       id="pattern3714"
       xlink:href="#diagonalHatchBL80995" /><pattern
       id="pattern3871"
       patternUnits="userSpaceOnUse"
       width="4"
       height="4"><path
         d="M-1,1 l2,-2 M0,4 l4,-4 M3,5 l2,-2"
         stroke="rgb(166, 192, 214)"
         stroke-width="1"
         id="path3873" /></pattern><pattern
       patternTransform="matrix(0.98164471,0,0,0.98164471,99.325346,334.91675)"
       id="pattern3717"
       xlink:href="#diagonalHatchBL80995" /><pattern
       id="pattern3876"
       patternUnits="userSpaceOnUse"
       width="4"
       height="4"><path
         d="M-1,1 l2,-2 M0,4 l4,-4 M3,5 l2,-2"
         stroke="rgb(166, 192, 214)"
         stroke-width="1"
         id="path3878" /></pattern><pattern
       patternTransform="matrix(0.98164471,0,0,0.98164471,99.325346,334.91675)"
       id="pattern3720"
       xlink:href="#diagonalHatchBL80995" /><pattern
       id="pattern3881"
       patternUnits="userSpaceOnUse"
       width="4"
       height="4"><path
         d="M-1,1 l2,-2 M0,4 l4,-4 M3,5 l2,-2"
         stroke="rgb(166, 192, 214)"
         stroke-width="1"
         id="path3883" /></pattern><pattern
       patternTransform="matrix(0.98164471,0,0,0.98164471,99.325346,334.91675)"
       id="pattern3723"
       xlink:href="#diagonalHatchBL80995" /><pattern
       id="pattern3886"
       patternUnits="userSpaceOnUse"
       width="4"
       height="4"><path
         d="M-1,1 l2,-2 M0,4 l4,-4 M3,5 l2,-2"
         stroke="rgb(166, 192, 214)"
         stroke-width="1"
         id="path3888" /></pattern><pattern
       patternTransform="matrix(0.98164471,0,0,0.98164471,99.325346,334.91675)"
       id="pattern3726"
       xlink:href="#diagonalHatchBL80995" /><pattern
       id="pattern3891"
       patternUnits="userSpaceOnUse"
       width="4"
       height="4"><path
         d="M-1,1 l2,-2 M0,4 l4,-4 M3,5 l2,-2"
         stroke="rgb(166, 192, 214)"
         stroke-width="1"
         id="path3893" /></pattern><pattern
       patternTransform="matrix(0.98164471,0,0,0.98164471,99.325346,334.91675)"
       id="pattern3729"
       xlink:href="#diagonalHatchBL80995" /><pattern
       id="pattern3896"
       patternUnits="userSpaceOnUse"
       width="4"
       height="4"><path
         d="M-1,1 l2,-2 M0,4 l4,-4 M3,5 l2,-2"
         stroke="rgb(166, 192, 214)"
         stroke-width="1"
         id="path3898" /></pattern><pattern
       patternTransform="matrix(0.98164471,0,0,0.98164471,99.325346,334.91675)"
       id="pattern3732"
       xlink:href="#diagonalHatchBL80995" /><pattern
       id="pattern3901"
       patternUnits="userSpaceOnUse"
       width="4"
       height="4"><path
         d="M-1,1 l2,-2 M0,4 l4,-4 M3,5 l2,-2"
         stroke="rgb(166, 192, 214)"
         stroke-width="1"
         id="path3903" /></pattern><pattern
       patternTransform="matrix(0.98164471,0,0,0.98164471,99.325346,334.91675)"
       id="pattern3735"
       xlink:href="#diagonalHatchBL80995" /><pattern
       id="pattern3906"
       patternUnits="userSpaceOnUse"
       width="4"
       height="4"><path
         d="M-1,1 l2,-2 M0,4 l4,-4 M3,5 l2,-2"
         stroke="rgb(166, 192, 214)"
         stroke-width="1"
         id="path3908" /></pattern><pattern
       patternTransform="matrix(0.98164471,0,0,0.98164471,99.325346,334.91675)"
       id="pattern3738"
       xlink:href="#diagonalHatchBL80995" /><pattern
       id="pattern3911"
       patternUnits="userSpaceOnUse"
       width="4"
       height="4"><path
         d="M-1,1 l2,-2 M0,4 l4,-4 M3,5 l2,-2"
         stroke="rgb(166, 192, 214)"
         stroke-width="1"
         id="path3913" /></pattern></defs><g
     id="Stand"><g
       id="g7"><path
         d="M 555.954,703.717 C 553.81,692.6 543.987,601.982 543.987,601.982 H 356.012 C 356.012,601.982 346.188,692.6 344.052,703.717 339.156,729.192 330.383,732.121 330.383,732.121 H 569.619 C 569.618,732.12 560.845,729.19 555.954,703.717 z"
         id="path9"
         style="fill:#dcdfe2" /></g></g><g
     id="Rectangle_1"><g
       id="g12"><rect
         width="315.00699"
         height="15.235"
         x="293.68201"
         y="726.26501"
         id="rect14"
         style="fill:#d1d6da" /></g></g><g
     id="Shadow_1_"><g
       id="g17"><polygon
         points="355.259,607.841 351.708,638.326 548.292,638.326 544.741,607.841 "
         id="polygon19"
         style="fill:#d1d6da" /></g></g><g
     id="Chin"><g
       id="g22"><path
         d="M 0,531.618 V 592.589 C 0,612.009 15.904,627.777 35.528,627.777 H 864.48 C 884.095,627.777 900.001,612.009 900.001,592.589 V 531.618 H 0 z"
         id="path24"
         style="fill:#dcdfe2" /></g></g><g
     id="Dark_Area"><g
       id="g27"><path
         d="M 864.479,0.5 H 35.528 C 15.904,0.5 0,16.247 0,35.669 V 548.037 H 899.998 V 35.669 C 899.998,16.247 884.095,0.5 864.479,0.5 z"
         id="path29"
         style="fill:#323843" /></g></g><g
     id="Camera"><g
       id="g32"><path
         d="M 450,12.226 C 445.426,12.226 441.719,15.896 441.719,20.426 441.719,24.965 445.426,28.635 450,28.635 454.574,28.635 458.281,24.964 458.281,20.426 458.28,15.896 454.573,12.226 450,12.226 z"
         id="path34"
         style="fill:#474c55" /></g></g><g
     id="Display"
     style="fill:#f2f5f7;fill-opacity:1"><g
       id="g37"
       style="fill:#f2f5f7;fill-opacity:1"><rect
         width="821.84802"
         height="468.98099"
         x="39.080002"
         y="38.02"
         id="rect39"
         style="fill:#f2f5f7;fill-opacity:1" /></g></g><g
     transform="matrix(0.98164471,0,0,0.98164471,126.21377,311.21794)"
     id="g3032"><line
       y2="6"
       x2="0"
       style="fill:none;stroke:none"
       id="line3034"
       x1="0"
       y1="0" /><text
       x="0"
       y="9"
       dx="0"
       dy="0"
       id="text3036"
       style="font-size:11px;font-weight:bold;text-anchor:middle;fill:#535353;font-family:sans-serif">1999</text>
</g><g
     transform="matrix(0.98164471,0,0,0.98164471,178.95075,311.21794)"
     id="g3038"><line
       y2="6"
       x2="0"
       style="fill:none;stroke:none"
       id="line3040"
       x1="0"
       y1="0" /><text
       x="0"
       y="9"
       dx="0"
       dy="0"
       id="text3042"
       style="font-size:11px;font-weight:bold;text-anchor:middle;fill:#535353;font-family:sans-serif">2000</text>
</g><g
     transform="matrix(0.98164471,0,0,0.98164471,231.68772,311.21794)"
     id="g3044"><line
       y2="6"
       x2="0"
       style="fill:none;stroke:none"
       id="line3046"
       x1="0"
       y1="0" /><text
       x="0"
       y="9"
       dx="0"
       dy="0"
       id="text3048"
       style="font-size:11px;font-weight:bold;text-anchor:middle;fill:#535353;font-family:sans-serif">2001</text>
</g><g
     transform="matrix(0.98164471,0,0,0.98164471,284.4247,311.21794)"
     id="g3050"><line
       y2="6"
       x2="0"
       style="fill:none;stroke:none"
       id="line3052"
       x1="0"
       y1="0" /><text
       x="0"
       y="9"
       dx="0"
       dy="0"
       id="text3054"
       style="font-size:11px;font-weight:bold;text-anchor:middle;fill:#535353;font-family:sans-serif">2002</text>
</g><g
     transform="matrix(0.98164471,0,0,0.98164471,337.16168,311.21794)"
     id="g3056"><line
       y2="6"
       x2="0"
       style="fill:none;stroke:none"
       id="line3058"
       x1="0"
       y1="0" /><text
       x="0"
       y="9"
       dx="0"
       dy="0"
       id="text3060"
       style="font-size:11px;font-weight:bold;text-anchor:middle;fill:#535353;font-family:sans-serif">2003</text>
</g><g
     transform="matrix(0.98164471,0,0,0.98164471,389.89865,311.21794)"
     id="g3062"><line
       y2="6"
       x2="0"
       style="fill:none;stroke:none"
       id="line3064"
       x1="0"
       y1="0" /><text
       x="0"
       y="9"
       dx="0"
       dy="0"
       id="text3066"
       style="font-size:11px;font-weight:bold;text-anchor:middle;fill:#535353;font-family:sans-serif">2004</text>
</g><g
     transform="matrix(0.98164471,0,0,0.98164471,442.63562,311.21794)"
     id="g3068"><line
       y2="6"
       x2="0"
       style="fill:none;stroke:none"
       id="line3070"
       x1="0"
       y1="0" /><text
       x="0"
       y="9"
       dx="0"
       dy="0"
       id="text3072"
       style="font-size:11px;font-weight:bold;text-anchor:middle;fill:#535353;font-family:sans-serif">2005</text>
</g><g
     transform="matrix(0.98164471,0,0,0.98164471,495.3726,311.21794)"
     id="g3074"><line
       y2="6"
       x2="0"
       style="fill:none;stroke:none"
       id="line3076"
       x1="0"
       y1="0" /><text
       x="0"
       y="9"
       dx="0"
       dy="0"
       id="text3078"
       style="font-size:11px;font-weight:bold;text-anchor:middle;fill:#535353;font-family:sans-serif">2006</text>
</g><g
     transform="matrix(0.98164471,0,0,0.98164471,548.10957,311.21794)"
     id="g3080"><line
       y2="6"
       x2="0"
       style="fill:none;stroke:none"
       id="line3082"
       x1="0"
       y1="0" /><text
       x="0"
       y="9"
       dx="0"
       dy="0"
       id="text3084"
       style="font-size:11px;font-weight:bold;text-anchor:middle;fill:#535353;font-family:sans-serif">2007</text>
</g><g
     transform="matrix(0.98164471,0,0,0.98164471,600.84655,311.21794)"
     id="g3086"><line
       y2="6"
       x2="0"
       style="fill:none;stroke:none"
       id="line3088"
       x1="0"
       y1="0" /><text
       x="0"
       y="9"
       dx="0"
       dy="0"
       id="text3090"
       style="font-size:11px;font-weight:bold;text-anchor:middle;fill:#535353;font-family:sans-serif">2008</text>
</g><g
     transform="matrix(0.98164471,0,0,0.98164471,653.58352,311.21794)"
     id="g3092"><line
       y2="6"
       x2="0"
       style="fill:none;stroke:none"
       id="line3094"
       x1="0"
       y1="0" /><text
       x="0"
       y="9"
       dx="0"
       dy="0"
       id="text3096"
       style="font-size:11px;font-weight:bold;text-anchor:middle;fill:#535353;font-family:sans-serif">2009</text>
</g><g
     transform="matrix(0.98164471,0,0,0.98164471,706.32049,311.21794)"
     id="g3098"><line
       y2="6"
       x2="0"
       style="fill:none;stroke:none"
       id="line3100"
       x1="0"
       y1="0" /><text
       x="0"
       y="9"
       dx="0"
       dy="0"
       id="text3102"
       style="font-size:11px;font-weight:bold;text-anchor:middle;fill:#535353;font-family:sans-serif">2010</text>
</g><g
     transform="matrix(0.98164471,0,0,0.98164471,759.05747,311.21794)"
     id="g3104"><line
       y2="6"
       x2="0"
       style="fill:none;stroke:none"
       id="line3106"
       x1="0"
       y1="0" /><text
       x="0"
       y="9"
       dx="0"
       dy="0"
       id="text3108"
       style="font-size:11px;font-weight:bold;text-anchor:middle;fill:#535353;font-family:sans-serif">2011</text>
</g><path
     d="M 99.845294,317.1078 V 311.21794 H 785.42596 V 317.1078"
     id="path3110"
     style="fill:none;stroke:#333333;stroke-width:0px" /><rect
     width="13.592004"
     height="116.04276"
     x="112.91737"
     y="184.51643"
     id="rect3114"
     style="fill:#a6c0d6" /><text
     x="124.48728"
     y="180.35693"
     dx="0"
     dy="0"
     id="text3116"
     style="font-size:10.79809189px;font-weight:bold;text-anchor:end;fill:#a6c0d6;font-family:sans-serif">321</text>
<rect
     width="13.592004"
     height="108.81268"
     x="165.65431"
     y="191.74651"
     id="rect3120"
     style="fill:#a6c0d6" /><text
     x="177.22423"
     y="187.58701"
     dx="0"
     dy="0"
     id="text3122"
     style="font-size:10.79809189px;font-weight:bold;text-anchor:end;fill:#a6c0d6;font-family:sans-serif">301</text>
<rect
     width="13.592004"
     height="119.65779"
     x="218.3913"
     y="180.90141"
     id="rect3126"
     style="fill:#a6c0d6" /><text
     x="229.96121"
     y="176.74188"
     dx="0"
     dy="0"
     id="text3128"
     style="font-size:10.79809189px;font-weight:bold;text-anchor:end;fill:#a6c0d6;font-family:sans-serif">331</text>
<rect
     width="13.592004"
     height="111.7047"
     x="271.12827"
     y="188.85448"
     id="rect3132"
     style="fill:#a6c0d6;stroke:#ffffff;stroke-width:0px" /><text
     x="282.69818"
     y="184.69498"
     dx="0"
     dy="0"
     id="text3134"
     style="font-size:10.79809189px;font-weight:bold;text-anchor:end;fill:#a6c0d6;font-family:sans-serif">309</text>
<rect
     width="13.592004"
     height="117.12727"
     x="323.86523"
     y="183.43192"
     id="rect3138"
     style="fill:#a6c0d6;stroke:#ffffff;stroke-width:0px" /><text
     x="335.43512"
     y="179.27242"
     dx="0"
     dy="0"
     id="text3140"
     style="font-size:10.79809189px;font-weight:bold;text-anchor:end;fill:#a6c0d6;font-family:sans-serif">324</text>
<rect
     width="13.592004"
     height="100.85958"
     x="376.60223"
     y="199.6996"
     id="rect3144"
     style="fill:#a6c0d6;stroke:#ffffff;stroke-width:0px" /><text
     x="388.17212"
     y="195.54007"
     dx="0"
     dy="0"
     id="text3146"
     style="font-size:10.79809189px;font-weight:bold;text-anchor:end;fill:#a6c0d6;font-family:sans-serif">279</text>
<rect
     width="13.592004"
     height="107.00515"
     x="429.33917"
     y="193.55405"
     id="rect3150"
     style="fill:#a6c0d6;stroke:#ffffff;stroke-width:0px" /><text
     x="440.90909"
     y="189.39452"
     dx="0"
     dy="0"
     id="text3152"
     style="font-size:10.79809189px;font-weight:bold;text-anchor:end;fill:#a6c0d6;font-family:sans-serif">296</text>
<rect
     width="13.592004"
     height="104.47462"
     x="482.07614"
     y="196.08455"
     id="rect3156"
     style="fill:#a6c0d6;stroke:#ffffff;stroke-width:0px" /><text
     x="493.64606"
     y="191.92505"
     dx="0"
     dy="0"
     id="text3158"
     style="font-size:10.79809189px;font-weight:bold;text-anchor:end;fill:#a6c0d6;font-family:sans-serif">289</text>
<rect
     width="13.592004"
     height="116.76575"
     x="534.81317"
     y="183.79344"
     id="rect3162"
     style="fill:#a6c0d6;stroke:#ffffff;stroke-width:0px" /><text
     x="546.38306"
     y="179.63391"
     dx="0"
     dy="0"
     id="text3164"
     style="font-size:10.79809189px;font-weight:bold;text-anchor:end;fill:#a6c0d6;font-family:sans-serif">323</text>
<rect
     width="13.592004"
     height="120.7423"
     x="587.55017"
     y="179.81689"
     id="rect3168"
     style="fill:#a6c0d6;stroke:#ffffff;stroke-width:0px" /><text
     x="599.12006"
     y="175.65736"
     dx="0"
     dy="0"
     id="text3170"
     style="font-size:10.79809189px;font-weight:bold;text-anchor:end;fill:#a6c0d6;font-family:sans-serif">334</text>
<rect
     width="13.592004"
     height="114.95824"
     x="640.28705"
     y="185.60095"
     id="rect3174"
     style="fill:#a6c0d6;stroke:#ffffff;stroke-width:0px" /><text
     x="651.85706"
     y="181.44142"
     dx="0"
     dy="0"
     id="text3176"
     style="font-size:10.79809189px;font-weight:bold;text-anchor:end;fill:#a6c0d6;font-family:sans-serif">318</text>
<rect
     width="13.592004"
     height="108.08966"
     x="693.02405"
     y="192.46953"
     id="rect3180"
     style="fill:#a6c0d6;stroke:#ffffff;stroke-width:0px" /><text
     x="704.59399"
     y="188.31"
     dx="0"
     dy="0"
     id="text3182"
     style="font-size:10.79809189px;font-weight:bold;text-anchor:end;fill:#a6c0d6;font-family:sans-serif">299</text>
<rect
     width="13.592004"
     height="94.71402"
     x="745.76105"
     y="205.84515"
     id="rect3186"
     style="fill:#a6c0d6;stroke:#ffffff;stroke-width:0px" /><text
     x="757.33093"
     y="201.68565"
     dx="0"
     dy="0"
     id="text3188"
     style="font-size:10.79809189px;font-weight:bold;text-anchor:end;fill:#a6c0d6;font-family:sans-serif">262</text>
<rect
     width="13.592004"
     height="53.864079"
     x="126.50935"
     y="246.69511"
     id="rect3192"
     style="fill:#535353" /><text
     x="128.58911"
     y="242.5356"
     dx="0"
     dy="0"
     id="text3194"
     style="font-size:10.79809189px;font-weight:bold;text-anchor:start;fill:#535353;font-family:sans-serif">149</text>
<rect
     width="13.592004"
     height="50.610542"
     x="179.24632"
     y="249.94862"
     id="rect3198"
     style="fill:#535353" /><text
     x="181.32608"
     y="245.78914"
     dx="0"
     dy="0"
     id="text3200"
     style="font-size:10.79809189px;font-weight:bold;text-anchor:start;fill:#535353;font-family:sans-serif">140</text>
<rect
     width="13.592004"
     height="49.164528"
     x="231.98331"
     y="251.39467"
     id="rect3204"
     style="fill:#535353" /><text
     x="234.06303"
     y="247.23512"
     dx="0"
     dy="0"
     id="text3206"
     style="font-size:10.79809189px;font-weight:bold;text-anchor:start;fill:#535353;font-family:sans-serif">136</text>
<rect
     width="13.592004"
     height="45.910995"
     x="284.72028"
     y="254.64821"
     id="rect3210"
     style="fill:#535353;stroke:#ffffff;stroke-width:0px" /><text
     x="286.79999"
     y="250.48869"
     dx="0"
     dy="0"
     id="text3212"
     style="font-size:10.79809189px;font-weight:bold;text-anchor:start;fill:#535353;font-family:sans-serif">127</text>
<rect
     width="13.592004"
     height="32.896851"
     x="337.45721"
     y="267.66232"
     id="rect3216"
     style="fill:#535353;stroke:#ffffff;stroke-width:0px" /><text
     x="339.53699"
     y="263.50287"
     dx="0"
     dy="0"
     id="text3218"
     style="font-size:10.79809189px;font-weight:bold;text-anchor:start;fill:#535353;font-family:sans-serif">91</text>
<rect
     width="13.592004"
     height="37.234901"
     x="390.19421"
     y="263.32431"
     id="rect3222"
     style="fill:#535353;stroke:#ffffff;stroke-width:0px" /><text
     x="392.27396"
     y="259.16479"
     dx="0"
     dy="0"
     id="text3224"
     style="font-size:10.79809189px;font-weight:bold;text-anchor:start;fill:#535353;font-family:sans-serif">103</text>
<rect
     width="13.592004"
     height="35.788887"
     x="442.93118"
     y="264.77029"
     id="rect3228"
     style="fill:#535353;stroke:#ffffff;stroke-width:0px" /><text
     x="445.01096"
     y="260.61084"
     dx="0"
     dy="0"
     id="text3230"
     style="font-size:10.79809189px;font-weight:bold;text-anchor:start;fill:#535353;font-family:sans-serif">99</text>
<rect
     width="13.592004"
     height="37.234901"
     x="495.66815"
     y="263.32431"
     id="rect3234"
     style="fill:#535353;stroke:#ffffff;stroke-width:0px" /><text
     x="497.74792"
     y="259.16479"
     dx="0"
     dy="0"
     id="text3236"
     style="font-size:10.79809189px;font-weight:bold;text-anchor:start;fill:#535353;font-family:sans-serif">103</text>
<rect
     width="13.592004"
     height="24.22076"
     x="548.40515"
     y="276.33841"
     id="rect3240"
     style="fill:#535353;stroke:#ffffff;stroke-width:0px" /><text
     x="550.48492"
     y="272.17896"
     dx="0"
     dy="0"
     id="text3242"
     style="font-size:10.79809189px;font-weight:bold;text-anchor:start;fill:#535353;font-family:sans-serif">67</text>
<rect
     width="13.592004"
     height="29.281816"
     x="601.14215"
     y="271.27734"
     id="rect3246"
     style="fill:#535353;stroke:#ffffff;stroke-width:0px" /><text
     x="603.22186"
     y="267.11789"
     dx="0"
     dy="0"
     id="text3248"
     style="font-size:10.79809189px;font-weight:bold;text-anchor:start;fill:#535353;font-family:sans-serif">81</text>
<rect
     width="13.592004"
     height="24.582264"
     x="653.87909"
     y="275.97696"
     id="rect3252"
     style="fill:#535353;stroke:#ffffff;stroke-width:0px" /><text
     x="655.95886"
     y="271.81744"
     dx="0"
     dy="0"
     id="text3254"
     style="font-size:10.79809189px;font-weight:bold;text-anchor:start;fill:#535353;font-family:sans-serif">68</text>
<rect
     width="13.592004"
     height="27.112791"
     x="706.61609"
     y="273.44638"
     id="rect3258"
     style="fill:#535353;stroke:#ffffff;stroke-width:0px" /><text
     x="708.69586"
     y="269.28693"
     dx="0"
     dy="0"
     id="text3260"
     style="font-size:10.79809189px;font-weight:bold;text-anchor:start;fill:#535353;font-family:sans-serif">75</text>
<rect
     width="13.592004"
     height="22.41324"
     x="759.35303"
     y="278.14594"
     id="rect3264"
     style="fill:#535353;stroke:#ffffff;stroke-width:0px" /><text
     x="761.4328"
     y="273.98648"
     dx="0"
     dy="0"
     id="text3266"
     style="font-size:10.79809189px;font-weight:bold;text-anchor:start;fill:#535353;font-family:sans-serif">62</text>
<rect
     width="27.184008"
     height="123.68723"
     x="112.91737"
     y="334.91675"
     id="rect3270"
     style="opacity:0.7;fill:url(#pattern3738)" /><rect
     width="27.184008"
     height="123.68723"
     x="165.65431"
     y="334.91675"
     id="rect3272"
     style="opacity:0.7;fill:url(#pattern3735)" /><rect
     width="27.184008"
     height="123.68723"
     x="218.3913"
     y="334.91675"
     id="rect3274"
     style="opacity:0.7;fill:url(#pattern3732)" /><rect
     width="27.184008"
     height="123.68723"
     x="271.12827"
     y="334.91675"
     id="rect3276"
     style="opacity:0.7;fill:url(#pattern3729);stroke:#ffffff;stroke-width:0px" /><rect
     width="27.184008"
     height="123.68723"
     x="323.86523"
     y="334.91675"
     id="rect3278"
     style="opacity:0.7;fill:url(#pattern3726);stroke:#ffffff;stroke-width:0px" /><rect
     width="27.184008"
     height="123.68723"
     x="376.60223"
     y="334.91675"
     id="rect3280"
     style="opacity:0.7;fill:url(#pattern3723);stroke:#ffffff;stroke-width:0px" /><rect
     width="27.184008"
     height="123.68723"
     x="429.33917"
     y="334.91675"
     id="rect3282"
     style="opacity:0.7;fill:url(#pattern3720);stroke:#ffffff;stroke-width:0px" /><rect
     width="27.184008"
     height="123.68723"
     x="482.07614"
     y="334.91675"
     id="rect3284"
     style="opacity:0.7;fill:url(#pattern3717);stroke:#ffffff;stroke-width:0px" /><rect
     width="27.184008"
     height="123.68723"
     x="534.81317"
     y="334.91675"
     id="rect3286"
     style="opacity:0.7;fill:url(#pattern3714);stroke:#ffffff;stroke-width:0px" /><rect
     width="27.184008"
     height="123.68723"
     x="587.55017"
     y="334.91675"
     id="rect3288"
     style="opacity:0.7;fill:url(#pattern3711);stroke:#ffffff;stroke-width:0px" /><rect
     width="27.184008"
     height="123.68723"
     x="640.28705"
     y="334.91675"
     id="rect3290"
     style="opacity:0.7;fill:url(#pattern3708);stroke:#ffffff;stroke-width:0px" /><rect
     width="27.184008"
     height="123.68723"
     x="693.02405"
     y="334.91675"
     id="rect3292"
     style="opacity:0.7;fill:url(#pattern3705);stroke:#ffffff;stroke-width:0px" /><rect
     width="27.184008"
     height="123.68723"
     x="745.76105"
     y="334.91675"
     id="rect3294"
     style="opacity:0.7;fill:url(#pattern3702);stroke:#ffffff;stroke-width:0px" /><path
     d="M 126.50935,375.98101 135.29885,375.41554 C 144.08834,374.85005 161.66733,373.71909 179.24633,372.46593 196.82532,371.21277 214.40432,369.83743 231.98331,372.26134 249.5623,374.68524 267.1413,380.90839 284.72028,385.36121 302.29927,389.81403 319.87826,392.49652 337.45726,390.43634 355.03625,388.37616 372.61524,381.57333 390.19423,374.73639 407.77322,367.89945 425.35222,361.02841 442.93121,356.98762 460.5102,352.94684 478.08919,351.7363 495.66818,353.24805 513.24717,354.75979 530.82616,358.99381 548.40515,363.2193 565.98415,367.44479 583.56314,371.66176 601.14213,375.89008 618.72112,380.11842 636.30011,384.35811 653.87911,382.91173 671.4581,381.46535 689.03709,374.33288 706.61607,367.26008 724.19507,360.18729 741.77406,353.17417 750.56355,349.66761 L 759.35305,346.16104"
     id="path3296"
     style="fill:none;stroke:#ffffff;stroke-width:6.87151289px;stroke-linecap:round;stroke-opacity:0.6" /><path
     d="M 126.50935,375.98101 135.29885,375.41554 C 144.08834,374.85005 161.66733,373.71909 179.24633,372.46593 196.82532,371.21277 214.40432,369.83743 231.98331,372.26134 249.5623,374.68524 267.1413,380.90839 284.72028,385.36121 302.29927,389.81403 319.87826,392.49652 337.45726,390.43634 355.03625,388.37616 372.61524,381.57333 390.19423,374.73639 407.77322,367.89945 425.35222,361.02841 442.93121,356.98762 460.5102,352.94684 478.08919,351.7363 495.66818,353.24805 513.24717,354.75979 530.82616,358.99381 548.40515,363.2193 565.98415,367.44479 583.56314,371.66176 601.14213,375.89008 618.72112,380.11842 636.30011,384.35811 653.87911,382.91173 671.4581,381.46535 689.03709,374.33288 706.61607,367.26008 724.19507,360.18729 741.77406,353.17417 750.56355,349.66761 L 759.35305,346.16104"
     id="path3298"
     style="fill:none;stroke:#a6c0d6;stroke-width:0.98164469px;stroke-linecap:round" /><path
     d="M 126.50935,410.18276 135.29885,412.84537 C 144.08834,415.50797 161.66733,420.83317 179.24633,423.31958 196.82532,425.806 214.40432,425.45364 231.98331,422.25397 249.5623,419.05431 267.1413,413.00734 284.72028,412.70613 302.29927,412.40491 319.87826,417.84946 337.45726,423.28548 355.03625,428.72151 372.61524,434.149 390.19423,433.91882 407.77322,433.68866 425.35222,427.80082 442.93121,419.03726 460.5102,410.2737 478.08919,398.63442 495.66818,395.52569 513.24717,392.41696 530.82616,397.83877 548.40515,400.37917 565.98415,402.91958 583.56314,402.57859 601.14213,405.09343 618.72112,407.60826 636.30011,412.97892 653.87911,415.49092 671.4581,418.00291 689.03709,417.65623 706.61607,417.33229 724.19507,417.00834 741.77406,416.70713 750.56355,416.55652 L 759.35305,416.40592"
     id="path3300"
     style="fill:none;stroke:#ffffff;stroke-width:6.87151289px;stroke-linecap:round;stroke-opacity:0.6" /><path
     d="M 126.50935,410.18276 135.29885,412.84537 C 144.08834,415.50797 161.66733,420.83317 179.24633,423.31958 196.82532,425.806 214.40432,425.45364 231.98331,422.25397 249.5623,419.05431 267.1413,413.00734 284.72028,412.70613 302.29927,412.40491 319.87826,417.84946 337.45726,423.28548 355.03625,428.72151 372.61524,434.149 390.19423,433.91882 407.77322,433.68866 425.35222,427.80082 442.93121,419.03726 460.5102,410.2737 478.08919,398.63442 495.66818,395.52569 513.24717,392.41696 530.82616,397.83877 548.40515,400.37917 565.98415,402.91958 583.56314,402.57859 601.14213,405.09343 618.72112,407.60826 636.30011,412.97892 653.87911,415.49092 671.4581,418.00291 689.03709,417.65623 706.61607,417.33229 724.19507,417.00834 741.77406,416.70713 750.56355,416.55652 L 759.35305,416.40592"
     id="path3302"
     style="fill:none;stroke:#535353;stroke-width:0.98164469px;stroke-linecap:round" /><g
     transform="matrix(0.98164471,0,0,0.98164471,770.18135,334.91675)"
     id="g3304"><g
       transform="translate(0,126)"
       id="g3306"><line
         x2="5"
         y2="0"
         style="stroke:#aaaaaa;stroke-width:0px"
         id="line3308"
         x1="0"
         y1="0" /><text
         x="8"
         y="0"
         dy="0"
         id="text3310"
         style="font-size:10px;font-weight:bold;text-anchor:start;fill:#535353;font-family:sans-serif">0</text>
</g><g
       transform="translate(0,108.63147)"
       id="g3312"><line
         x2="5"
         y2="0"
         style="stroke:#aaaaaa;stroke-width:0px"
         id="line3314"
         x1="0"
         y1="0" /><text
         x="8"
         y="0"
         dy="0"
         id="text3316"
         style="font-size:10px;font-weight:bold;text-anchor:start;fill:#535353;font-family:sans-serif">1,000</text>
</g><g
       transform="translate(0,91.26294)"
       id="g3318"><line
         x2="5"
         y2="0"
         style="stroke:#aaaaaa;stroke-width:0px"
         id="line3320"
         x1="0"
         y1="0" /><text
         x="8"
         y="0"
         dy="0"
         id="text3322"
         style="font-size:10px;font-weight:bold;text-anchor:start;fill:#535353;font-family:sans-serif">2,000</text>
</g><g
       transform="translate(0,73.89441)"
       id="g3324"><line
         x2="5"
         y2="0"
         style="stroke:#aaaaaa;stroke-width:0px"
         id="line3326"
         x1="0"
         y1="0" /><text
         x="8"
         y="0"
         dy="0"
         id="text3328"
         style="font-size:10px;font-weight:bold;text-anchor:start;fill:#535353;font-family:sans-serif">3,000</text>
</g><g
       transform="translate(0,56.52588)"
       id="g3330"><line
         x2="5"
         y2="0"
         style="stroke:#aaaaaa;stroke-width:0px"
         id="line3332"
         x1="0"
         y1="0" /><text
         x="8"
         y="0"
         dy="0"
         id="text3334"
         style="font-size:10px;font-weight:bold;text-anchor:start;fill:#535353;font-family:sans-serif">4,000</text>
</g><g
       transform="translate(0,39.157351)"
       id="g3336"><line
         x2="5"
         y2="0"
         style="stroke:#aaaaaa;stroke-width:0px"
         id="line3338"
         x1="0"
         y1="0" /><text
         x="8"
         y="0"
         dy="0"
         id="text3340"
         style="font-size:10px;font-weight:bold;text-anchor:start;fill:#535353;font-family:sans-serif">5,000</text>
</g><g
       transform="translate(0,21.788821)"
       id="g3342"><line
         x2="5"
         y2="0"
         style="stroke:#aaaaaa;stroke-width:0px"
         id="line3344"
         x1="0"
         y1="0" /><text
         x="8"
         y="0"
         dy="0"
         id="text3346"
         style="font-size:10px;font-weight:bold;text-anchor:start;fill:#535353;font-family:sans-serif">6,000</text>
</g><g
       transform="translate(0,4.4202909)"
       id="g3348"><line
         x2="5"
         y2="0"
         style="stroke:#aaaaaa;stroke-width:0px"
         id="line3350"
         x1="0"
         y1="0" /><text
         x="8"
         y="0"
         dy="0"
         id="text3352"
         style="font-size:10px;font-weight:bold;text-anchor:start;fill:#535353;font-family:sans-serif">7,000</text>
</g></g><rect
     width="27.184008"
     height="333.75922"
     x="112.91737"
     y="148.78868"
     id="rect3356"
     style="opacity:0;fill:#eeeeee" /><rect
     width="27.184008"
     height="333.75922"
     x="165.65431"
     y="148.78868"
     id="rect3360"
     style="opacity:0;fill:#eeeeee" /><rect
     width="27.184008"
     height="333.75922"
     x="218.3913"
     y="148.78868"
     id="rect3364"
     style="opacity:0;fill:#eeeeee" /><rect
     width="27.184008"
     height="333.75922"
     x="271.12827"
     y="148.78868"
     id="rect3368"
     style="opacity:0;fill:#eeeeee" /><rect
     width="27.184008"
     height="333.75922"
     x="323.86523"
     y="148.78868"
     id="rect3372"
     style="opacity:0;fill:#eeeeee" /><rect
     width="27.184008"
     height="333.75922"
     x="376.60223"
     y="148.78868"
     id="rect3376"
     style="opacity:0;fill:#eeeeee" /><rect
     width="27.184008"
     height="333.75922"
     x="429.33917"
     y="148.78868"
     id="rect3380"
     style="opacity:0;fill:#eeeeee" /><rect
     width="27.184008"
     height="333.75922"
     x="482.07614"
     y="148.78868"
     id="rect3384"
     style="opacity:0;fill:#eeeeee" /><rect
     width="27.184008"
     height="333.75922"
     x="534.81317"
     y="148.78868"
     id="rect3388"
     style="opacity:0;fill:#eeeeee" /><rect
     width="27.184008"
     height="333.75922"
     x="587.55017"
     y="148.78868"
     id="rect3392"
     style="opacity:0;fill:#eeeeee" /><rect
     width="27.184008"
     height="333.75922"
     x="640.28705"
     y="148.78868"
     id="rect3396"
     style="opacity:0;fill:#eeeeee" /><rect
     width="27.184008"
     height="333.75922"
     x="693.02405"
     y="148.78868"
     id="rect3400"
     style="opacity:0;fill:#eeeeee" /><rect
     width="27.184008"
     height="333.75922"
     x="745.76105"
     y="148.78868"
     id="rect3404"
     style="opacity:0;fill:#eeeeee" /><rect
     width="17.669605"
     height="17.669605"
     x="539.24573"
     y="92.775513"
     id="rect3408"
     style="fill:#a6c0d6" /><text
     x="533.3559"
     y="101.61031"
     dy="0"
     id="text3410"
     style="font-size:10.79809189px;font-weight:bold;text-anchor:end;fill:#535353;font-family:sans-serif">Nuove diagnosi di infezione da HIV</text>
<rect
     width="17.669605"
     height="17.669605"
     x="539.24573"
     y="112.40842"
     id="rect3414"
     style="fill:#535353" /><text
     x="533.3559"
     y="121.24322"
     dy="0"
     id="text3416"
     style="font-size:10.79809189px;font-weight:bold;text-anchor:end;fill:#535353;font-family:sans-serif">Nuove diagnosi di AIDS</text>
<rect
     width="17.669605"
     height="17.669605"
     x="779.67603"
     y="92.900505"
     id="rect3420"
     style="fill:url(#pattern3653)" /><text
     x="773.78619"
     y="101.73531"
     dy="0"
     id="text3424"
     style="font-size:10.79809189px;font-weight:bold;text-anchor:end;fill:#535353;font-family:sans-serif">Casi prevalenti di infezione da HIV/AIDS</text>
<rect
     width="17.669605"
     height="17.669605"
     x="779.67603"
     y="112.53339"
     id="rect3428"
     style="fill:url(#pattern3648)" /><text
     x="773.78619"
     y="121.3682"
     dy="0"
     id="text3432"
     style="font-size:10.79809189px;font-weight:bold;text-anchor:end;fill:#535353;font-family:sans-serif">Casi prevalenti con diagnosi di AIDS</text>
<rect
     width="15.171885"
     height="3.5158591"
     x="780.98615"
     y="119.44844"
     id="rect3414-8"
     style="fill:#535353" /><rect
     width="15.033123"
     height="3.4548955"
     x="780.99152"
     y="100.18823"
     id="rect3408-5"
     style="fill:#a6c0d6" /></svg>