<?xml version="1.0" standalone="no"?>
<!DOCTYPE svg PUBLIC "-//W3C//DTD SVG 1.1//EN" "http://www.w3.org/Graphics/SVG/1.1/DTD/svg11.dtd" >
<svg xmlns="http://www.w3.org/2000/svg" xmlns:xlink="http://www.w3.org/1999/xlink" version="1.1">
<metadata></metadata>
<defs>
<font id="minisystemregular" horiz-adv-x="1228" >
<font-face units-per-em="2048" ascent="1638" descent="-410" />
<missing-glyph horiz-adv-x="500" />
<glyph horiz-adv-x="0" />
<glyph horiz-adv-x="682" />
<glyph unicode=" " />
<glyph unicode="!" d="M514 -53l8 88h86l-6 -88h-88zM549 340l8 88h86l-6 -88h-88zM561 473l6 86h88l-8 -86h-86zM571 604l9 86h86l-7 -86h-88zM584 735l8 88h86l-8 -88h-86zM596 866l8 88h86l-8 -88h-86zM606 997l8 88h86l-6 -88h-88zM618 1128l7 89h88l-8 -89h-87z" />
<glyph unicode="&#x22;" d="M221 778l10 88h86l-8 -88h-88zM236 909l6 88h88l-8 -88h-86zM246 1042l8 86h86l-8 -86h-86zM256 1174l8 86h86l-6 -86h-88zM799 778l10 88h86l-8 -88h-88zM813 909l6 88h88l-8 -88h-86zM823 1042l8 86h87l-9 -86h-86zM834 1174l8 86h86l-6 -86h-88z" />
<glyph unicode="$" d="M182 741l11 88h86l-9 -88h-88zM197 872l6 89h88l-8 -89h-86zM207 1006l8 86h86l-8 -86h-86zM217 1137l8 86h86l-6 -86h-88zM246 -45l8 86h88l-8 -86h-88zM303 610l6 88h90l-8 -88h-88zM360 1268l7 88h90l-8 -88h-89zM377 -45l6 86h90l-8 -86h-88zM434 610l6 88h90l-8 -88 h-88zM492 1268l6 88h88l-6 -88h-88zM510 -45l6 86h88l-8 -86h-86zM520 86l8 86h86l-8 -86h-86zM530 217l11 88h86l-9 -88h-88zM545 348l6 88h88l-8 -88h-86zM555 481l8 86h86l-8 -86h-86zM567 610l6 88h86l-6 -88h-86zM578 741l8 88h88l-10 -88h-86zM590 872l8 89h86l-6 -89 h-88zM602 1006l6 86h88l-8 -86h-86zM612 1137l9 86h86l-9 -86h-86zM623 1268l8 88h86l-6 -88h-88zM641 -45l6 86h86l-6 -86h-86zM696 610l9 88h86l-7 -88h-88zM754 1268l8 88h86l-6 -88h-88zM770 -45l8 86h86l-6 -86h-88zM827 610l9 88h86l-7 -88h-88zM885 1268l8 88h86 l-6 -88h-88zM913 86l7 86h90l-9 -86h-88zM924 217l10 88h88l-10 -88h-88zM936 348l8 88h88l-6 -88h-90zM948 481l6 86h90l-8 -86h-88z" />
<glyph unicode="&#x26;" d="M156 86l8 86h86l-8 -86h-86zM166 217l10 88h86l-8 -88h-88zM180 348l6 88h88l-8 -88h-86zM190 481l9 86h86l-9 -86h-86zM213 741l8 88h88l-10 -88h-86zM225 872l8 89h86l-8 -89h-86zM238 1006l6 86h86l-6 -86h-86zM248 1137l8 86h86l-8 -86h-86zM274 -45l9 86h88l-6 -86 h-91zM332 610l8 88h88l-6 -88h-90zM389 1268l8 88h88l-8 -88h-88zM406 -45l8 86h88l-6 -86h-90zM463 610l8 88h88l-8 -88h-88zM520 1268l8 88h88l-8 -88h-88zM539 -45l8 86h86l-8 -86h-86zM596 610l8 88h86l-8 -88h-86zM653 1268l6 88h89l-9 -88h-86zM670 -45l8 86h86 l-8 -86h-86zM715 481l8 86h86l-6 -86h-88zM737 741l11 88h86l-9 -88h-88zM748 348l6 88h90l-8 -88h-88zM778 217l10 88h89l-11 -88h-88zM784 1268l7 88h88l-9 -88h-86zM793 872l8 89h88l-8 -89h-88zM801 -45l6 86h88l-8 -86h-86zM811 86l8 86h86l-6 -86h-88zM848 1006l8 86 h88l-8 -86h-88zM903 1137l8 86h86l-6 -86h-88zM915 1268l7 88h88l-9 -88h-86zM942 86l8 86h88l-8 -86h-88zM954 217l9 88h88l-9 -88h-88zM967 348l6 88h90l-8 -88h-88zM977 481l8 86h88l-8 -86h-88z" />
<glyph unicode="'" d="M551 778l8 88h86l-8 -88h-86zM563 909l6 88h88l-8 -88h-86zM573 1042l9 86h86l-9 -86h-86zM586 1174l6 86h86l-6 -86h-86z" />
<glyph unicode="(" d="M473 479l6 88h88l-8 -88h-86zM494 741l10 88h86l-8 -88h-88zM504 348l8 88h88l-8 -88h-88zM535 217l10 88h88l-10 -88h-88zM549 872l8 89h88l-6 -89h-90zM567 86l8 86h87l-7 -86h-88zM604 1006l8 86h88l-6 -86h-90zM659 1137l9 86h86l-6 -86h-89z" />
<glyph unicode=")" d="M471 86l6 86h90l-8 -86h-88zM526 217l9 88h88l-11 -88h-86zM563 1137l6 86h90l-8 -86h-88zM584 348l6 88h88l-8 -88h-86zM596 1006l8 86h86l-8 -86h-86zM629 872l8 89h86l-8 -89h-86zM637 479l6 88h90l-8 -88h-88zM659 741l9 88h88l-8 -88h-89z" />
<glyph unicode="*" d="M258 86l8 86h88l-6 -86h-90zM305 610l6 88h90l-8 -88h-88zM313 217l11 88h86l-9 -88h-88zM350 1137l8 86h88l-6 -86h-90zM371 348l8 88h86l-6 -88h-88zM385 1006l6 86h86l-6 -86h-86zM418 872l6 89h88l-8 -89h-86zM424 479l8 88h88l-6 -88h-90zM436 610l6 88h90l-8 -88 h-88zM446 741l11 88h88l-10 -88h-89zM522 86l8 86h86l-8 -86h-86zM532 217l11 88h86l-8 -88h-89zM547 348l6 88h88l-8 -88h-86zM557 479l8 88h86l-8 -88h-86zM569 610l6 88h87l-7 -88h-86zM580 741l8 88h88l-10 -88h-86zM592 872l8 89h86l-8 -89h-86zM604 1006l6 86h86 l-6 -86h-86zM614 1137l9 86h86l-9 -86h-86zM688 479l8 88h86l-8 -88h-86zM698 610l9 88h86l-7 -88h-88zM711 741l8 88h88l-10 -88h-86zM719 348l8 88h88l-8 -88h-88zM752 217l8 88h88l-8 -88h-88zM766 872l6 89h90l-8 -89h-88zM784 86l7 86h88l-9 -86h-86zM821 1006l6 86h91 l-9 -86h-88zM829 610l9 88h86l-6 -88h-89zM877 1137l6 86h88l-8 -86h-86z" />
<glyph unicode="+" d="M305 610l6 88h90l-8 -88h-88zM436 610l6 88h90l-8 -88h-88zM522 86l8 86h86l-8 -86h-86zM532 217l11 88h86l-8 -88h-89zM547 348l6 88h88l-8 -88h-86zM557 479l8 88h86l-8 -88h-86zM569 610l6 88h87l-7 -88h-86zM580 741l8 88h88l-10 -88h-86zM592 872l8 89h86l-8 -89 h-86zM604 1006l6 86h86l-6 -86h-86zM614 1137l9 86h86l-9 -86h-86zM698 610l9 88h86l-7 -88h-88zM829 610l9 88h86l-6 -88h-89z" />
<glyph unicode="," d="M555 -102l8 86h86l-8 -86h-86zM567 27l6 88h86l-6 -88h-86zM578 158l10 88h86l-10 -88h-86z" />
<glyph unicode="-" d="M305 610l6 88h90l-8 -88h-88zM436 610l6 88h90l-8 -88h-88zM569 610l6 88h87l-7 -88h-86zM698 610l9 88h86l-7 -88h-88zM829 610l9 88h86l-6 -88h-89z" />
<glyph unicode="." d="M567 -119l6 88h86l-6 -88h-86z" />
<glyph unicode="/" d="M258 86l8 86h88l-6 -86h-90zM313 217l11 88h86l-9 -88h-88zM371 348l8 88h86l-6 -88h-88zM424 479l8 88h88l-6 -88h-90zM711 741l8 88h88l-10 -88h-86zM766 872l6 89h90l-8 -89h-88zM821 1006l6 86h91l-9 -86h-88zM877 1137l6 86h88l-8 -86h-86z" />
<glyph unicode="0" d="M125 86l8 86h86l-6 -86h-88zM137 217l8 88h88l-10 -88h-86zM150 348l8 88h86l-8 -88h-86zM162 481l6 86h86l-6 -86h-86zM182 741l11 88h86l-9 -88h-88zM197 872l6 89h88l-8 -89h-86zM207 1006l8 86h86l-8 -86h-86zM217 1137l8 86h86l-6 -86h-88zM246 -45l8 86h88l-8 -86 h-88zM360 1268l7 88h90l-8 -88h-89zM377 -45l6 86h90l-8 -86h-88zM492 1268l6 88h88l-6 -88h-88zM510 -45l6 86h88l-8 -86h-86zM623 1268l8 88h86l-6 -88h-88zM641 -45l6 86h86l-6 -86h-86zM754 1268l8 88h86l-6 -88h-88zM770 -45l8 86h86l-6 -86h-88zM885 1268l8 88h86 l-6 -88h-88zM913 86l7 86h90l-9 -86h-88zM924 217l10 88h88l-10 -88h-88zM936 348l8 88h88l-6 -88h-90zM948 481l6 86h90l-8 -86h-88zM971 741l8 88h88l-8 -88h-88zM983 872l8 89h88l-8 -89h-88zM993 1006l8 86h89l-7 -86h-90zM1006 1137l6 86h90l-8 -86h-88z" />
<glyph unicode="1" d="M520 86l8 86h88l-8 -86h-88zM532 217l9 88h88l-8 -88h-89zM545 348l6 88h90l-8 -88h-88zM555 479l8 88h88l-8 -88h-88zM578 741l10 88h88l-10 -88h-88zM590 872l8 89h88l-8 -89h-88zM602 1006l6 86h88l-6 -86h-88zM612 1137l9 86h88l-9 -86h-88z" />
<glyph unicode="2" d="M125 86l8 86h86l-6 -86h-88zM137 217l8 88h88l-10 -88h-86zM150 348l8 88h86l-8 -88h-86zM162 481l6 86h86l-6 -86h-86zM246 -45l8 86h88l-8 -86h-88zM303 610l6 88h90l-8 -88h-88zM360 1268l7 88h90l-8 -88h-89zM377 -45l6 86h90l-8 -86h-88zM434 610l6 88h90l-8 -88 h-88zM492 1268l6 88h88l-6 -88h-88zM510 -45l6 86h88l-8 -86h-86zM567 610l6 88h86l-6 -88h-86zM623 1268l8 88h86l-6 -88h-88zM641 -45l6 86h86l-6 -86h-86zM696 610l9 88h86l-7 -88h-88zM754 1268l8 88h86l-6 -88h-88zM770 -45l8 86h86l-6 -86h-88zM827 610l9 88h86 l-7 -88h-88zM885 1268l8 88h86l-6 -88h-88zM971 741l8 88h88l-8 -88h-88zM983 872l8 89h88l-8 -89h-88zM993 1006l8 86h89l-7 -86h-90zM1006 1137l6 86h90l-8 -86h-88z" />
<glyph unicode="3" d="M186 -45l9 86h88l-9 -86h-88zM244 610l8 88h88l-8 -88h-88zM301 1268l8 88h88l-8 -88h-88zM317 -45l9 86h88l-8 -86h-89zM375 610l8 88h88l-8 -88h-88zM432 1268l8 88h88l-8 -88h-88zM451 -45l8 86h86l-8 -86h-86zM508 610l6 88h88l-8 -88h-86zM565 1268l6 88h88l-8 -88 h-86zM582 -45l6 86h88l-8 -86h-86zM639 610l6 88h88l-8 -88h-86zM696 1268l6 88h86l-6 -88h-86zM713 -45l6 86h88l-8 -86h-86zM770 610l6 88h86l-6 -88h-86zM825 1268l9 88h86l-7 -88h-88zM854 86l8 86h88l-8 -86h-88zM864 217l10 88h89l-9 -88h-90zM879 348l6 88h88l-6 -88 h-88zM889 481l8 86h88l-8 -86h-88zM911 741l9 88h90l-11 -88h-88zM924 872l8 89h88l-8 -89h-88zM936 1006l6 86h88l-6 -86h-88zM946 1137l8 86h88l-8 -86h-88z" />
<glyph unicode="4" d="M156 741l8 88h88l-10 -88h-86zM168 872l8 89h86l-6 -89h-88zM180 1006l6 86h88l-8 -86h-86zM190 1137l9 86h86l-9 -86h-86zM274 610l9 88h88l-6 -88h-91zM406 610l8 88h88l-6 -88h-90zM539 610l8 88h86l-8 -88h-86zM670 610l8 88h86l-8 -88h-86zM801 610l6 88h88l-8 -88 h-86zM885 86l8 86h88l-8 -86h-88zM897 217l8 88h88l-8 -88h-88zM909 348l9 88h88l-9 -88h-88zM920 479l8 88h88l-6 -88h-90zM942 741l10 88h88l-10 -88h-88zM954 872l9 89h88l-7 -89h-90zM967 1006l6 86h90l-8 -86h-88zM977 1137l8 86h88l-8 -86h-88z" />
<glyph unicode="5" d="M182 741l11 88h86l-9 -88h-88zM197 872l6 89h88l-8 -89h-86zM207 1006l8 86h86l-8 -86h-86zM217 1137l8 86h86l-6 -86h-88zM246 -45l8 86h88l-8 -86h-88zM303 610l6 88h90l-8 -88h-88zM360 1268l7 88h90l-8 -88h-89zM377 -45l6 86h90l-8 -86h-88zM434 610l6 88h90l-8 -88 h-88zM492 1268l6 88h88l-6 -88h-88zM510 -45l6 86h88l-8 -86h-86zM567 610l6 88h86l-6 -88h-86zM623 1268l8 88h86l-6 -88h-88zM641 -45l6 86h86l-6 -86h-86zM696 610l9 88h86l-7 -88h-88zM754 1268l8 88h86l-6 -88h-88zM770 -45l8 86h86l-6 -86h-88zM827 610l9 88h86 l-7 -88h-88zM885 1268l8 88h86l-6 -88h-88zM913 86l7 86h90l-9 -86h-88zM924 217l10 88h88l-10 -88h-88zM936 348l8 88h88l-6 -88h-90zM948 481l6 86h90l-8 -86h-88z" />
<glyph unicode="6" d="M156 86l8 86h86l-8 -86h-86zM166 217l10 88h86l-8 -88h-88zM180 348l6 88h88l-8 -88h-86zM190 481l9 86h86l-9 -86h-86zM213 741l8 88h88l-10 -88h-86zM225 872l8 89h86l-8 -89h-86zM238 1006l6 86h86l-6 -86h-86zM248 1137l8 86h86l-8 -86h-86zM274 -45l9 86h88l-6 -86 h-91zM332 610l8 88h88l-6 -88h-90zM389 1268l8 88h88l-8 -88h-88zM406 -45l8 86h88l-6 -86h-90zM463 610l8 88h88l-8 -88h-88zM520 1268l8 88h88l-8 -88h-88zM539 -45l8 86h86l-8 -86h-86zM596 610l8 88h86l-8 -88h-86zM653 1268l6 88h89l-9 -88h-86zM670 -45l8 86h86 l-8 -86h-86zM727 610l6 88h88l-8 -88h-86zM784 1268l7 88h88l-9 -88h-86zM801 -45l6 86h88l-8 -86h-86zM858 610l6 88h88l-8 -88h-86zM915 1268l7 88h88l-9 -88h-86zM942 86l8 86h88l-8 -86h-88zM954 217l9 88h88l-9 -88h-88zM967 348l6 88h90l-8 -88h-88zM977 481l8 86h88 l-8 -86h-88z" />
<glyph unicode="7" d="M244 1274l8 90h88l-8 -90h-88zM375 1274l8 90h88l-8 -90h-88zM508 1274l6 90h88l-8 -90h-86zM639 1274l6 90h88l-8 -90h-86zM770 1274l6 90h86l-6 -90h-86zM797 92l8 88h88l-8 -88h-88zM807 223l10 90h88l-8 -90h-90zM821 354l6 88h91l-9 -88h-88zM831 487l9 86h88 l-8 -86h-89zM854 750l8 88h90l-10 -88h-88zM866 881l8 88h89l-9 -88h-88zM879 1014l6 86h88l-6 -86h-88zM889 1143l8 88h88l-8 -88h-88z" />
<glyph unicode="8" d="M125 86l8 86h86l-6 -86h-88zM137 217l8 88h88l-10 -88h-86zM150 348l8 88h86l-8 -88h-86zM162 481l6 86h86l-6 -86h-86zM182 741l11 88h86l-9 -88h-88zM197 872l6 89h88l-8 -89h-86zM207 1006l8 86h86l-8 -86h-86zM217 1137l8 86h86l-6 -86h-88zM246 -45l8 86h88l-8 -86 h-88zM303 610l6 88h90l-8 -88h-88zM360 1268l7 88h90l-8 -88h-89zM377 -45l6 86h90l-8 -86h-88zM434 610l6 88h90l-8 -88h-88zM492 1268l6 88h88l-6 -88h-88zM510 -45l6 86h88l-8 -86h-86zM567 610l6 88h86l-6 -88h-86zM623 1268l8 88h86l-6 -88h-88zM641 -45l6 86h86 l-6 -86h-86zM696 610l9 88h86l-7 -88h-88zM754 1268l8 88h86l-6 -88h-88zM770 -45l8 86h86l-6 -86h-88zM827 610l9 88h86l-7 -88h-88zM885 1268l8 88h86l-6 -88h-88zM913 86l7 86h90l-9 -86h-88zM924 217l10 88h88l-10 -88h-88zM936 348l8 88h88l-6 -88h-90zM948 481l6 86 h90l-8 -86h-88zM971 741l8 88h88l-8 -88h-88zM983 872l8 89h88l-8 -89h-88zM993 1006l8 86h89l-7 -86h-90zM1006 1137l6 86h90l-8 -86h-88z" />
<glyph unicode="9" d="M156 741l8 88h88l-10 -88h-86zM168 872l8 89h86l-6 -89h-88zM180 1006l6 86h88l-8 -86h-86zM190 1137l9 86h86l-9 -86h-86zM219 -45l6 86h88l-6 -86h-88zM274 610l9 88h88l-6 -88h-91zM332 1268l8 88h88l-6 -88h-90zM348 -45l8 86h88l-6 -86h-90zM406 610l8 88h88l-6 -88 h-90zM463 1268l8 88h88l-8 -88h-88zM481 -45l8 86h86l-6 -86h-88zM539 610l8 88h86l-8 -88h-86zM596 1268l8 88h86l-8 -88h-86zM612 -45l9 86h86l-9 -86h-86zM670 610l8 88h86l-8 -88h-86zM727 1268l6 88h88l-8 -88h-86zM743 -45l9 86h86l-9 -86h-86zM801 610l6 88h88 l-8 -88h-86zM858 1268l6 88h88l-8 -88h-86zM885 86l8 86h88l-8 -86h-88zM897 217l8 88h88l-8 -88h-88zM909 348l9 88h88l-9 -88h-88zM920 481l8 86h88l-6 -86h-90zM942 741l10 88h88l-10 -88h-88zM954 872l9 89h88l-7 -89h-90zM967 1006l6 86h90l-8 -86h-88zM977 1137l8 86 h88l-8 -86h-88z" />
<glyph unicode=":" d="M537 209l10 88h86l-10 -88h-86zM596 866l8 88h86l-8 -88h-86z" />
<glyph unicode=";" d="M530 72l9 86h86l-7 -86h-88zM543 203l8 88h88l-10 -88h-86zM602 858l6 88h88l-8 -88h-86z" />
<glyph unicode="&#x3c;" d="M473 479l6 88h88l-8 -88h-86zM494 741l10 88h86l-8 -88h-88zM504 348l8 88h88l-8 -88h-88zM535 217l10 88h88l-10 -88h-88zM549 872l8 89h88l-6 -89h-90zM567 86l8 86h87l-7 -86h-88zM604 1006l8 86h88l-6 -86h-90zM659 1137l9 86h86l-6 -86h-89z" />
<glyph unicode="=" d="M274 -82l9 86h88l-6 -86h-91zM332 575l8 87h88l-8 -87h-88zM406 -82l8 86h88l-8 -86h-88zM463 575l8 87h88l-8 -87h-88zM539 -82l8 86h86l-8 -86h-86zM596 575l8 87h86l-8 -87h-86zM670 -82l8 86h86l-8 -86h-86zM727 575l6 87h88l-8 -87h-86zM801 -82l6 86h88l-8 -86h-86 zM858 575l6 87h88l-8 -87h-86z" />
<glyph unicode="&#x3e;" d="M471 86l6 86h90l-8 -86h-88zM526 217l9 88h88l-11 -88h-86zM563 1137l6 86h90l-8 -86h-88zM584 348l6 88h88l-8 -88h-86zM596 1006l8 86h86l-8 -86h-86zM629 872l8 89h86l-8 -89h-86zM637 479l6 88h90l-8 -88h-88zM659 741l9 88h88l-8 -88h-89z" />
<glyph unicode="?" d="M117 -45l8 86h88l-8 -86h-88zM145 217l11 88h86l-9 -88h-88zM160 348l6 88h88l-8 -88h-86zM170 481l8 86h86l-8 -86h-86zM311 610l8 88h89l-7 -88h-90zM369 1268l8 88h88l-8 -88h-88zM442 610l9 88h88l-9 -88h-88zM500 1268l8 88h88l-8 -88h-88zM575 610l9 88h86l-8 -88 h-87zM633 1268l8 88h86l-8 -88h-86zM707 610l8 88h86l-8 -88h-86zM764 1268l6 88h88l-8 -88h-86zM838 610l6 88h88l-8 -88h-86zM895 1268l6 88h88l-8 -88h-86zM979 741l10 88h88l-10 -88h-88zM991 872l8 89h88l-6 -89h-90zM1004 1006l6 86h90l-8 -86h-88zM1014 1137l8 86h88 l-8 -86h-88z" />
<glyph unicode="A" d="M125 92l8 88h86l-6 -88h-88zM137 223l8 90h88l-10 -90h-86zM150 354l8 88h86l-8 -88h-86zM162 487l6 86h86l-6 -86h-86zM182 750l11 88h86l-9 -88h-88zM197 881l6 88h88l-8 -88h-86zM207 1014l8 86h86l-8 -86h-86zM217 1143l8 88h86l-6 -88h-88zM303 618l6 87h90l-8 -87 h-88zM360 1274l7 90h90l-8 -90h-89zM434 618l6 87h90l-8 -87h-88zM492 1274l6 90h88l-6 -90h-88zM567 618l6 87h86l-6 -87h-86zM623 1274l8 90h86l-6 -90h-88zM696 618l9 87h86l-7 -87h-88zM754 1274l8 90h86l-6 -90h-88zM827 618l9 87h86l-7 -87h-88zM885 1274l8 90h86 l-6 -90h-88zM913 92l7 88h90l-9 -88h-88zM924 223l10 90h88l-10 -90h-88zM936 354l8 88h88l-6 -88h-90zM948 487l6 86h90l-8 -86h-88zM971 750l8 88h88l-8 -88h-88zM983 881l8 88h88l-8 -88h-88zM993 1014l8 86h89l-7 -86h-90zM1006 1143l6 88h90l-8 -88h-88z" />
<glyph unicode="B" d="M186 -45l9 86h88l-9 -86h-88zM301 1268l8 88h88l-8 -88h-88zM317 -45l9 86h88l-8 -86h-89zM432 1268l8 88h88l-8 -88h-88zM451 -45l8 86h86l-8 -86h-86zM461 86l8 86h86l-6 -86h-88zM473 217l8 88h88l-10 -88h-86zM485 348l9 88h86l-9 -88h-86zM496 481l8 86h86l-6 -86 h-88zM508 610l6 88h88l-8 -88h-86zM518 741l10 88h86l-8 -88h-88zM532 872l7 89h86l-7 -89h-86zM543 1006l8 86h86l-8 -86h-86zM553 1137l8 86h86l-6 -86h-88zM565 1268l6 88h88l-8 -88h-86zM582 -45l6 86h88l-8 -86h-86zM639 610l6 88h88l-8 -88h-86zM696 1268l6 88h86 l-6 -88h-86zM713 -45l6 86h88l-8 -86h-86zM770 610l6 88h86l-6 -88h-86zM825 1268l9 88h86l-7 -88h-88zM854 86l8 86h88l-8 -86h-88zM864 217l10 88h89l-9 -88h-90zM879 348l6 88h88l-6 -88h-88zM889 481l8 86h88l-8 -86h-88zM911 741l9 88h90l-11 -88h-88zM924 872l8 89h88 l-8 -89h-88zM936 1006l6 86h88l-6 -86h-88zM946 1137l8 86h88l-8 -86h-88z" />
<glyph unicode="C" d="M186 86l9 86h86l-9 -86h-86zM199 217l8 88h86l-8 -88h-86zM211 348l6 88h88l-8 -88h-86zM221 481l8 86h86l-6 -86h-88zM244 741l10 88h86l-10 -88h-86zM256 872l8 89h86l-6 -89h-88zM268 1006l6 86h88l-8 -86h-86zM279 1137l8 86h86l-8 -86h-86zM307 -45l6 86h88l-6 -86 h-88zM420 1268l8 88h88l-6 -88h-90zM438 -45l6 86h88l-6 -86h-88zM551 1268l8 88h88l-6 -88h-90zM569 -45l9 86h86l-7 -86h-88zM684 1268l8 88h86l-8 -88h-86zM700 -45l9 86h86l-7 -86h-88zM815 1268l8 88h86l-8 -88h-86zM831 -45l9 86h86l-8 -86h-87zM946 1268l8 88h86 l-8 -88h-86z" />
<glyph unicode="D" d="M186 -45l9 86h88l-9 -86h-88zM301 1268l8 88h88l-8 -88h-88zM317 -45l9 86h88l-8 -86h-89zM432 1268l8 88h88l-8 -88h-88zM451 -45l8 86h86l-8 -86h-86zM461 86l8 86h86l-6 -86h-88zM473 217l8 88h88l-10 -88h-86zM485 348l9 88h86l-9 -88h-86zM496 481l8 86h86l-6 -86 h-88zM518 741l10 88h86l-8 -88h-88zM532 872l7 89h86l-7 -89h-86zM543 1006l8 86h86l-8 -86h-86zM553 1137l8 86h86l-6 -86h-88zM565 1268l6 88h88l-8 -88h-86zM582 -45l6 86h88l-8 -86h-86zM696 1268l6 88h86l-6 -88h-86zM713 -45l6 86h88l-8 -86h-86zM825 1268l9 88h86 l-7 -88h-88zM854 86l8 86h88l-8 -86h-88zM864 217l10 88h89l-9 -88h-90zM879 348l6 88h88l-6 -88h-88zM889 481l8 86h88l-8 -86h-88zM911 741l9 88h90l-11 -88h-88zM924 872l8 89h88l-8 -89h-88zM936 1006l6 86h88l-6 -86h-88zM946 1137l8 86h88l-8 -86h-88z" />
<glyph unicode="E" d="M186 86l9 86h86l-9 -86h-86zM199 217l8 88h86l-8 -88h-86zM211 348l6 88h88l-8 -88h-86zM221 481l8 86h86l-6 -86h-88zM244 741l10 88h86l-10 -88h-86zM256 872l8 89h86l-6 -89h-88zM268 1006l6 86h88l-8 -86h-86zM279 1137l8 86h86l-8 -86h-86zM307 -45l6 86h88l-6 -86 h-88zM365 610l6 88h88l-6 -88h-88zM420 1268l8 88h88l-6 -88h-90zM438 -45l6 86h88l-6 -86h-88zM494 610l8 88h88l-6 -88h-90zM551 1268l8 88h88l-6 -88h-90zM569 -45l9 86h86l-7 -86h-88zM627 610l8 88h86l-6 -88h-88zM684 1268l8 88h86l-8 -88h-86zM700 -45l9 86h86 l-7 -86h-88zM758 610l8 88h86l-8 -88h-86zM815 1268l8 88h86l-8 -88h-86zM831 -45l9 86h86l-8 -86h-87zM889 610l8 88h86l-8 -88h-86zM946 1268l8 88h86l-8 -88h-86z" />
<glyph unicode="F" d="M186 92l9 88h86l-9 -88h-86zM199 223l8 90h86l-8 -90h-86zM211 354l6 88h88l-8 -88h-86zM221 487l8 86h86l-6 -86h-88zM244 750l10 88h86l-10 -88h-86zM256 881l8 88h86l-6 -88h-88zM268 1014l6 86h88l-8 -86h-86zM279 1143l8 88h86l-8 -88h-86zM365 618l6 87h88l-6 -87 h-88zM420 1274l8 90h88l-6 -90h-90zM494 618l8 87h88l-6 -87h-90zM551 1274l8 90h88l-6 -90h-90zM627 618l8 87h86l-6 -87h-88zM684 1274l8 90h86l-8 -90h-86zM758 618l8 87h86l-8 -87h-86zM815 1274l8 90h86l-8 -90h-86zM889 618l8 87h86l-8 -87h-86zM946 1274l8 90h86 l-8 -90h-86z" />
<glyph unicode="G" d="M186 86l9 86h86l-9 -86h-86zM199 217l8 88h86l-8 -88h-86zM211 348l6 88h88l-8 -88h-86zM221 481l8 86h86l-6 -86h-88zM244 741l10 88h86l-10 -88h-86zM256 872l8 89h86l-6 -89h-88zM268 1006l6 86h88l-8 -86h-86zM279 1137l8 86h86l-8 -86h-86zM307 -45l6 86h88l-6 -86 h-88zM420 1268l8 88h88l-6 -88h-90zM438 -45l6 86h88l-6 -86h-88zM551 1268l8 88h88l-6 -88h-90zM569 -45l9 86h86l-7 -86h-88zM684 1268l8 88h86l-8 -88h-86zM700 -45l9 86h86l-7 -86h-88zM748 481l6 86h88l-8 -86h-86zM778 348l8 88h88l-8 -88h-88zM809 217l10 88h88 l-8 -88h-90zM815 1268l8 88h86l-8 -88h-86zM831 -45l9 86h86l-8 -86h-87zM844 86l6 86h86l-6 -86h-86zM946 1268l8 88h86l-8 -88h-86z" />
<glyph unicode="H" d="M125 86l8 86h86l-6 -86h-88zM137 217l8 88h88l-10 -88h-86zM150 348l8 88h86l-8 -88h-86zM162 479l6 88h86l-6 -88h-86zM182 741l11 88h86l-9 -88h-88zM197 872l6 89h88l-8 -89h-86zM207 1006l8 86h86l-8 -86h-86zM217 1137l8 86h86l-6 -86h-88zM303 610l6 88h90l-8 -88 h-88zM434 610l6 88h90l-8 -88h-88zM567 610l6 88h86l-6 -88h-86zM696 610l9 88h86l-7 -88h-88zM827 610l9 88h86l-7 -88h-88zM913 86l7 86h90l-9 -86h-88zM924 217l10 88h88l-10 -88h-88zM936 348l8 88h88l-6 -88h-90zM948 479l6 88h90l-8 -88h-88zM971 741l8 88h88l-8 -88 h-88zM983 872l8 89h88l-8 -89h-88zM993 1006l8 86h89l-7 -86h-90zM1006 1137l6 86h90l-8 -86h-88z" />
<glyph unicode="I" d="M248 -45l8 86h88l-8 -86h-88zM362 1268l7 88h90l-8 -88h-89zM379 -45l6 86h90l-8 -86h-88zM494 1268l6 88h88l-6 -88h-88zM512 -45l6 86h86l-6 -86h-86zM522 86l8 86h86l-8 -86h-86zM532 217l11 88h86l-8 -88h-89zM547 348l6 88h88l-8 -88h-86zM557 481l8 86h86l-8 -86 h-86zM569 610l6 88h87l-7 -88h-86zM580 741l8 88h88l-10 -88h-86zM592 872l8 89h86l-8 -89h-86zM604 1006l6 86h86l-6 -86h-86zM614 1137l9 86h86l-9 -86h-86zM625 1268l8 88h86l-6 -88h-88zM641 -45l8 86h86l-6 -86h-88zM756 1268l8 88h86l-6 -88h-88zM772 -45l8 86h86 l-6 -86h-88zM887 1268l8 88h86l-8 -88h-86z" />
<glyph unicode="J" d="M125 78l8 88h86l-6 -88h-88zM137 209l8 88h88l-10 -88h-86zM150 340l8 88h86l-8 -88h-86zM162 473l6 86h86l-6 -86h-86zM246 -53l8 88h88l-8 -88h-88zM377 -53l6 88h90l-8 -88h-88zM510 -53l6 88h88l-8 -88h-86zM641 -53l6 88h86l-6 -88h-86zM770 -53l8 88h86l-6 -88h-88 zM913 78l7 88h90l-9 -88h-88zM924 209l10 88h88l-10 -88h-88zM936 340l8 88h88l-6 -88h-90zM948 473l6 86h90l-8 -86h-88zM971 735l8 88h88l-8 -88h-88zM983 866l8 88h88l-8 -88h-88zM993 997l8 88h89l-7 -88h-90zM1006 1128l6 89h90l-8 -89h-88z" />
<glyph unicode="K" d="M156 86l8 86h86l-8 -86h-86zM166 217l10 88h86l-8 -88h-88zM180 348l6 88h88l-8 -88h-86zM190 479l9 88h86l-9 -88h-86zM213 741l8 88h88l-10 -88h-86zM225 872l8 89h86l-8 -89h-86zM238 1006l6 86h86l-6 -86h-86zM248 1137l8 86h86l-8 -86h-86zM332 610l8 88h88l-6 -88 h-90zM463 610l8 88h88l-8 -88h-88zM596 610l8 88h86l-8 -88h-86zM727 610l6 88h88l-8 -88h-86zM737 741l11 88h86l-9 -88h-88zM793 872l8 89h88l-8 -89h-88zM848 1006l8 86h88l-8 -86h-88zM858 610l6 88h88l-8 -88h-86zM903 1137l8 86h86l-6 -86h-88zM942 86l8 86h88l-8 -86 h-88zM954 217l9 88h88l-9 -88h-88zM967 348l6 88h90l-8 -88h-88zM977 479l8 88h88l-8 -88h-88z" />
<glyph unicode="L" d="M244 78l8 88h86l-8 -88h-86zM254 209l10 88h86l-8 -88h-88zM268 340l6 88h88l-8 -88h-86zM279 473l8 86h86l-8 -86h-86zM301 735l8 88h88l-10 -88h-86zM313 866l9 88h86l-7 -88h-88zM326 997l6 88h88l-8 -88h-86zM336 1128l8 89h86l-8 -89h-86zM365 -53l6 88h88l-6 -88 h-88zM494 -53l8 88h88l-6 -88h-90zM627 -53l8 88h86l-6 -88h-88zM758 -53l8 88h86l-8 -88h-86zM889 -53l8 88h86l-8 -88h-86z" />
<glyph unicode="M" d="M125 86l8 86h86l-6 -86h-88zM137 217l8 88h88l-10 -88h-86zM150 348l8 88h86l-8 -88h-86zM162 479l6 88h86l-6 -88h-86zM182 741l11 88h86l-9 -88h-88zM197 872l6 89h88l-8 -89h-86zM207 1006l8 86h86l-8 -86h-86zM217 1137l8 86h86l-6 -86h-88zM348 1137l8 86h88l-6 -86 h-90zM383 1006l6 86h86l-6 -86h-86zM416 872l6 89h88l-8 -89h-86zM444 741l11 88h88l-11 -88h-88zM709 741l8 88h88l-10 -88h-86zM764 872l6 89h90l-8 -89h-88zM819 1006l6 86h90l-8 -86h-88zM874 1137l7 86h88l-8 -86h-87zM913 86l7 86h90l-9 -86h-88zM924 217l10 88h88 l-10 -88h-88zM936 348l8 88h88l-6 -88h-90zM948 479l6 88h90l-8 -88h-88zM971 741l8 88h88l-8 -88h-88zM983 872l8 89h88l-8 -89h-88zM993 1006l8 86h89l-7 -86h-90zM1006 1137l6 86h90l-8 -86h-88z" />
<glyph unicode="N" d="M125 86l8 86h86l-6 -86h-88zM137 217l8 88h88l-10 -88h-86zM150 348l8 88h86l-8 -88h-86zM162 479l6 88h86l-6 -88h-86zM182 741l11 88h86l-9 -88h-88zM197 872l6 89h88l-8 -89h-86zM207 1006l8 86h86l-8 -86h-86zM217 1137l8 86h86l-6 -86h-88zM348 1137l8 86h88l-6 -86 h-90zM383 1006l6 86h86l-6 -86h-86zM416 872l6 89h88l-8 -89h-86zM444 741l11 88h88l-11 -88h-88zM686 479l8 88h86l-8 -88h-86zM717 348l8 88h88l-6 -88h-90zM750 217l8 88h88l-8 -88h-88zM782 86l6 86h89l-9 -86h-86zM913 86l7 86h90l-9 -86h-88zM924 217l10 88h88 l-10 -88h-88zM936 348l8 88h88l-6 -88h-90zM948 479l6 88h90l-8 -88h-88zM971 741l8 88h88l-8 -88h-88zM983 872l8 89h88l-8 -89h-88zM993 1006l8 86h89l-7 -86h-90zM1006 1137l6 86h90l-8 -86h-88z" />
<glyph unicode="O" d="M125 86l8 86h86l-6 -86h-88zM137 217l8 88h88l-10 -88h-86zM150 348l8 88h86l-8 -88h-86zM162 481l6 86h86l-6 -86h-86zM182 741l11 88h86l-9 -88h-88zM197 872l6 89h88l-8 -89h-86zM207 1006l8 86h86l-8 -86h-86zM217 1137l8 86h86l-6 -86h-88zM246 -45l8 86h88l-8 -86 h-88zM360 1268l7 88h90l-8 -88h-89zM377 -45l6 86h90l-8 -86h-88zM492 1268l6 88h88l-6 -88h-88zM510 -45l6 86h88l-8 -86h-86zM623 1268l8 88h86l-6 -88h-88zM641 -45l6 86h86l-6 -86h-86zM754 1268l8 88h86l-6 -88h-88zM770 -45l8 86h86l-6 -86h-88zM885 1268l8 88h86 l-6 -88h-88zM913 86l7 86h90l-9 -86h-88zM924 217l10 88h88l-10 -88h-88zM936 348l8 88h88l-6 -88h-90zM948 481l6 86h90l-8 -86h-88zM971 741l8 88h88l-8 -88h-88zM983 872l8 89h88l-8 -89h-88zM993 1006l8 86h89l-7 -86h-90zM1006 1137l6 86h90l-8 -86h-88z" />
<glyph unicode="P" d="M125 92l8 88h86l-6 -88h-88zM137 223l8 90h88l-10 -90h-86zM150 354l8 88h86l-8 -88h-86zM162 487l6 86h86l-6 -86h-86zM182 750l11 88h86l-9 -88h-88zM197 881l6 88h88l-8 -88h-86zM207 1014l8 86h86l-8 -86h-86zM217 1143l8 88h86l-6 -88h-88zM303 618l6 87h90l-8 -87 h-88zM360 1274l7 90h90l-8 -90h-89zM434 618l6 87h90l-8 -87h-88zM492 1274l6 90h88l-6 -90h-88zM567 618l6 87h86l-6 -87h-86zM623 1274l8 90h86l-6 -90h-88zM696 618l9 87h86l-7 -87h-88zM754 1274l8 90h86l-6 -90h-88zM827 618l9 87h86l-7 -87h-88zM885 1274l8 90h86 l-6 -90h-88zM971 750l8 88h88l-8 -88h-88zM983 881l8 88h88l-8 -88h-88zM993 1014l8 86h89l-7 -86h-90zM1006 1143l6 88h90l-8 -88h-88z" />
<glyph unicode="Q" d="M125 86l8 86h86l-6 -86h-88zM137 217l8 88h88l-10 -88h-86zM150 348l8 88h86l-8 -88h-86zM162 481l6 86h86l-6 -86h-86zM182 741l11 88h86l-9 -88h-88zM197 872l6 89h88l-8 -89h-86zM207 1006l8 86h86l-8 -86h-86zM217 1137l8 86h86l-6 -86h-88zM246 -45l8 86h88l-8 -86 h-88zM360 1268l7 88h90l-8 -88h-89zM377 -45l6 86h90l-8 -86h-88zM492 1268l6 88h88l-6 -88h-88zM510 -45l6 86h88l-8 -86h-86zM623 1268l8 88h86l-6 -88h-88zM641 -45l6 86h86l-6 -86h-86zM686 481l8 86h86l-8 -86h-86zM717 348l8 88h88l-6 -88h-90zM750 217l8 88h88 l-8 -88h-88zM754 1268l8 88h86l-6 -88h-88zM770 -45l8 86h86l-6 -86h-88zM782 86l6 86h89l-9 -86h-86zM885 1268l8 88h86l-6 -88h-88zM913 86l7 86h90l-9 -86h-88zM924 217l10 88h88l-10 -88h-88zM936 348l8 88h88l-6 -88h-90zM948 481l6 86h90l-8 -86h-88zM971 741l8 88h88 l-8 -88h-88zM983 872l8 89h88l-8 -89h-88zM993 1006l8 86h89l-7 -86h-90zM1006 1137l6 86h90l-8 -86h-88z" />
<glyph unicode="R" d="M125 92l8 88h86l-6 -88h-88zM137 223l8 90h88l-10 -90h-86zM150 354l8 88h86l-8 -88h-86zM162 487l6 86h86l-6 -86h-86zM182 750l11 88h86l-9 -88h-88zM197 881l6 88h88l-8 -88h-86zM207 1014l8 86h86l-8 -86h-86zM217 1143l8 88h86l-6 -88h-88zM303 618l6 87h90l-8 -87 h-88zM360 1274l7 90h90l-8 -90h-89zM434 618l6 87h90l-8 -87h-88zM492 1274l6 90h88l-6 -90h-88zM567 618l6 87h86l-6 -87h-86zM623 1274l8 90h86l-6 -90h-88zM686 487l8 86h86l-8 -86h-86zM696 618l9 87h86l-7 -87h-88zM717 354l8 88h88l-6 -88h-90zM750 223l8 90h88 l-8 -90h-88zM754 1274l8 90h86l-6 -90h-88zM782 92l6 88h89l-9 -88h-86zM827 618l9 87h86l-7 -87h-88zM885 1274l8 90h86l-6 -90h-88zM971 750l8 88h88l-8 -88h-88zM983 881l8 88h88l-8 -88h-88zM993 1014l8 86h89l-7 -86h-90zM1006 1143l6 88h90l-8 -88h-88z" />
<glyph unicode="S" d="M182 741l11 88h86l-9 -88h-88zM197 872l6 89h88l-8 -89h-86zM207 1006l8 86h86l-8 -86h-86zM217 1137l8 86h86l-6 -86h-88zM246 -45l8 86h88l-8 -86h-88zM303 610l6 88h90l-8 -88h-88zM360 1268l7 88h90l-8 -88h-89zM377 -45l6 86h90l-8 -86h-88zM434 610l6 88h90l-8 -88 h-88zM492 1268l6 88h88l-6 -88h-88zM510 -45l6 86h88l-8 -86h-86zM567 610l6 88h86l-6 -88h-86zM623 1268l8 88h86l-6 -88h-88zM641 -45l6 86h86l-6 -86h-86zM696 610l9 88h86l-7 -88h-88zM754 1268l8 88h86l-6 -88h-88zM770 -45l8 86h86l-6 -86h-88zM827 610l9 88h86 l-7 -88h-88zM885 1268l8 88h86l-6 -88h-88zM913 86l7 86h90l-9 -86h-88zM924 217l10 88h88l-10 -88h-88zM936 348l8 88h88l-6 -88h-90zM948 481l6 86h90l-8 -86h-88z" />
<glyph unicode="T" d="M305 1274l6 90h90l-8 -90h-88zM436 1274l6 90h90l-8 -90h-88zM465 92l8 88h86l-8 -88h-86zM477 223l8 90h86l-8 -90h-86zM489 354l7 88h88l-9 -88h-86zM500 487l8 86h86l-6 -86h-88zM522 750l10 88h86l-10 -88h-86zM535 881l8 88h86l-6 -88h-88zM547 1014l6 86h88l-8 -86 h-86zM557 1143l8 88h86l-8 -88h-86zM569 1274l6 90h87l-7 -90h-86zM698 1274l9 90h86l-7 -90h-88zM829 1274l9 90h86l-6 -90h-89z" />
<glyph unicode="U" d="M125 78l8 88h86l-6 -88h-88zM137 209l8 88h88l-10 -88h-86zM150 340l8 88h86l-8 -88h-86zM162 473l6 86h86l-6 -86h-86zM182 735l11 88h86l-9 -88h-88zM197 866l6 88h88l-8 -88h-86zM207 997l8 88h86l-8 -88h-86zM217 1128l8 89h86l-6 -89h-88zM246 -53l8 88h88l-8 -88 h-88zM377 -53l6 88h90l-8 -88h-88zM510 -53l6 88h88l-8 -88h-86zM641 -53l6 88h86l-6 -88h-86zM770 -53l8 88h86l-6 -88h-88zM913 78l7 88h90l-9 -88h-88zM924 209l10 88h88l-10 -88h-88zM936 340l8 88h88l-6 -88h-90zM948 473l6 86h90l-8 -86h-88zM971 735l8 88h88l-8 -88 h-88zM983 866l8 88h88l-8 -88h-88zM993 997l8 88h89l-7 -88h-90zM1006 1128l6 89h90l-8 -89h-88z" />
<glyph unicode="V" d="M193 86l6 86h88l-8 -86h-86zM203 217l10 88h86l-8 -88h-88zM217 348l6 88h86l-6 -88h-86zM227 479l9 88h86l-9 -88h-86zM250 741l8 88h88l-10 -88h-86zM262 872l8 89h86l-8 -89h-86zM272 1006l9 86h86l-7 -86h-88zM285 1137l6 86h88l-8 -86h-86zM324 86l6 86h90l-8 -86 h-88zM379 217l8 88h88l-10 -88h-86zM436 348l6 88h88l-8 -88h-86zM489 479l7 88h90l-8 -88h-89zM774 741l10 88h86l-8 -88h-88zM829 872l9 89h88l-8 -89h-89zM885 1006l8 86h88l-8 -86h-88zM940 1137l8 86h86l-6 -86h-88z" />
<glyph unicode="W" d="M125 86l8 86h86l-6 -86h-88zM137 217l8 88h88l-10 -88h-86zM150 348l8 88h86l-8 -88h-86zM162 479l6 88h86l-6 -88h-86zM182 741l11 88h86l-9 -88h-88zM197 872l6 89h88l-8 -89h-86zM207 1006l8 86h86l-8 -86h-86zM217 1137l8 86h86l-6 -86h-88zM256 86l8 86h88l-6 -86 h-90zM311 217l11 88h86l-9 -88h-88zM369 348l8 88h86l-6 -88h-88zM422 479l8 88h88l-6 -88h-90zM686 479l8 88h86l-8 -88h-86zM717 348l8 88h88l-6 -88h-90zM750 217l8 88h88l-8 -88h-88zM782 86l6 86h89l-9 -86h-86zM913 86l7 86h90l-9 -86h-88zM924 217l10 88h88l-10 -88 h-88zM936 348l8 88h88l-6 -88h-90zM948 479l6 88h90l-8 -88h-88zM971 741l8 88h88l-8 -88h-88zM983 872l8 89h88l-8 -89h-88zM993 1006l8 86h89l-7 -86h-90zM1006 1137l6 86h90l-8 -86h-88z" />
<glyph unicode="X" d="M258 86l8 86h88l-6 -86h-90zM313 217l11 88h86l-9 -88h-88zM350 1137l8 86h88l-6 -86h-90zM371 348l8 88h86l-6 -88h-88zM385 1006l6 86h86l-6 -86h-86zM418 872l6 89h88l-8 -89h-86zM424 479l8 88h88l-6 -88h-90zM446 741l11 88h88l-10 -88h-89zM688 479l8 88h86l-8 -88 h-86zM711 741l8 88h88l-10 -88h-86zM719 348l8 88h88l-8 -88h-88zM752 217l8 88h88l-8 -88h-88zM766 872l6 89h90l-8 -89h-88zM784 86l7 86h88l-9 -86h-86zM821 1006l6 86h91l-9 -86h-88zM877 1137l6 86h88l-8 -86h-86z" />
<glyph unicode="Y" d="M156 735l8 88h88l-10 -88h-86zM168 866l8 88h86l-6 -88h-88zM180 997l6 88h88l-8 -88h-86zM190 1128l9 89h86l-9 -89h-86zM219 -53l6 88h88l-6 -88h-88zM274 604l9 86h88l-6 -86h-91zM348 -53l8 88h88l-6 -88h-90zM406 604l8 86h88l-6 -86h-90zM481 -53l8 88h86l-6 -88 h-88zM539 604l8 86h86l-8 -86h-86zM612 -53l9 88h86l-9 -88h-86zM670 604l8 86h86l-8 -86h-86zM743 -53l9 88h86l-9 -88h-86zM801 604l6 86h88l-8 -86h-86zM885 78l8 88h88l-8 -88h-88zM897 209l8 88h88l-8 -88h-88zM909 340l9 88h88l-9 -88h-88zM920 473l8 86h88l-6 -86 h-90zM942 735l10 88h88l-10 -88h-88zM954 866l9 88h88l-7 -88h-90zM967 997l6 88h90l-8 -88h-88zM977 1128l8 89h88l-8 -89h-88z" />
<glyph unicode="Z" d="M248 -45l8 86h88l-8 -86h-88zM258 86l8 86h88l-6 -86h-90zM313 217l11 88h86l-9 -88h-88zM362 1268l7 88h90l-8 -88h-89zM371 348l8 88h86l-6 -88h-88zM379 -45l6 86h90l-8 -86h-88zM424 481l8 86h88l-6 -86h-90zM494 1268l6 88h88l-6 -88h-88zM512 -45l6 86h86l-6 -86 h-86zM625 1268l8 88h86l-6 -88h-88zM641 -45l8 86h86l-6 -86h-88zM711 741l8 88h88l-10 -88h-86zM756 1268l8 88h86l-6 -88h-88zM766 872l6 89h90l-8 -89h-88zM772 -45l8 86h86l-6 -86h-88zM821 1006l6 86h91l-9 -86h-88zM877 1137l6 86h88l-8 -86h-86zM887 1268l8 88h86 l-8 -88h-86z" />
<glyph unicode="\" d="M350 1137l8 86h88l-6 -86h-90zM385 1006l6 86h86l-6 -86h-86zM418 872l6 89h88l-8 -89h-86zM446 741l11 88h88l-10 -88h-89zM688 479l8 88h86l-8 -88h-86zM719 348l8 88h88l-8 -88h-88zM752 217l8 88h88l-8 -88h-88zM784 86l7 86h88l-9 -86h-86z" />
<glyph unicode="^" d="M455 1397l6 88h86l-6 -88h-86zM582 1528l6 88h88l-8 -88h-86zM676 1397l10 88h86l-6 -88h-90z" />
<glyph unicode="_" d="M305 -119l6 88h90l-8 -88h-88zM436 -119l6 88h90l-8 -88h-88zM569 -119l6 88h87l-7 -88h-86zM698 -119l9 88h86l-7 -88h-88zM829 -119l9 88h86l-6 -88h-89z" />
<glyph unicode="`" d="M518 1528l6 88h88l-8 -88h-86zM612 1397l11 88h86l-7 -88h-90z" />
<glyph unicode="a" d="M125 92l8 88h86l-6 -88h-88zM137 223l8 90h88l-10 -90h-86zM150 354l8 88h86l-8 -88h-86zM162 487l6 86h86l-6 -86h-86zM182 750l11 88h86l-9 -88h-88zM197 881l6 88h88l-8 -88h-86zM207 1014l8 86h86l-8 -86h-86zM217 1143l8 88h86l-6 -88h-88zM303 618l6 87h90l-8 -87 h-88zM360 1274l7 90h90l-8 -90h-89zM434 618l6 87h90l-8 -87h-88zM492 1274l6 90h88l-6 -90h-88zM567 618l6 87h86l-6 -87h-86zM623 1274l8 90h86l-6 -90h-88zM696 618l9 87h86l-7 -87h-88zM754 1274l8 90h86l-6 -90h-88zM827 618l9 87h86l-7 -87h-88zM885 1274l8 90h86 l-6 -90h-88zM913 92l7 88h90l-9 -88h-88zM924 223l10 90h88l-10 -90h-88zM936 354l8 88h88l-6 -88h-90zM948 487l6 86h90l-8 -86h-88zM971 750l8 88h88l-8 -88h-88zM983 881l8 88h88l-8 -88h-88zM993 1014l8 86h89l-7 -86h-90zM1006 1143l6 88h90l-8 -88h-88z" />
<glyph unicode="b" d="M186 -45l9 86h88l-9 -86h-88zM301 1268l8 88h88l-8 -88h-88zM317 -45l9 86h88l-8 -86h-89zM432 1268l8 88h88l-8 -88h-88zM451 -45l8 86h86l-8 -86h-86zM461 86l8 86h86l-6 -86h-88zM473 217l8 88h88l-10 -88h-86zM485 348l9 88h86l-9 -88h-86zM496 481l8 86h86l-6 -86 h-88zM508 610l6 88h88l-8 -88h-86zM518 741l10 88h86l-8 -88h-88zM532 872l7 89h86l-7 -89h-86zM543 1006l8 86h86l-8 -86h-86zM553 1137l8 86h86l-6 -86h-88zM565 1268l6 88h88l-8 -88h-86zM582 -45l6 86h88l-8 -86h-86zM639 610l6 88h88l-8 -88h-86zM696 1268l6 88h86 l-6 -88h-86zM713 -45l6 86h88l-8 -86h-86zM770 610l6 88h86l-6 -88h-86zM825 1268l9 88h86l-7 -88h-88zM854 86l8 86h88l-8 -86h-88zM864 217l10 88h89l-9 -88h-90zM879 348l6 88h88l-6 -88h-88zM889 481l8 86h88l-8 -86h-88zM911 741l9 88h90l-11 -88h-88zM924 872l8 89h88 l-8 -89h-88zM936 1006l6 86h88l-6 -86h-88zM946 1137l8 86h88l-8 -86h-88z" />
<glyph unicode="c" d="M186 86l9 86h86l-9 -86h-86zM199 217l8 88h86l-8 -88h-86zM211 348l6 88h88l-8 -88h-86zM221 481l8 86h86l-6 -86h-88zM244 741l10 88h86l-10 -88h-86zM256 872l8 89h86l-6 -89h-88zM268 1006l6 86h88l-8 -86h-86zM279 1137l8 86h86l-8 -86h-86zM307 -45l6 86h88l-6 -86 h-88zM420 1268l8 88h88l-6 -88h-90zM438 -45l6 86h88l-6 -86h-88zM551 1268l8 88h88l-6 -88h-90zM569 -45l9 86h86l-7 -86h-88zM684 1268l8 88h86l-8 -88h-86zM700 -45l9 86h86l-7 -86h-88zM815 1268l8 88h86l-8 -88h-86zM831 -45l9 86h86l-8 -86h-87zM946 1268l8 88h86 l-8 -88h-86z" />
<glyph unicode="d" d="M186 -45l9 86h88l-9 -86h-88zM301 1268l8 88h88l-8 -88h-88zM317 -45l9 86h88l-8 -86h-89zM432 1268l8 88h88l-8 -88h-88zM451 -45l8 86h86l-8 -86h-86zM461 86l8 86h86l-6 -86h-88zM473 217l8 88h88l-10 -88h-86zM485 348l9 88h86l-9 -88h-86zM496 481l8 86h86l-6 -86 h-88zM518 741l10 88h86l-8 -88h-88zM532 872l7 89h86l-7 -89h-86zM543 1006l8 86h86l-8 -86h-86zM553 1137l8 86h86l-6 -86h-88zM565 1268l6 88h88l-8 -88h-86zM582 -45l6 86h88l-8 -86h-86zM696 1268l6 88h86l-6 -88h-86zM713 -45l6 86h88l-8 -86h-86zM825 1268l9 88h86 l-7 -88h-88zM854 86l8 86h88l-8 -86h-88zM864 217l10 88h89l-9 -88h-90zM879 348l6 88h88l-6 -88h-88zM889 481l8 86h88l-8 -86h-88zM911 741l9 88h90l-11 -88h-88zM924 872l8 89h88l-8 -89h-88zM936 1006l6 86h88l-6 -86h-88zM946 1137l8 86h88l-8 -86h-88z" />
<glyph unicode="e" d="M186 86l9 86h86l-9 -86h-86zM199 217l8 88h86l-8 -88h-86zM211 348l6 88h88l-8 -88h-86zM221 481l8 86h86l-6 -86h-88zM244 741l10 88h86l-10 -88h-86zM256 872l8 89h86l-6 -89h-88zM268 1006l6 86h88l-8 -86h-86zM279 1137l8 86h86l-8 -86h-86zM307 -45l6 86h88l-6 -86 h-88zM365 610l6 88h88l-6 -88h-88zM420 1268l8 88h88l-6 -88h-90zM438 -45l6 86h88l-6 -86h-88zM494 610l8 88h88l-6 -88h-90zM551 1268l8 88h88l-6 -88h-90zM569 -45l9 86h86l-7 -86h-88zM627 610l8 88h86l-6 -88h-88zM684 1268l8 88h86l-8 -88h-86zM700 -45l9 86h86 l-7 -86h-88zM758 610l8 88h86l-8 -88h-86zM815 1268l8 88h86l-8 -88h-86zM831 -45l9 86h86l-8 -86h-87zM889 610l8 88h86l-8 -88h-86zM946 1268l8 88h86l-8 -88h-86z" />
<glyph unicode="f" d="M186 92l9 88h86l-9 -88h-86zM199 223l8 90h86l-8 -90h-86zM211 354l6 88h88l-8 -88h-86zM221 487l8 86h86l-6 -86h-88zM244 750l10 88h86l-10 -88h-86zM256 881l8 88h86l-6 -88h-88zM268 1014l6 86h88l-8 -86h-86zM279 1143l8 88h86l-8 -88h-86zM365 618l6 87h88l-6 -87 h-88zM420 1274l8 90h88l-6 -90h-90zM494 618l8 87h88l-6 -87h-90zM551 1274l8 90h88l-6 -90h-90zM627 618l8 87h86l-6 -87h-88zM684 1274l8 90h86l-8 -90h-86zM758 618l8 87h86l-8 -87h-86zM815 1274l8 90h86l-8 -90h-86zM889 618l8 87h86l-8 -87h-86zM946 1274l8 90h86 l-8 -90h-86z" />
<glyph unicode="g" d="M186 86l9 86h86l-9 -86h-86zM199 217l8 88h86l-8 -88h-86zM211 348l6 88h88l-8 -88h-86zM221 481l8 86h86l-6 -86h-88zM244 741l10 88h86l-10 -88h-86zM256 872l8 89h86l-6 -89h-88zM268 1006l6 86h88l-8 -86h-86zM279 1137l8 86h86l-8 -86h-86zM307 -45l6 86h88l-6 -86 h-88zM420 1268l8 88h88l-6 -88h-90zM438 -45l6 86h88l-6 -86h-88zM551 1268l8 88h88l-6 -88h-90zM569 -45l9 86h86l-7 -86h-88zM684 1268l8 88h86l-8 -88h-86zM700 -45l9 86h86l-7 -86h-88zM748 481l6 86h88l-8 -86h-86zM778 348l8 88h88l-8 -88h-88zM809 217l10 88h88 l-8 -88h-90zM815 1268l8 88h86l-8 -88h-86zM831 -45l9 86h86l-8 -86h-87zM844 86l6 86h86l-6 -86h-86zM946 1268l8 88h86l-8 -88h-86z" />
<glyph unicode="h" d="M125 86l8 86h86l-6 -86h-88zM137 217l8 88h88l-10 -88h-86zM150 348l8 88h86l-8 -88h-86zM162 479l6 88h86l-6 -88h-86zM182 741l11 88h86l-9 -88h-88zM197 872l6 89h88l-8 -89h-86zM207 1006l8 86h86l-8 -86h-86zM217 1137l8 86h86l-6 -86h-88zM303 610l6 88h90l-8 -88 h-88zM434 610l6 88h90l-8 -88h-88zM567 610l6 88h86l-6 -88h-86zM696 610l9 88h86l-7 -88h-88zM827 610l9 88h86l-7 -88h-88zM913 86l7 86h90l-9 -86h-88zM924 217l10 88h88l-10 -88h-88zM936 348l8 88h88l-6 -88h-90zM948 479l6 88h90l-8 -88h-88zM971 741l8 88h88l-8 -88 h-88zM983 872l8 89h88l-8 -89h-88zM993 1006l8 86h89l-7 -86h-90zM1006 1137l6 86h90l-8 -86h-88z" />
<glyph unicode="i" d="M248 -45l8 86h88l-8 -86h-88zM362 1268l7 88h90l-8 -88h-89zM379 -45l6 86h90l-8 -86h-88zM494 1268l6 88h88l-6 -88h-88zM512 -45l6 86h86l-6 -86h-86zM522 86l8 86h86l-8 -86h-86zM532 217l11 88h86l-8 -88h-89zM547 348l6 88h88l-8 -88h-86zM557 481l8 86h86l-8 -86 h-86zM569 610l6 88h87l-7 -88h-86zM580 741l8 88h88l-10 -88h-86zM592 872l8 89h86l-8 -89h-86zM604 1006l6 86h86l-6 -86h-86zM614 1137l9 86h86l-9 -86h-86zM625 1268l8 88h86l-6 -88h-88zM641 -45l8 86h86l-6 -86h-88zM756 1268l8 88h86l-6 -88h-88zM772 -45l8 86h86 l-6 -86h-88zM887 1268l8 88h86l-8 -88h-86z" />
<glyph unicode="j" d="M125 78l8 88h86l-6 -88h-88zM137 209l8 88h88l-10 -88h-86zM150 340l8 88h86l-8 -88h-86zM162 473l6 86h86l-6 -86h-86zM246 -53l8 88h88l-8 -88h-88zM377 -53l6 88h90l-8 -88h-88zM510 -53l6 88h88l-8 -88h-86zM641 -53l6 88h86l-6 -88h-86zM770 -53l8 88h86l-6 -88h-88 zM913 78l7 88h90l-9 -88h-88zM924 209l10 88h88l-10 -88h-88zM936 340l8 88h88l-6 -88h-90zM948 473l6 86h90l-8 -86h-88zM971 735l8 88h88l-8 -88h-88zM983 866l8 88h88l-8 -88h-88zM993 997l8 88h89l-7 -88h-90zM1006 1128l6 89h90l-8 -89h-88z" />
<glyph unicode="k" d="M156 86l8 86h86l-8 -86h-86zM166 217l10 88h86l-8 -88h-88zM180 348l6 88h88l-8 -88h-86zM190 479l9 88h86l-9 -88h-86zM213 741l8 88h88l-10 -88h-86zM225 872l8 89h86l-8 -89h-86zM238 1006l6 86h86l-6 -86h-86zM248 1137l8 86h86l-8 -86h-86zM332 610l8 88h88l-6 -88 h-90zM463 610l8 88h88l-8 -88h-88zM596 610l8 88h86l-8 -88h-86zM727 610l6 88h88l-8 -88h-86zM737 741l11 88h86l-9 -88h-88zM793 872l8 89h88l-8 -89h-88zM848 1006l8 86h88l-8 -86h-88zM858 610l6 88h88l-8 -88h-86zM903 1137l8 86h86l-6 -86h-88zM942 86l8 86h88l-8 -86 h-88zM954 217l9 88h88l-9 -88h-88zM967 348l6 88h90l-8 -88h-88zM977 479l8 88h88l-8 -88h-88z" />
<glyph unicode="l" d="M244 78l8 88h86l-8 -88h-86zM254 209l10 88h86l-8 -88h-88zM268 340l6 88h88l-8 -88h-86zM279 473l8 86h86l-8 -86h-86zM301 735l8 88h88l-10 -88h-86zM313 866l9 88h86l-7 -88h-88zM326 997l6 88h88l-8 -88h-86zM336 1128l8 89h86l-8 -89h-86zM365 -53l6 88h88l-6 -88 h-88zM494 -53l8 88h88l-6 -88h-90zM627 -53l8 88h86l-6 -88h-88zM758 -53l8 88h86l-8 -88h-86zM889 -53l8 88h86l-8 -88h-86z" />
<glyph unicode="m" d="M125 86l8 86h86l-6 -86h-88zM137 217l8 88h88l-10 -88h-86zM150 348l8 88h86l-8 -88h-86zM162 479l6 88h86l-6 -88h-86zM182 741l11 88h86l-9 -88h-88zM197 872l6 89h88l-8 -89h-86zM207 1006l8 86h86l-8 -86h-86zM217 1137l8 86h86l-6 -86h-88zM348 1137l8 86h88l-6 -86 h-90zM383 1006l6 86h86l-6 -86h-86zM416 872l6 89h88l-8 -89h-86zM444 741l11 88h88l-11 -88h-88zM709 741l8 88h88l-10 -88h-86zM764 872l6 89h90l-8 -89h-88zM819 1006l6 86h90l-8 -86h-88zM874 1137l7 86h88l-8 -86h-87zM913 86l7 86h90l-9 -86h-88zM924 217l10 88h88 l-10 -88h-88zM936 348l8 88h88l-6 -88h-90zM948 479l6 88h90l-8 -88h-88zM971 741l8 88h88l-8 -88h-88zM983 872l8 89h88l-8 -89h-88zM993 1006l8 86h89l-7 -86h-90zM1006 1137l6 86h90l-8 -86h-88z" />
<glyph unicode="n" d="M125 86l8 86h86l-6 -86h-88zM137 217l8 88h88l-10 -88h-86zM150 348l8 88h86l-8 -88h-86zM162 479l6 88h86l-6 -88h-86zM182 741l11 88h86l-9 -88h-88zM197 872l6 89h88l-8 -89h-86zM207 1006l8 86h86l-8 -86h-86zM217 1137l8 86h86l-6 -86h-88zM348 1137l8 86h88l-6 -86 h-90zM383 1006l6 86h86l-6 -86h-86zM416 872l6 89h88l-8 -89h-86zM444 741l11 88h88l-11 -88h-88zM686 479l8 88h86l-8 -88h-86zM717 348l8 88h88l-6 -88h-90zM750 217l8 88h88l-8 -88h-88zM782 86l6 86h89l-9 -86h-86zM913 86l7 86h90l-9 -86h-88zM924 217l10 88h88 l-10 -88h-88zM936 348l8 88h88l-6 -88h-90zM948 479l6 88h90l-8 -88h-88zM971 741l8 88h88l-8 -88h-88zM983 872l8 89h88l-8 -89h-88zM993 1006l8 86h89l-7 -86h-90zM1006 1137l6 86h90l-8 -86h-88z" />
<glyph unicode="o" d="M125 86l8 86h86l-6 -86h-88zM137 217l8 88h88l-10 -88h-86zM150 348l8 88h86l-8 -88h-86zM162 481l6 86h86l-6 -86h-86zM182 741l11 88h86l-9 -88h-88zM197 872l6 89h88l-8 -89h-86zM207 1006l8 86h86l-8 -86h-86zM217 1137l8 86h86l-6 -86h-88zM246 -45l8 86h88l-8 -86 h-88zM360 1268l7 88h90l-8 -88h-89zM377 -45l6 86h90l-8 -86h-88zM492 1268l6 88h88l-6 -88h-88zM510 -45l6 86h88l-8 -86h-86zM623 1268l8 88h86l-6 -88h-88zM641 -45l6 86h86l-6 -86h-86zM754 1268l8 88h86l-6 -88h-88zM770 -45l8 86h86l-6 -86h-88zM885 1268l8 88h86 l-6 -88h-88zM913 86l7 86h90l-9 -86h-88zM924 217l10 88h88l-10 -88h-88zM936 348l8 88h88l-6 -88h-90zM948 481l6 86h90l-8 -86h-88zM971 741l8 88h88l-8 -88h-88zM983 872l8 89h88l-8 -89h-88zM993 1006l8 86h89l-7 -86h-90zM1006 1137l6 86h90l-8 -86h-88z" />
<glyph unicode="p" d="M125 92l8 88h86l-6 -88h-88zM137 223l8 90h88l-10 -90h-86zM150 354l8 88h86l-8 -88h-86zM162 487l6 86h86l-6 -86h-86zM182 750l11 88h86l-9 -88h-88zM197 881l6 88h88l-8 -88h-86zM207 1014l8 86h86l-8 -86h-86zM217 1143l8 88h86l-6 -88h-88zM303 618l6 87h90l-8 -87 h-88zM360 1274l7 90h90l-8 -90h-89zM434 618l6 87h90l-8 -87h-88zM492 1274l6 90h88l-6 -90h-88zM567 618l6 87h86l-6 -87h-86zM623 1274l8 90h86l-6 -90h-88zM696 618l9 87h86l-7 -87h-88zM754 1274l8 90h86l-6 -90h-88zM827 618l9 87h86l-7 -87h-88zM885 1274l8 90h86 l-6 -90h-88zM971 750l8 88h88l-8 -88h-88zM983 881l8 88h88l-8 -88h-88zM993 1014l8 86h89l-7 -86h-90zM1006 1143l6 88h90l-8 -88h-88z" />
<glyph unicode="q" d="M125 86l8 86h86l-6 -86h-88zM137 217l8 88h88l-10 -88h-86zM150 348l8 88h86l-8 -88h-86zM162 481l6 86h86l-6 -86h-86zM182 741l11 88h86l-9 -88h-88zM197 872l6 89h88l-8 -89h-86zM207 1006l8 86h86l-8 -86h-86zM217 1137l8 86h86l-6 -86h-88zM246 -45l8 86h88l-8 -86 h-88zM360 1268l7 88h90l-8 -88h-89zM377 -45l6 86h90l-8 -86h-88zM492 1268l6 88h88l-6 -88h-88zM510 -45l6 86h88l-8 -86h-86zM623 1268l8 88h86l-6 -88h-88zM641 -45l6 86h86l-6 -86h-86zM686 481l8 86h86l-8 -86h-86zM717 348l8 88h88l-6 -88h-90zM750 217l8 88h88 l-8 -88h-88zM754 1268l8 88h86l-6 -88h-88zM770 -45l8 86h86l-6 -86h-88zM782 86l6 86h89l-9 -86h-86zM885 1268l8 88h86l-6 -88h-88zM913 86l7 86h90l-9 -86h-88zM924 217l10 88h88l-10 -88h-88zM936 348l8 88h88l-6 -88h-90zM948 481l6 86h90l-8 -86h-88zM971 741l8 88h88 l-8 -88h-88zM983 872l8 89h88l-8 -89h-88zM993 1006l8 86h89l-7 -86h-90zM1006 1137l6 86h90l-8 -86h-88z" />
<glyph unicode="r" d="M125 92l8 88h86l-6 -88h-88zM137 223l8 90h88l-10 -90h-86zM150 354l8 88h86l-8 -88h-86zM162 487l6 86h86l-6 -86h-86zM182 750l11 88h86l-9 -88h-88zM197 881l6 88h88l-8 -88h-86zM207 1014l8 86h86l-8 -86h-86zM217 1143l8 88h86l-6 -88h-88zM303 618l6 87h90l-8 -87 h-88zM360 1274l7 90h90l-8 -90h-89zM434 618l6 87h90l-8 -87h-88zM492 1274l6 90h88l-6 -90h-88zM567 618l6 87h86l-6 -87h-86zM623 1274l8 90h86l-6 -90h-88zM686 487l8 86h86l-8 -86h-86zM696 618l9 87h86l-7 -87h-88zM717 354l8 88h88l-6 -88h-90zM750 223l8 90h88 l-8 -90h-88zM754 1274l8 90h86l-6 -90h-88zM782 92l6 88h89l-9 -88h-86zM827 618l9 87h86l-7 -87h-88zM885 1274l8 90h86l-6 -90h-88zM971 750l8 88h88l-8 -88h-88zM983 881l8 88h88l-8 -88h-88zM993 1014l8 86h89l-7 -86h-90zM1006 1143l6 88h90l-8 -88h-88z" />
<glyph unicode="s" d="M182 741l11 88h86l-9 -88h-88zM197 872l6 89h88l-8 -89h-86zM207 1006l8 86h86l-8 -86h-86zM217 1137l8 86h86l-6 -86h-88zM246 -45l8 86h88l-8 -86h-88zM303 610l6 88h90l-8 -88h-88zM360 1268l7 88h90l-8 -88h-89zM377 -45l6 86h90l-8 -86h-88zM434 610l6 88h90l-8 -88 h-88zM492 1268l6 88h88l-6 -88h-88zM510 -45l6 86h88l-8 -86h-86zM567 610l6 88h86l-6 -88h-86zM623 1268l8 88h86l-6 -88h-88zM641 -45l6 86h86l-6 -86h-86zM696 610l9 88h86l-7 -88h-88zM754 1268l8 88h86l-6 -88h-88zM770 -45l8 86h86l-6 -86h-88zM827 610l9 88h86 l-7 -88h-88zM885 1268l8 88h86l-6 -88h-88zM913 86l7 86h90l-9 -86h-88zM924 217l10 88h88l-10 -88h-88zM936 348l8 88h88l-6 -88h-90zM948 481l6 86h90l-8 -86h-88z" />
<glyph unicode="t" d="M305 1274l6 90h90l-8 -90h-88zM436 1274l6 90h90l-8 -90h-88zM465 92l8 88h86l-8 -88h-86zM477 223l8 90h86l-8 -90h-86zM489 354l7 88h88l-9 -88h-86zM500 487l8 86h86l-6 -86h-88zM522 750l10 88h86l-10 -88h-86zM535 881l8 88h86l-6 -88h-88zM547 1014l6 86h88l-8 -86 h-86zM557 1143l8 88h86l-8 -88h-86zM569 1274l6 90h87l-7 -90h-86zM698 1274l9 90h86l-7 -90h-88zM829 1274l9 90h86l-6 -90h-89z" />
<glyph unicode="u" d="M125 78l8 88h86l-6 -88h-88zM137 209l8 88h88l-10 -88h-86zM150 340l8 88h86l-8 -88h-86zM162 473l6 86h86l-6 -86h-86zM182 735l11 88h86l-9 -88h-88zM197 866l6 88h88l-8 -88h-86zM207 997l8 88h86l-8 -88h-86zM217 1128l8 89h86l-6 -89h-88zM246 -53l8 88h88l-8 -88 h-88zM377 -53l6 88h90l-8 -88h-88zM510 -53l6 88h88l-8 -88h-86zM641 -53l6 88h86l-6 -88h-86zM770 -53l8 88h86l-6 -88h-88zM913 78l7 88h90l-9 -88h-88zM924 209l10 88h88l-10 -88h-88zM936 340l8 88h88l-6 -88h-90zM948 473l6 86h90l-8 -86h-88zM971 735l8 88h88l-8 -88 h-88zM983 866l8 88h88l-8 -88h-88zM993 997l8 88h89l-7 -88h-90zM1006 1128l6 89h90l-8 -89h-88z" />
<glyph unicode="v" d="M193 86l6 86h88l-8 -86h-86zM203 217l10 88h86l-8 -88h-88zM217 348l6 88h86l-6 -88h-86zM227 479l9 88h86l-9 -88h-86zM250 741l8 88h88l-10 -88h-86zM262 872l8 89h86l-8 -89h-86zM272 1006l9 86h86l-7 -86h-88zM285 1137l6 86h88l-8 -86h-86zM324 86l6 86h90l-8 -86 h-88zM379 217l8 88h88l-10 -88h-86zM436 348l6 88h88l-8 -88h-86zM489 479l7 88h90l-8 -88h-89zM774 741l10 88h86l-8 -88h-88zM829 872l9 89h88l-8 -89h-89zM885 1006l8 86h88l-8 -86h-88zM940 1137l8 86h86l-6 -86h-88z" />
<glyph unicode="w" d="M125 86l8 86h86l-6 -86h-88zM137 217l8 88h88l-10 -88h-86zM150 348l8 88h86l-8 -88h-86zM162 479l6 88h86l-6 -88h-86zM182 741l11 88h86l-9 -88h-88zM197 872l6 89h88l-8 -89h-86zM207 1006l8 86h86l-8 -86h-86zM217 1137l8 86h86l-6 -86h-88zM256 86l8 86h88l-6 -86 h-90zM311 217l11 88h86l-9 -88h-88zM369 348l8 88h86l-6 -88h-88zM422 479l8 88h88l-6 -88h-90zM686 479l8 88h86l-8 -88h-86zM717 348l8 88h88l-6 -88h-90zM750 217l8 88h88l-8 -88h-88zM782 86l6 86h89l-9 -86h-86zM913 86l7 86h90l-9 -86h-88zM924 217l10 88h88l-10 -88 h-88zM936 348l8 88h88l-6 -88h-90zM948 479l6 88h90l-8 -88h-88zM971 741l8 88h88l-8 -88h-88zM983 872l8 89h88l-8 -89h-88zM993 1006l8 86h89l-7 -86h-90zM1006 1137l6 86h90l-8 -86h-88z" />
<glyph unicode="x" d="M258 86l8 86h88l-6 -86h-90zM313 217l11 88h86l-9 -88h-88zM350 1137l8 86h88l-6 -86h-90zM371 348l8 88h86l-6 -88h-88zM385 1006l6 86h86l-6 -86h-86zM418 872l6 89h88l-8 -89h-86zM424 479l8 88h88l-6 -88h-90zM446 741l11 88h88l-10 -88h-89zM688 479l8 88h86l-8 -88 h-86zM711 741l8 88h88l-10 -88h-86zM719 348l8 88h88l-8 -88h-88zM752 217l8 88h88l-8 -88h-88zM766 872l6 89h90l-8 -89h-88zM784 86l7 86h88l-9 -86h-86zM821 1006l6 86h91l-9 -86h-88zM877 1137l6 86h88l-8 -86h-86z" />
<glyph unicode="y" d="M156 735l8 88h88l-10 -88h-86zM168 866l8 88h86l-6 -88h-88zM180 997l6 88h88l-8 -88h-86zM190 1128l9 89h86l-9 -89h-86zM219 -53l6 88h88l-6 -88h-88zM274 604l9 86h88l-6 -86h-91zM348 -53l8 88h88l-6 -88h-90zM406 604l8 86h88l-6 -86h-90zM481 -53l8 88h86l-6 -88 h-88zM539 604l8 86h86l-8 -86h-86zM612 -53l9 88h86l-9 -88h-86zM670 604l8 86h86l-8 -86h-86zM743 -53l9 88h86l-9 -88h-86zM801 604l6 86h88l-8 -86h-86zM885 78l8 88h88l-8 -88h-88zM897 209l8 88h88l-8 -88h-88zM909 340l9 88h88l-9 -88h-88zM920 473l8 86h88l-6 -86 h-90zM942 735l10 88h88l-10 -88h-88zM954 866l9 88h88l-7 -88h-90zM967 997l6 88h90l-8 -88h-88zM977 1128l8 89h88l-8 -89h-88z" />
<glyph unicode="z" d="M248 -45l8 86h88l-8 -86h-88zM258 86l8 86h88l-6 -86h-90zM313 217l11 88h86l-9 -88h-88zM362 1268l7 88h90l-8 -88h-89zM371 348l8 88h86l-6 -88h-88zM379 -45l6 86h90l-8 -86h-88zM424 481l8 86h88l-6 -86h-90zM494 1268l6 88h88l-6 -88h-88zM512 -45l6 86h86l-6 -86 h-86zM625 1268l8 88h86l-6 -88h-88zM641 -45l8 86h86l-6 -86h-88zM711 741l8 88h88l-10 -88h-86zM756 1268l8 88h86l-6 -88h-88zM766 872l6 89h90l-8 -89h-88zM772 -45l8 86h86l-6 -86h-88zM821 1006l6 86h91l-9 -86h-88zM877 1137l6 86h88l-8 -86h-86zM887 1268l8 88h86 l-8 -88h-86z" />
<glyph unicode="|" d="M514 -53l8 88h86l-6 -88h-88zM526 78l6 88h89l-9 -88h-86zM537 209l10 88h86l-10 -88h-86zM549 340l8 88h86l-6 -88h-88zM561 473l6 86h88l-8 -86h-86zM571 604l9 86h86l-7 -86h-88zM584 735l8 88h86l-8 -88h-86zM596 866l8 88h86l-8 -88h-86zM606 997l8 88h86l-6 -88 h-88zM618 1128l7 89h88l-8 -89h-87z" />
<glyph unicode="&#xa0;" />
<glyph unicode="&#xa1;" d="M547 -47l8 88h86l-8 -88h-86zM559 84l6 88h86l-6 -88h-86zM569 215l9 88h86l-9 -88h-86zM580 346l10 88h86l-8 -88h-88zM594 479l6 86h88l-8 -86h-86zM604 610l8 86h86l-8 -86h-86zM614 741l9 88h86l-7 -88h-88zM651 1135l6 88h86l-6 -88h-86z" />
<glyph unicode="&#xa8;" d="M434 1536l6 88h88l-8 -88h-86zM700 1536l7 88h86l-7 -88h-86z" />
<glyph unicode="&#xa9;" horiz-adv-x="1357" d="M84 639q0 130 51 248.5t137 204.5t204.5 137t248.5 51t248.5 -51t204.5 -137t137 -204.5t51 -248.5t-51 -248.5t-137 -204.5t-204.5 -137t-248.5 -51t-248.5 51t-204.5 137t-137 204.5t-51 248.5zM123 637q0 -166 80 -305.5t219 -220t305 -80.5t305.5 80.5t221 220 t81.5 305.5q0 165 -81.5 305.5t-221.5 222.5t-305 82q-166 0 -305 -82t-219 -222t-80 -306zM461 342l4 43h43l-4 -43h-43zM467 408l4 45h43l-4 -45h-43zM473 475l2 45h45l-4 -45h-43zM477 545l4 43h45l-4 -43h-45zM489 678l7 45h43l-4 -45h-46zM496 745l4 46h45l-4 -46h-45z M502 813l4 45h45l-4 -45h-45zM508 881l4 43h43l-4 -43h-43zM522 274l4 43h45l-4 -43h-45zM580 948l4 45h45l-2 -45h-47zM590 274l2 43h45l-2 -43h-45zM647 948l4 45h45l-2 -45h-47zM657 274l5 43h43l-3 -43h-45zM715 948l4 45h45l-4 -45h-45zM725 274l4 43h43l-2 -43h-45z M782 948l4 45h45l-4 -45h-45zM791 274l4 43h45l-4 -43h-45zM850 948l4 45h45l-4 -45h-45z" />
<glyph unicode="&#xad;" d="M305 610l6 88h90l-8 -88h-88zM436 610l6 88h90l-8 -88h-88zM569 610l6 88h87l-7 -88h-86zM698 610l9 88h86l-7 -88h-88zM829 610l9 88h86l-6 -88h-89z" />
<glyph unicode="&#xae;" horiz-adv-x="1105" d="M104 879q0 180 130.5 307t328.5 127q201 0 334 -125t133 -309q0 -113 -61 -212t-169 -160t-237 -61q-130 0 -236.5 61t-164.5 160t-58 212zM190 879q0 -89 44 -168.5t130.5 -132t196.5 -52.5q163 0 279 102.5t116 250.5q0 134 -114.5 242t-280.5 108q-110 0 -196.5 -52 t-130.5 -131t-44 -167zM420 637v469h168q67 0 106 -39.5t39 -110.5q0 -46 -18 -76t-60 -57l84 -186h-98l-80 172h-49v-172h-92zM512 905h78q49 0 49 51q0 56 -49 56h-78v-107z" />
<glyph unicode="&#xb4;" d="M504 1397l6 88h86l-6 -88h-86zM631 1528l6 88h88l-8 -88h-86z" />
<glyph unicode="&#xb8;" d="M473 -309l8 88h86l-8 -88h-86zM647 -178l8 88h86l-6 -88h-88zM659 -47l9 88h88l-11 -88h-86z" />
<glyph unicode="&#xbf;" d="M152 -45l8 86h88l-8 -86h-88zM164 86l6 86h88l-6 -86h-88zM174 217l8 88h88l-8 -88h-88zM184 348l11 88h88l-9 -88h-90zM274 -178l7 88h86l-7 -88h-86zM330 479l8 88h86l-6 -88h-88zM403 -178l9 88h86l-6 -88h-89zM461 479l8 88h86l-6 -88h-88zM535 -178l8 88h86l-6 -88 h-88zM592 479l8 88h86l-6 -88h-88zM666 -178l8 88h88l-8 -88h-88zM723 479l8 88h88l-8 -88h-88zM797 -178l8 88h88l-8 -88h-88zM854 479l8 88h88l-8 -88h-88zM997 610l9 88h86l-7 -88h-88zM1010 741l6 88h88l-8 -88h-86zM1020 872l10 89h86l-10 -89h-86zM1049 1137l8 86h88 l-6 -86h-90z" />
<glyph unicode="&#xc0;" d="M125 92l8 88h86l-6 -88h-88zM137 223l8 90h88l-10 -90h-86zM150 354l8 88h86l-8 -88h-86zM162 487l6 86h86l-6 -86h-86zM182 750l11 88h86l-9 -88h-88zM197 881l6 88h88l-8 -88h-86zM207 1014l8 86h86l-8 -86h-86zM217 1143l8 88h86l-6 -88h-88zM303 618l6 87h90l-8 -87 h-88zM360 1274l7 90h90l-8 -90h-89zM434 618l6 87h90l-8 -87h-88zM492 1274l6 90h88l-6 -90h-88zM518 1528l6 88h88l-8 -88h-86zM567 618l6 87h86l-6 -87h-86zM612 1397l11 88h86l-7 -88h-90zM623 1274l8 90h86l-6 -90h-88zM696 618l9 87h86l-7 -87h-88zM754 1274l8 90h86 l-6 -90h-88zM827 618l9 87h86l-7 -87h-88zM885 1274l8 90h86l-6 -90h-88zM913 92l7 88h90l-9 -88h-88zM924 223l10 90h88l-10 -90h-88zM936 354l8 88h88l-6 -88h-90zM948 487l6 86h90l-8 -86h-88zM971 750l8 88h88l-8 -88h-88zM983 881l8 88h88l-8 -88h-88zM993 1014l8 86 h89l-7 -86h-90zM1006 1143l6 88h90l-8 -88h-88z" />
<glyph unicode="&#xc1;" d="M125 92l8 88h86l-6 -88h-88zM137 223l8 90h88l-10 -90h-86zM150 354l8 88h86l-8 -88h-86zM162 487l6 86h86l-6 -86h-86zM182 750l11 88h86l-9 -88h-88zM197 881l6 88h88l-8 -88h-86zM207 1014l8 86h86l-8 -86h-86zM217 1143l8 88h86l-6 -88h-88zM303 618l6 87h90l-8 -87 h-88zM360 1274l7 90h90l-8 -90h-89zM434 618l6 87h90l-8 -87h-88zM492 1274l6 90h88l-6 -90h-88zM504 1397l6 88h86l-6 -88h-86zM567 618l6 87h86l-6 -87h-86zM623 1274l8 90h86l-6 -90h-88zM631 1528l6 88h88l-8 -88h-86zM696 618l9 87h86l-7 -87h-88zM754 1274l8 90h86 l-6 -90h-88zM827 618l9 87h86l-7 -87h-88zM885 1274l8 90h86l-6 -90h-88zM913 92l7 88h90l-9 -88h-88zM924 223l10 90h88l-10 -90h-88zM936 354l8 88h88l-6 -88h-90zM948 487l6 86h90l-8 -86h-88zM971 750l8 88h88l-8 -88h-88zM983 881l8 88h88l-8 -88h-88zM993 1014l8 86 h89l-7 -86h-90zM1006 1143l6 88h90l-8 -88h-88z" />
<glyph unicode="&#xc2;" d="M125 92l8 88h86l-6 -88h-88zM137 223l8 90h88l-10 -90h-86zM150 354l8 88h86l-8 -88h-86zM162 487l6 86h86l-6 -86h-86zM182 750l11 88h86l-9 -88h-88zM197 881l6 88h88l-8 -88h-86zM207 1014l8 86h86l-8 -86h-86zM217 1143l8 88h86l-6 -88h-88zM303 618l6 87h90l-8 -87 h-88zM360 1274l7 90h90l-8 -90h-89zM434 618l6 87h90l-8 -87h-88zM455 1397l6 88h86l-6 -88h-86zM492 1274l6 90h88l-6 -90h-88zM567 618l6 87h86l-6 -87h-86zM582 1528l6 88h88l-8 -88h-86zM623 1274l8 90h86l-6 -90h-88zM676 1397l10 88h86l-6 -88h-90zM696 618l9 87h86 l-7 -87h-88zM754 1274l8 90h86l-6 -90h-88zM827 618l9 87h86l-7 -87h-88zM885 1274l8 90h86l-6 -90h-88zM913 92l7 88h90l-9 -88h-88zM924 223l10 90h88l-10 -90h-88zM936 354l8 88h88l-6 -88h-90zM948 487l6 86h90l-8 -86h-88zM971 750l8 88h88l-8 -88h-88zM983 881l8 88 h88l-8 -88h-88zM993 1014l8 86h89l-7 -86h-90zM1006 1143l6 88h90l-8 -88h-88z" />
<glyph unicode="&#xc3;" d="M125 92l8 88h86l-6 -88h-88zM137 223l8 90h88l-10 -90h-86zM150 354l8 88h86l-8 -88h-86zM162 487l6 86h86l-6 -86h-86zM182 750l11 88h86l-9 -88h-88zM197 881l6 88h88l-8 -88h-86zM207 1014l8 86h86l-8 -86h-86zM217 1143l8 88h86l-6 -88h-88zM303 618l6 87h90l-8 -87 h-88zM360 1274l7 90h90l-8 -90h-89zM391 1397l6 88h86l-6 -88h-86zM434 618l6 87h90l-8 -87h-88zM492 1274l6 90h88l-6 -90h-88zM518 1528l6 88h88l-8 -88h-86zM567 618l6 87h86l-6 -87h-86zM612 1397l11 88h86l-7 -88h-90zM623 1274l8 90h86l-6 -90h-88zM696 618l9 87h86 l-7 -87h-88zM743 1528l7 88h88l-9 -88h-86zM754 1274l8 90h86l-6 -90h-88zM827 618l9 87h86l-7 -87h-88zM885 1274l8 90h86l-6 -90h-88zM913 92l7 88h90l-9 -88h-88zM924 223l10 90h88l-10 -90h-88zM936 354l8 88h88l-6 -88h-90zM948 487l6 86h90l-8 -86h-88zM971 750l8 88 h88l-8 -88h-88zM983 881l8 88h88l-8 -88h-88zM993 1014l8 86h89l-7 -86h-90zM1006 1143l6 88h90l-8 -88h-88z" />
<glyph unicode="&#xc4;" d="M125 92l8 88h86l-6 -88h-88zM137 223l8 90h88l-10 -90h-86zM150 354l8 88h86l-8 -88h-86zM162 487l6 86h86l-6 -86h-86zM182 750l11 88h86l-9 -88h-88zM197 881l6 88h88l-8 -88h-86zM207 1014l8 86h86l-8 -86h-86zM217 1143l8 88h86l-6 -88h-88zM303 618l6 87h90l-8 -87 h-88zM360 1274l7 90h90l-8 -90h-89zM434 618l6 87h90l-8 -87h-88zM434 1536l6 88h88l-8 -88h-86zM492 1274l6 90h88l-6 -90h-88zM567 618l6 87h86l-6 -87h-86zM623 1274l8 90h86l-6 -90h-88zM696 618l9 87h86l-7 -87h-88zM700 1536l7 88h86l-7 -88h-86zM754 1274l8 90h86 l-6 -90h-88zM827 618l9 87h86l-7 -87h-88zM885 1274l8 90h86l-6 -90h-88zM913 92l7 88h90l-9 -88h-88zM924 223l10 90h88l-10 -90h-88zM936 354l8 88h88l-6 -88h-90zM948 487l6 86h90l-8 -86h-88zM971 750l8 88h88l-8 -88h-88zM983 881l8 88h88l-8 -88h-88zM993 1014l8 86 h89l-7 -86h-90zM1006 1143l6 88h90l-8 -88h-88z" />
<glyph unicode="&#xc5;" d="M125 92l8 88h86l-6 -88h-88zM137 223l8 90h88l-10 -90h-86zM150 354l8 88h86l-8 -88h-86zM162 487l6 86h86l-6 -86h-86zM182 750l11 88h86l-9 -88h-88zM197 881l6 88h88l-8 -88h-86zM207 1014l8 86h86l-8 -86h-86zM217 1143l8 88h86l-6 -88h-88zM303 618l6 87h90l-8 -87 h-88zM360 1274l7 90h90l-8 -90h-89zM434 618l6 87h90l-8 -87h-88zM455 1528l8 88h86l-8 -88h-86zM492 1274l6 90h88l-6 -90h-88zM543 1401l6 86h88l-8 -86h-86zM567 618l6 87h86l-6 -87h-86zM582 1659l8 86h86l-6 -86h-88zM623 1274l8 90h86l-6 -90h-88zM676 1528l12 88h86 l-8 -88h-90zM696 618l9 87h86l-7 -87h-88zM754 1274l8 90h86l-6 -90h-88zM827 618l9 87h86l-7 -87h-88zM885 1274l8 90h86l-6 -90h-88zM913 92l7 88h90l-9 -88h-88zM924 223l10 90h88l-10 -90h-88zM936 354l8 88h88l-6 -88h-90zM948 487l6 86h90l-8 -86h-88zM971 750l8 88 h88l-8 -88h-88zM983 881l8 88h88l-8 -88h-88zM993 1014l8 86h89l-7 -86h-90zM1006 1143l6 88h90l-8 -88h-88z" />
<glyph unicode="&#xc6;" d="M14 92l9 88h86l-7 -88h-88zM27 223l8 90h88l-10 -90h-86zM39 354l8 88h86l-8 -88h-86zM51 487l6 86h86l-6 -86h-86zM72 750l10 88h86l-8 -88h-88zM86 881l6 88h88l-8 -88h-86zM96 1014l8 86h86l-8 -86h-86zM106 1143l9 88h86l-6 -88h-89zM193 618l6 87h90l-8 -87h-88z M250 1274l6 90h90l-8 -90h-88zM324 618l6 87h90l-8 -87h-88zM381 1274l6 90h88l-6 -90h-88zM455 618l8 87h86l-6 -87h-88zM512 1274l8 90h86l-6 -90h-88zM541 92l6 88h90l-8 -88h-88zM551 223l10 90h88l-10 -90h-88zM563 354l8 88h88l-6 -88h-90zM575 487l7 86h90l-8 -86 h-89zM598 750l8 88h88l-8 -88h-88zM610 881l8 88h89l-9 -88h-88zM621 1014l8 86h88l-6 -86h-90zM633 1143l6 88h90l-8 -88h-88zM662 -39l6 86h88l-6 -86h-88zM719 616l6 89h88l-6 -89h-88zM774 1274l8 88h88l-6 -88h-90zM793 -39l6 86h88l-6 -86h-88zM848 616l8 89h88 l-6 -89h-90zM905 1274l8 88h88l-6 -88h-90zM924 -39l8 86h86l-6 -86h-88zM981 616l8 89h86l-6 -89h-88zM1038 1274l9 88h86l-9 -88h-86z" />
<glyph unicode="&#xc7;" d="M186 86l9 86h86l-9 -86h-86zM199 217l8 88h86l-8 -88h-86zM211 348l6 88h88l-8 -88h-86zM221 481l8 86h86l-6 -86h-88zM244 741l10 88h86l-10 -88h-86zM256 872l8 89h86l-6 -89h-88zM268 1006l6 86h88l-8 -86h-86zM281 1137l6 86h86l-8 -86h-84zM307 -45l6 86h88l-6 -86 h-88zM420 1268l8 88h88l-6 -88h-90zM438 -45l6 86h88l-6 -86h-88zM479 -309l8 88h86l-8 -88h-86zM551 1268l8 88h88l-6 -88h-90zM569 -45l9 86h86l-7 -86h-88zM653 -178l9 88h86l-7 -88h-88zM666 -47l8 88h121l-7 -86h-36v-2h-86zM684 1268l8 88h86l-8 -88h-86zM815 1268 l8 88h86l-8 -88h-86zM831 -45l9 86h86l-8 -86h-87zM946 1268l8 88h86l-8 -88h-86z" />
<glyph unicode="&#xc8;" d="M186 86l9 86h86l-9 -86h-86zM199 217l8 88h86l-8 -88h-86zM211 348l6 88h88l-8 -88h-86zM221 481l8 86h86l-6 -86h-88zM244 741l10 88h86l-10 -88h-86zM256 872l8 89h86l-6 -89h-88zM268 1006l6 86h88l-8 -86h-86zM279 1137l8 86h86l-8 -86h-86zM307 -45l6 86h88l-6 -86 h-88zM365 610l6 88h88l-6 -88h-88zM420 1268l8 88h88l-6 -88h-90zM438 -45l6 86h88l-6 -86h-88zM494 610l8 88h88l-6 -88h-90zM518 1528l6 88h88l-8 -88h-86zM551 1268l8 88h88l-6 -88h-90zM569 -45l9 86h86l-7 -86h-88zM612 1397l11 88h86l-7 -88h-90zM627 610l8 88h86 l-6 -88h-88zM684 1268l8 88h86l-8 -88h-86zM700 -45l9 86h86l-7 -86h-88zM758 610l8 88h86l-8 -88h-86zM815 1268l8 88h86l-8 -88h-86zM831 -45l9 86h86l-8 -86h-87zM889 610l8 88h86l-8 -88h-86zM946 1268l8 88h86l-8 -88h-86z" />
<glyph unicode="&#xc9;" d="M186 86l9 86h86l-9 -86h-86zM199 217l8 88h86l-8 -88h-86zM211 348l6 88h88l-8 -88h-86zM221 481l8 86h86l-6 -86h-88zM244 741l10 88h86l-10 -88h-86zM256 872l8 89h86l-6 -89h-88zM268 1006l6 86h88l-8 -86h-86zM279 1137l8 86h86l-8 -86h-86zM307 -45l6 86h88l-6 -86 h-88zM365 610l6 88h88l-6 -88h-88zM420 1268l8 88h88l-6 -88h-90zM438 -45l6 86h88l-6 -86h-88zM494 610l8 88h88l-6 -88h-90zM504 1397l6 88h86l-6 -88h-86zM551 1268l8 88h88l-6 -88h-90zM569 -45l9 86h86l-7 -86h-88zM627 610l8 88h86l-6 -88h-88zM631 1528l6 88h88 l-8 -88h-86zM684 1268l8 88h86l-8 -88h-86zM700 -45l9 86h86l-7 -86h-88zM758 610l8 88h86l-8 -88h-86zM815 1268l8 88h86l-8 -88h-86zM831 -45l9 86h86l-8 -86h-87zM889 610l8 88h86l-8 -88h-86zM946 1268l8 88h86l-8 -88h-86z" />
<glyph unicode="&#xca;" d="M186 86l9 86h86l-9 -86h-86zM199 217l8 88h86l-8 -88h-86zM211 348l6 88h88l-8 -88h-86zM221 481l8 86h86l-6 -86h-88zM244 741l10 88h86l-10 -88h-86zM256 872l8 89h86l-6 -89h-88zM268 1006l6 86h88l-8 -86h-86zM279 1137l8 86h86l-8 -86h-86zM307 -45l6 86h88l-6 -86 h-88zM365 610l6 88h88l-6 -88h-88zM420 1268l8 88h88l-6 -88h-90zM438 -45l6 86h88l-6 -86h-88zM455 1397l6 88h86l-6 -88h-86zM494 610l8 88h88l-6 -88h-90zM551 1268l8 88h88l-6 -88h-90zM569 -45l9 86h86l-7 -86h-88zM582 1528l6 88h88l-8 -88h-86zM627 610l8 88h86 l-6 -88h-88zM676 1397l10 88h86l-6 -88h-90zM684 1268l8 88h86l-8 -88h-86zM700 -45l9 86h86l-7 -86h-88zM758 610l8 88h86l-8 -88h-86zM815 1268l8 88h86l-8 -88h-86zM831 -45l9 86h86l-8 -86h-87zM889 610l8 88h86l-8 -88h-86zM946 1268l8 88h86l-8 -88h-86z" />
<glyph unicode="&#xcb;" d="M186 86l9 86h86l-9 -86h-86zM199 217l8 88h86l-8 -88h-86zM211 348l6 88h88l-8 -88h-86zM221 481l8 86h86l-6 -86h-88zM244 741l10 88h86l-10 -88h-86zM256 872l8 89h86l-6 -89h-88zM268 1006l6 86h88l-8 -86h-86zM279 1137l8 86h86l-8 -86h-86zM307 -45l6 86h88l-6 -86 h-88zM365 610l6 88h88l-6 -88h-88zM420 1268l8 88h88l-6 -88h-90zM434 1536l6 88h88l-8 -88h-86zM438 -45l6 86h88l-6 -86h-88zM494 610l8 88h88l-6 -88h-90zM551 1268l8 88h88l-6 -88h-90zM569 -45l9 86h86l-7 -86h-88zM627 610l8 88h86l-6 -88h-88zM684 1268l8 88h86 l-8 -88h-86zM700 -45l9 86h86l-7 -86h-88zM700 1536l7 88h86l-7 -88h-86zM758 610l8 88h86l-8 -88h-86zM815 1268l8 88h86l-8 -88h-86zM831 -45l9 86h86l-8 -86h-87zM889 610l8 88h86l-8 -88h-86zM946 1268l8 88h86l-8 -88h-86z" />
<glyph unicode="&#xcc;" d="M248 -45l8 86h88l-8 -86h-88zM362 1268l7 88h90l-8 -88h-89zM379 -45l6 86h90l-8 -86h-88zM494 1268l6 88h88l-6 -88h-88zM512 -45l6 86h86l-6 -86h-86zM518 1528l6 88h88l-8 -88h-86zM522 86l8 86h86l-8 -86h-86zM532 217l11 88h86l-8 -88h-89zM547 348l6 88h88l-8 -88 h-86zM557 481l8 86h86l-8 -86h-86zM569 610l6 88h87l-7 -88h-86zM580 741l8 88h88l-10 -88h-86zM592 872l8 89h86l-8 -89h-86zM604 1006l6 86h86l-6 -86h-86zM612 1397l11 88h86l-7 -88h-90zM614 1137l9 86h86l-9 -86h-86zM625 1268l8 88h86l-6 -88h-88zM641 -45l8 86h86 l-6 -86h-88zM756 1268l8 88h86l-6 -88h-88zM772 -45l8 86h86l-6 -86h-88zM887 1268l8 88h86l-8 -88h-86z" />
<glyph unicode="&#xcd;" d="M248 -45l8 86h88l-8 -86h-88zM362 1268l7 88h90l-8 -88h-89zM379 -45l6 86h90l-8 -86h-88zM494 1268l6 88h88l-6 -88h-88zM504 1397l6 88h86l-6 -88h-86zM512 -45l6 86h86l-6 -86h-86zM522 86l8 86h86l-8 -86h-86zM532 217l11 88h86l-8 -88h-89zM547 348l6 88h88l-8 -88 h-86zM557 481l8 86h86l-8 -86h-86zM569 610l6 88h87l-7 -88h-86zM580 741l8 88h88l-10 -88h-86zM592 872l8 89h86l-8 -89h-86zM604 1006l6 86h86l-6 -86h-86zM614 1137l9 86h86l-9 -86h-86zM625 1268l8 88h86l-6 -88h-88zM631 1528l6 88h88l-8 -88h-86zM641 -45l8 86h86 l-6 -86h-88zM756 1268l8 88h86l-6 -88h-88zM772 -45l8 86h86l-6 -86h-88zM887 1268l8 88h86l-8 -88h-86z" />
<glyph unicode="&#xce;" d="M248 -45l8 86h88l-8 -86h-88zM362 1268l7 88h90l-8 -88h-89zM379 -45l6 86h90l-8 -86h-88zM475 1397l6 88h86l-6 -88h-86zM494 1268l6 88h88l-6 -88h-88zM512 -45l6 86h86l-6 -86h-86zM522 86l8 86h86l-8 -86h-86zM532 217l11 88h86l-8 -88h-89zM547 348l6 88h88l-8 -88 h-86zM557 481l8 86h86l-8 -86h-86zM569 610l6 88h87l-7 -88h-86zM580 741l8 88h88l-10 -88h-86zM592 872l8 89h86l-8 -89h-86zM602 1528l6 88h88l-8 -88h-86zM604 1006l6 86h86l-6 -86h-86zM614 1137l9 86h86l-9 -86h-86zM625 1268l8 88h86l-6 -88h-88zM641 -45l8 86h86 l-6 -86h-88zM696 1397l11 88h86l-7 -88h-90zM756 1268l8 88h86l-6 -88h-88zM772 -45l8 86h86l-6 -86h-88zM887 1268l8 88h86l-8 -88h-86z" />
<glyph unicode="&#xcf;" d="M248 -45l8 86h88l-8 -86h-88zM362 1268l7 88h90l-8 -88h-89zM379 -45l6 86h90l-8 -86h-88zM434 1536l6 88h88l-8 -88h-86zM494 1268l6 88h88l-6 -88h-88zM512 -45l6 86h86l-6 -86h-86zM522 86l8 86h86l-8 -86h-86zM532 217l11 88h86l-8 -88h-89zM547 348l6 88h88l-8 -88 h-86zM557 481l8 86h86l-8 -86h-86zM569 610l6 88h87l-7 -88h-86zM580 741l8 88h88l-10 -88h-86zM592 872l8 89h86l-8 -89h-86zM604 1006l6 86h86l-6 -86h-86zM614 1137l9 86h86l-9 -86h-86zM625 1268l8 88h86l-6 -88h-88zM641 -45l8 86h86l-6 -86h-88zM700 1536l7 88h86 l-7 -88h-86zM756 1268l8 88h86l-6 -88h-88zM772 -45l8 86h86l-6 -86h-88zM887 1268l8 88h86l-8 -88h-86z" />
<glyph unicode="&#xd1;" d="M125 86l8 86h86l-6 -86h-88zM137 217l8 88h88l-10 -88h-86zM150 348l8 88h86l-8 -88h-86zM162 479l6 88h86l-6 -88h-86zM182 741l11 88h86l-9 -88h-88zM197 872l6 89h88l-8 -89h-86zM207 1006l8 86h86l-8 -86h-86zM217 1137l8 86h86l-6 -86h-88zM348 1137l8 86h88l-6 -86 h-90zM383 1006l6 86h86l-6 -86h-86zM391 1397l6 88h86l-6 -88h-86zM416 872l6 89h88l-8 -89h-86zM444 741l11 88h88l-11 -88h-88zM518 1528l6 88h88l-8 -88h-86zM612 1397l11 88h86l-7 -88h-90zM686 479l8 88h86l-8 -88h-86zM717 348l8 88h88l-6 -88h-90zM743 1528l7 88h88 l-9 -88h-86zM750 217l8 88h88l-8 -88h-88zM782 86l6 86h89l-9 -86h-86zM913 86l7 86h90l-9 -86h-88zM924 217l10 88h88l-10 -88h-88zM936 348l8 88h88l-6 -88h-90zM948 479l6 88h90l-8 -88h-88zM971 741l8 88h88l-8 -88h-88zM983 872l8 89h88l-8 -89h-88zM993 1006l8 86h89 l-7 -86h-90zM1006 1137l6 86h90l-8 -86h-88z" />
<glyph unicode="&#xd2;" d="M125 86l8 86h86l-6 -86h-88zM137 217l8 88h88l-10 -88h-86zM150 348l8 88h86l-8 -88h-86zM162 481l6 86h86l-6 -86h-86zM182 741l11 88h86l-9 -88h-88zM197 872l6 89h88l-8 -89h-86zM207 1006l8 86h86l-8 -86h-86zM217 1137l8 86h86l-6 -86h-88zM246 -45l8 86h88l-8 -86 h-88zM360 1268l7 88h90l-8 -88h-89zM377 -45l6 86h90l-8 -86h-88zM492 1268l6 88h88l-6 -88h-88zM510 -45l6 86h88l-8 -86h-86zM518 1528l6 88h88l-8 -88h-86zM612 1397l11 88h86l-7 -88h-90zM623 1268l8 88h86l-6 -88h-88zM641 -45l6 86h86l-6 -86h-86zM754 1268l8 88h86 l-6 -88h-88zM770 -45l8 86h86l-6 -86h-88zM885 1268l8 88h86l-6 -88h-88zM913 86l7 86h90l-9 -86h-88zM924 217l10 88h88l-10 -88h-88zM936 348l8 88h88l-6 -88h-90zM948 481l6 86h90l-8 -86h-88zM971 741l8 88h88l-8 -88h-88zM983 872l8 89h88l-8 -89h-88zM993 1006l8 86 h89l-7 -86h-90zM1006 1137l6 86h90l-8 -86h-88z" />
<glyph unicode="&#xd3;" d="M125 86l8 86h86l-6 -86h-88zM137 217l8 88h88l-10 -88h-86zM150 348l8 88h86l-8 -88h-86zM162 481l6 86h86l-6 -86h-86zM182 741l11 88h86l-9 -88h-88zM197 872l6 89h88l-8 -89h-86zM207 1006l8 86h86l-8 -86h-86zM217 1137l8 86h86l-6 -86h-88zM246 -45l8 86h88l-8 -86 h-88zM360 1268l7 88h90l-8 -88h-89zM377 -45l6 86h90l-8 -86h-88zM492 1268l6 88h88l-6 -88h-88zM504 1397l6 88h86l-6 -88h-86zM510 -45l6 86h88l-8 -86h-86zM623 1268l8 88h86l-6 -88h-88zM631 1528l6 88h88l-8 -88h-86zM641 -45l6 86h86l-6 -86h-86zM754 1268l8 88h86 l-6 -88h-88zM770 -45l8 86h86l-6 -86h-88zM885 1268l8 88h86l-6 -88h-88zM913 86l7 86h90l-9 -86h-88zM924 217l10 88h88l-10 -88h-88zM936 348l8 88h88l-6 -88h-90zM948 481l6 86h90l-8 -86h-88zM971 741l8 88h88l-8 -88h-88zM983 872l8 89h88l-8 -89h-88zM993 1006l8 86 h89l-7 -86h-90zM1006 1137l6 86h90l-8 -86h-88z" />
<glyph unicode="&#xd4;" d="M125 86l8 86h86l-6 -86h-88zM137 217l8 88h88l-10 -88h-86zM150 348l8 88h86l-8 -88h-86zM162 481l6 86h86l-6 -86h-86zM182 741l11 88h86l-9 -88h-88zM197 872l6 89h88l-8 -89h-86zM207 1006l8 86h86l-8 -86h-86zM217 1137l8 86h86l-6 -86h-88zM246 -45l8 86h88l-8 -86 h-88zM360 1268l7 88h90l-8 -88h-89zM377 -45l6 86h90l-8 -86h-88zM455 1397l6 88h86l-6 -88h-86zM492 1268l6 88h88l-6 -88h-88zM510 -45l6 86h88l-8 -86h-86zM582 1528l6 88h88l-8 -88h-86zM623 1268l8 88h86l-6 -88h-88zM641 -45l6 86h86l-6 -86h-86zM676 1397l10 88h86 l-6 -88h-90zM754 1268l8 88h86l-6 -88h-88zM770 -45l8 86h86l-6 -86h-88zM885 1268l8 88h86l-6 -88h-88zM913 86l7 86h90l-9 -86h-88zM924 217l10 88h88l-10 -88h-88zM936 348l8 88h88l-6 -88h-90zM948 481l6 86h90l-8 -86h-88zM971 741l8 88h88l-8 -88h-88zM983 872l8 89 h88l-8 -89h-88zM993 1006l8 86h89l-7 -86h-90zM1006 1137l6 86h90l-8 -86h-88z" />
<glyph unicode="&#xd5;" d="M125 86l8 86h86l-6 -86h-88zM137 217l8 88h88l-10 -88h-86zM150 348l8 88h86l-8 -88h-86zM162 481l6 86h86l-6 -86h-86zM182 741l11 88h86l-9 -88h-88zM197 872l6 89h88l-8 -89h-86zM207 1006l8 86h86l-8 -86h-86zM217 1137l8 86h86l-6 -86h-88zM246 -45l8 86h88l-8 -86 h-88zM360 1268l7 88h90l-8 -88h-89zM377 -45l6 86h90l-8 -86h-88zM391 1397l6 88h86l-6 -88h-86zM492 1268l6 88h88l-6 -88h-88zM510 -45l6 86h88l-8 -86h-86zM518 1528l6 88h88l-8 -88h-86zM612 1397l11 88h86l-7 -88h-90zM623 1268l8 88h86l-6 -88h-88zM641 -45l6 86h86 l-6 -86h-86zM743 1528l7 88h88l-9 -88h-86zM754 1268l8 88h86l-6 -88h-88zM770 -45l8 86h86l-6 -86h-88zM885 1268l8 88h86l-6 -88h-88zM913 86l7 86h90l-9 -86h-88zM924 217l10 88h88l-10 -88h-88zM936 348l8 88h88l-6 -88h-90zM948 481l6 86h90l-8 -86h-88zM971 741l8 88 h88l-8 -88h-88zM983 872l8 89h88l-8 -89h-88zM993 1006l8 86h89l-7 -86h-90zM1006 1137l6 86h90l-8 -86h-88z" />
<glyph unicode="&#xd6;" d="M125 86l8 86h86l-6 -86h-88zM137 217l8 88h88l-10 -88h-86zM150 348l8 88h86l-8 -88h-86zM162 481l6 86h86l-6 -86h-86zM182 741l11 88h86l-9 -88h-88zM197 872l6 89h88l-8 -89h-86zM207 1006l8 86h86l-8 -86h-86zM217 1137l8 86h86l-6 -86h-88zM246 -45l8 86h88l-8 -86 h-88zM360 1268l7 88h90l-8 -88h-89zM377 -45l6 86h90l-8 -86h-88zM434 1536l6 88h88l-8 -88h-86zM492 1268l6 88h88l-6 -88h-88zM510 -45l6 86h88l-8 -86h-86zM623 1268l8 88h86l-6 -88h-88zM641 -45l6 86h86l-6 -86h-86zM700 1536l7 88h86l-7 -88h-86zM754 1268l8 88h86 l-6 -88h-88zM770 -45l8 86h86l-6 -86h-88zM885 1268l8 88h86l-6 -88h-88zM913 86l7 86h90l-9 -86h-88zM924 217l10 88h88l-10 -88h-88zM936 348l8 88h88l-6 -88h-90zM948 481l6 86h90l-8 -86h-88zM971 741l8 88h88l-8 -88h-88zM983 872l8 89h88l-8 -89h-88zM993 1006l8 86 h89l-7 -86h-90zM1006 1137l6 86h90l-8 -86h-88z" />
<glyph unicode="&#xd8;" d="M125 86l8 86h86l-6 -86h-88zM137 217l8 88h88l-10 -88h-86zM150 348l8 88h86l-8 -88h-86zM162 481l6 86h86l-6 -86h-86zM182 741l11 88h86l-9 -88h-88zM197 872l6 89h88l-8 -89h-86zM207 1006l8 86h86l-8 -86h-86zM217 1137l8 86h86l-6 -86h-88zM246 -45l8 86h88l-8 -86 h-88zM258 86l8 86h88l-6 -86h-90zM313 217l11 88h86l-9 -88h-88zM360 1268l7 88h90l-8 -88h-89zM371 348l8 88h86l-6 -88h-88zM377 -45l6 86h90l-8 -86h-88zM424 479l8 88h88l-6 -88h-90zM492 1268l6 88h88l-6 -88h-88zM510 -45l6 86h88l-8 -86h-86zM623 1268l8 88h86 l-6 -88h-88zM641 -45l6 86h86l-6 -86h-86zM711 741l8 88h88l-10 -88h-86zM754 1268l8 88h86l-6 -88h-88zM766 872l6 89h90l-8 -89h-88zM770 -45l8 86h86l-6 -86h-88zM821 1006l6 86h91l-9 -86h-88zM877 1137l6 86h88l-8 -86h-86zM885 1268l8 88h86l-6 -88h-88zM913 86l7 86 h90l-9 -86h-88zM924 217l10 88h88l-10 -88h-88zM936 348l8 88h88l-6 -88h-90zM948 481l6 86h90l-8 -86h-88zM971 741l8 88h88l-8 -88h-88zM983 872l8 89h88l-8 -89h-88zM993 1006l8 86h89l-7 -86h-90zM1006 1137l6 86h90l-8 -86h-88z" />
<glyph unicode="&#xd9;" d="M125 78l8 88h86l-6 -88h-88zM137 209l8 88h88l-10 -88h-86zM150 340l8 88h86l-8 -88h-86zM162 473l6 86h86l-6 -86h-86zM182 735l11 88h86l-9 -88h-88zM197 866l6 88h88l-8 -88h-86zM207 997l8 88h86l-8 -88h-86zM217 1128l8 89h86l-6 -89h-88zM246 -53l8 88h88l-8 -88 h-88zM377 -53l6 88h90l-8 -88h-88zM510 -53l6 88h88l-8 -88h-86zM518 1528l6 88h88l-8 -88h-86zM612 1397l11 88h86l-7 -88h-90zM641 -53l6 88h86l-6 -88h-86zM770 -53l8 88h86l-6 -88h-88zM913 78l7 88h90l-9 -88h-88zM924 209l10 88h88l-10 -88h-88zM936 340l8 88h88 l-6 -88h-90zM948 473l6 86h90l-8 -86h-88zM971 735l8 88h88l-8 -88h-88zM983 866l8 88h88l-8 -88h-88zM993 997l8 88h89l-7 -88h-90zM1006 1128l6 89h90l-8 -89h-88z" />
<glyph unicode="&#xda;" d="M125 78l8 88h86l-6 -88h-88zM137 209l8 88h88l-10 -88h-86zM150 340l8 88h86l-8 -88h-86zM162 473l6 86h86l-6 -86h-86zM182 735l11 88h86l-9 -88h-88zM197 866l6 88h88l-8 -88h-86zM207 997l8 88h86l-8 -88h-86zM217 1128l8 89h86l-6 -89h-88zM246 -53l8 88h88l-8 -88 h-88zM377 -53l6 88h90l-8 -88h-88zM504 1397l6 88h86l-6 -88h-86zM510 -53l6 88h88l-8 -88h-86zM631 1528l6 88h88l-8 -88h-86zM641 -53l6 88h86l-6 -88h-86zM770 -53l8 88h86l-6 -88h-88zM913 78l7 88h90l-9 -88h-88zM924 209l10 88h88l-10 -88h-88zM936 340l8 88h88 l-6 -88h-90zM948 473l6 86h90l-8 -86h-88zM971 735l8 88h88l-8 -88h-88zM983 866l8 88h88l-8 -88h-88zM993 997l8 88h89l-7 -88h-90zM1006 1128l6 89h90l-8 -89h-88z" />
<glyph unicode="&#xdb;" d="M125 78l8 88h86l-6 -88h-88zM137 209l8 88h88l-10 -88h-86zM150 340l8 88h86l-8 -88h-86zM162 473l6 86h86l-6 -86h-86zM182 735l11 88h86l-9 -88h-88zM197 866l6 88h88l-8 -88h-86zM207 997l8 88h86l-8 -88h-86zM217 1128l8 89h86l-6 -89h-88zM246 -53l8 88h88l-8 -88 h-88zM377 -53l6 88h90l-8 -88h-88zM455 1397l6 88h86l-6 -88h-86zM510 -53l6 88h88l-8 -88h-86zM582 1528l6 88h88l-8 -88h-86zM641 -53l6 88h86l-6 -88h-86zM676 1397l10 88h86l-6 -88h-90zM770 -53l8 88h86l-6 -88h-88zM913 78l7 88h90l-9 -88h-88zM924 209l10 88h88 l-10 -88h-88zM936 340l8 88h88l-6 -88h-90zM948 473l6 86h90l-8 -86h-88zM971 735l8 88h88l-8 -88h-88zM983 866l8 88h88l-8 -88h-88zM993 997l8 88h89l-7 -88h-90zM1006 1128l6 89h90l-8 -89h-88z" />
<glyph unicode="&#xdc;" d="M125 78l8 88h86l-6 -88h-88zM137 209l8 88h88l-10 -88h-86zM150 340l8 88h86l-8 -88h-86zM162 473l6 86h86l-6 -86h-86zM182 735l11 88h86l-9 -88h-88zM197 866l6 88h88l-8 -88h-86zM207 997l8 88h86l-8 -88h-86zM217 1128l8 89h86l-6 -89h-88zM246 -53l8 88h88l-8 -88 h-88zM377 -53l6 88h90l-8 -88h-88zM434 1536l6 88h88l-8 -88h-86zM510 -53l6 88h88l-8 -88h-86zM641 -53l6 88h86l-6 -88h-86zM700 1536l7 88h86l-7 -88h-86zM770 -53l8 88h86l-6 -88h-88zM913 78l7 88h90l-9 -88h-88zM924 209l10 88h88l-10 -88h-88zM936 340l8 88h88 l-6 -88h-90zM948 473l6 86h90l-8 -86h-88zM971 735l8 88h88l-8 -88h-88zM983 866l8 88h88l-8 -88h-88zM993 997l8 88h89l-7 -88h-90zM1006 1128l6 89h90l-8 -89h-88z" />
<glyph unicode="&#xdd;" d="M156 735l8 88h88l-10 -88h-86zM168 866l8 88h86l-6 -88h-88zM180 997l6 88h88l-8 -88h-86zM190 1128l9 89h86l-9 -89h-86zM219 -53l6 88h88l-6 -88h-88zM274 604l9 86h88l-6 -86h-91zM348 -53l8 88h88l-6 -88h-90zM406 604l8 86h88l-6 -86h-90zM481 -53l8 88h86l-6 -88 h-88zM504 1397l6 88h86l-6 -88h-86zM539 604l8 86h86l-8 -86h-86zM612 -53l9 88h86l-9 -88h-86zM631 1528l6 88h88l-8 -88h-86zM670 604l8 86h86l-8 -86h-86zM743 -53l9 88h86l-9 -88h-86zM801 604l6 86h88l-8 -86h-86zM885 78l8 88h88l-8 -88h-88zM897 209l8 88h88l-8 -88 h-88zM909 340l9 88h88l-9 -88h-88zM920 473l8 86h88l-6 -86h-90zM942 735l10 88h88l-10 -88h-88zM954 866l9 88h88l-7 -88h-90zM967 997l6 88h90l-8 -88h-88zM977 1128l8 89h88l-8 -89h-88z" />
<glyph unicode="&#xdf;" horiz-adv-x="2457" d="M182 741l11 88h86l-9 -88h-88zM197 872l6 89h88l-8 -89h-86zM207 1006l8 86h86l-8 -86h-86zM217 1137l8 86h86l-6 -86h-88zM246 -45l8 86h88l-8 -86h-88zM303 610l6 88h90l-8 -88h-88zM360 1268l7 88h90l-8 -88h-89zM377 -45l6 86h90l-8 -86h-88zM434 610l6 88h90l-8 -88 h-88zM492 1268l6 88h88l-6 -88h-88zM510 -45l6 86h88l-8 -86h-86zM567 610l6 88h86l-6 -88h-86zM623 1268l8 88h86l-6 -88h-88zM641 -45l6 86h86l-6 -86h-86zM696 610l9 88h86l-7 -88h-88zM754 1268l8 88h86l-6 -88h-88zM770 -45l8 86h86l-6 -86h-88zM827 610l9 88h86 l-7 -88h-88zM885 1268l8 88h86l-6 -88h-88zM913 86l7 86h90l-9 -86h-88zM924 217l10 88h88l-10 -88h-88zM936 348l8 88h88l-6 -88h-90zM948 481l6 86h90l-8 -86h-88zM1411 741l10 88h86l-8 -88h-88zM1425 872l7 89h88l-9 -89h-86zM1436 1006l8 86h86l-8 -86h-86zM1446 1137 l8 86h86l-6 -86h-88zM1475 -45l8 86h88l-8 -86h-88zM1532 610l6 88h90l-8 -88h-88zM1589 1268l6 88h91l-9 -88h-88zM1606 -45l6 86h90l-8 -86h-88zM1663 610l6 88h90l-8 -88h-88zM1720 1268l6 88h89l-7 -88h-88zM1739 -45l6 86h88l-8 -86h-86zM1796 610l6 88h86l-6 -88h-86z M1851 1268l9 88h86l-7 -88h-88zM1870 -45l6 86h86l-6 -86h-86zM1925 610l8 88h86l-6 -88h-88zM1982 1268l9 88h86l-6 -88h-89zM1999 -45l8 86h86l-6 -86h-88zM2056 610l8 88h86l-6 -88h-88zM2114 1268l8 88h86l-6 -88h-88zM2142 86l6 86h90l-8 -86h-88zM2152 217l11 88h88 l-10 -88h-89zM2165 348l8 88h88l-6 -88h-90zM2177 481l6 86h90l-8 -86h-88z" />
<glyph unicode="&#xe0;" d="M125 92l8 88h86l-6 -88h-88zM137 223l8 90h88l-10 -90h-86zM150 354l8 88h86l-8 -88h-86zM162 487l6 86h86l-6 -86h-86zM182 750l11 88h86l-9 -88h-88zM197 881l6 88h88l-8 -88h-86zM207 1014l8 86h86l-8 -86h-86zM217 1143l8 88h86l-6 -88h-88zM303 618l6 87h90l-8 -87 h-88zM360 1274l7 90h90l-8 -90h-89zM434 618l6 87h90l-8 -87h-88zM492 1274l6 90h88l-6 -90h-88zM518 1528l6 88h88l-8 -88h-86zM567 618l6 87h86l-6 -87h-86zM612 1397l11 88h86l-7 -88h-90zM623 1274l8 90h86l-6 -90h-88zM696 618l9 87h86l-7 -87h-88zM754 1274l8 90h86 l-6 -90h-88zM827 618l9 87h86l-7 -87h-88zM885 1274l8 90h86l-6 -90h-88zM913 92l7 88h90l-9 -88h-88zM924 223l10 90h88l-10 -90h-88zM936 354l8 88h88l-6 -88h-90zM948 487l6 86h90l-8 -86h-88zM971 750l8 88h88l-8 -88h-88zM983 881l8 88h88l-8 -88h-88zM993 1014l8 86 h89l-7 -86h-90zM1006 1143l6 88h90l-8 -88h-88z" />
<glyph unicode="&#xe1;" d="M125 92l8 88h86l-6 -88h-88zM137 223l8 90h88l-10 -90h-86zM150 354l8 88h86l-8 -88h-86zM162 487l6 86h86l-6 -86h-86zM182 750l11 88h86l-9 -88h-88zM197 881l6 88h88l-8 -88h-86zM207 1014l8 86h86l-8 -86h-86zM217 1143l8 88h86l-6 -88h-88zM303 618l6 87h90l-8 -87 h-88zM360 1274l7 90h90l-8 -90h-89zM434 618l6 87h90l-8 -87h-88zM492 1274l6 90h88l-6 -90h-88zM504 1397l6 88h86l-6 -88h-86zM567 618l6 87h86l-6 -87h-86zM623 1274l8 90h86l-6 -90h-88zM631 1528l6 88h88l-8 -88h-86zM696 618l9 87h86l-7 -87h-88zM754 1274l8 90h86 l-6 -90h-88zM827 618l9 87h86l-7 -87h-88zM885 1274l8 90h86l-6 -90h-88zM913 92l7 88h90l-9 -88h-88zM924 223l10 90h88l-10 -90h-88zM936 354l8 88h88l-6 -88h-90zM948 487l6 86h90l-8 -86h-88zM971 750l8 88h88l-8 -88h-88zM983 881l8 88h88l-8 -88h-88zM993 1014l8 86 h89l-7 -86h-90zM1006 1143l6 88h90l-8 -88h-88z" />
<glyph unicode="&#xe2;" d="M125 92l8 88h86l-6 -88h-88zM137 223l8 90h88l-10 -90h-86zM150 354l8 88h86l-8 -88h-86zM162 487l6 86h86l-6 -86h-86zM182 750l11 88h86l-9 -88h-88zM197 881l6 88h88l-8 -88h-86zM207 1014l8 86h86l-8 -86h-86zM217 1143l8 88h86l-6 -88h-88zM303 618l6 87h90l-8 -87 h-88zM360 1274l7 90h90l-8 -90h-89zM434 618l6 87h90l-8 -87h-88zM455 1397l6 88h86l-6 -88h-86zM492 1274l6 90h88l-6 -90h-88zM567 618l6 87h86l-6 -87h-86zM582 1528l6 88h88l-8 -88h-86zM623 1274l8 90h86l-6 -90h-88zM676 1397l10 88h86l-6 -88h-90zM696 618l9 87h86 l-7 -87h-88zM754 1274l8 90h86l-6 -90h-88zM827 618l9 87h86l-7 -87h-88zM885 1274l8 90h86l-6 -90h-88zM913 92l7 88h90l-9 -88h-88zM924 223l10 90h88l-10 -90h-88zM936 354l8 88h88l-6 -88h-90zM948 487l6 86h90l-8 -86h-88zM971 750l8 88h88l-8 -88h-88zM983 881l8 88 h88l-8 -88h-88zM993 1014l8 86h89l-7 -86h-90zM1006 1143l6 88h90l-8 -88h-88z" />
<glyph unicode="&#xe3;" d="M125 92l8 88h86l-6 -88h-88zM137 223l8 90h88l-10 -90h-86zM150 354l8 88h86l-8 -88h-86zM162 487l6 86h86l-6 -86h-86zM182 750l11 88h86l-9 -88h-88zM197 881l6 88h88l-8 -88h-86zM207 1014l8 86h86l-8 -86h-86zM217 1143l8 88h86l-6 -88h-88zM303 618l6 87h90l-8 -87 h-88zM360 1274l7 90h90l-8 -90h-89zM391 1397l6 88h86l-6 -88h-86zM434 618l6 87h90l-8 -87h-88zM492 1274l6 90h88l-6 -90h-88zM518 1528l6 88h88l-8 -88h-86zM567 618l6 87h86l-6 -87h-86zM612 1397l11 88h86l-7 -88h-90zM623 1274l8 90h86l-6 -90h-88zM696 618l9 87h86 l-7 -87h-88zM743 1528l7 88h88l-9 -88h-86zM754 1274l8 90h86l-6 -90h-88zM827 618l9 87h86l-7 -87h-88zM885 1274l8 90h86l-6 -90h-88zM913 92l7 88h90l-9 -88h-88zM924 223l10 90h88l-10 -90h-88zM936 354l8 88h88l-6 -88h-90zM948 487l6 86h90l-8 -86h-88zM971 750l8 88 h88l-8 -88h-88zM983 881l8 88h88l-8 -88h-88zM993 1014l8 86h89l-7 -86h-90zM1006 1143l6 88h90l-8 -88h-88z" />
<glyph unicode="&#xe4;" d="M125 92l8 88h86l-6 -88h-88zM137 223l8 90h88l-10 -90h-86zM150 354l8 88h86l-8 -88h-86zM162 487l6 86h86l-6 -86h-86zM182 750l11 88h86l-9 -88h-88zM197 881l6 88h88l-8 -88h-86zM207 1014l8 86h86l-8 -86h-86zM217 1143l8 88h86l-6 -88h-88zM303 618l6 87h90l-8 -87 h-88zM360 1274l7 90h90l-8 -90h-89zM434 618l6 87h90l-8 -87h-88zM434 1536l6 88h88l-8 -88h-86zM492 1274l6 90h88l-6 -90h-88zM567 618l6 87h86l-6 -87h-86zM623 1274l8 90h86l-6 -90h-88zM696 618l9 87h86l-7 -87h-88zM700 1536l7 88h86l-7 -88h-86zM754 1274l8 90h86 l-6 -90h-88zM827 618l9 87h86l-7 -87h-88zM885 1274l8 90h86l-6 -90h-88zM913 92l7 88h90l-9 -88h-88zM924 223l10 90h88l-10 -90h-88zM936 354l8 88h88l-6 -88h-90zM948 487l6 86h90l-8 -86h-88zM971 750l8 88h88l-8 -88h-88zM983 881l8 88h88l-8 -88h-88zM993 1014l8 86 h89l-7 -86h-90zM1006 1143l6 88h90l-8 -88h-88z" />
<glyph unicode="&#xe5;" d="M125 92l8 88h86l-6 -88h-88zM137 223l8 90h88l-10 -90h-86zM150 354l8 88h86l-8 -88h-86zM162 487l6 86h86l-6 -86h-86zM182 750l11 88h86l-9 -88h-88zM197 881l6 88h88l-8 -88h-86zM207 1014l8 86h86l-8 -86h-86zM217 1143l8 88h86l-6 -88h-88zM303 618l6 87h90l-8 -87 h-88zM360 1274l7 90h90l-8 -90h-89zM434 618l6 87h90l-8 -87h-88zM455 1528l8 88h86l-8 -88h-86zM492 1274l6 90h88l-6 -90h-88zM543 1401l6 86h88l-8 -86h-86zM567 618l6 87h86l-6 -87h-86zM582 1659l8 86h86l-6 -86h-88zM623 1274l8 90h86l-6 -90h-88zM676 1528l12 88h86 l-8 -88h-90zM696 618l9 87h86l-7 -87h-88zM754 1274l8 90h86l-6 -90h-88zM827 618l9 87h86l-7 -87h-88zM885 1274l8 90h86l-6 -90h-88zM913 92l7 88h90l-9 -88h-88zM924 223l10 90h88l-10 -90h-88zM936 354l8 88h88l-6 -88h-90zM948 487l6 86h90l-8 -86h-88zM971 750l8 88 h88l-8 -88h-88zM983 881l8 88h88l-8 -88h-88zM993 1014l8 86h89l-7 -86h-90zM1006 1143l6 88h90l-8 -88h-88z" />
<glyph unicode="&#xe6;" d="M14 92l9 88h86l-7 -88h-88zM27 223l8 90h88l-10 -90h-86zM39 354l8 88h86l-8 -88h-86zM51 487l6 86h86l-6 -86h-86zM72 750l10 88h86l-8 -88h-88zM86 881l6 88h88l-8 -88h-86zM96 1014l8 86h86l-8 -86h-86zM106 1143l9 88h86l-6 -88h-89zM193 618l6 87h90l-8 -87h-88z M250 1274l6 90h90l-8 -90h-88zM324 618l6 87h90l-8 -87h-88zM381 1274l6 90h88l-6 -90h-88zM455 618l8 87h86l-6 -87h-88zM512 1274l8 90h86l-6 -90h-88zM541 92l6 88h90l-8 -88h-88zM551 223l10 90h88l-10 -90h-88zM563 354l8 88h88l-6 -88h-90zM575 487l7 86h90l-8 -86 h-89zM598 750l8 88h88l-8 -88h-88zM610 881l8 88h89l-9 -88h-88zM621 1014l8 86h88l-6 -86h-90zM633 1143l6 88h90l-8 -88h-88zM662 -39l6 86h88l-6 -86h-88zM719 616l6 89h88l-6 -89h-88zM774 1274l8 88h88l-6 -88h-90zM793 -39l6 86h88l-6 -86h-88zM848 616l8 89h88 l-6 -89h-90zM905 1274l8 88h88l-6 -88h-90zM924 -39l8 86h86l-6 -86h-88zM981 616l8 89h86l-6 -89h-88zM1038 1274l9 88h86l-9 -88h-86z" />
<glyph unicode="&#xe7;" d="M186 86l9 86h86l-9 -86h-86zM199 217l8 88h86l-8 -88h-86zM211 348l6 88h88l-8 -88h-86zM221 481l8 86h86l-6 -86h-88zM244 741l10 88h86l-10 -88h-86zM256 872l8 89h86l-6 -89h-88zM268 1006l6 86h88l-8 -86h-86zM281 1137l6 86h86l-8 -86h-84zM307 -45l6 86h88l-6 -86 h-88zM420 1268l8 88h88l-6 -88h-90zM438 -45l6 86h88l-6 -86h-88zM479 -309l8 88h86l-8 -88h-86zM551 1268l8 88h88l-6 -88h-90zM569 -45l9 86h86l-7 -86h-88zM653 -178l9 88h86l-7 -88h-88zM666 -47l8 88h121l-7 -86h-36v-2h-86zM684 1268l8 88h86l-8 -88h-86zM815 1268 l8 88h86l-8 -88h-86zM831 -45l9 86h86l-8 -86h-87zM946 1268l8 88h86l-8 -88h-86z" />
<glyph unicode="&#xe8;" d="M186 86l9 86h86l-9 -86h-86zM199 217l8 88h86l-8 -88h-86zM211 348l6 88h88l-8 -88h-86zM221 481l8 86h86l-6 -86h-88zM244 741l10 88h86l-10 -88h-86zM256 872l8 89h86l-6 -89h-88zM268 1006l6 86h88l-8 -86h-86zM279 1137l8 86h86l-8 -86h-86zM307 -45l6 86h88l-6 -86 h-88zM365 610l6 88h88l-6 -88h-88zM420 1268l8 88h88l-6 -88h-90zM438 -45l6 86h88l-6 -86h-88zM494 610l8 88h88l-6 -88h-90zM518 1528l6 88h88l-8 -88h-86zM551 1268l8 88h88l-6 -88h-90zM569 -45l9 86h86l-7 -86h-88zM612 1397l11 88h86l-7 -88h-90zM627 610l8 88h86 l-6 -88h-88zM684 1268l8 88h86l-8 -88h-86zM700 -45l9 86h86l-7 -86h-88zM758 610l8 88h86l-8 -88h-86zM815 1268l8 88h86l-8 -88h-86zM831 -45l9 86h86l-8 -86h-87zM889 610l8 88h86l-8 -88h-86zM946 1268l8 88h86l-8 -88h-86z" />
<glyph unicode="&#xe9;" d="M186 86l9 86h86l-9 -86h-86zM199 217l8 88h86l-8 -88h-86zM211 348l6 88h88l-8 -88h-86zM221 481l8 86h86l-6 -86h-88zM244 741l10 88h86l-10 -88h-86zM256 872l8 89h86l-6 -89h-88zM268 1006l6 86h88l-8 -86h-86zM279 1137l8 86h86l-8 -86h-86zM307 -45l6 86h88l-6 -86 h-88zM365 610l6 88h88l-6 -88h-88zM420 1268l8 88h88l-6 -88h-90zM438 -45l6 86h88l-6 -86h-88zM494 610l8 88h88l-6 -88h-90zM504 1397l6 88h86l-6 -88h-86zM551 1268l8 88h88l-6 -88h-90zM569 -45l9 86h86l-7 -86h-88zM627 610l8 88h86l-6 -88h-88zM631 1528l6 88h88 l-8 -88h-86zM684 1268l8 88h86l-8 -88h-86zM700 -45l9 86h86l-7 -86h-88zM758 610l8 88h86l-8 -88h-86zM815 1268l8 88h86l-8 -88h-86zM831 -45l9 86h86l-8 -86h-87zM889 610l8 88h86l-8 -88h-86zM946 1268l8 88h86l-8 -88h-86z" />
<glyph unicode="&#xea;" d="M186 86l9 86h86l-9 -86h-86zM199 217l8 88h86l-8 -88h-86zM211 348l6 88h88l-8 -88h-86zM221 481l8 86h86l-6 -86h-88zM244 741l10 88h86l-10 -88h-86zM256 872l8 89h86l-6 -89h-88zM268 1006l6 86h88l-8 -86h-86zM279 1137l8 86h86l-8 -86h-86zM307 -45l6 86h88l-6 -86 h-88zM365 610l6 88h88l-6 -88h-88zM420 1268l8 88h88l-6 -88h-90zM438 -45l6 86h88l-6 -86h-88zM455 1397l6 88h86l-6 -88h-86zM494 610l8 88h88l-6 -88h-90zM551 1268l8 88h88l-6 -88h-90zM569 -45l9 86h86l-7 -86h-88zM582 1528l6 88h88l-8 -88h-86zM627 610l8 88h86 l-6 -88h-88zM676 1397l10 88h86l-6 -88h-90zM684 1268l8 88h86l-8 -88h-86zM700 -45l9 86h86l-7 -86h-88zM758 610l8 88h86l-8 -88h-86zM815 1268l8 88h86l-8 -88h-86zM831 -45l9 86h86l-8 -86h-87zM889 610l8 88h86l-8 -88h-86zM946 1268l8 88h86l-8 -88h-86z" />
<glyph unicode="&#xeb;" d="M186 86l9 86h86l-9 -86h-86zM199 217l8 88h86l-8 -88h-86zM211 348l6 88h88l-8 -88h-86zM221 481l8 86h86l-6 -86h-88zM244 741l10 88h86l-10 -88h-86zM256 872l8 89h86l-6 -89h-88zM268 1006l6 86h88l-8 -86h-86zM279 1137l8 86h86l-8 -86h-86zM307 -45l6 86h88l-6 -86 h-88zM365 610l6 88h88l-6 -88h-88zM420 1268l8 88h88l-6 -88h-90zM434 1536l6 88h88l-8 -88h-86zM438 -45l6 86h88l-6 -86h-88zM494 610l8 88h88l-6 -88h-90zM551 1268l8 88h88l-6 -88h-90zM569 -45l9 86h86l-7 -86h-88zM627 610l8 88h86l-6 -88h-88zM684 1268l8 88h86 l-8 -88h-86zM700 -45l9 86h86l-7 -86h-88zM700 1536l7 88h86l-7 -88h-86zM758 610l8 88h86l-8 -88h-86zM815 1268l8 88h86l-8 -88h-86zM831 -45l9 86h86l-8 -86h-87zM889 610l8 88h86l-8 -88h-86zM946 1268l8 88h86l-8 -88h-86z" />
<glyph unicode="&#xec;" d="M248 -45l8 86h88l-8 -86h-88zM362 1268l7 88h90l-8 -88h-89zM379 -45l6 86h90l-8 -86h-88zM494 1268l6 88h88l-6 -88h-88zM512 -45l6 86h86l-6 -86h-86zM518 1528l6 88h88l-8 -88h-86zM522 86l8 86h86l-8 -86h-86zM532 217l11 88h86l-8 -88h-89zM547 348l6 88h88l-8 -88 h-86zM557 481l8 86h86l-8 -86h-86zM569 610l6 88h87l-7 -88h-86zM580 741l8 88h88l-10 -88h-86zM592 872l8 89h86l-8 -89h-86zM604 1006l6 86h86l-6 -86h-86zM612 1397l11 88h86l-7 -88h-90zM614 1137l9 86h86l-9 -86h-86zM625 1268l8 88h86l-6 -88h-88zM641 -45l8 86h86 l-6 -86h-88zM756 1268l8 88h86l-6 -88h-88zM772 -45l8 86h86l-6 -86h-88zM887 1268l8 88h86l-8 -88h-86z" />
<glyph unicode="&#xed;" d="M248 -45l8 86h88l-8 -86h-88zM362 1268l7 88h90l-8 -88h-89zM379 -45l6 86h90l-8 -86h-88zM494 1268l6 88h88l-6 -88h-88zM504 1397l6 88h86l-6 -88h-86zM512 -45l6 86h86l-6 -86h-86zM522 86l8 86h86l-8 -86h-86zM532 217l11 88h86l-8 -88h-89zM547 348l6 88h88l-8 -88 h-86zM557 481l8 86h86l-8 -86h-86zM569 610l6 88h87l-7 -88h-86zM580 741l8 88h88l-10 -88h-86zM592 872l8 89h86l-8 -89h-86zM604 1006l6 86h86l-6 -86h-86zM614 1137l9 86h86l-9 -86h-86zM625 1268l8 88h86l-6 -88h-88zM631 1528l6 88h88l-8 -88h-86zM641 -45l8 86h86 l-6 -86h-88zM756 1268l8 88h86l-6 -88h-88zM772 -45l8 86h86l-6 -86h-88zM887 1268l8 88h86l-8 -88h-86z" />
<glyph unicode="&#xee;" d="M248 -45l8 86h88l-8 -86h-88zM362 1268l7 88h90l-8 -88h-89zM379 -45l6 86h90l-8 -86h-88zM475 1397l6 88h86l-6 -88h-86zM494 1268l6 88h88l-6 -88h-88zM512 -45l6 86h86l-6 -86h-86zM522 86l8 86h86l-8 -86h-86zM532 217l11 88h86l-8 -88h-89zM547 348l6 88h88l-8 -88 h-86zM557 481l8 86h86l-8 -86h-86zM569 610l6 88h87l-7 -88h-86zM580 741l8 88h88l-10 -88h-86zM592 872l8 89h86l-8 -89h-86zM602 1528l6 88h88l-8 -88h-86zM604 1006l6 86h86l-6 -86h-86zM614 1137l9 86h86l-9 -86h-86zM625 1268l8 88h86l-6 -88h-88zM641 -45l8 86h86 l-6 -86h-88zM696 1397l11 88h86l-7 -88h-90zM756 1268l8 88h86l-6 -88h-88zM772 -45l8 86h86l-6 -86h-88zM887 1268l8 88h86l-8 -88h-86z" />
<glyph unicode="&#xef;" d="M248 -45l8 86h88l-8 -86h-88zM362 1268l7 88h90l-8 -88h-89zM379 -45l6 86h90l-8 -86h-88zM434 1536l6 88h88l-8 -88h-86zM494 1268l6 88h88l-6 -88h-88zM512 -45l6 86h86l-6 -86h-86zM522 86l8 86h86l-8 -86h-86zM532 217l11 88h86l-8 -88h-89zM547 348l6 88h88l-8 -88 h-86zM557 481l8 86h86l-8 -86h-86zM569 610l6 88h87l-7 -88h-86zM580 741l8 88h88l-10 -88h-86zM592 872l8 89h86l-8 -89h-86zM604 1006l6 86h86l-6 -86h-86zM614 1137l9 86h86l-9 -86h-86zM625 1268l8 88h86l-6 -88h-88zM641 -45l8 86h86l-6 -86h-88zM700 1536l7 88h86 l-7 -88h-86zM756 1268l8 88h86l-6 -88h-88zM772 -45l8 86h86l-6 -86h-88zM887 1268l8 88h86l-8 -88h-86z" />
<glyph unicode="&#xf1;" d="M125 86l8 86h86l-6 -86h-88zM137 217l8 88h88l-10 -88h-86zM150 348l8 88h86l-8 -88h-86zM162 479l6 88h86l-6 -88h-86zM182 741l11 88h86l-9 -88h-88zM197 872l6 89h88l-8 -89h-86zM207 1006l8 86h86l-8 -86h-86zM217 1137l8 86h86l-6 -86h-88zM348 1137l8 86h88l-6 -86 h-90zM383 1006l6 86h86l-6 -86h-86zM391 1397l6 88h86l-6 -88h-86zM416 872l6 89h88l-8 -89h-86zM444 741l11 88h88l-11 -88h-88zM518 1528l6 88h88l-8 -88h-86zM612 1397l11 88h86l-7 -88h-90zM686 479l8 88h86l-8 -88h-86zM717 348l8 88h88l-6 -88h-90zM743 1528l7 88h88 l-9 -88h-86zM750 217l8 88h88l-8 -88h-88zM782 86l6 86h89l-9 -86h-86zM913 86l7 86h90l-9 -86h-88zM924 217l10 88h88l-10 -88h-88zM936 348l8 88h88l-6 -88h-90zM948 479l6 88h90l-8 -88h-88zM971 741l8 88h88l-8 -88h-88zM983 872l8 89h88l-8 -89h-88zM993 1006l8 86h89 l-7 -86h-90zM1006 1137l6 86h90l-8 -86h-88z" />
<glyph unicode="&#xf2;" d="M125 86l8 86h86l-6 -86h-88zM137 217l8 88h88l-10 -88h-86zM150 348l8 88h86l-8 -88h-86zM162 481l6 86h86l-6 -86h-86zM182 741l11 88h86l-9 -88h-88zM197 872l6 89h88l-8 -89h-86zM207 1006l8 86h86l-8 -86h-86zM217 1137l8 86h86l-6 -86h-88zM246 -45l8 86h88l-8 -86 h-88zM360 1268l7 88h90l-8 -88h-89zM377 -45l6 86h90l-8 -86h-88zM492 1268l6 88h88l-6 -88h-88zM510 -45l6 86h88l-8 -86h-86zM518 1528l6 88h88l-8 -88h-86zM612 1397l11 88h86l-7 -88h-90zM623 1268l8 88h86l-6 -88h-88zM641 -45l6 86h86l-6 -86h-86zM754 1268l8 88h86 l-6 -88h-88zM770 -45l8 86h86l-6 -86h-88zM885 1268l8 88h86l-6 -88h-88zM913 86l7 86h90l-9 -86h-88zM924 217l10 88h88l-10 -88h-88zM936 348l8 88h88l-6 -88h-90zM948 481l6 86h90l-8 -86h-88zM971 741l8 88h88l-8 -88h-88zM983 872l8 89h88l-8 -89h-88zM993 1006l8 86 h89l-7 -86h-90zM1006 1137l6 86h90l-8 -86h-88z" />
<glyph unicode="&#xf3;" d="M125 86l8 86h86l-6 -86h-88zM137 217l8 88h88l-10 -88h-86zM150 348l8 88h86l-8 -88h-86zM162 481l6 86h86l-6 -86h-86zM182 741l11 88h86l-9 -88h-88zM197 872l6 89h88l-8 -89h-86zM207 1006l8 86h86l-8 -86h-86zM217 1137l8 86h86l-6 -86h-88zM246 -45l8 86h88l-8 -86 h-88zM360 1268l7 88h90l-8 -88h-89zM377 -45l6 86h90l-8 -86h-88zM492 1268l6 88h88l-6 -88h-88zM504 1397l6 88h86l-6 -88h-86zM510 -45l6 86h88l-8 -86h-86zM623 1268l8 88h86l-6 -88h-88zM631 1528l6 88h88l-8 -88h-86zM641 -45l6 86h86l-6 -86h-86zM754 1268l8 88h86 l-6 -88h-88zM770 -45l8 86h86l-6 -86h-88zM885 1268l8 88h86l-6 -88h-88zM913 86l7 86h90l-9 -86h-88zM924 217l10 88h88l-10 -88h-88zM936 348l8 88h88l-6 -88h-90zM948 481l6 86h90l-8 -86h-88zM971 741l8 88h88l-8 -88h-88zM983 872l8 89h88l-8 -89h-88zM993 1006l8 86 h89l-7 -86h-90zM1006 1137l6 86h90l-8 -86h-88z" />
<glyph unicode="&#xf4;" d="M125 86l8 86h86l-6 -86h-88zM137 217l8 88h88l-10 -88h-86zM150 348l8 88h86l-8 -88h-86zM162 481l6 86h86l-6 -86h-86zM182 741l11 88h86l-9 -88h-88zM197 872l6 89h88l-8 -89h-86zM207 1006l8 86h86l-8 -86h-86zM217 1137l8 86h86l-6 -86h-88zM246 -45l8 86h88l-8 -86 h-88zM360 1268l7 88h90l-8 -88h-89zM377 -45l6 86h90l-8 -86h-88zM455 1397l6 88h86l-6 -88h-86zM492 1268l6 88h88l-6 -88h-88zM510 -45l6 86h88l-8 -86h-86zM582 1528l6 88h88l-8 -88h-86zM623 1268l8 88h86l-6 -88h-88zM641 -45l6 86h86l-6 -86h-86zM676 1397l10 88h86 l-6 -88h-90zM754 1268l8 88h86l-6 -88h-88zM770 -45l8 86h86l-6 -86h-88zM885 1268l8 88h86l-6 -88h-88zM913 86l7 86h90l-9 -86h-88zM924 217l10 88h88l-10 -88h-88zM936 348l8 88h88l-6 -88h-90zM948 481l6 86h90l-8 -86h-88zM971 741l8 88h88l-8 -88h-88zM983 872l8 89 h88l-8 -89h-88zM993 1006l8 86h89l-7 -86h-90zM1006 1137l6 86h90l-8 -86h-88z" />
<glyph unicode="&#xf5;" d="M125 86l8 86h86l-6 -86h-88zM137 217l8 88h88l-10 -88h-86zM150 348l8 88h86l-8 -88h-86zM162 481l6 86h86l-6 -86h-86zM182 741l11 88h86l-9 -88h-88zM197 872l6 89h88l-8 -89h-86zM207 1006l8 86h86l-8 -86h-86zM217 1137l8 86h86l-6 -86h-88zM246 -45l8 86h88l-8 -86 h-88zM360 1268l7 88h90l-8 -88h-89zM377 -45l6 86h90l-8 -86h-88zM391 1397l6 88h86l-6 -88h-86zM492 1268l6 88h88l-6 -88h-88zM510 -45l6 86h88l-8 -86h-86zM518 1528l6 88h88l-8 -88h-86zM612 1397l11 88h86l-7 -88h-90zM623 1268l8 88h86l-6 -88h-88zM641 -45l6 86h86 l-6 -86h-86zM743 1528l7 88h88l-9 -88h-86zM754 1268l8 88h86l-6 -88h-88zM770 -45l8 86h86l-6 -86h-88zM885 1268l8 88h86l-6 -88h-88zM913 86l7 86h90l-9 -86h-88zM924 217l10 88h88l-10 -88h-88zM936 348l8 88h88l-6 -88h-90zM948 481l6 86h90l-8 -86h-88zM971 741l8 88 h88l-8 -88h-88zM983 872l8 89h88l-8 -89h-88zM993 1006l8 86h89l-7 -86h-90zM1006 1137l6 86h90l-8 -86h-88z" />
<glyph unicode="&#xf6;" d="M125 86l8 86h86l-6 -86h-88zM137 217l8 88h88l-10 -88h-86zM150 348l8 88h86l-8 -88h-86zM162 481l6 86h86l-6 -86h-86zM182 741l11 88h86l-9 -88h-88zM197 872l6 89h88l-8 -89h-86zM207 1006l8 86h86l-8 -86h-86zM217 1137l8 86h86l-6 -86h-88zM246 -45l8 86h88l-8 -86 h-88zM360 1268l7 88h90l-8 -88h-89zM377 -45l6 86h90l-8 -86h-88zM434 1536l6 88h88l-8 -88h-86zM492 1268l6 88h88l-6 -88h-88zM510 -45l6 86h88l-8 -86h-86zM623 1268l8 88h86l-6 -88h-88zM641 -45l6 86h86l-6 -86h-86zM700 1536l7 88h86l-7 -88h-86zM754 1268l8 88h86 l-6 -88h-88zM770 -45l8 86h86l-6 -86h-88zM885 1268l8 88h86l-6 -88h-88zM913 86l7 86h90l-9 -86h-88zM924 217l10 88h88l-10 -88h-88zM936 348l8 88h88l-6 -88h-90zM948 481l6 86h90l-8 -86h-88zM971 741l8 88h88l-8 -88h-88zM983 872l8 89h88l-8 -89h-88zM993 1006l8 86 h89l-7 -86h-90zM1006 1137l6 86h90l-8 -86h-88z" />
<glyph unicode="&#xf8;" d="M125 86l8 86h86l-6 -86h-88zM137 217l8 88h88l-10 -88h-86zM150 348l8 88h86l-8 -88h-86zM162 481l6 86h86l-6 -86h-86zM182 741l11 88h86l-9 -88h-88zM197 872l6 89h88l-8 -89h-86zM207 1006l8 86h86l-8 -86h-86zM217 1137l8 86h86l-6 -86h-88zM246 -45l8 86h88l-8 -86 h-88zM258 86l8 86h88l-6 -86h-90zM313 217l11 88h86l-9 -88h-88zM360 1268l7 88h90l-8 -88h-89zM371 348l8 88h86l-6 -88h-88zM377 -45l6 86h90l-8 -86h-88zM424 479l8 88h88l-6 -88h-90zM492 1268l6 88h88l-6 -88h-88zM510 -45l6 86h88l-8 -86h-86zM623 1268l8 88h86 l-6 -88h-88zM641 -45l6 86h86l-6 -86h-86zM711 741l8 88h88l-10 -88h-86zM754 1268l8 88h86l-6 -88h-88zM766 872l6 89h90l-8 -89h-88zM770 -45l8 86h86l-6 -86h-88zM821 1006l6 86h91l-9 -86h-88zM877 1137l6 86h88l-8 -86h-86zM885 1268l8 88h86l-6 -88h-88zM913 86l7 86 h90l-9 -86h-88zM924 217l10 88h88l-10 -88h-88zM936 348l8 88h88l-6 -88h-90zM948 481l6 86h90l-8 -86h-88zM971 741l8 88h88l-8 -88h-88zM983 872l8 89h88l-8 -89h-88zM993 1006l8 86h89l-7 -86h-90zM1006 1137l6 86h90l-8 -86h-88z" />
<glyph unicode="&#xf9;" d="M125 78l8 88h86l-6 -88h-88zM137 209l8 88h88l-10 -88h-86zM150 340l8 88h86l-8 -88h-86zM162 473l6 86h86l-6 -86h-86zM182 735l11 88h86l-9 -88h-88zM197 866l6 88h88l-8 -88h-86zM207 997l8 88h86l-8 -88h-86zM217 1128l8 89h86l-6 -89h-88zM246 -53l8 88h88l-8 -88 h-88zM377 -53l6 88h90l-8 -88h-88zM510 -53l6 88h88l-8 -88h-86zM518 1528l6 88h88l-8 -88h-86zM612 1397l11 88h86l-7 -88h-90zM641 -53l6 88h86l-6 -88h-86zM770 -53l8 88h86l-6 -88h-88zM913 78l7 88h90l-9 -88h-88zM924 209l10 88h88l-10 -88h-88zM936 340l8 88h88 l-6 -88h-90zM948 473l6 86h90l-8 -86h-88zM971 735l8 88h88l-8 -88h-88zM983 866l8 88h88l-8 -88h-88zM993 997l8 88h89l-7 -88h-90zM1006 1128l6 89h90l-8 -89h-88z" />
<glyph unicode="&#xfa;" d="M125 78l8 88h86l-6 -88h-88zM137 209l8 88h88l-10 -88h-86zM150 340l8 88h86l-8 -88h-86zM162 473l6 86h86l-6 -86h-86zM182 735l11 88h86l-9 -88h-88zM197 866l6 88h88l-8 -88h-86zM207 997l8 88h86l-8 -88h-86zM217 1128l8 89h86l-6 -89h-88zM246 -53l8 88h88l-8 -88 h-88zM377 -53l6 88h90l-8 -88h-88zM504 1397l6 88h86l-6 -88h-86zM510 -53l6 88h88l-8 -88h-86zM631 1528l6 88h88l-8 -88h-86zM641 -53l6 88h86l-6 -88h-86zM770 -53l8 88h86l-6 -88h-88zM913 78l7 88h90l-9 -88h-88zM924 209l10 88h88l-10 -88h-88zM936 340l8 88h88 l-6 -88h-90zM948 473l6 86h90l-8 -86h-88zM971 735l8 88h88l-8 -88h-88zM983 866l8 88h88l-8 -88h-88zM993 997l8 88h89l-7 -88h-90zM1006 1128l6 89h90l-8 -89h-88z" />
<glyph unicode="&#xfb;" d="M125 78l8 88h86l-6 -88h-88zM137 209l8 88h88l-10 -88h-86zM150 340l8 88h86l-8 -88h-86zM162 473l6 86h86l-6 -86h-86zM182 735l11 88h86l-9 -88h-88zM197 866l6 88h88l-8 -88h-86zM207 997l8 88h86l-8 -88h-86zM217 1128l8 89h86l-6 -89h-88zM246 -53l8 88h88l-8 -88 h-88zM377 -53l6 88h90l-8 -88h-88zM455 1397l6 88h86l-6 -88h-86zM510 -53l6 88h88l-8 -88h-86zM582 1528l6 88h88l-8 -88h-86zM641 -53l6 88h86l-6 -88h-86zM676 1397l10 88h86l-6 -88h-90zM770 -53l8 88h86l-6 -88h-88zM913 78l7 88h90l-9 -88h-88zM924 209l10 88h88 l-10 -88h-88zM936 340l8 88h88l-6 -88h-90zM948 473l6 86h90l-8 -86h-88zM971 735l8 88h88l-8 -88h-88zM983 866l8 88h88l-8 -88h-88zM993 997l8 88h89l-7 -88h-90zM1006 1128l6 89h90l-8 -89h-88z" />
<glyph unicode="&#xfc;" d="M125 78l8 88h86l-6 -88h-88zM137 209l8 88h88l-10 -88h-86zM150 340l8 88h86l-8 -88h-86zM162 473l6 86h86l-6 -86h-86zM182 735l11 88h86l-9 -88h-88zM197 866l6 88h88l-8 -88h-86zM207 997l8 88h86l-8 -88h-86zM217 1128l8 89h86l-6 -89h-88zM246 -53l8 88h88l-8 -88 h-88zM377 -53l6 88h90l-8 -88h-88zM434 1536l6 88h88l-8 -88h-86zM510 -53l6 88h88l-8 -88h-86zM641 -53l6 88h86l-6 -88h-86zM700 1536l7 88h86l-7 -88h-86zM770 -53l8 88h86l-6 -88h-88zM913 78l7 88h90l-9 -88h-88zM924 209l10 88h88l-10 -88h-88zM936 340l8 88h88 l-6 -88h-90zM948 473l6 86h90l-8 -86h-88zM971 735l8 88h88l-8 -88h-88zM983 866l8 88h88l-8 -88h-88zM993 997l8 88h89l-7 -88h-90zM1006 1128l6 89h90l-8 -89h-88z" />
<glyph unicode="&#xfd;" d="M156 735l8 88h88l-10 -88h-86zM168 866l8 88h86l-6 -88h-88zM180 997l6 88h88l-8 -88h-86zM190 1128l9 89h86l-9 -89h-86zM219 -53l6 88h88l-6 -88h-88zM274 604l9 86h88l-6 -86h-91zM348 -53l8 88h88l-6 -88h-90zM406 604l8 86h88l-6 -86h-90zM481 -53l8 88h86l-6 -88 h-88zM504 1397l6 88h86l-6 -88h-86zM539 604l8 86h86l-8 -86h-86zM612 -53l9 88h86l-9 -88h-86zM631 1528l6 88h88l-8 -88h-86zM670 604l8 86h86l-8 -86h-86zM743 -53l9 88h86l-9 -88h-86zM801 604l6 86h88l-8 -86h-86zM885 78l8 88h88l-8 -88h-88zM897 209l8 88h88l-8 -88 h-88zM909 340l9 88h88l-9 -88h-88zM920 473l8 86h88l-6 -86h-90zM942 735l10 88h88l-10 -88h-88zM954 866l9 88h88l-7 -88h-90zM967 997l6 88h90l-8 -88h-88zM977 1128l8 89h88l-8 -89h-88z" />
<glyph unicode="&#xff;" d="M156 735l8 88h88l-10 -88h-86zM168 866l8 88h86l-6 -88h-88zM180 997l6 88h88l-8 -88h-86zM190 1128l9 89h86l-9 -89h-86zM219 -53l6 88h88l-6 -88h-88zM274 604l9 86h88l-6 -86h-91zM348 -53l8 88h88l-6 -88h-90zM406 604l8 86h88l-6 -86h-90zM481 -53l8 88h86l-6 -88 h-88zM504 1536l6 88h88l-8 -88h-86zM539 604l8 86h86l-8 -86h-86zM612 -53l9 88h86l-9 -88h-86zM670 604l8 86h86l-8 -86h-86zM743 -53l9 88h86l-9 -88h-86zM770 1536l6 88h86l-6 -88h-86zM801 604l6 86h88l-8 -86h-86zM885 78l8 88h88l-8 -88h-88zM897 209l8 88h88l-8 -88 h-88zM909 340l9 88h88l-9 -88h-88zM920 473l8 86h88l-6 -86h-90zM942 735l10 88h88l-10 -88h-88zM954 866l9 88h88l-7 -88h-90zM967 997l6 88h90l-8 -88h-88zM977 1128l8 89h88l-8 -89h-88z" />
<glyph unicode="&#x152;" d="M51 86l8 86h86l-6 -86h-88zM63 217l9 88h88l-10 -88h-87zM76 348l8 88h86l-8 -88h-86zM88 481l6 86h86l-6 -86h-86zM109 741l10 88h86l-8 -88h-88zM123 872l6 89h88l-8 -89h-86zM133 1006l8 86h86l-8 -86h-86zM143 1137l9 86h86l-7 -86h-88zM172 -45l8 86h88l-8 -86h-88z M287 1268l6 88h90l-8 -88h-88zM303 -45l6 86h90l-8 -86h-88zM418 1268l6 88h88l-6 -88h-88zM434 -45l8 86h86l-6 -86h-88zM549 1268l8 88h86l-6 -88h-88zM578 86l6 86h90l-8 -86h-88zM588 217l10 88h88l-10 -88h-88zM600 348l8 88h88l-6 -88h-90zM612 481l6 86h91l-9 -86 h-88zM635 741l8 88h88l-8 -88h-88zM647 872l8 89h88l-8 -89h-88zM657 1006l9 86h88l-6 -86h-91zM670 1137l6 86h90l-8 -86h-88zM707 -45l6 86h88l-6 -86h-88zM764 610l6 88h88l-6 -88h-88zM819 1268l8 88h88l-6 -88h-90zM838 -45l6 86h88l-6 -86h-88zM893 610l8 88h88 l-6 -88h-90zM950 1268l8 88h89l-7 -88h-90zM969 -45l8 86h86l-6 -86h-88zM1026 610l8 88h86l-6 -88h-88zM1083 1268l9 88h86l-9 -88h-86z" />
<glyph unicode="&#x153;" d="M51 86l8 86h86l-6 -86h-88zM63 217l9 88h88l-10 -88h-87zM76 348l8 88h86l-8 -88h-86zM88 481l6 86h86l-6 -86h-86zM109 741l10 88h86l-8 -88h-88zM123 872l6 89h88l-8 -89h-86zM133 1006l8 86h86l-8 -86h-86zM143 1137l9 86h86l-7 -86h-88zM172 -45l8 86h88l-8 -86h-88z M287 1268l6 88h90l-8 -88h-88zM303 -45l6 86h90l-8 -86h-88zM418 1268l6 88h88l-6 -88h-88zM434 -45l8 86h86l-6 -86h-88zM549 1268l8 88h86l-6 -88h-88zM578 86l6 86h90l-8 -86h-88zM588 217l10 88h88l-10 -88h-88zM600 348l8 88h88l-6 -88h-90zM612 481l6 86h91l-9 -86 h-88zM635 741l8 88h88l-8 -88h-88zM647 872l8 89h88l-8 -89h-88zM657 1006l9 86h88l-6 -86h-91zM670 1137l6 86h90l-8 -86h-88zM707 -45l6 86h88l-6 -86h-88zM764 610l6 88h88l-6 -88h-88zM819 1268l8 88h88l-6 -88h-90zM838 -45l6 86h88l-6 -86h-88zM893 610l8 88h88 l-6 -88h-90zM950 1268l8 88h89l-7 -88h-90zM969 -45l8 86h86l-6 -86h-88zM1026 610l8 88h86l-6 -88h-88zM1083 1268l9 88h86l-9 -88h-86z" />
<glyph unicode="&#x178;" d="M156 735l8 88h88l-10 -88h-86zM168 866l8 88h86l-6 -88h-88zM180 997l6 88h88l-8 -88h-86zM190 1128l9 89h86l-9 -89h-86zM219 -53l6 88h88l-6 -88h-88zM274 604l9 86h88l-6 -86h-91zM348 -53l8 88h88l-6 -88h-90zM406 604l8 86h88l-6 -86h-90zM481 -53l8 88h86l-6 -88 h-88zM504 1536l6 88h88l-8 -88h-86zM539 604l8 86h86l-8 -86h-86zM612 -53l9 88h86l-9 -88h-86zM670 604l8 86h86l-8 -86h-86zM743 -53l9 88h86l-9 -88h-86zM770 1536l6 88h86l-6 -88h-86zM801 604l6 86h88l-8 -86h-86zM885 78l8 88h88l-8 -88h-88zM897 209l8 88h88l-8 -88 h-88zM909 340l9 88h88l-9 -88h-88zM920 473l8 86h88l-6 -86h-90zM942 735l10 88h88l-10 -88h-88zM954 866l9 88h88l-7 -88h-90zM967 997l6 88h90l-8 -88h-88zM977 1128l8 89h88l-8 -89h-88z" />
<glyph unicode="&#x2c6;" d="M455 1397l6 88h86l-6 -88h-86zM582 1528l6 88h88l-8 -88h-86zM676 1397l10 88h86l-6 -88h-90z" />
<glyph unicode="&#x2dc;" d="M391 1397l6 88h86l-6 -88h-86zM518 1528l6 88h88l-8 -88h-86zM612 1397l11 88h86l-7 -88h-90zM743 1528l7 88h88l-9 -88h-86z" />
<glyph unicode="&#x2000;" horiz-adv-x="872" />
<glyph unicode="&#x2001;" horiz-adv-x="1745" />
<glyph unicode="&#x2002;" horiz-adv-x="872" />
<glyph unicode="&#x2003;" horiz-adv-x="1745" />
<glyph unicode="&#x2004;" horiz-adv-x="581" />
<glyph unicode="&#x2005;" horiz-adv-x="436" />
<glyph unicode="&#x2006;" horiz-adv-x="290" />
<glyph unicode="&#x2007;" horiz-adv-x="290" />
<glyph unicode="&#x2008;" horiz-adv-x="218" />
<glyph unicode="&#x2009;" horiz-adv-x="349" />
<glyph unicode="&#x200a;" horiz-adv-x="96" />
<glyph unicode="&#x2010;" d="M305 610l6 88h90l-8 -88h-88zM436 610l6 88h90l-8 -88h-88zM569 610l6 88h87l-7 -88h-86zM698 610l9 88h86l-7 -88h-88zM829 610l9 88h86l-6 -88h-89z" />
<glyph unicode="&#x2011;" d="M305 610l6 88h90l-8 -88h-88zM436 610l6 88h90l-8 -88h-88zM569 610l6 88h87l-7 -88h-86zM698 610l9 88h86l-7 -88h-88zM829 610l9 88h86l-6 -88h-89z" />
<glyph unicode="&#x2012;" d="M305 610l6 88h90l-8 -88h-88zM436 610l6 88h90l-8 -88h-88zM569 610l6 88h87l-7 -88h-86zM698 610l9 88h86l-7 -88h-88zM829 610l9 88h86l-6 -88h-89z" />
<glyph unicode="&#x2013;" horiz-adv-x="1633" d="M305 610l10 88h149l-13 -88h-146zM522 610l10 88h149l-14 -88h-145zM742 610l10 88h144l-12 -88h-142zM955 610l15 88h142l-11 -88h-146zM1172 610l15 88h142l-10 -88h-147z" />
<glyph unicode="&#x2014;" horiz-adv-x="2657" d="M305 610l20 88h298l-27 -88h-291zM738 610l20 88h298l-26 -88h-292zM1178 610l20 88h288l-23 -88h-285zM1605 610l30 88h285l-24 -88h-291zM2039 610l29 88h285l-20 -88h-294z" />
<glyph unicode="&#x2018;" d="M551 778l8 88h86l-8 -88h-86zM563 909l6 88h88l-8 -88h-86zM709 1042l8 86h86l-8 -86h-86zM721 1174l6 86h86l-6 -86h-86z" />
<glyph unicode="&#x2019;" d="M446 1042l9 86h86l-9 -86h-86zM459 1174l6 86h86l-6 -86h-86zM551 778l8 88h86l-8 -88h-86zM563 909l6 88h88l-8 -88h-86z" />
<glyph unicode="&#x201c;" d="M246 1042l8 86h86l-8 -86h-86zM256 1174l8 86h86l-6 -86h-88zM344 778l10 88h86l-8 -88h-88zM358 909l7 88h88l-9 -88h-86zM823 1042l8 86h87l-9 -86h-86zM834 1174l8 86h86l-6 -86h-88zM926 778l10 88h86l-8 -88h-88zM940 909l6 88h88l-8 -88h-86z" />
<glyph unicode="&#x201d;" d="M221 778l10 88h86l-8 -88h-88zM236 909l6 88h88l-8 -88h-86zM373 1042l8 86h86l-8 -86h-86zM383 1174l8 86h86l-6 -86h-88zM799 778l10 88h86l-8 -88h-88zM813 909l6 88h88l-8 -88h-86zM950 1042l8 86h86l-8 -86h-86zM961 1174l8 86h86l-6 -86h-88z" />
<glyph unicode="&#x2026;" horiz-adv-x="3686" d="M567 -119l6 88h86l-6 -88h-86zM1796 -119l6 88h86l-6 -88h-86zM3025 -119l6 88h86l-6 -88h-86z" />
<glyph unicode="&#x202f;" horiz-adv-x="349" />
<glyph unicode="&#x205f;" horiz-adv-x="436" />
<glyph unicode="&#x25fc;" horiz-adv-x="1218" d="M0 0v1219h1219v-1219h-1219z" />
</font>
</defs>
</svg>
