<svg xmlns="http://www.w3.org/2000/svg" width="500" height="500" version="1.1" viewBox="0 0 500 500"><style>text{font-size:16px;font-weight:700;font-family:&quot;Courier New&quot;,Courier,monospace}</style><defs><pattern id="lines" width="3%" height="3%" viewBox="0 0 10 10"><line x1="0" x2="8" y1="8" y2="0" stroke="#353839" stroke-linecap="square" stroke-opacity=".3"/><line x1="8" x2="10" y1="10" y2="8" stroke="#353839" stroke-linecap="square" stroke-opacity=".3"/></pattern></defs><line x1="250" x2="250" y1="0" y2="500" stroke="#353839"/><line x1="0" x2="500" y1="250" y2="250" stroke="#353839"/><text x="500" y="250" fill="#353839" dx="-20" dy="20">z</text><text x="250" y="0" fill="#353839" dx="10" dy="20">y</text><text x="250" y="250" fill="#353839" dx="10" dy="20">O</text><g stroke="#353839" stroke-dasharray="3 3" stroke-width=".5"><line x1="50" x2="250" y1="150" y2="150"/><line x1="50" x2="250" y1="350" y2="350"/></g><text x="250" y="150" fill="#353839" dx="10" dy="-5">1</text><text x="250" y="350" fill="#353839" dx="10" dy="15">-1</text><line x1="50" x2="50" y1="150" y2="350" stroke="#1a4876" stroke-width="3"/><circle cx="50" cy="250" r="3" fill="#1a4876" stroke="none"/><text x="50" y="250" fill="#1a4876" dx="-20" dy="20">F</text><circle cx="250" cy="250" r="100" fill="none" stroke="#1a4876"/><line x1="250" x2="50" y1="250" y2="188.322" stroke="#1a4876" stroke-dasharray="3 3" stroke-width="1"/><line x1="250" x2="154" y1="250" y2="220.5" stroke="#1a4876" stroke-width="3"/><circle cx="50" cy="188.322" r="3" fill="#1a4876" stroke="none"/><text x="50" y="188.322" fill="#1a4876" dx="-10" dy="4" text-anchor="end">p</text><text x="165" y="250" fill="#1a4876" dx="0" dy="-8" text-anchor="middle">a</text><circle cx="250" cy="250" r="3" fill="#353839" stroke="none"/><path fill="none" stroke="#1a4876" d="M 178.33064753263136 227.89787528521111 A 75 75 0 0 0 175 250"/><path fill="none" stroke="#1a4876" d="M 181.1974216313261 228.78196027380267 A 72 72 0 0 0 178 250"/></svg>