<svg xmlns="http://www.w3.org/2000/svg" width="900" height="500" version="1.1" viewBox="0 0 900 500"><style>text{fill:#353839;font-size:16px;font-weight:700;font-family:&quot;Courier New&quot;,Courier,monospace}</style><defs><pattern id="lines" width="2%" height="2%" viewBox="0 0 10 10"><line x1="0" x2="8" y1="8" y2="0" stroke="#353839" stroke-linecap="square" stroke-opacity=".5"/><line x1="8" x2="10" y1="10" y2="8" stroke="#353839" stroke-linecap="square" stroke-opacity=".5"/></pattern></defs><circle cx="200" cy="250" r="150" fill="url(#lines)" stroke="none"/><line x1="200" x2="200" y1="0" y2="500" stroke="#353839"/><line x1="0" x2="900" y1="250" y2="250" stroke="#353839"/><text x="900" y="250" dx="-20" dy="20">z</text><text x="200" y="0" dx="-20" dy="20">y</text><circle cx="200" cy="250" r="3" fill="#353839" stroke="none"/><circle cx="200" cy="100" r="3" fill="#353839" stroke="none"/><line x1="200" x2="200" y1="250" y2="100" stroke="#353839" stroke-width="2"/><text x="200" y="100" dx="-20" dy="3">r</text><line x1="850" x2="275" y1="250" y2="120.096" stroke="#1a4876" stroke-width="2"/><circle cx="850" cy="250" r="3" fill="#1a4876" stroke="none"/><circle cx="850" cy="250" r="500" fill="none" stroke="#1a4876" stroke-width="1"/><line x1="850" x2="850" y1="180" y2="250" stroke="#1a4876" stroke-dasharray="4 4" stroke-width="1"/><text x="850" y="180" fill="#1a4876" dy="-10" text-anchor="middle">Q0</text><circle cx="362.291" cy="139.817" r="3" fill="#1a4876" stroke="none"/><circle cx="362.291" cy="139.817" r="46.16" fill="none" stroke="#1a4876" stroke-width="1"/><line x1="362.291" x2="362.291" y1="69.817" y2="139.817" stroke="#1a4876" stroke-dasharray="4 4" stroke-width="1"/><text x="362.291" y="69.817" fill="#1a4876" dy="-10" text-anchor="middle">Q1</text><circle cx="317.266" cy="129.645" r="3" fill="#1a4876" stroke="none"/><circle cx="317.266" cy="129.645" r="18.038" fill="none" stroke="#1a4876" stroke-width="1"/><line x1="317.266" x2="317.266" y1="59.645" y2="129.645" stroke="#1a4876" stroke-dasharray="4 4" stroke-width="1"/><text x="317.266" y="59.645" fill="#1a4876" dy="-10" text-anchor="middle">Q2</text><circle cx="299.672" cy="125.67" r="3" fill="#1a4876" stroke="none"/><circle cx="299.672" cy="125.67" r="9.35" fill="none" stroke="#1a4876" stroke-width="1"/><line x1="299.672" x2="299.672" y1="125.67" y2="195.27" stroke="#1a4876" stroke-dasharray="4 4" stroke-width="1"/><text x="299.672" y="195.27" fill="#1a4876" dy="10" text-anchor="middle">Q3</text><circle cx="290.552" cy="123.609" r="3" fill="#1a4876" stroke="none"/><circle cx="290.552" cy="123.609" r="5.48" fill="none" stroke="#1a4876" stroke-width="1"/><line x1="290.552" x2="290.552" y1="53.6" y2="123.609" stroke="#1a4876" stroke-dasharray="4 4" stroke-width="1"/><text x="290.552" y="53.609" fill="#1a4876" dy="-10" text-anchor="middle">Q4</text><circle cx="275" cy="120.096" r="3" fill="#1a4876" stroke="none"/><text x="275" y="120.096" fill="#1a4876" dy="-10" text-anchor="middle">Q</text></svg>